<?xml version="1.0" encoding="utf-8"?>
<!-- Generator: Adobe Illustrator 25.0.0, SVG Export Plug-In . SVG Version: 6.00 Build 0)  -->
<svg version="1.1" id="Layer_1" xmlns="http://www.w3.org/2000/svg" xmlns:xlink="http://www.w3.org/1999/xlink" x="0px" y="0px"
	 viewBox="0 0 72.22 71.45" style="enable-background:new 0 0 72.22 71.45;" xml:space="preserve">
<style type="text/css">
	.st0{fill:#262F3E;}
	.st1{fill-rule:evenodd;clip-rule:evenodd;fill:#F8991D;}
	.st2{fill-rule:evenodd;clip-rule:evenodd;fill:#17A0DB;}
	.st3{fill-rule:evenodd;clip-rule:evenodd;fill:#FFFFFF;}
	.st4{fill:#424143;}
	.st5{fill:#F05423;}
	.st6{fill-rule:evenodd;clip-rule:evenodd;fill:#010101;}
	.st7{fill:#010101;}
	.st8{fill-rule:evenodd;clip-rule:evenodd;fill:#74C050;}
	.st9{fill:#EEC919;}
	.st10{fill:#27B7EA;}
</style>
<g>
	<path class="st9" d="M24,56.9c0,2.28-1.86,4.35-4.35,4.35s-4.35-1.86-4.35-4.35V38.27c0-2.28,1.86-4.35,4.35-4.35
		S24,35.78,24,38.27V56.9z M36.42,61.87c0,2.28-1.86,4.35-4.35,4.35s-4.14-1.86-4.14-4.35V33.51c0-2.28,1.86-4.35,4.35-4.35
		s4.35,1.86,4.35,4.35v28.37L36.42,61.87z M11.37,52.76c0,2.28-1.86,4.35-4.35,4.35s-4.35-1.86-4.35-4.35V42.62
		c0-2.28,1.86-4.35,4.35-4.35s4.35,2.07,4.35,4.35V52.76z M48.85,66.43c0,2.28-1.86,4.35-4.35,4.35c-2.28,0-4.14-2.07-4.14-4.35
		V28.75c0-2.28,1.86-4.35,4.35-4.35c2.28,0,4.35,1.86,4.35,4.35v37.68H48.85z"/>
	<path class="st9" d="M62.51,64.57c-0.83,0-1.45-0.21-2.28-0.41l-5.18-1.66c-0.83-0.21-1.45-1.24-1.04-2.07
		c0.21-0.83,1.24-1.45,2.07-1.04l5.38,1.66c1.04,0.41,2.28,0.21,3.31-0.62c1.04-0.62,1.45-1.86,1.45-2.9V22.95
		c0-1.66-1.04-3.11-2.48-3.52L13.02,4.11c-1.04-0.41-2.28-0.21-3.31,0.41C8.88,5.35,8.26,6.38,8.26,7.63v23.81
		c0,1.04-0.83,1.66-1.66,1.66c-1.04,0-1.66-0.83-1.66-1.66V7.63c0-2.28,1.04-4.35,2.9-5.59C9.71,0.59,11.99,0.38,14.06,1
		l50.52,15.32c2.9,0.83,4.97,3.73,4.97,6.83v34.58c0,2.28-1.04,4.35-2.9,5.8C65.41,63.94,63.96,64.57,62.51,64.57"/>
</g>
</svg>
