<?xml version="1.0" encoding="utf-8"?>
<!-- Generator: Adobe Illustrator 25.0.0, SVG Export Plug-In . SVG Version: 6.00 Build 0)  -->
<svg version="1.1" id="Layer_1" xmlns="http://www.w3.org/2000/svg" xmlns:xlink="http://www.w3.org/1999/xlink" x="0px" y="0px"
	 viewBox="0 0 119.35 71.45" style="enable-background:new 0 0 119.35 71.45;" xml:space="preserve">
<style type="text/css">
	.st0{fill:#262F3E;}
	.st1{fill-rule:evenodd;clip-rule:evenodd;fill:#F8991D;}
	.st2{fill-rule:evenodd;clip-rule:evenodd;fill:#17A0DB;}
	.st3{fill-rule:evenodd;clip-rule:evenodd;fill:#FFFFFF;}
	.st4{fill:#424143;}
	.st5{fill:#F05423;}
	.st6{fill-rule:evenodd;clip-rule:evenodd;fill:#010101;}
	.st7{fill:#010101;}
	.st8{fill-rule:evenodd;clip-rule:evenodd;fill:#74C050;}
	.st9{fill:#EEC919;}
	.st10{fill:#27B7EA;}
</style>
<g>
	<path class="st0" d="M34.41,26.25c0,1.42,0.15,2.58,0.42,3.43c0.31,0.85,0.69,1.77,1.23,2.77c0.19,0.31,0.27,0.62,0.27,0.89
		c0,0.39-0.23,0.77-0.73,1.16l-2.43,1.62c-0.35,0.23-0.69,0.35-1,0.35c-0.39,0-0.77-0.19-1.16-0.54c-0.54-0.58-1-1.19-1.39-1.81
		c-0.39-0.65-0.77-1.39-1.19-2.27c-3,3.54-6.78,5.31-11.32,5.31c-3.23,0-5.81-0.92-7.7-2.77s-2.85-4.31-2.85-7.39
		c0-3.27,1.16-5.93,3.5-7.93s5.47-3,9.43-3c1.31,0,2.66,0.12,4.08,0.31c1.42,0.19,2.89,0.5,4.43,0.85v-2.81
		c0-2.93-0.62-4.97-1.81-6.16c-1.23-1.19-3.31-1.77-6.28-1.77c-1.35,0-2.73,0.15-4.16,0.5c-1.42,0.35-2.81,0.77-4.16,1.31
		c-0.62,0.27-1.08,0.42-1.35,0.5C10,8.84,9.8,8.88,9.65,8.88c-0.54,0-0.81-0.39-0.81-1.19V5.8c0-0.62,0.08-1.08,0.27-1.35
		c0.19-0.27,0.54-0.54,1.08-0.81c1.35-0.69,2.97-1.27,4.85-1.73c1.89-0.5,3.89-0.73,6.01-0.73c4.58,0,7.93,1.04,10.09,3.12
		c2.12,2.08,3.2,5.24,3.2,9.47v12.48H34.41z M18.78,32.1c1.27,0,2.58-0.23,3.97-0.69c1.39-0.46,2.62-1.31,3.66-2.46
		c0.62-0.73,1.08-1.54,1.31-2.46c0.23-0.92,0.39-2.04,0.39-3.35v-1.62c-1.12-0.27-2.31-0.5-3.54-0.65
		c-1.23-0.15-2.43-0.23-3.62-0.23c-2.58,0-4.47,0.5-5.74,1.54c-1.27,1.04-1.89,2.5-1.89,4.43c0,1.81,0.46,3.16,1.42,4.08
		C15.66,31.64,17,32.1,18.78,32.1z M49.7,36.26c-0.69,0-1.16-0.12-1.46-0.39c-0.31-0.23-0.58-0.77-0.81-1.5L38.38,4.61
		c-0.23-0.77-0.35-1.27-0.35-1.54c0-0.62,0.31-0.96,0.92-0.96h3.77c0.73,0,1.23,0.12,1.5,0.39c0.31,0.23,0.54,0.77,0.77,1.5
		l6.47,25.49l6.01-25.49c0.19-0.77,0.42-1.27,0.73-1.5c0.31-0.23,0.85-0.39,1.54-0.39h3.08c0.73,0,1.23,0.12,1.54,0.39
		c0.31,0.23,0.58,0.77,0.73,1.5l6.08,25.8l6.66-25.8c0.23-0.77,0.5-1.27,0.77-1.5c0.31-0.23,0.81-0.39,1.5-0.39h3.58
		c0.62,0,0.96,0.31,0.96,0.96c0,0.19-0.04,0.39-0.08,0.62c-0.04,0.23-0.12,0.54-0.27,0.96l-9.28,29.77c-0.23,0.77-0.5,1.27-0.81,1.5
		c-0.31,0.23-0.81,0.39-1.46,0.39h-3.31c-0.73,0-1.23-0.12-1.54-0.39c-0.31-0.27-0.58-0.77-0.73-1.54L61.21,9.54l-5.93,24.8
		c-0.19,0.77-0.42,1.27-0.73,1.54c-0.31,0.27-0.85,0.39-1.54,0.39H49.7z M99.18,37.3c-2,0-4-0.23-5.93-0.69
		c-1.93-0.46-3.43-0.96-4.43-1.54c-0.62-0.35-1.04-0.73-1.19-1.08c-0.15-0.35-0.23-0.73-0.23-1.08v-1.96c0-0.81,0.31-1.19,0.89-1.19
		c0.23,0,0.46,0.04,0.69,0.12c0.23,0.08,0.58,0.23,0.96,0.39c1.31,0.58,2.73,1.04,4.24,1.35c1.54,0.31,3.04,0.46,4.58,0.46
		c2.43,0,4.31-0.42,5.62-1.27c1.31-0.85,2-2.08,2-3.66c0-1.08-0.35-1.96-1.04-2.7c-0.69-0.73-2-1.39-3.89-2l-5.58-1.73
		c-2.81-0.89-4.89-2.2-6.16-3.93c-1.27-1.69-1.93-3.58-1.93-5.58c0-1.62,0.35-3.04,1.04-4.27c0.69-1.23,1.62-2.31,2.77-3.16
		c1.16-0.89,2.46-1.54,4-2c1.54-0.46,3.16-0.65,4.85-0.65c0.85,0,1.73,0.04,2.58,0.15c0.89,0.12,1.69,0.27,2.5,0.42
		c0.77,0.19,1.5,0.39,2.2,0.62c0.69,0.23,1.23,0.46,1.62,0.69c0.54,0.31,0.92,0.62,1.16,0.96c0.23,0.31,0.35,0.73,0.35,1.27v1.81
		c0,0.81-0.31,1.23-0.89,1.23c-0.31,0-0.81-0.15-1.46-0.46c-2.2-1-4.66-1.5-7.39-1.5c-2.2,0-3.93,0.35-5.12,1.08
		s-1.81,1.85-1.81,3.43c0,1.08,0.39,2,1.16,2.73c0.77,0.73,2.2,1.46,4.24,2.12l5.47,1.73c2.77,0.89,4.78,2.12,5.97,3.7
		c1.19,1.58,1.77,3.39,1.77,5.39c0,1.66-0.35,3.16-1,4.47c-0.69,1.31-1.62,2.46-2.81,3.39c-1.19,0.96-2.62,1.66-4.27,2.16
		C102.96,37.03,101.15,37.3,99.18,37.3z"/>
	<g>
		<path class="st1" d="M106.46,56.02c-12.67,9.36-31.08,14.33-46.9,14.33c-22.18,0-42.17-8.2-57.26-21.83
			c-1.19-1.08-0.12-2.54,1.31-1.69c16.33,9.47,36.47,15.21,57.3,15.21c14.06,0,29.5-2.93,43.71-8.93
			C106.73,52.13,108.54,54.48,106.46,56.02z"/>
		<path class="st1" d="M111.74,50.01c-1.62-2.08-10.71-1-14.83-0.5c-1.23,0.15-1.42-0.92-0.31-1.73c7.24-5.08,19.14-3.62,20.53-1.93
			c1.39,1.73-0.39,13.63-7.16,19.33c-1.04,0.89-2.04,0.42-1.58-0.73C109.93,60.64,113.36,52.05,111.74,50.01z"/>
	</g>
</g>
</svg>
