<?xml version="1.0" encoding="utf-8"?>
<!-- Generator: Adobe Illustrator 25.0.0, SVG Export Plug-In . SVG Version: 6.00 Build 0)  -->
<svg version="1.1" id="Layer_1" xmlns="http://www.w3.org/2000/svg" xmlns:xlink="http://www.w3.org/1999/xlink" x="0px" y="0px"
	 viewBox="0 0 250 250" style="enable-background:new 0 0 250 250;" xml:space="preserve">
<style type="text/css">
	.st0{opacity:0.3;fill:url(#SVGID_1_);}
	.st1{opacity:0.3;fill:url(#SVGID_2_);}
	.st2{fill:url(#SVGID_3_);}
	.st3{fill:url(#SVGID_4_);}
	.st4{fill:url(#SVGID_5_);}
	.st5{opacity:0.65;fill:#FFFFFF;}
	.st6{fill:url(#SVGID_6_);}
	.st7{fill:#FFFFFF;}
	.st8{fill:url(#SVGID_7_);}
	.st9{opacity:0.49;fill:#FFFFFF;}
	.st10{opacity:0.75;}
	.st11{opacity:0.76;fill:#FFFFFF;}
	.st12{fill:url(#SVGID_8_);}
	.st13{fill:url(#SVGID_9_);}
	.st14{fill:url(#SVGID_10_);}
	.st15{fill:url(#SVGID_11_);}
	.st16{clip-path:url(#SVGID_13_);fill:url(#SVGID_14_);}
	.st17{fill:url(#SVGID_15_);}
	.st18{fill:url(#SVGID_16_);}
	.st19{fill:url(#SVGID_17_);}
	.st20{fill:url(#SVGID_18_);}
	.st21{fill:url(#SVGID_19_);}
	.st22{fill:url(#SVGID_20_);}
	.st23{fill:url(#SVGID_21_);}
	.st24{opacity:0.9;}
	.st25{fill-rule:evenodd;clip-rule:evenodd;fill:#FFFFFF;}
	.st26{fill:url(#SVGID_22_);}
	.st27{fill:url(#SVGID_23_);}
	.st28{fill:url(#SVGID_24_);}
	.st29{fill:url(#SVGID_25_);}
	.st30{fill:url(#SVGID_26_);}
	.st31{fill:url(#SVGID_27_);}
	.st32{fill:url(#SVGID_28_);}
	.st33{fill:url(#SVGID_29_);}
	.st34{fill:url(#SVGID_30_);}
	.st35{fill:url(#SVGID_31_);}
	.st36{fill:url(#SVGID_32_);}
	.st37{fill:url(#SVGID_33_);}
	.st38{fill:url(#SVGID_34_);}
	.st39{fill:url(#SVGID_35_);}
	.st40{fill:url(#SVGID_36_);}
	.st41{fill:url(#SVGID_37_);}
	.st42{fill:url(#SVGID_38_);}
	.st43{fill:url(#SVGID_39_);}
	.st44{fill:url(#SVGID_40_);}
	.st45{fill:url(#SVGID_41_);}
	.st46{fill:url(#SVGID_42_);}
	.st47{fill:url(#SVGID_43_);}
	.st48{opacity:0.3;fill:url(#SVGID_44_);}
	.st49{fill:url(#SVGID_45_);}
	.st50{opacity:0.45;fill:#FFFFFF;}
	.st51{fill:url(#SVGID_46_);}
	.st52{fill:url(#SVGID_47_);}
	.st53{fill:url(#SVGID_48_);}
	.st54{fill:url(#SVGID_49_);}
	.st55{fill:url(#SVGID_50_);}
	.st56{fill:url(#SVGID_51_);}
	.st57{fill:url(#SVGID_52_);}
	.st58{fill:url(#SVGID_53_);}
	.st59{fill:url(#SVGID_54_);}
	.st60{opacity:0.21;fill:#FFFFFF;}
	.st61{opacity:0.69;fill:#FFFFFF;}
	.st62{fill:url(#SVGID_55_);}
	.st63{fill:url(#SVGID_56_);}
	.st64{fill:url(#SVGID_57_);}
	.st65{fill:url(#SVGID_58_);}
	.st66{fill:url(#SVGID_59_);}
	.st67{fill:url(#SVGID_60_);}
	.st68{fill:url(#SVGID_61_);}
	.st69{fill:url(#SVGID_62_);}
	.st70{fill:url(#SVGID_63_);}
	.st71{fill:url(#SVGID_64_);}
	.st72{fill:url(#SVGID_65_);}
	.st73{fill:url(#SVGID_66_);}
	.st74{fill:url(#SVGID_67_);}
	.st75{fill:url(#SVGID_68_);}
	.st76{fill:url(#SVGID_69_);}
	.st77{fill:url(#SVGID_70_);}
	.st78{fill:url(#SVGID_71_);}
	.st79{fill:url(#SVGID_72_);}
	.st80{fill:url(#SVGID_73_);}
	.st81{fill:url(#SVGID_74_);}
	.st82{fill:url(#SVGID_75_);}
	.st83{fill:url(#SVGID_76_);}
	.st84{fill:url(#SVGID_77_);}
	.st85{fill:url(#SVGID_78_);}
	.st86{fill:url(#SVGID_79_);}
	.st87{fill:#E78456;}
	.st88{fill:url(#SVGID_80_);}
	.st89{opacity:0.1;}
	.st90{fill:url(#SVGID_81_);}
	.st91{fill:url(#SVGID_82_);}
	.st92{fill:url(#SVGID_83_);}
	.st93{fill:url(#SVGID_84_);}
	.st94{fill:url(#SVGID_85_);}
	.st95{fill:url(#SVGID_86_);}
	.st96{fill:url(#SVGID_87_);}
	.st97{fill:url(#SVGID_88_);}
	.st98{fill:url(#SVGID_89_);}
	.st99{fill:url(#SVGID_90_);}
	.st100{fill:url(#SVGID_91_);}
	.st101{fill:url(#SVGID_92_);}
	.st102{fill:url(#SVGID_93_);}
	.st103{fill:url(#SVGID_94_);}
	.st104{fill:url(#SVGID_95_);}
	.st105{fill:url(#SVGID_96_);}
	.st106{fill:url(#SVGID_97_);}
	.st107{fill:url(#SVGID_98_);}
	.st108{fill:url(#SVGID_99_);}
	.st109{fill:#C5C0E0;}
	.st110{fill:#BBA9D2;}
	.st111{fill:#AE98C8;}
	.st112{fill:#827FBD;}
	.st113{fill:#9696CA;}
	.st114{opacity:0.1;fill:#4850A2;}
	.st115{fill:#4850A2;}
	.st116{fill:#FDBA43;}
	.st117{fill:#2E2563;}
	.st118{opacity:0.2;}
	.st119{opacity:0.2;fill:#FFFFFF;}
	.st120{fill:#F8A288;}
	.st121{fill:#231645;}
	.st122{fill:#3E469D;}
	.st123{fill:#C47B2A;}
	.st124{fill:#F2A321;}
	.st125{fill:#8988C2;}
</style>
<g>
	<linearGradient id="SVGID_1_" gradientUnits="userSpaceOnUse" x1="248.9206" y1="261.7972" x2="85.0897" y2="84.9638">
		<stop  offset="0" style="stop-color:#9A7FBA"/>
		<stop  offset="1" style="stop-color:#E09AC4"/>
	</linearGradient>
	<path class="st0" d="M226.09,161.03c-22.51,52.62-81.93,75.22-128.49,71.37c-12.71-1.05-38.29-3.17-58.26-22.06
		C0.98,174.07,6.89,98.25,43.6,53.62c4.73-5.75,37.46-44.26,88.46-43.74c37.34,0.38,63.55,21.47,66.73,24.1
		c4.03,3.32,12.91,11.21,20.91,23.72C238.5,87.1,240.16,128.15,226.09,161.03z"/>
	<g>
		<linearGradient id="SVGID_2_" gradientUnits="userSpaceOnUse" x1="131.5925" y1="242.2273" x2="129.236" y2="195.5699">
			<stop  offset="0" style="stop-color:#293882"/>
			<stop  offset="1" style="stop-color:#171042"/>
		</linearGradient>
		<polygon style="fill:url(#SVGID_2_);" points="106.66,189.52 101.66,224.04 159.69,224.04 152.13,189.52 		"/>
		<linearGradient id="SVGID_3_" gradientUnits="userSpaceOnUse" x1="9.1779" y1="133.8634" x2="240.8221" y2="133.8634">
			<stop  offset="0" style="stop-color:#293882"/>
			<stop  offset="1" style="stop-color:#171042"/>
		</linearGradient>
		<path class="st2" d="M9.18,79v102.74c0,8.45,6.74,15.36,15.18,15.58c37.53,0.97,168.77,3.31,204.49,2.79
			c6.14-0.09,11.11-5,11.29-11.14c0.69-23.87,1.81-81.26-2.33-107.91c-0.87-5.61-5.61-9.81-11.28-9.99
			c-31.44-1.01-170.57-4.2-206.28-3.4C14.09,67.81,9.18,72.84,9.18,79z"/>
		<linearGradient id="SVGID_4_" gradientUnits="userSpaceOnUse" x1="186.0776" y1="50.2559" x2="-124.9081" y2="445.4241">
			<stop  offset="0" style="stop-color:#F9EE4A"/>
			<stop  offset="1" style="stop-color:#DA3D66"/>
		</linearGradient>
		<path class="st3" d="M15.62,78.5v97.61c0,4.93,3.96,8.96,8.9,9.03l199.2,2.46c4.89,0.07,8.9-3.86,8.92-8.75l0.33-96.74
			c0.01-3.5-2.77-6.36-6.27-6.45L22.76,71.54C18.85,71.44,15.62,74.59,15.62,78.5z"/>
		<path class="st5" d="M234.14,191.6C234.14,191.6,234.13,191.6,234.14,191.6l-218.52-3.72c-0.15,0-0.27-0.13-0.27-0.28
			c0-0.15,0.13-0.27,0.28-0.27l218.51,3.72c0.15,0,0.27,0.13,0.27,0.28C234.41,191.48,234.29,191.6,234.14,191.6z"/>
		<path class="st5" d="M127.04,196.15c-1.41,0-2.55-1.14-2.55-2.55c0-1.41,1.14-2.55,2.55-2.55c1.41,0,2.55,1.14,2.55,2.55
			C129.59,195,128.44,196.15,127.04,196.15z M127.04,191.6c-1.1,0-2,0.9-2,2s0.9,2,2,2s2-0.9,2-2S128.14,191.6,127.04,191.6z"/>
		<linearGradient id="SVGID_5_" gradientUnits="userSpaceOnUse" x1="132.0147" y1="224.3764" x2="104.3081" y2="285.2104">
			<stop  offset="0" style="stop-color:#293882"/>
			<stop  offset="1" style="stop-color:#171042"/>
		</linearGradient>
		<path class="st4" d="M172.19,233.22H87.26c-2.31,0-4.04-1.64-3.59-3.41l1.09-4.31c0.33-1.3,1.75-2.25,3.45-2.3l81.88-2.55
			c1.77-0.06,3.34,0.88,3.72,2.23l1.96,6.87C176.28,231.53,174.53,233.22,172.19,233.22z"/>
		<path class="st7" d="M132.98,224.37c-0.15,0-0.27-0.12-0.28-0.27c0-0.15,0.12-0.28,0.27-0.28l3.51-0.05
			c0.15,0,0.28,0.12,0.28,0.27c0,0.15-0.12,0.28-0.27,0.28L132.98,224.37C132.98,224.37,132.98,224.37,132.98,224.37z"/>
		<path class="st7" d="M86.81,230.84c-0.01,0-0.03,0-0.04,0c-0.15-0.02-0.25-0.17-0.23-0.32l0.5-3.13c0.27-1.68,1.7-2.92,3.41-2.95
			l37.21-0.54c0,0,0,0,0,0c0.15,0,0.27,0.12,0.28,0.27c0,0.15-0.12,0.28-0.27,0.28l-37.21,0.54c-1.44,0.02-2.64,1.07-2.87,2.48
			l-0.5,3.13C87.06,230.75,86.94,230.84,86.81,230.84z"/>
		<g>
			<linearGradient id="SVGID_6_" gradientUnits="userSpaceOnUse" x1="227.5882" y1="-138.3658" x2="45.3098" y2="284.632">
				<stop  offset="0" style="stop-color:#66CDF3"/>
				<stop  offset="1" style="stop-color:#4A5AA8"/>
			</linearGradient>
			<path class="st6" d="M185.69,187.25L52.13,185.4V41.56c0-3.05,2.47-5.52,5.52-5.52h123c2.85,0,5.17,2.31,5.17,5.17L185.69,187.25
				z"/>
			<path class="st9" d="M181.41,187.22l-125.33-1.77V45.37c0-3.02,2.42-5.48,5.41-5.48h114.86c2.79,0,5.06,2.29,5.06,5.12V187.22z"
				/>
			<g class="st10">
				<path class="st11" d="M162.38,129.12H77.82c-4.85,0-8.78-3.93-8.78-8.78V88.5c0-4.85,3.93-8.78,8.78-8.78h84.56
					c4.85,0,8.78,3.93,8.78,8.78v31.84C171.16,125.19,167.23,129.12,162.38,129.12z"/>
				<path class="st11" d="M171.57,148.94H66.78c-2.41,0-4.37-1.96-4.37-4.37v-2.19c0-2.41,1.96-4.37,4.37-4.37h104.8
					c2.41,0,4.37,1.96,4.37,4.37v2.19C175.94,146.98,173.98,148.94,171.57,148.94z"/>
				<path class="st11" d="M170.25,167.06H67.65c-3.02,0-5.47-2.45-5.47-5.47v0c0-3.02,2.45-5.47,5.47-5.47h102.6
					c3.02,0,5.47,2.45,5.47,5.47v0C175.72,164.61,173.27,167.06,170.25,167.06z"/>
				<path class="st11" d="M170.51,183.97H67.91c-3.02,0-5.47-2.45-5.47-5.47v0c0-3.02,2.45-5.47,5.47-5.47h102.6
					c3.02,0,5.47,2.45,5.47,5.47v0C175.97,181.52,173.53,183.97,170.51,183.97z"/>
			</g>
		</g>
	</g>
	<g>
		<g>
			<linearGradient id="SVGID_7_" gradientUnits="userSpaceOnUse" x1="19.4727" y1="185.2117" x2="50.7897" y2="143.2011">
				<stop  offset="0" style="stop-color:#293882"/>
				<stop  offset="1" style="stop-color:#171042"/>
			</linearGradient>
			<path class="st8" d="M22.43,133.33c0,0,14.33,37.8,18.86,45.66c5.26,9.13,20.61,3.31,19.84-4.33
				c-0.76-7.64-18.7-39.21-18.7-39.21L22.43,133.33z"/>
			<linearGradient id="SVGID_8_" gradientUnits="userSpaceOnUse" x1="72.214" y1="83.6168" x2="129.218" y2="185.1422">
				<stop  offset="0" style="stop-color:#CB266E"/>
				<stop  offset="1" style="stop-color:#4C286E"/>
			</linearGradient>
			<polygon class="st12" points="41.8,105.8 130.88,74.92 129.94,158.5 39.36,138.29 			"/>
			<linearGradient id="SVGID_9_" gradientUnits="userSpaceOnUse" x1="256.1329" y1="72.639" x2="193.3127" y2="94.8763">
				<stop  offset="0" style="stop-color:#8D50A0"/>
				<stop  offset="1" style="stop-color:#EF4A7B"/>
			</linearGradient>
			<ellipse class="st13" cx="130.96" cy="116.95" rx="8.75" ry="42.95"/>
			<linearGradient id="SVGID_10_" gradientUnits="userSpaceOnUse" x1="74.9468" y1="187.4797" x2="152.8975" y2="90.1403">
				<stop  offset="0" style="stop-color:#CB266E"/>
				<stop  offset="1" style="stop-color:#4C286E"/>
			</linearGradient>
			<path class="st14" d="M131.62,156.96c-0.79-0.8-2.51-3.91-3.99-11.93c-1.43-7.76-2.21-17.81-2.21-28.32
				c0-10.51,0.79-20.57,2.21-28.32c1.48-8.03,3.2-11.13,3.99-11.93c0.79,0.8,2.51,3.91,3.99,11.93c1.43,7.76,2.21,17.81,2.21,28.32
				c0,10.51-0.79,20.57-2.21,28.32C134.14,153.06,132.41,156.16,131.62,156.96z"/>
			<g>
				<defs>
					<path id="SVGID_12_" d="M131.62,156.96c-0.79-0.8-2.51-3.91-3.99-11.93c-1.43-7.76-2.21-17.81-2.21-28.32
						c0-10.51,0.79-20.57,2.21-28.32c1.48-8.03,3.2-11.13,3.99-11.93c0.79,0.8,2.51,3.91,3.99,11.93
						c1.43,7.76,12.69,17.81,12.69,28.32c0,10.51-11.27,20.57-12.69,28.32C134.14,153.06,132.41,156.16,131.62,156.96z"/>
				</defs>
				<clipPath id="SVGID_11_">
					<use xlink:href="#SVGID_12_"  style="overflow:visible;"/>
				</clipPath>
				<linearGradient id="SVGID_13_" gradientUnits="userSpaceOnUse" x1="151.689" y1="104.2046" x2="105.3661" y2="131.2571">
					<stop  offset="0" style="stop-color:#293882"/>
					<stop  offset="1" style="stop-color:#171042"/>
				</linearGradient>
				<path style="clip-path:url(#SVGID_11_);fill:url(#SVGID_13_);" d="M142.84,116.39c0,7.3-3.93,13.21-11.71,13.21
					c-7.78,0-14.09-5.92-14.09-13.21c0-7.3,6.31-13.21,14.09-13.21C138.91,103.17,142.84,109.09,142.84,116.39z"/>
			</g>
			<linearGradient id="SVGID_14_" gradientUnits="userSpaceOnUse" x1="32.6609" y1="137.3563" x2="30.3693" y2="79.6871">
				<stop  offset="0" style="stop-color:#293882"/>
				<stop  offset="1" style="stop-color:#171042"/>
			</linearGradient>
			<path style="fill:url(#SVGID_14_);" d="M27.43,104c4.19-0.49,10.2-0.66,16.7,0.83c-2.14,11.18-1.82,22.84,0.66,34.9l-18.32,0
				c-2.92,0-5.41-2.12-5.87-5.01c-0.91-5.78-2.03-15.51-0.84-23.32C20.35,107.49,23.49,104.46,27.43,104z"/>
			<path class="st7" d="M38.43,112.57H24.15c-0.48,0-0.91-0.25-1.14-0.68c-0.23-0.43-0.21-0.92,0.05-1.33
				c0.11-0.17,0.34-0.22,0.51-0.11c0.17,0.11,0.22,0.34,0.11,0.51c-0.11,0.18-0.12,0.39-0.02,0.58c0.1,0.19,0.29,0.3,0.5,0.3h14.28
				c0.31,0,0.57-0.25,0.57-0.57v-1.02c0-0.31-0.25-0.57-0.57-0.57H24.04c-0.2,0-0.37-0.16-0.37-0.37c0-0.2,0.16-0.37,0.37-0.37
				h14.38c0.72,0,1.3,0.58,1.3,1.3v1.02C39.73,111.98,39.15,112.57,38.43,112.57z"/>
			<path class="st7" d="M37.15,118.89H22.88c-0.48,0-0.91-0.25-1.14-0.68c-0.23-0.43-0.21-0.92,0.05-1.33
				c0.11-0.17,0.34-0.22,0.51-0.11c0.17,0.11,0.22,0.34,0.11,0.51c-0.11,0.18-0.12,0.39-0.02,0.58c0.1,0.19,0.29,0.3,0.5,0.3h14.28
				c0.31,0,0.57-0.25,0.57-0.57v-1.02c0-0.31-0.25-0.57-0.57-0.57H22.77c-0.2,0-0.37-0.16-0.37-0.37c0-0.2,0.16-0.37,0.37-0.37
				h14.38c0.72,0,1.3,0.58,1.3,1.3v1.02C38.46,118.31,37.87,118.89,37.15,118.89z"/>
			<path class="st7" d="M54.74,103.54c-0.16,0-0.3-0.1-0.35-0.26c-0.06-0.19,0.05-0.4,0.24-0.46l67.47-21.47
				c0.19-0.06,0.4,0.05,0.46,0.24c0.06,0.19-0.05,0.4-0.24,0.46l-67.47,21.47C54.82,103.53,54.78,103.54,54.74,103.54z"/>
			<path class="st7" d="M45.62,107.27c-0.14,0-0.28-0.09-0.34-0.23c-0.08-0.19,0.01-0.4,0.2-0.48l3.47-1.42
				c0.19-0.08,0.4,0.01,0.48,0.2c0.08,0.19-0.01,0.4-0.2,0.48l-3.47,1.42C45.71,107.26,45.66,107.27,45.62,107.27z"/>
			<path class="st7" d="M38.43,126.3H24.15c-0.48,0-0.91-0.25-1.14-0.68c-0.23-0.43-0.21-0.92,0.05-1.33
				c0.11-0.17,0.34-0.22,0.51-0.11c0.17,0.11,0.22,0.34,0.11,0.51c-0.11,0.18-0.12,0.39-0.02,0.58c0.1,0.19,0.29,0.3,0.5,0.3h14.28
				c0.31,0,0.57-0.25,0.57-0.57v-1.02c0-0.31-0.25-0.57-0.57-0.57H24.04c-0.2,0-0.37-0.16-0.37-0.37c0-0.2,0.16-0.37,0.37-0.37
				h14.38c0.72,0,1.3,0.58,1.3,1.3v1.02C39.73,125.71,39.15,126.3,38.43,126.3z"/>
			<path class="st7" d="M39.76,134.52H25.49c-0.48,0-0.91-0.25-1.14-0.68c-0.23-0.43-0.21-0.92,0.05-1.33
				c0.11-0.17,0.34-0.22,0.51-0.11c0.17,0.11,0.22,0.34,0.11,0.51c-0.11,0.18-0.12,0.39-0.02,0.58c0.1,0.19,0.29,0.3,0.5,0.3h14.28
				c0.31,0,0.57-0.25,0.57-0.57v-1.02c0-0.31-0.25-0.57-0.57-0.57H25.38c-0.2,0-0.37-0.16-0.37-0.37c0-0.2,0.16-0.37,0.37-0.37
				h14.38c0.72,0,1.3,0.58,1.3,1.3v1.02C41.07,133.93,40.48,134.52,39.76,134.52z"/>
			<path class="st7" d="M52.52,179.21c-0.66,0-1.32-0.07-1.99-0.22c-2.9-0.63-5.27-2.55-6.48-5.25L32.64,148.4
				c-0.08-0.18,0-0.4,0.18-0.49c0.18-0.08,0.4,0,0.49,0.18l11.41,25.34c1.12,2.49,3.3,4.25,5.97,4.84c2.63,0.57,5.29-0.11,7.29-1.86
				c0.11-0.09,0.22-0.19,0.32-0.29c0.15-0.14,0.38-0.13,0.52,0.02c0.14,0.15,0.13,0.38-0.02,0.52c-0.11,0.1-0.22,0.2-0.34,0.3
				C56.79,178.43,54.69,179.21,52.52,179.21z"/>
			<path class="st7" d="M31.29,144.87c-0.14,0-0.27-0.08-0.33-0.22l-1.27-2.83c-0.08-0.18,0-0.4,0.18-0.49
				c0.18-0.08,0.4,0,0.49,0.18l1.27,2.83c0.08,0.18,0,0.4-0.18,0.49C31.39,144.86,31.34,144.87,31.29,144.87z"/>
			<path class="st7" d="M140.75,116.01c-0.19,0-0.35-0.15-0.37-0.34c-0.25-3.58-1.49-6.24-3.68-7.92c-3.79-2.91-9.19-1.91-9.25-1.9
				c-0.2,0.04-0.39-0.09-0.43-0.29c-0.04-0.2,0.09-0.39,0.29-0.43c0.23-0.05,5.79-1.07,9.83,2.04c2.36,1.82,3.7,4.66,3.97,8.45
				c0.01,0.2-0.14,0.38-0.34,0.39C140.77,116.01,140.76,116.01,140.75,116.01z"/>
		</g>
	</g>
	<g>
		<linearGradient id="SVGID_15_" gradientUnits="userSpaceOnUse" x1="92.8149" y1="76.7199" x2="123.6054" y2="-18.4509">
			<stop  offset="0" style="stop-color:#CB266E"/>
			<stop  offset="1" style="stop-color:#4C286E"/>
		</linearGradient>
		<path class="st17" d="M94.72,47.73h4.63c1.89,0,3.26,0.37,4.12,1.1c0.86,0.73,1.29,1.9,1.29,3.5c0,1.05-0.23,1.93-0.68,2.64
			c-0.46,0.71-1.08,1.14-1.86,1.29v0.12c1.03,0.26,1.77,0.74,2.22,1.44c0.46,0.7,0.68,1.64,0.68,2.81c0,1.65-0.44,2.94-1.32,3.87
			c-0.88,0.93-2.09,1.4-3.62,1.4h-5.46V47.73z M97.89,55.03h1.55c0.71,0,1.21-0.19,1.5-0.57c0.29-0.38,0.43-0.95,0.43-1.7
			c0-0.75-0.17-1.29-0.5-1.62c-0.33-0.33-0.85-0.49-1.56-0.49h-1.43V55.03z M97.89,57.85v5.08h1.7c0.7,0,1.23-0.22,1.57-0.65
			c0.34-0.43,0.52-1.1,0.52-2c0-1.62-0.71-2.43-2.14-2.43H97.89z"/>
		<linearGradient id="SVGID_16_" gradientUnits="userSpaceOnUse" x1="104.0188" y1="80.3447" x2="134.8094" y2="-14.8261">
			<stop  offset="0" style="stop-color:#CB266E"/>
			<stop  offset="1" style="stop-color:#4C286E"/>
		</linearGradient>
		<path class="st18" d="M107.61,65.88V47.73h3.38v15.2h4.68v2.96H107.61z"/>
		<linearGradient id="SVGID_17_" gradientUnits="userSpaceOnUse" x1="115.0142" y1="83.9021" x2="145.8047" y2="-11.2687">
			<stop  offset="0" style="stop-color:#CB266E"/>
			<stop  offset="1" style="stop-color:#4C286E"/>
		</linearGradient>
		<path class="st19" d="M130.32,56.78c0,3.01-0.56,5.31-1.69,6.93c-1.13,1.61-2.74,2.42-4.83,2.42c-2.1,0-3.72-0.81-4.84-2.42
			c-1.13-1.61-1.69-3.93-1.69-6.96c0-3.01,0.56-5.31,1.69-6.91c1.13-1.6,2.75-2.4,4.87-2.4c2.09,0,3.7,0.81,4.82,2.42
			C129.76,51.47,130.32,53.77,130.32,56.78z M120.72,56.78c0,2.07,0.26,3.65,0.78,4.73c0.52,1.08,1.29,1.63,2.3,1.63
			c2.04,0,3.05-2.12,3.05-6.36c0-4.24-1.01-6.36-3.03-6.36c-1.03,0-1.8,0.54-2.32,1.62C120.98,53.12,120.72,54.7,120.72,56.78z"/>
		<linearGradient id="SVGID_18_" gradientUnits="userSpaceOnUse" x1="128.9323" y1="88.4049" x2="159.7229" y2="-6.766">
			<stop  offset="0" style="stop-color:#CB266E"/>
			<stop  offset="1" style="stop-color:#4C286E"/>
		</linearGradient>
		<path class="st20" d="M138.45,55.81H144v9.31c-1.57,0.67-3.25,1.01-5.02,1.01c-2.11,0-3.74-0.8-4.87-2.41
			c-1.14-1.61-1.71-3.92-1.71-6.94c0-2.91,0.65-5.19,1.96-6.84c1.3-1.65,3.13-2.47,5.47-2.47c1.45,0,2.83,0.37,4.15,1.12l-1.07,2.76
			c-1.03-0.6-1.99-0.89-2.88-0.89c-1.28,0-2.3,0.57-3.05,1.72c-0.75,1.15-1.12,2.71-1.12,4.69c0,2.04,0.27,3.6,0.81,4.68
			c0.54,1.08,1.33,1.63,2.37,1.63c0.55,0,1.1-0.07,1.66-0.21v-4.16h-2.25V55.81z"/>
	</g>
	<g>
		<linearGradient id="SVGID_19_" gradientUnits="userSpaceOnUse" x1="178.9792" y1="59.7447" x2="150.428" y2="98.9326">
			<stop  offset="0" style="stop-color:#8D50A0"/>
			<stop  offset="1" style="stop-color:#EF4A7B"/>
		</linearGradient>
		<path class="st21" d="M176.74,94.27l-21.54,1.22c-1.8,0.1-3.35-1.26-3.48-3.06l-1.8-24.98c-0.14-1.91,1.38-3.54,3.3-3.54h23.33
			c1.83,0,3.3,1.48,3.3,3.3v23.76C179.86,92.72,178.49,94.17,176.74,94.27z"/>
		<g>
			<path class="st7" d="M164.89,92.51L164.89,92.51c-1.09,0-2.07-0.56-2.64-1.49c-3.18-5.25-6.96-12.16-6.96-15.28
				c0-4.88,4.31-8.86,9.6-8.86c5.29,0,9.6,3.97,9.6,8.86c0,3.13-3.79,10.03-6.96,15.28C166.96,91.96,165.97,92.51,164.89,92.51z
				 M164.89,68.12c-4.62,0-8.37,3.42-8.37,7.63c0,2.18,2.47,7.52,6.78,14.65c0.34,0.56,0.93,0.89,1.59,0.89
				c0.65,0,1.25-0.33,1.59-0.89c4.31-7.12,6.78-12.46,6.78-14.65C173.26,71.54,169.5,68.12,164.89,68.12z"/>
			<path class="st7" d="M164.14,81.93c-3.28,0-5.95-2.67-5.95-5.95c0-0.34,0.27-0.61,0.61-0.61c0.34,0,0.61,0.27,0.61,0.61
				c0,2.6,2.12,4.72,4.72,4.72c2.6,0,4.72-2.12,4.72-4.72c0-2.6-2.12-4.72-4.72-4.72c-1.51,0-2.89,0.69-3.79,1.9
				c-0.2,0.27-0.59,0.33-0.86,0.13c-0.27-0.2-0.33-0.59-0.13-0.86c1.12-1.5,2.9-2.4,4.77-2.4c3.28,0,5.95,2.67,5.95,5.95
				S167.42,81.93,164.14,81.93z"/>
		</g>
	</g>
	<g>
		<linearGradient id="SVGID_20_" gradientUnits="userSpaceOnUse" x1="239.2032" y1="67.6706" x2="199.4553" y2="109.3779">
			<stop  offset="0" style="stop-color:#8D50A0"/>
			<stop  offset="1" style="stop-color:#EF4A7B"/>
		</linearGradient>
		<path class="st22" d="M227.05,110.45l-26.27-0.43c-1.89-0.03-3.36-1.63-3.24-3.51l1.73-27.37c0.1-1.58,1.3-2.86,2.86-3.07
			l29.58-3.92c2.19-0.29,4.04,1.61,3.7,3.79l-5.04,31.72C230.11,109.29,228.69,110.48,227.05,110.45z"/>
		<g class="st24">
			<path class="st7" d="M215.06,103.14c-5.7,0-10.33-4.63-10.33-10.33c0-5.7,4.63-10.33,10.33-10.33s10.33,4.63,10.33,10.33
				C225.39,98.51,220.76,103.14,215.06,103.14z M215.06,84.21c-4.74,0-8.6,3.86-8.6,8.6s3.86,8.6,8.6,8.6c4.74,0,8.6-3.86,8.6-8.6
				S219.8,84.21,215.06,84.21z"/>
			<path class="st25" d="M211.83,96.79v-7.43c0-0.79,0.86-1.29,1.55-0.88l6.26,3.71c0.67,0.4,0.67,1.36,0,1.76l-6.26,3.71
				C212.69,98.08,211.83,97.58,211.83,96.79z"/>
		</g>
	</g>
	<g>
		<linearGradient id="SVGID_21_" gradientUnits="userSpaceOnUse" x1="167.8906" y1="116.6111" x2="147.1769" y2="156.079">
			<stop  offset="0" style="stop-color:#8D50A0"/>
			<stop  offset="1" style="stop-color:#EF4A7B"/>
		</linearGradient>
		<path class="st23" d="M164.75,149.85l-15.78,1.66c-1.95,0.21-3.65-1.32-3.65-3.29v-18.21c0-1.64,1.21-3.04,2.83-3.27l15.78-2.27
			c1.99-0.29,3.78,1.26,3.78,3.27v18.82C167.71,148.25,166.43,149.67,164.75,149.85z"/>
		<path class="st7" d="M155.24,143.81c-1.77,0-3.62-0.77-4.17-1.91c-0.62-1.31,0.62-2.24,1.02-2.49c1.2-0.77,2.27-1.04,3.18-0.79
			c0.94,0.26,1.33,0.98,1.37,1.06l-1.22,0.61l0.01,0.01c-0.01-0.01-0.16-0.28-0.54-0.37c-0.35-0.09-1-0.05-2.05,0.63
			c-0.45,0.29-0.62,0.54-0.52,0.75c0.35,0.74,2.53,1.49,4.13,0.95c0.53-0.18,1-1.73,0.55-5.53c-0.33-2.77-0.99-5.48-1-5.5
			c-0.06-0.25,0.02-0.51,0.22-0.68c0.19-0.17,0.47-0.21,0.71-0.12c0.16,0.07,4,1.65,5.04,4.65c0.47,1.36,0.3,2.77-0.51,4.2
			c-0.19,0.33-0.6,0.44-0.93,0.26c-0.33-0.19-0.44-0.6-0.26-0.93c0.61-1.08,0.75-2.09,0.41-3.07c-0.51-1.46-1.95-2.55-3.01-3.19
			c0.22,1.07,0.51,2.63,0.7,4.23c0.5,4.27,0.04,6.49-1.48,6.99C156.37,143.73,155.81,143.81,155.24,143.81z"/>
	</g>
	<g>
		<linearGradient id="SVGID_22_" gradientUnits="userSpaceOnUse" x1="220.6203" y1="32.7839" x2="186.7507" y2="71.692">
			<stop  offset="0" style="stop-color:#8D50A0"/>
			<stop  offset="1" style="stop-color:#EF4A7B"/>
		</linearGradient>
		<path class="st26" d="M215.14,68.06h-23.86c-1.83,0-3.3-1.48-3.3-3.3V40.83c0-1.72,1.32-3.16,3.04-3.29l25.43-2.06
			c2-0.16,3.69,1.49,3.57,3.49l-1.56,25.99C218.33,66.7,216.88,68.06,215.14,68.06z"/>
		<g>
			<path class="st7" d="M209.51,46.01c-1.74-1.71-4.46-1.2-6.33,0.37c-0.27,0.23-0.66,0.23-0.93,0.01c-1.9-1.54-4.61-2.01-6.32-0.26
				c-1.86,1.89-1.83,4.93,0.06,6.79l6.33,6.22c0.29,0.28,0.75,0.28,1.03-0.01l6.22-6.33C211.42,50.91,211.4,47.87,209.51,46.01z"/>
		</g>
	</g>
	<g>
		<linearGradient id="SVGID_23_" gradientUnits="userSpaceOnUse" x1="190.5789" y1="93.7478" x2="177.9828" y2="124.5385">
			<stop  offset="0" style="stop-color:#8D50A0"/>
			<stop  offset="1" style="stop-color:#EF4A7B"/>
		</linearGradient>
		<circle class="st27" cx="183.75" cy="110.45" r="12.32"/>
		<g>
			<path class="st7" d="M180.76,106.36c0-0.32-0.26-0.57-0.57-0.57h-2.09c-0.32,0-0.57,0.26-0.57,0.57v9.1
				c0,0.32,0.26,0.57,0.57,0.57h2.09c0.32,0,0.57-0.26,0.57-0.57V106.36z"/>
			<path class="st7" d="M187.82,105.78h-2.03v-2.45c0-0.8-0.47-1.32-1.27-1.32h-0.05c-0.8,0-1.44,0.59-1.44,1.38l-0.71,2.46
				c-0.32,0-0.84,0.23-0.84,0.54v9.43c0,0.32,0.79,0.74,1.11,0.74h0.45h4.79c1.19,0,2.11-1.14,2.11-2.33v-6.26
				C189.93,106.79,189.01,105.78,187.82,105.78z"/>
		</g>
	</g>
	<g>
		
			<linearGradient id="SVGID_24_" gradientUnits="userSpaceOnUse" x1="10096.3867" y1="182.9911" x2="10058.1045" y2="224.6315" gradientTransform="matrix(-1 9.500000e-03 9.500000e-03 1 10293.2578 -48.3222)">
			<stop  offset="0" style="stop-color:#293882"/>
			<stop  offset="1" style="stop-color:#171042"/>
		</linearGradient>
		<path class="st28" d="M210.74,233.57c0,0,0.42,2.24,0.63,4.46c0.08,0.87-0.58,1.63-1.45,1.67c-2.96,0.15-9.28,0.45-11.56,0.37
			c-0.34-0.01-0.57-0.36-0.44-0.68l0,0c0.1-0.27,0.31-0.48,0.56-0.61l10.41-4.9L210.74,233.57z"/>
		
			<linearGradient id="SVGID_25_" gradientUnits="userSpaceOnUse" x1="10083.9609" y1="186.0834" x2="10087.3613" y2="186.0834" gradientTransform="matrix(-1 9.500000e-03 9.500000e-03 1 10293.2578 -48.3222)">
			<stop  offset="0" style="stop-color:#F7B777"/>
			<stop  offset="1" style="stop-color:#F47960"/>
		</linearGradient>
		<path class="st29" d="M211.05,232.25l-0.29,2.69c0,0-1.82,0.87-3.08-0.08l0.73-3L211.05,232.25z"/>
		
			<linearGradient id="SVGID_26_" gradientUnits="userSpaceOnUse" x1="-7330.6738" y1="331.7201" x2="-7345.1665" y2="194.0403" gradientTransform="matrix(-1 0 0 1 -7131.2642 0)">
			<stop  offset="0" style="stop-color:#7E5DA7"/>
			<stop  offset="0.9964" style="stop-color:#2A3071"/>
		</linearGradient>
		<path class="st30" d="M210.33,181.78c0.14,0.7,1.07,34.98-2.45,50.38c-0.06,0.25,0.07,0.51,0.31,0.6
			c0.56,0.22,1.67,0.55,2.99,0.58c0.41,0.01,0.77-0.26,0.88-0.65c1.01-3.57,5.86-21.48,6.36-38.55c0.55-19.07-0.01-0.65-0.01-0.65
			l-0.54-11.78L210.33,181.78z"/>
		
			<linearGradient id="SVGID_27_" gradientUnits="userSpaceOnUse" x1="10087.7988" y1="175.0943" x2="10049.5156" y2="216.7365" gradientTransform="matrix(-1 9.500000e-03 9.500000e-03 1 10293.2578 -48.3222)">
			<stop  offset="0" style="stop-color:#293882"/>
			<stop  offset="1" style="stop-color:#171042"/>
		</linearGradient>
		<path class="st31" d="M222.78,234.63c0,0,0.64,1.13,1.28,4.13c0.12,0.54-0.26,1.07-0.81,1.13c-0.98,0.11-2.48,0.24-3.68,0.25
			c-0.56,0-0.99-0.48-0.93-1.03c0.12-1.1,0.52-2.91,1.79-4.33L222.78,234.63z"/>
		
			<linearGradient id="SVGID_28_" gradientUnits="userSpaceOnUse" x1="10071.7061" y1="185.9085" x2="10074.6416" y2="185.9085" gradientTransform="matrix(-1 9.500000e-03 9.500000e-03 1 10293.2578 -48.3222)">
			<stop  offset="0" style="stop-color:#F7B777"/>
			<stop  offset="1" style="stop-color:#F47960"/>
		</linearGradient>
		<path class="st32" d="M223.3,231.17l-0.71,4.07c0,0-0.73,0.55-2.19,0.17l0.31-4.37L223.3,231.17z"/>
		
			<linearGradient id="SVGID_29_" gradientUnits="userSpaceOnUse" x1="-7335" y1="332.1758" x2="-7349.4927" y2="194.4958" gradientTransform="matrix(-1 0 0 1 -7131.2642 0)">
			<stop  offset="0" style="stop-color:#7E5DA7"/>
			<stop  offset="0.9964" style="stop-color:#2A3071"/>
		</linearGradient>
		<path class="st33" d="M224.85,182.69c3.17,18.06-0.22,44.72-1.4,49.94c-0.07,0.32-0.33,0.57-0.65,0.62
			c-0.55,0.1-1.45,0.18-2.35-0.07c-0.31-0.09-0.53-0.36-0.54-0.68c-0.21-4.21-0.15-30.07-3.05-40.27c-0.15-0.52-0.47-0.97-0.91-1.27
			l-5.46-3.8l-0.48-6.23L224.85,182.69z"/>
		<g>
			
				<linearGradient id="SVGID_30_" gradientUnits="userSpaceOnUse" x1="-5556.9634" y1="100.3599" x2="-5596.7876" y2="182.1416" gradientTransform="matrix(-1 0 0 1 -5374.1694 0)">
				<stop  offset="0" style="stop-color:#66CDF3"/>
				<stop  offset="1" style="stop-color:#4A5AA8"/>
			</linearGradient>
			<path class="st34" d="M205.42,148.6c8.98-0.23,18.92,2.18,18.92,2.18c2.83,15.6,0.79,33.64,0.79,33.64
				c-6.94,1.89-14.81-0.97-14.81-0.97c-1.22-6.52-6.79-24.85-6.79-24.85c-4.39-0.5-8.02-1.73-11.01-3.38c2.25-2.65,3.28-6.01,3.73-8
				C199.43,148.17,202.65,148.67,205.42,148.6z"/>
			
				<linearGradient id="SVGID_31_" gradientUnits="userSpaceOnUse" x1="10097.958" y1="97.3681" x2="10115.3311" y2="97.3681" gradientTransform="matrix(-1 9.500000e-03 9.500000e-03 1 10293.2578 -48.3222)">
				<stop  offset="0" style="stop-color:#F7B777"/>
				<stop  offset="1" style="stop-color:#F47960"/>
			</linearGradient>
			<path class="st35" d="M178.76,135.62c0.87-1.07,1.99-0.58,1.99-0.58c1.38,5.57,8.35,10.03,15.49,12.18
				c-0.45,1.98-1.48,5.34-3.73,8C180.63,148.68,178.76,135.62,178.76,135.62z"/>
		</g>
		<g>
			
				<linearGradient id="SVGID_32_" gradientUnits="userSpaceOnUse" x1="-2854.7263" y1="93.5239" x2="-2843.0688" y2="120.0476" gradientTransform="matrix(1 -9.500000e-03 9.500000e-03 1 3036.5315 21.5492)">
				<stop  offset="0" style="stop-color:#F7B777"/>
				<stop  offset="1" style="stop-color:#F47960"/>
			</linearGradient>
			<path class="st36" d="M178.98,135.89c-0.09,0.29,0.98,0.73,1.6-0.48c0.02-0.58,0.34-3.04-0.01-3.51
				c-1.85-2.48-5.43-5.57-5.43-5.57c-0.59,0.6-0.09,1.17-0.09,1.17l1.74,1.78c-0.35,0.65-0.79,1.21-0.99,2
				c-0.15,0.6-0.05,1.23,0.26,1.77c0.31,0.54,0.73,1.25,1.12,1.8C177.93,135.89,178.98,135.89,178.98,135.89z"/>
			
				<linearGradient id="SVGID_33_" gradientUnits="userSpaceOnUse" x1="10115.248" y1="85.623" x2="10120.1123" y2="78.1441" gradientTransform="matrix(-1 9.500000e-03 9.500000e-03 1 10293.2578 -48.3222)">
				<stop  offset="0" style="stop-color:#F7B777"/>
				<stop  offset="1" style="stop-color:#F47960"/>
			</linearGradient>
			<path class="st37" d="M177.55,130.44l1.58,1.32l0.51,1.32l-1.38,1.57c0,0-0.5-2.62-0.85-3.19
				C177.05,130.89,177.22,130.61,177.55,130.44z"/>
		</g>
		
			<linearGradient id="SVGID_34_" gradientUnits="userSpaceOnUse" x1="-5569.2754" y1="94.3646" x2="-5609.0996" y2="176.1462" gradientTransform="matrix(-1 0 0 1 -5374.1694 0)">
			<stop  offset="0" style="stop-color:#66CDF3"/>
			<stop  offset="1" style="stop-color:#4A5AA8"/>
		</linearGradient>
		<path class="st38" d="M220.97,159.51l3.36-8.73c0,0,8.44,5.62,9.89,12.84c-1.58,0.13-4.47,0.57-7.28,2.02
			C226.3,162.23,220.97,159.51,220.97,159.51z"/>
		
			<linearGradient id="SVGID_35_" gradientUnits="userSpaceOnUse" x1="10059.9414" y1="121.9745" x2="10081.9268" y2="121.9745" gradientTransform="matrix(-1 9.500000e-03 9.500000e-03 1 10293.2578 -48.3222)">
			<stop  offset="0" style="stop-color:#F7B777"/>
			<stop  offset="1" style="stop-color:#F47960"/>
		</linearGradient>
		<path class="st39" d="M213.72,167.76c0,0,9.47,5.23,12.61,0.66c0.65-0.95,0.8-1.89,0.63-2.78c2.81-1.45,5.69-1.89,7.28-2.02
			c0.44,2.18,0.24,4.49-1.02,6.85c-5.47,10.24-20.72-0.37-20.72-0.37L213.72,167.76z"/>
		
			<linearGradient id="SVGID_36_" gradientUnits="userSpaceOnUse" x1="10076.8242" y1="98.4713" x2="10085.5166" y2="98.4713" gradientTransform="matrix(-1 9.500000e-03 9.500000e-03 1 10293.2578 -48.3222)">
			<stop  offset="0" style="stop-color:#F7B777"/>
			<stop  offset="1" style="stop-color:#F47960"/>
		</linearGradient>
		<path class="st40" d="M214.45,141.22l2.94,8.24c0.05,0.14-0.01,0.29-0.13,0.36c-0.77,0.44-3.57,1.71-6.97-0.4
			c-0.35-0.22-0.6-0.58-0.66-1l-0.99-7.14L214.45,141.22z"/>
		<g>
			
				<linearGradient id="SVGID_37_" gradientUnits="userSpaceOnUse" x1="1637.656" y1="4630.2866" x2="1634.4076" y2="4619.5732" gradientTransform="matrix(-0.7523 -0.6588 -0.6588 0.7523 4488.9976 -2264.0256)">
				<stop  offset="0" style="stop-color:#F7B777"/>
				<stop  offset="1" style="stop-color:#F47960"/>
			</linearGradient>
			<path class="st41" d="M208.16,133.62c0,0-3.08,5.94-2.66,8.32c0.43,2.38,4.31,2.17,7.69,0.2l2.31-6.4L208.16,133.62z"/>
			
				<linearGradient id="SVGID_38_" gradientUnits="userSpaceOnUse" x1="1634.7256" y1="4611.6196" x2="1637.4427" y2="4627.1177" gradientTransform="matrix(-0.7523 -0.6588 -0.6588 0.7523 4488.9976 -2264.0256)">
				<stop  offset="0" style="stop-color:#293882"/>
				<stop  offset="1" style="stop-color:#171042"/>
			</linearGradient>
			<path class="st42" d="M213.01,139.02c-0.14-0.06-0.19-0.23-0.11-0.36c0.25-0.39,0.71-1.17,0.86-1.86c0,0,0.56-0.37-1.44-0.83
				c-2-0.46-4.99-1.17-5.64-2.87c-0.63-1.65,0.94-5.84,3.53-2.54c0.1,0.13,0.29,0.13,0.39,0c0.41-0.55,1.51-1.7,3.05-1.02
				c1.44,0.63,1.61,1.68,1.6,2.21c0,0.16,0.14,0.28,0.29,0.25c0.72-0.15,2.46-0.28,3.29,1.5c0.68,1.46,0.26,2.3-0.14,2.71
				c-0.13,0.13-0.07,0.35,0.11,0.4c0.48,0.14,1.1,0.54,1.05,1.66c-0.07,1.55-1.8,1.43-2.29,1.36c-0.08-0.01-0.16,0.02-0.22,0.08
				c-0.42,0.47-2.3,2.47-4.35,2.73c-0.18,0.02-0.32-0.15-0.26-0.32l0.86-2.59c0.04-0.12-0.02-0.25-0.14-0.3L213.01,139.02z"/>
			
				<linearGradient id="SVGID_39_" gradientUnits="userSpaceOnUse" x1="1634.3354" y1="4630.2368" x2="1631.4128" y2="4620.5977" gradientTransform="matrix(-0.7523 -0.6588 -0.6588 0.7523 4488.9976 -2264.0256)">
				<stop  offset="0" style="stop-color:#F7B777"/>
				<stop  offset="1" style="stop-color:#F47960"/>
			</linearGradient>
			<path class="st43" d="M212.66,139.39c0,0,2.22-1.55,2.4-0.26c0.18,1.29-1.99,1.89-3.08,1.42L212.66,139.39z"/>
		</g>
		<g>
			<g>
				
					<linearGradient id="SVGID_40_" gradientUnits="userSpaceOnUse" x1="9803.2227" y1="155.2522" x2="9815.3535" y2="205.8" gradientTransform="matrix(-1 0 0 1 10009.8164 0)">
					<stop  offset="0" style="stop-color:#293882"/>
					<stop  offset="1" style="stop-color:#171042"/>
				</linearGradient>
				<path class="st44" d="M215.66,176.03l-5.16-18.02c-0.06-0.2-0.23-0.35-0.44-0.38c-0.93-0.11-3.64-0.42-6.77-0.68
					c-3.77-0.32-8.14-0.58-10.76-0.36c-0.37,0.03-0.6,0.42-0.43,0.76c1.49,3.01,7.6,15.24,10.66,19.25c0.1,0.13,0.26,0.21,0.43,0.21
					l11.97-0.11C215.5,176.7,215.75,176.37,215.66,176.03z"/>
				
					<linearGradient id="SVGID_41_" gradientUnits="userSpaceOnUse" x1="9794.9092" y1="168.6248" x2="9801.7832" y2="168.6248" gradientTransform="matrix(-1 0 0 1 10009.8164 0)">
					<stop  offset="0" style="stop-color:#F7B777"/>
					<stop  offset="1" style="stop-color:#F47960"/>
				</linearGradient>
				<path class="st45" d="M214.41,171.68c0,0,0.72-2.96,0.43-4c-0.29-1.05-0.85-2.4-2.72-2.1c-1.87,0.3-4.08,1.09-4.08,1.09
					s0.11,1.37,1.53,0.93l-0.88,0.68c0,0,0.13,1.09,1.33,0.51l-0.82,0.91c0,0,0.52,0.9,1.4,0.32
					C211.48,169.44,211.9,172.04,214.41,171.68z"/>
			</g>
			
				<linearGradient id="SVGID_42_" gradientUnits="userSpaceOnUse" x1="-722.7889" y1="160.6435" x2="-720.9759" y2="168.1978" gradientTransform="matrix(1 0 0 1 924.4936 0)">
				<stop  offset="0" style="stop-color:#66CDF3"/>
				<stop  offset="1" style="stop-color:#4A5AA8"/>
			</linearGradient>
			<path class="st46" d="M203.63,162.34c0,0.84-0.68,1.51-1.51,1.51c-0.84,0-1.51-0.68-1.51-1.51c0-0.84,0.68-1.51,1.51-1.51
				C202.95,160.82,203.63,161.5,203.63,162.34z"/>
			<path class="st7" d="M209.91,163.33l0.38-0.11l-1.05-3.56c-0.17-0.58-0.64-1.02-1.22-1.14c-3.33-0.69-12.1-0.84-12.47-0.84
				l-0.01,0.4c0.09,0,9.1,0.15,12.39,0.83c0.44,0.09,0.79,0.42,0.92,0.86L209.91,163.33z"/>
		</g>
	</g>
</g>
</svg>
