<?xml version="1.0" encoding="utf-8"?>
<!-- Generator: Adobe Illustrator 25.0.0, SVG Export Plug-In . SVG Version: 6.00 Build 0)  -->
<svg version="1.1" id="Layer_1" xmlns="http://www.w3.org/2000/svg" xmlns:xlink="http://www.w3.org/1999/xlink" x="0px" y="0px"
	 viewBox="0 0 119.35 71.45" style="enable-background:new 0 0 119.35 71.45;" xml:space="preserve">
<style type="text/css">
	.st0{fill:#262F3E;}
	.st1{fill-rule:evenodd;clip-rule:evenodd;fill:#F8991D;}
	.st2{fill-rule:evenodd;clip-rule:evenodd;fill:#17A0DB;}
	.st3{fill-rule:evenodd;clip-rule:evenodd;fill:#FFFFFF;}
	.st4{fill:#424143;}
	.st5{fill:#F05423;}
	.st6{fill-rule:evenodd;clip-rule:evenodd;fill:#010101;}
	.st7{fill:#010101;}
	.st8{fill-rule:evenodd;clip-rule:evenodd;fill:#74C050;}
	.st9{fill:#EEC919;}
	.st10{fill:#27B7EA;}
</style>
<g transform="matrix(1.04987 0 0 1.04987 137.132 99.4751)">
	<path class="st2" d="M-81.82-86.97c3.09-3.22,7.4-5.22,12.16-5.22c6.33,0,11.86,3.53,14.8,8.77c2.63-1.18,5.48-1.78,8.36-1.78
		c11.42,0,20.68,9.34,20.68,20.86s-9.26,20.86-20.68,20.86c-1.39,0-2.76-0.14-4.07-0.41c-2.59,4.62-7.53,7.74-13.19,7.74
		c-2.29,0-4.55-0.52-6.61-1.52c-2.63,6.18-8.74,10.51-15.87,10.51c-7.43,0-13.76-4.7-16.18-11.29c-1.08,0.23-2.19,0.34-3.29,0.34
		c-8.84,0-16.01-7.24-16.01-16.18c0-5.99,3.22-11.22,8.01-14.01c-1.01-2.33-1.54-4.85-1.53-7.4c0-10.27,8.34-18.6,18.63-18.6
		C-90.59-94.29-85.23-91.42-81.82-86.97"/>
	<g>
		<path class="st3" d="M-107.84-59.48c-0.06,0.16,0.02,0.19,0.04,0.22c0.18,0.13,0.36,0.22,0.55,0.33c0.98,0.52,1.9,0.67,2.87,0.67
			c1.97,0,3.19-1.05,3.19-2.73v-0.03c0-1.56-1.38-2.12-2.67-2.53l-0.17-0.05c-0.98-0.32-1.82-0.59-1.82-1.23v-0.03
			c0-0.55,0.49-0.95,1.25-0.95c0.85,0,1.85,0.28,2.5,0.64c0,0,0.19,0.12,0.26-0.06c0.04-0.1,0.37-0.98,0.4-1.08
			c0.04-0.1-0.03-0.18-0.1-0.22c-0.74-0.45-1.76-0.76-2.82-0.76l-0.2,0c-1.8,0-3.06,1.09-3.06,2.65v0.03c0,1.64,1.39,2.18,2.69,2.55
			l0.21,0.06c0.95,0.29,1.76,0.54,1.76,1.21v0.03c0,0.61-0.53,1.06-1.39,1.06c-0.33,0-1.39-0.01-2.53-0.73
			c-0.14-0.08-0.22-0.14-0.32-0.2c-0.06-0.03-0.2-0.1-0.26,0.09L-107.84-59.48z M-79.04-59.48c-0.06,0.16,0.02,0.19,0.04,0.22
			c0.18,0.13,0.36,0.22,0.55,0.33c0.98,0.52,1.9,0.67,2.87,0.67c1.97,0,3.19-1.05,3.19-2.73v-0.03c0-1.56-1.38-2.12-2.67-2.53
			l-0.17-0.05c-0.98-0.32-1.82-0.59-1.82-1.23v-0.03c0-0.55,0.49-0.95,1.25-0.95c0.85,0,1.85,0.28,2.5,0.64c0,0,0.19,0.12,0.26-0.06
			c0.04-0.1,0.37-0.98,0.4-1.08c0.04-0.1-0.03-0.18-0.1-0.22c-0.74-0.45-1.76-0.76-2.82-0.76l-0.2,0c-1.8,0-3.06,1.09-3.06,2.65
			v0.03c0,1.64,1.39,2.18,2.69,2.55l0.21,0.06c0.95,0.29,1.76,0.54,1.76,1.21v0.03c0,0.61-0.53,1.06-1.39,1.06
			c-0.33,0-1.39-0.01-2.53-0.73c-0.14-0.08-0.22-0.14-0.32-0.2c-0.04-0.02-0.2-0.09-0.26,0.09L-79.04-59.48z M-59.38-62.78
			c0,0.95-0.18,1.7-0.53,2.23c-0.35,0.53-0.87,0.78-1.6,0.78s-1.25-0.26-1.59-0.78c-0.34-0.53-0.52-1.28-0.52-2.23
			c0-0.95,0.17-1.7,0.52-2.22c0.34-0.52,0.86-0.77,1.59-0.77s1.25,0.25,1.6,0.77C-59.55-64.48-59.38-63.73-59.38-62.78
			 M-57.73-64.54c-0.16-0.55-0.41-1.03-0.75-1.43c-0.34-0.4-0.76-0.72-1.26-0.96c-0.5-0.23-1.09-0.35-1.76-0.35
			s-1.26,0.12-1.76,0.35c-0.5,0.23-0.93,0.56-1.26,0.96c-0.33,0.4-0.59,0.88-0.75,1.43c-0.16,0.54-0.24,1.14-0.24,1.76
			c0,0.63,0.08,1.22,0.24,1.76c0.16,0.54,0.41,1.02,0.75,1.43c0.34,0.4,0.76,0.72,1.26,0.95c0.5,0.23,1.09,0.34,1.76,0.34
			c0.67,0,1.26-0.12,1.76-0.34c0.5-0.23,0.93-0.55,1.26-0.95c0.33-0.4,0.59-0.88,0.75-1.43c0.16-0.54,0.24-1.14,0.24-1.76
			C-57.49-63.4-57.57-64-57.73-64.54 M-44.25-60.02c-0.05-0.16-0.21-0.1-0.21-0.1c-0.24,0.09-0.49,0.18-0.76,0.22
			c-0.27,0.04-0.58,0.06-0.9,0.06c-0.79,0-1.43-0.24-1.88-0.7c-0.45-0.47-0.71-1.22-0.71-2.25c0-0.93,0.23-1.63,0.63-2.16
			c0.4-0.53,1.01-0.8,1.82-0.8c0.68,0,1.19,0.08,1.74,0.25c0,0,0.13,0.06,0.19-0.11c0.14-0.4,0.25-0.68,0.4-1.12
			c0.04-0.13-0.06-0.18-0.1-0.19c-0.21-0.08-0.72-0.22-1.1-0.28c-0.35-0.05-0.77-0.08-1.23-0.08c-0.69,0-1.3,0.12-1.83,0.35
			c-0.52,0.23-0.97,0.56-1.32,0.96c-0.35,0.4-0.62,0.88-0.8,1.43c-0.18,0.54-0.27,1.14-0.27,1.77c0,1.36,0.37,2.46,1.09,3.27
			c0.73,0.81,1.82,1.22,3.24,1.22c0.84,0,1.7-0.17,2.33-0.41c0,0,0.12-0.06,0.07-0.2L-44.25-60.02z M-41.37-63.69
			c0.08-0.53,0.22-0.97,0.45-1.31c0.34-0.52,0.86-0.81,1.59-0.81c0.73,0,1.21,0.29,1.56,0.81c0.23,0.34,0.33,0.8,0.37,1.31
			L-41.37-63.69z M-35.84-64.85c-0.14-0.53-0.48-1.06-0.71-1.3c-0.36-0.39-0.71-0.66-1.06-0.8c-0.5-0.21-1.04-0.32-1.59-0.32
			c-0.69,0-1.32,0.12-1.84,0.36c-0.51,0.24-0.94,0.57-1.28,0.98c-0.34,0.41-0.59,0.89-0.75,1.44c-0.16,0.55-0.24,1.14-0.24,1.77
			c0,0.64,0.08,1.24,0.25,1.78c0.17,0.54,0.44,1.02,0.81,1.41c0.37,0.4,0.84,0.71,1.4,0.93c0.56,0.22,1.24,0.33,2.02,0.33
			c1.61-0.01,2.45-0.36,2.8-0.56c0.06-0.03,0.12-0.09,0.05-0.27l-0.36-1.02c-0.06-0.15-0.21-0.1-0.21-0.1
			c-0.4,0.15-0.96,0.41-2.28,0.41c-0.86,0-1.5-0.26-1.9-0.65c-0.41-0.41-0.61-1-0.65-1.85l5.56,0c0,0,0.15,0,0.16-0.14
			C-35.67-62.52-35.49-63.6-35.84-64.85L-35.84-64.85z M-85.9-63.69c0.08-0.53,0.22-0.97,0.45-1.31c0.34-0.52,0.86-0.81,1.59-0.81
			c0.73,0,1.21,0.29,1.56,0.81c0.23,0.34,0.33,0.8,0.37,1.31L-85.9-63.69z M-80.37-64.85c-0.14-0.53-0.48-1.06-0.71-1.3
			c-0.36-0.39-0.71-0.66-1.06-0.8c-0.5-0.21-1.04-0.32-1.59-0.32c-0.69,0-1.32,0.12-1.84,0.36c-0.51,0.24-0.94,0.57-1.28,0.98
			c-0.34,0.41-0.59,0.89-0.75,1.44c-0.16,0.55-0.24,1.14-0.24,1.77c0,0.64,0.08,1.24,0.25,1.78c0.17,0.54,0.44,1.02,0.8,1.41
			c0.37,0.4,0.84,0.71,1.4,0.93c0.56,0.22,1.24,0.33,2.02,0.33c1.61-0.01,2.45-0.36,2.8-0.56c0.06-0.03,0.12-0.09,0.05-0.27
			l-0.36-1.02c-0.06-0.15-0.21-0.1-0.21-0.1c-0.4,0.15-0.96,0.41-2.28,0.41c-0.86,0-1.5-0.26-1.9-0.65c-0.41-0.41-0.61-1-0.65-1.85
			l5.56,0c0,0,0.15,0,0.16-0.14C-80.2-62.52-80.01-63.6-80.37-64.85z M-97.92-60.05c-0.22-0.17-0.25-0.22-0.32-0.33
			c-0.11-0.17-0.17-0.41-0.17-0.72c0-0.49,0.16-0.84,0.5-1.08c0,0,0.48-0.42,1.61-0.4c0.51,0.01,1.01,0.05,1.51,0.13v2.53h0
			c0,0-0.71,0.15-1.5,0.2C-97.42-59.66-97.92-60.05-97.92-60.05L-97.92-60.05z M-95.7-63.96c-0.23-0.02-0.52-0.02-0.87-0.02
			c-0.48,0-0.94,0.06-1.37,0.18c-0.43,0.12-0.82,0.3-1.16,0.54c-0.34,0.24-0.61,0.55-0.81,0.92c-0.2,0.37-0.3,0.8-0.3,1.28
			c0,0.49,0.09,0.92,0.25,1.27c0.17,0.35,0.41,0.65,0.72,0.87c0.31,0.22,0.69,0.39,1.13,0.49c0.44,0.1,0.93,0.15,1.47,0.15
			c0.57,0,1.14-0.05,1.69-0.14c0.47-0.08,0.94-0.17,1.4-0.27c0.19-0.04,0.39-0.1,0.39-0.1c0.14-0.03,0.13-0.18,0.13-0.18l0-5.08
			c0-1.12-0.3-1.94-0.88-2.45c-0.58-0.51-1.44-0.77-2.55-0.77c-0.42,0-1.09,0.06-1.49,0.14c0,0-1.21,0.24-1.71,0.63
			c0,0-0.11,0.07-0.05,0.22l0.39,1.06c0.05,0.14,0.18,0.09,0.18,0.09s0.04-0.02,0.09-0.05c1.07-0.58,2.42-0.56,2.42-0.56
			c0.6,0,1.06,0.12,1.37,0.36c0.3,0.23,0.46,0.58,0.46,1.32v0.24C-95.26-63.92-95.7-63.96-95.7-63.96z M-50.86-66.82
			c0.01-0.02,0.01-0.04,0.01-0.06c0-0.06-0.04-0.12-0.1-0.14c-0.09-0.04-0.57-0.14-0.93-0.16c-0.7-0.04-1.09,0.07-1.43,0.23
			c-0.34,0.16-0.73,0.41-0.94,0.69l0-0.68c0-0.09-0.07-0.17-0.16-0.17h-1.43c-0.09,0-0.16,0.08-0.16,0.17v8.29
			c0,0.09,0.08,0.17,0.17,0.17h1.46c0.09,0,0.17-0.08,0.17-0.17v-4.14c0-0.56,0.06-1.11,0.18-1.46c0.12-0.35,0.28-0.62,0.49-0.82
			c0.19-0.19,0.43-0.33,0.69-0.41c0.24-0.07,0.49-0.11,0.75-0.11c0.29,0,0.61,0.07,0.61,0.07c0.11,0.01,0.17-0.05,0.2-0.15
			C-51.18-65.91-50.91-66.67-50.86-66.82"/>
		<path class="st3" d="M-64.57-70.66c-0.18-0.05-0.36-0.1-0.55-0.13c-0.25-0.04-0.5-0.06-0.76-0.06c-1.01,0-1.8,0.28-2.35,0.85
			c-0.55,0.56-0.93,1.41-1.12,2.52l-0.07,0.38h-1.26c0,0-0.15-0.01-0.19,0.16l-0.21,1.16c-0.01,0.11,0.03,0.18,0.18,0.18h1.23
			l-1.25,6.96c-0.1,0.56-0.21,1.02-0.33,1.37c-0.12,0.34-0.24,0.6-0.39,0.79c-0.14,0.18-0.28,0.32-0.51,0.39
			c-0.19,0.06-0.41,0.09-0.65,0.09c-0.13,0-0.31-0.02-0.45-0.05c-0.13-0.03-0.2-0.06-0.3-0.1c0,0-0.14-0.05-0.2,0.09
			c-0.05,0.12-0.37,1.02-0.41,1.13c-0.04,0.11,0.02,0.2,0.09,0.22c0.16,0.06,0.29,0.1,0.51,0.15c0.31,0.07,0.57,0.08,0.81,0.08
			c0.51,0,0.98-0.07,1.36-0.21c0.39-0.14,0.73-0.39,1.03-0.72c0.32-0.36,0.53-0.73,0.72-1.24c0.19-0.51,0.36-1.14,0.49-1.87
			l1.25-7.09h1.83c0,0,0.15,0.01,0.19-0.16l0.21-1.16c0.01-0.11-0.03-0.18-0.18-0.18h-1.78c0.01-0.04,0.09-0.67,0.29-1.25
			c0.09-0.25,0.25-0.45,0.39-0.59c0.13-0.13,0.29-0.23,0.47-0.29c0.19-0.06,0.39-0.09,0.6-0.09c0.17,0,0.33,0.02,0.46,0.05
			c0.17,0.04,0.24,0.06,0.28,0.07c0.18,0.06,0.21,0,0.24-0.09l0.43-1.17C-64.43-70.59-64.53-70.65-64.57-70.66 M-89.41-58.64
			c0,0.09-0.07,0.17-0.16,0.17h-1.47c-0.09,0-0.16-0.08-0.16-0.17V-70.5c0-0.09,0.07-0.17,0.16-0.17h1.47
			c0.09,0,0.16,0.08,0.16,0.17V-58.64z"/>
	</g>
</g>
</svg>
