<?xml version="1.0" encoding="utf-8"?>
<!-- Generator: Adobe Illustrator 25.0.0, SVG Export Plug-In . SVG Version: 6.00 Build 0)  -->
<svg version="1.1" id="Layer_1" xmlns="http://www.w3.org/2000/svg" xmlns:xlink="http://www.w3.org/1999/xlink" x="0px" y="0px"
	 viewBox="0 0 144.18 71.45" style="enable-background:new 0 0 144.18 71.45;" xml:space="preserve">
<style type="text/css">
	.st0{fill:#262F3E;}
	.st1{fill-rule:evenodd;clip-rule:evenodd;fill:#F8991D;}
	.st2{fill-rule:evenodd;clip-rule:evenodd;fill:#17A0DB;}
	.st3{fill-rule:evenodd;clip-rule:evenodd;fill:#FFFFFF;}
	.st4{fill:#424143;}
	.st5{fill:#F05423;}
	.st6{fill-rule:evenodd;clip-rule:evenodd;fill:#010101;}
	.st7{fill:#010101;}
	.st8{fill-rule:evenodd;clip-rule:evenodd;fill:#74C050;}
	.st9{fill:#EEC919;}
	.st10{fill:#27B7EA;}
</style>
<g>
	<path class="st10" d="M0-0.03v71.48h73.02l71.47-71.47L0-0.03L0-0.03z"/>
	<path class="st10" d="M92.48,64.14v5.33h0.8v-2.31h0.91l1.46,2.31h0.91L95,67.16c0.78-0.1,1.41-0.55,1.41-1.51
		c0-1.05-0.64-1.51-1.91-1.51L92.48,64.14z M93.29,64.84h1.11c0.54,0,1.16,0.09,1.16,0.75c0,0.83-0.62,0.91-1.31,0.91h-0.96V64.84z
		 M94.3,62.18c-2.55,0-4.73,1.97-4.73,4.63c0,2.68,2.17,4.68,4.73,4.68c2.52,0,4.63-2,4.63-4.68C98.92,64.14,96.81,62.18,94.3,62.18
		L94.3,62.18z M94.3,62.93c2.08,0,3.72,1.68,3.72,3.87c0,2.23-1.64,3.87-3.72,3.87c-2.12,0-3.82-1.64-3.82-3.87
		C90.47,64.61,92.18,62.93,94.3,62.93z"/>
	<path class="st3" d="M86.58,34.17h-3.13V22.71h3.13c4.18,0,7.51,1.38,7.51,5.65C94.08,32.78,90.76,34.17,86.58,34.17 M52.87,42.36
		c-1.66,0-3.21-0.3-4.56-0.81l4.51-14.23h0.1l4.42,14.27C56.01,42.06,54.49,42.36,52.87,42.36 M85.75,13.41H71.52v33.82L59.1,13.41
		H46.79L36.17,41.68c-1.12-7.13-8.5-9.59-14.31-11.43c-3.83-1.23-7.9-3.04-7.86-5.04c0.03-1.64,2.19-3.16,6.44-2.93
		c2.86,0.14,5.39,0.38,10.41,2.8l4.94-8.61c-4.58-2.34-10.92-3.81-16.11-3.82h-0.03c-6.05,0-11.1,1.97-14.22,5.2
		c-2.17,2.26-3.35,5.12-3.4,8.3c-0.08,4.36,1.52,7.45,4.88,9.92c2.84,2.08,6.47,3.42,9.67,4.43c3.95,1.22,7.18,2.28,7.14,4.55
		c-0.03,0.83-0.34,1.6-0.94,2.21c-0.98,1.02-2.49,1.4-4.58,1.45c-4.03,0.08-7.02-0.55-11.78-3.36l-4.39,8.73
		c4.75,2.7,10.36,4.28,16.1,4.28h0.74c4.99-0.1,9.02-1.52,12.24-4.11l0.52-0.46l-1.42,3.82h12.91l2.17-6.6
		c2.27,0.77,4.85,1.2,7.59,1.2c2.67,0,5.19-0.4,7.42-1.14l2.09,6.53h21.07V43.96h4.6c11.1,0,17.68-5.65,17.68-15.14
		c0-10.56-6.39-15.4-19.98-15.4"/>
</g>
</svg>
