<?xml version="1.0" encoding="utf-8"?>
<!-- Generator: Adobe Illustrator 25.0.0, SVG Export Plug-In . SVG Version: 6.00 Build 0)  -->
<svg version="1.1" id="Layer_1" xmlns="http://www.w3.org/2000/svg" xmlns:xlink="http://www.w3.org/1999/xlink" x="0px" y="0px"
	 viewBox="0 0 149.98 71.45" style="enable-background:new 0 0 149.98 71.45;" xml:space="preserve">
<style type="text/css">
	.st0{fill:#262F3E;}
	.st1{fill-rule:evenodd;clip-rule:evenodd;fill:#F8991D;}
	.st2{fill-rule:evenodd;clip-rule:evenodd;fill:#17A0DB;}
	.st3{fill-rule:evenodd;clip-rule:evenodd;fill:#FFFFFF;}
	.st4{fill:#424143;}
	.st5{fill:#F05423;}
	.st6{fill-rule:evenodd;clip-rule:evenodd;fill:#010101;}
	.st7{fill:#010101;}
	.st8{fill-rule:evenodd;clip-rule:evenodd;fill:#74C050;}
	.st9{fill:#EEC919;}
	.st10{fill:#27B7EA;}
</style>
<g>
	<g>
		<path class="st6" d="M59.91,11.63c-2.45-0.01-4.83,0.85-6.71,2.42v-2.17h-6.13v23.86h6.37V20.48c1.39-1.8,3.51-2.89,5.78-2.95
			c0.87-0.04,1.74,0.09,2.56,0.38v-6.12C61.16,11.68,60.53,11.63,59.91,11.63"/>
		<path class="st6" d="M4.36,28.45c1.82,1.54,4.13,2.38,6.51,2.36c1.71,0,3.04-0.84,3.04-2.02c0-3.59-11.52-2.31-11.52-9.99
			c0-4.57,4.41-7.43,9.11-7.43c2.86,0.01,5.65,0.85,8.04,2.42l-2.98,4.61c-1.32-1-2.91-1.56-4.56-1.62c-1.76,0-3.23,0.69-3.23,1.92
			c0,3.1,11.52,1.87,11.52,10.13c0,4.58-4.46,7.38-9.46,7.38c-3.44-0.03-6.78-1.15-9.56-3.19L4.36,28.45z"/>
		<path class="st6" d="M44.35,23.58c0-6.64-4.65-12.2-11.22-12.2c-7.06,0-11.57,5.8-11.57,12.45c-0.28,6.57,4.82,12.12,11.39,12.4
			c0.35,0.02,0.71,0.01,1.06,0c3.72,0.05,7.27-1.51,9.75-4.28l-3.63-3.64c-1.53,1.69-3.69,2.69-5.98,2.75
			c-3.3,0.11-6.11-2.37-6.42-5.65H44.2C44.3,24.8,44.35,24.19,44.35,23.58z M28.03,20.73c0.47-2.44,2.61-4.2,5.1-4.18
			c2.4,0,4.42,1.8,4.71,4.18H28.03z"/>
		<polygon class="st6" points="76.96,26.43 83.48,11.87 90.1,11.87 79.17,35.73 74.76,35.73 63.83,11.87 70.44,11.87 		"/>
		<path class="st6" d="M95.45,0.67c2.26,0.04,4.06,1.91,4.02,4.17c-0.04,2.26-1.91,4.06-4.17,4.02c-2.23-0.04-4.02-1.86-4.02-4.09
			c0-2.26,1.83-4.09,4.09-4.09C95.4,0.67,95.42,0.67,95.45,0.67"/>
		<rect x="92.26" y="11.87" class="st7" width="6.37" height="23.86"/>
		<path class="st6" d="M124.97,30.86c-2.45,3.5-6.51,5.52-10.79,5.36c-6.86,0.17-12.56-5.25-12.74-12.11
			c-0.17-6.86,5.25-12.56,12.11-12.74c0.23-0.01,0.45-0.01,0.68,0c3.89-0.03,7.57,1.73,10,4.77l-4.51,3.98
			c-1.27-1.77-3.31-2.82-5.49-2.85c-3.53-0.01-6.4,2.83-6.41,6.36c0,0.06,0,0.12,0,0.18c-0.11,3.47,2.61,6.38,6.08,6.49
			c0.16,0.01,0.32,0,0.48,0c2.3-0.05,4.43-1.22,5.68-3.15L124.97,30.86z"/>
		<path class="st6" d="M148.11,31.94c-2.48,2.77-6.04,4.33-9.75,4.28c-6.57,0.31-12.14-4.77-12.45-11.34
			c-0.02-0.35-0.02-0.71,0-1.06c0-6.64,4.51-12.45,11.57-12.45c6.57,0,11.22,5.56,11.22,12.2c0,0.61-0.05,1.22-0.15,1.82h-16.47
			c0.31,3.28,3.12,5.76,6.42,5.66c2.28-0.07,4.44-1.06,5.98-2.75L148.11,31.94z M142.18,20.73c-0.29-2.38-2.3-4.18-4.7-4.18
			c-2.48-0.01-4.63,1.74-5.1,4.18H142.18z"/>
	</g>
	<g>
		<path class="st6" d="M28.13,70.28V46.42h6.13v1.92c1.89-1.56,4.26-2.42,6.71-2.41c3.18-0.01,6.2,1.4,8.23,3.84
			c1.83,2.39,2.71,5.37,2.45,8.37v12.14h-6.37V57.63c0.18-1.63-0.34-3.25-1.42-4.48c-0.97-0.9-2.26-1.38-3.58-1.33
			c-2.27,0.07-4.4,1.15-5.78,2.95v15.5H28.13z"/>
		<path class="st8" d="M68.06,45.93c-7.7-0.02-13.96,6.22-13.98,13.92c-0.01,3.85,1.57,7.53,4.37,10.17
			c0.98,0.94,2.51,1.02,3.58,0.19c3.53-2.63,8.36-2.63,11.89,0c1.09,0.83,2.62,0.74,3.6-0.21c5.59-5.3,5.82-14.13,0.52-19.72
			C75.44,47.53,71.84,45.96,68.06,45.93 M67.98,66.84c-3.73,0.1-6.84-2.84-6.95-6.58c0-0.12,0-0.24,0-0.36
			c0-3.84,3.11-6.95,6.95-6.95s6.95,3.11,6.95,6.95c0.1,3.73-2.85,6.84-6.58,6.94C68.22,66.84,68.1,66.84,67.98,66.84"/>
		<polygon class="st6" points="94.48,70.28 89.73,70.28 80.27,46.42 86.63,46.42 91.82,60.05 96.91,46.42 102.22,46.42 
			107.26,60.05 112.49,46.42 118.86,46.42 109.4,70.28 104.65,70.28 99.56,56.69 		"/>
		<path class="st7" d="M118.93,67.58h-0.54v1.01h-0.46v-2.76h1.12c0.49,0,0.89,0.39,0.89,0.88c0,0,0,0,0,0.01
			c0,0.35-0.22,0.67-0.55,0.8l0.63,1.08h-0.5L118.93,67.58z M118.39,67.17h0.66c0.26,0,0.47-0.21,0.47-0.47
			c0-0.26-0.21-0.47-0.47-0.47h-0.65L118.39,67.17z"/>
		<path class="st7" d="M118.87,64.69c1.42,0,2.57,1.15,2.57,2.56s-1.15,2.57-2.56,2.57c-1.42,0-2.57-1.15-2.57-2.56c0,0,0,0,0,0
			C116.3,65.84,117.45,64.7,118.87,64.69 M118.87,64.29c-1.64,0-2.98,1.33-2.98,2.98s1.33,2.98,2.98,2.98
			c1.64,0,2.98-1.33,2.98-2.98C121.84,65.62,120.51,64.29,118.87,64.29L118.87,64.29z"/>
	</g>
</g>
</svg>
