<?xml version="1.0" encoding="utf-8"?>
<!-- Generator: Adobe Illustrator 25.0.0, SVG Export Plug-In . SVG Version: 6.00 Build 0)  -->
<svg version="1.1" id="Layer_1" xmlns="http://www.w3.org/2000/svg" xmlns:xlink="http://www.w3.org/1999/xlink" x="0px" y="0px"
	 viewBox="0 0 81 80" style="enable-background:new 0 0 81 80;" xml:space="preserve">
<style type="text/css">
	.st0{opacity:0.3;fill:url(#SVGID_1_);}
	.st1{fill:url(#SVGID_2_);}
	.st2{fill:url(#SVGID_3_);}
	.st3{fill:url(#SVGID_4_);}
	.st4{opacity:0.65;fill:#FFFFFF;}
	.st5{fill:url(#SVGID_5_);}
	.st6{fill:#FFFFFF;}
	.st7{fill:url(#SVGID_6_);}
	.st8{opacity:0.49;fill:#FFFFFF;}
	.st9{opacity:0.75;}
	.st10{opacity:0.76;fill:#FFFFFF;}
	.st11{fill:url(#SVGID_7_);}
	.st12{fill:url(#SVGID_8_);}
	.st13{fill:url(#SVGID_9_);}
	.st14{fill:url(#SVGID_10_);}
	.st15{clip-path:url(#SVGID_12_);fill:url(#SVGID_13_);}
	.st16{fill:url(#SVGID_14_);}
	.st17{fill:url(#SVGID_15_);}
	.st18{fill:url(#SVGID_16_);}
	.st19{fill:url(#SVGID_17_);}
	.st20{fill:url(#SVGID_18_);}
	.st21{fill:url(#SVGID_19_);}
	.st22{fill:url(#SVGID_20_);}
	.st23{opacity:0.9;}
	.st24{fill-rule:evenodd;clip-rule:evenodd;fill:#FFFFFF;}
	.st25{fill:url(#SVGID_21_);}
	.st26{fill:url(#SVGID_22_);}
	.st27{fill:url(#SVGID_23_);}
	.st28{fill:url(#SVGID_24_);}
	.st29{fill:url(#SVGID_25_);}
	.st30{fill:url(#SVGID_26_);}
	.st31{fill:url(#SVGID_27_);}
	.st32{fill:url(#SVGID_28_);}
	.st33{fill:url(#SVGID_29_);}
	.st34{fill:url(#SVGID_30_);}
	.st35{fill:url(#SVGID_31_);}
	.st36{fill:url(#SVGID_32_);}
	.st37{fill:url(#SVGID_33_);}
	.st38{fill:url(#SVGID_34_);}
	.st39{fill:url(#SVGID_35_);}
	.st40{fill:url(#SVGID_36_);}
	.st41{fill:url(#SVGID_37_);}
	.st42{fill:url(#SVGID_38_);}
	.st43{fill:url(#SVGID_39_);}
	.st44{fill:url(#SVGID_40_);}
	.st45{fill:url(#SVGID_41_);}
	.st46{fill:url(#SVGID_42_);}
	.st47{opacity:0.3;fill:url(#SVGID_43_);}
	.st48{fill:url(#SVGID_44_);}
	.st49{opacity:0.45;fill:#FFFFFF;}
	.st50{fill:url(#SVGID_45_);}
	.st51{fill:url(#SVGID_46_);}
	.st52{fill:url(#SVGID_47_);}
	.st53{fill:url(#SVGID_48_);}
	.st54{fill:url(#SVGID_49_);}
	.st55{fill:url(#SVGID_50_);}
	.st56{fill:url(#SVGID_51_);}
	.st57{fill:url(#SVGID_52_);}
	.st58{fill:url(#SVGID_53_);}
	.st59{opacity:0.21;fill:#FFFFFF;}
	.st60{opacity:0.69;fill:#FFFFFF;}
	.st61{fill:url(#SVGID_54_);}
	.st62{fill:url(#SVGID_55_);}
	.st63{fill:url(#SVGID_56_);}
	.st64{fill:url(#SVGID_57_);}
	.st65{fill:url(#SVGID_58_);}
	.st66{fill:url(#SVGID_59_);}
	.st67{fill:url(#SVGID_60_);}
	.st68{fill:url(#SVGID_61_);}
	.st69{fill:url(#SVGID_62_);}
	.st70{fill:url(#SVGID_63_);}
	.st71{fill:url(#SVGID_64_);}
	.st72{fill:url(#SVGID_65_);}
	.st73{fill:url(#SVGID_66_);}
	.st74{fill:url(#SVGID_67_);}
	.st75{fill:url(#SVGID_68_);}
	.st76{fill:url(#SVGID_69_);}
	.st77{fill:url(#SVGID_70_);}
	.st78{fill:url(#SVGID_71_);}
	.st79{fill:url(#SVGID_72_);}
	.st80{fill:url(#SVGID_73_);}
	.st81{fill:url(#SVGID_74_);}
	.st82{fill:url(#SVGID_75_);}
	.st83{fill:url(#SVGID_76_);}
	.st84{fill:url(#SVGID_77_);}
	.st85{fill:url(#SVGID_78_);}
	.st86{fill:#E78456;}
	.st87{opacity:0.3;fill:url(#SVGID_79_);}
	.st88{fill:url(#SVGID_80_);}
	.st89{opacity:0.1;}
	.st90{fill:url(#SVGID_81_);}
	.st91{fill:url(#SVGID_82_);}
	.st92{fill:url(#SVGID_83_);}
	.st93{fill:url(#SVGID_84_);}
	.st94{fill:url(#SVGID_85_);}
	.st95{fill:url(#SVGID_86_);}
	.st96{fill:url(#SVGID_87_);}
	.st97{fill:url(#SVGID_88_);}
	.st98{fill:url(#SVGID_89_);}
	.st99{fill:url(#SVGID_90_);}
	.st100{fill:url(#SVGID_91_);}
	.st101{fill:url(#SVGID_92_);}
	.st102{fill:url(#SVGID_93_);}
	.st103{fill:url(#SVGID_94_);}
	.st104{fill:url(#SVGID_95_);}
	.st105{fill:url(#SVGID_96_);}
	.st106{fill:url(#SVGID_97_);}
	.st107{fill:url(#SVGID_98_);}
	.st108{fill:url(#SVGID_99_);}
	.st109{fill:#C5C0E0;}
	.st110{fill:#BBA9D2;}
	.st111{fill:#AE98C8;}
	.st112{fill:#827FBD;}
	.st113{fill:#9696CA;}
	.st114{opacity:0.1;fill:#4850A2;}
	.st115{fill:#4850A2;}
	.st116{fill:#FDBA43;}
	.st117{fill:#2E2563;}
	.st118{opacity:0.2;}
	.st119{opacity:0.2;fill:#FFFFFF;}
	.st120{fill:#F8A288;}
	.st121{fill:#231645;}
	.st122{fill:#3E469D;}
	.st123{fill:#C47B2A;}
	.st124{fill:#F2A321;}
	.st125{fill:#8988C2;}
	.st126{opacity:0.26;fill:url(#SVGID_100_);}
	.st127{opacity:0.26;fill:url(#SVGID_101_);}
	.st128{opacity:0.53;}
	.st129{fill:url(#SVGID_102_);}
	.st130{opacity:0.86;fill:#FFFFFF;}
	.st131{opacity:0.88;}
	.st132{fill:url(#SVGID_103_);}
	.st133{opacity:0.48;fill:#FFFFFF;}
	.st134{opacity:0.37;}
	.st135{fill:url(#SVGID_104_);}
	.st136{opacity:0.79;}
	.st137{fill:url(#SVGID_105_);}
	.st138{fill:#E7F1FA;}
	.st139{fill:#A9CBE8;}
	.st140{fill:#143257;}
	.st141{fill:#F04F6C;}
	
		.st142{fill:none;stroke:#F04F6C;stroke-width:1.1276;stroke-linecap:round;stroke-linejoin:round;stroke-miterlimit:10;stroke-dasharray:0,5.6381;}
	.st143{fill:#4998D2;}
	.st144{fill:#223A73;}
	.st145{fill:#284D89;}
	.st146{fill:#3986C7;}
	.st147{fill:#282E5C;}
	.st148{fill:none;stroke:#FFFFFF;stroke-width:1.1276;stroke-miterlimit:10;}
	.st149{fill:#4998D2;stroke:#FFFFFF;stroke-width:1.1276;stroke-miterlimit:10;}
	.st150{fill:#4998D2;stroke:#FFFFFF;stroke-width:0.5638;stroke-miterlimit:10;}
	.st151{fill:none;stroke:#284D89;stroke-width:2.2552;stroke-linecap:round;stroke-linejoin:round;stroke-miterlimit:10;}
	.st152{fill:none;stroke:#F15E67;stroke-width:1.0152;stroke-miterlimit:10;}
	.st153{fill:none;stroke:#F7F7F7;stroke-width:0.2538;stroke-miterlimit:10;}
	.st154{fill:#F7F7F7;}
	.st155{fill:none;stroke:#F7F7F7;stroke-width:0.5076;stroke-miterlimit:10;}
	.st156{font-family:'BebasNeueRegular';}
	.st157{font-size:1.1891px;}
	.st158{fill:#28385E;}
	.st159{font-family:'BebasNeueBook';}
	.st160{fill:none;stroke:#4998D2;stroke-width:1.1276;stroke-miterlimit:10;}
	.st161{fill:#F9FCFD;}
	.st162{fill:none;stroke:#F04F6C;stroke-width:1.1276;stroke-miterlimit:10;}
	.st163{fill:#61CBE8;}
	.st164{fill:#387BBF;}
	.st165{fill:none;stroke:#4998D2;stroke-width:1.1276;stroke-linecap:round;stroke-linejoin:round;stroke-miterlimit:10;}
	.st166{opacity:0.26;fill:url(#SVGID_106_);}
	.st167{opacity:0.26;fill:url(#SVGID_107_);}
	.st168{fill:url(#SVGID_108_);}
	.st169{fill:url(#SVGID_109_);}
	.st170{fill:url(#SVGID_110_);}
	.st171{fill:url(#SVGID_111_);}
	.st172{opacity:0.56;fill:#FFFFFF;}
	.st173{fill:url(#SVGID_112_);}
	.st174{opacity:0.31;fill:#FFFFFF;}
	.st175{fill:url(#SVGID_113_);}
	.st176{fill:url(#SVGID_114_);}
	.st177{fill:url(#SVGID_115_);}
	.st178{fill:url(#SVGID_116_);}
	.st179{opacity:0.37;fill:#FFFFFF;}
	.st180{fill:url(#SVGID_117_);}
	.st181{fill:url(#SVGID_118_);}
	.st182{fill:url(#SVGID_119_);}
	.st183{fill:url(#SVGID_120_);}
	.st184{fill:url(#SVGID_121_);}
	.st185{fill:url(#SVGID_122_);}
	.st186{fill:url(#SVGID_123_);}
	.st187{fill:url(#SVGID_124_);}
	.st188{fill:url(#SVGID_125_);}
	.st189{fill:url(#SVGID_126_);}
	.st190{fill:url(#SVGID_127_);}
	.st191{fill:url(#SVGID_128_);}
	.st192{fill:url(#SVGID_129_);}
	.st193{fill:url(#SVGID_130_);}
	.st194{fill:url(#SVGID_131_);}
	.st195{fill:url(#SVGID_132_);}
	.st196{fill:url(#SVGID_133_);}
	.st197{fill:url(#SVGID_134_);}
	.st198{fill:url(#SVGID_135_);}
	.st199{fill:url(#SVGID_136_);}
	.st200{fill:url(#SVGID_137_);}
	.st201{fill:url(#SVGID_138_);}
	.st202{fill:url(#SVGID_139_);}
	.st203{fill:url(#SVGID_140_);}
	.st204{fill:url(#SVGID_141_);}
	.st205{fill:url(#SVGID_142_);}
	.st206{fill:url(#SVGID_143_);}
	.st207{fill:url(#SVGID_144_);}
	.st208{fill:url(#SVGID_145_);}
	.st209{opacity:0.64;}
	.st210{fill:url(#SVGID_146_);}
	.st211{fill:url(#SVGID_147_);}
	.st212{fill:url(#SVGID_148_);}
	.st213{fill:url(#SVGID_149_);}
	.st214{fill:url(#SVGID_150_);}
	.st215{fill:#D096C3;}
	.st216{fill:url(#SVGID_151_);}
	.st217{fill:url(#SVGID_152_);}
	.st218{fill:url(#SVGID_153_);}
	.st219{fill:url(#SVGID_154_);}
	.st220{fill:url(#SVGID_155_);}
	.st221{fill:url(#SVGID_156_);}
	.st222{fill:url(#SVGID_157_);}
	.st223{fill:url(#SVGID_158_);}
	.st224{fill:url(#SVGID_159_);}
	.st225{fill:url(#SVGID_160_);}
	.st226{fill:url(#SVGID_161_);}
	.st227{fill:url(#SVGID_162_);}
	.st228{fill:url(#SVGID_163_);}
	.st229{fill:url(#SVGID_164_);}
	.st230{fill:url(#SVGID_165_);}
	.st231{fill:url(#SVGID_166_);}
	.st232{fill:url(#SVGID_167_);}
	.st233{fill:url(#SVGID_168_);}
	.st234{fill:url(#SVGID_169_);}
	.st235{fill:url(#SVGID_170_);}
	.st236{fill:url(#SVGID_171_);}
	.st237{fill:url(#SVGID_172_);}
	.st238{fill:url(#SVGID_173_);}
	.st239{fill:url(#SVGID_174_);}
	.st240{fill:url(#SVGID_175_);}
	.st241{fill:url(#SVGID_176_);}
	.st242{fill:url(#SVGID_177_);}
	.st243{fill:url(#SVGID_178_);}
	.st244{fill:url(#SVGID_179_);}
	.st245{fill:url(#SVGID_180_);}
	.st246{fill:url(#SVGID_181_);}
	.st247{fill:url(#SVGID_182_);}
	.st248{fill:url(#SVGID_183_);}
	.st249{fill:url(#SVGID_184_);}
	.st250{fill:url(#SVGID_185_);}
	.st251{fill:url(#SVGID_186_);}
	.st252{fill:url(#SVGID_187_);}
	.st253{fill:url(#SVGID_188_);}
	.st254{fill:url(#SVGID_189_);}
	.st255{fill:url(#SVGID_190_);}
	.st256{fill:url(#SVGID_191_);}
	.st257{fill:url(#SVGID_192_);}
	.st258{fill:url(#SVGID_193_);}
	.st259{fill:url(#SVGID_194_);}
	.st260{fill:url(#SVGID_195_);}
	.st261{fill:url(#SVGID_196_);}
	.st262{fill:url(#SVGID_197_);}
	.st263{opacity:0.26;fill:url(#SVGID_198_);}
	.st264{opacity:0.26;fill:url(#SVGID_199_);}
	.st265{fill:url(#SVGID_200_);}
	.st266{fill:url(#SVGID_201_);}
	.st267{fill:url(#SVGID_202_);}
	.st268{fill:url(#SVGID_203_);}
	.st269{fill:url(#SVGID_204_);}
	.st270{fill:url(#SVGID_205_);}
	.st271{fill:url(#SVGID_206_);}
	.st272{fill:url(#SVGID_207_);}
	.st273{fill:url(#SVGID_208_);}
	.st274{opacity:0.3;fill:url(#SVGID_209_);}
	.st275{opacity:0.3;fill:url(#SVGID_210_);}
	.st276{fill:url(#SVGID_211_);}
	.st277{fill:url(#SVGID_212_);}
	.st278{opacity:0.3;fill:url(#SVGID_213_);}
	.st279{opacity:0.65;fill:url(#SVGID_214_);}
	.st280{fill:url(#SVGID_215_);}
	.st281{opacity:0.26;fill:#FFFFFF;}
	.st282{fill:url(#SVGID_216_);}
	.st283{fill:url(#SVGID_217_);}
	.st284{fill:url(#SVGID_218_);}
	.st285{fill:url(#SVGID_219_);}
	.st286{fill:url(#SVGID_220_);}
	.st287{fill:url(#SVGID_221_);}
	.st288{opacity:0.3;fill:url(#SVGID_222_);}
	.st289{fill:url(#SVGID_223_);}
	.st290{opacity:0.3;fill:url(#SVGID_224_);}
	.st291{fill:url(#SVGID_225_);}
	.st292{fill:#26274F;}
	.st293{opacity:0.3;fill:url(#SVGID_226_);}
	.st294{fill:url(#SVGID_227_);}
	.st295{fill:#B7C0CE;}
	.st296{fill:#D8DEE8;}
	.st297{fill:#BFC8D5;}
	.st298{fill:#EFF2F6;}
	.st299{opacity:0.47;fill:#D8DEE8;}
	.st300{fill:url(#SVGID_228_);}
	.st301{fill:url(#SVGID_229_);}
	.st302{fill:url(#SVGID_230_);}
	.st303{fill:url(#SVGID_231_);}
	.st304{fill:url(#SVGID_232_);}
	.st305{fill:url(#SVGID_233_);}
	.st306{fill:url(#SVGID_234_);}
	.st307{fill:url(#SVGID_235_);}
	.st308{fill:url(#SVGID_236_);}
	.st309{fill:url(#SVGID_237_);}
	.st310{opacity:0.3;fill:url(#SVGID_238_);}
	.st311{fill:url(#SVGID_239_);}
	.st312{fill:url(#SVGID_240_);}
	.st313{fill:url(#SVGID_241_);}
	.st314{opacity:0.3;fill:url(#SVGID_242_);}
	.st315{opacity:0.65;fill:url(#SVGID_243_);}
	.st316{fill:url(#SVGID_244_);}
	.st317{fill:url(#SVGID_245_);}
	.st318{fill:url(#SVGID_246_);}
	.st319{fill:url(#SVGID_247_);}
	.st320{fill:url(#SVGID_248_);}
	.st321{fill:url(#SVGID_249_);}
	.st322{fill:url(#SVGID_250_);}
	.st323{fill:url(#SVGID_251_);}
	.st324{fill:url(#SVGID_252_);}
	.st325{fill:url(#SVGID_253_);}
	.st326{fill:url(#SVGID_254_);}
	.st327{opacity:0.3;fill:url(#SVGID_255_);}
	.st328{fill:url(#SVGID_256_);}
	.st329{fill:url(#SVGID_257_);}
	.st330{fill:url(#SVGID_258_);}
	.st331{fill:url(#SVGID_259_);}
	.st332{fill:url(#SVGID_260_);}
	.st333{opacity:0.3;fill:url(#SVGID_261_);}
	.st334{opacity:0.65;fill:url(#SVGID_262_);}
	.st335{fill:url(#SVGID_263_);}
	.st336{fill:#454C8D;}
	.st337{fill:url(#SVGID_264_);}
	.st338{fill:#1F2044;}
	.st339{fill:url(#SVGID_265_);}
	.st340{opacity:0.3;}
	.st341{fill:url(#SVGID_266_);}
	.st342{opacity:0.8;fill:#FFFFFF;}
	.st343{fill:url(#SVGID_267_);}
	.st344{opacity:0.5;fill:#FFFFFF;}
	.st345{fill:url(#SVGID_268_);}
</style>
<g>
	<g>
		<g>
			
				<linearGradient id="SVGID_1_" gradientUnits="userSpaceOnUse" x1="125.4082" y1="106.4459" x2="202.6399" y2="106.4459" gradientTransform="matrix(0.9979 -0.0652 0.0652 0.9979 -131.9816 -56.384)">
				<stop  offset="0" style="stop-color:#9A7FBA"/>
				<stop  offset="1" style="stop-color:#E09AC4"/>
			</linearGradient>
			<path style="opacity:0.26;fill:url(#SVGID_1_);" d="M12.42,21.69c-5.65,4.87,2.75,10.18-1.21,12.96
				c-3.96,2.77-20.75,8.73-2.79,17.48s19.17,13.45,31.05,6.52c11.88-6.93,10.64-6.23,21.08-2.65C71,59.57,81.13,52.43,76.97,44.91
				c-4.16-7.52-6.44-7.28-2.68-12.46c3.76-5.18-4.57-21.04-17.98-9.63s-15.4,5.26-21.78,0.13C31.08,20.17,21.35,14,12.42,21.69z"/>
			
				<linearGradient id="SVGID_2_" gradientUnits="userSpaceOnUse" x1="-1928.7659" y1="131.0938" x2="-1851.4133" y2="131.0938" gradientTransform="matrix(-0.9963 0.0864 0.0864 0.9963 -1852.8153 73.4469)">
				<stop  offset="0" style="stop-color:#9A7FBA"/>
				<stop  offset="1" style="stop-color:#E09AC4"/>
			</linearGradient>
			<path style="opacity:0.26;fill:url(#SVGID_2_);" d="M64.39,19.73c6.39,4.03-1.03,10.44,3.34,12.64c4.37,2.2,22.6,9.69,6.39,20.94
				C65.99,58.96,56.65,65.21,43.76,60c-12.89-5.21-11.55-4.69-21.28,0.29c-9.73,4.98-20.93-0.68-18.06-8.68
				c2.86-8,5.16-8.09,0.59-12.69s1.03-21.42,16.18-12.01s16.09,3.08,21.55-2.88C45.69,20.81,54.29,13.36,64.39,19.73z"/>
		</g>
		<g class="st128">
			
				<linearGradient id="SVGID_3_" gradientUnits="userSpaceOnUse" x1="1571.2373" y1="742.1548" x2="1588.068" y2="730.5884" gradientTransform="matrix(0.6791 -0.734 0.734 0.6791 -1546.8657 704.0735)">
				<stop  offset="0" style="stop-color:#8D50A0"/>
				<stop  offset="1" style="stop-color:#EF4A7B"/>
			</linearGradient>
			<path class="st2" d="M60.67,52.98c0,0,1.76-8.88,4.56-12.3c2.5-3.06,6.31-7.13,7.1-7.97c0.05-0.06,0.15-0.02,0.15,0.06
				c0.01,1.29-0.24,8.16-6.08,13.76C59.94,52.75,60.67,52.98,60.67,52.98z"/>
			<path class="st130" d="M71.38,35.36c-0.3,0.57-0.62,1.12-0.94,1.68c-0.33,0.55-0.66,1.1-1.01,1.64
				c-0.69,1.08-1.41,2.14-2.18,3.17c-0.38,0.51-0.78,1.02-1.18,1.52c-0.41,0.5-0.83,0.98-1.26,1.46c-0.43,0.47-0.88,0.93-1.35,1.38
				c-0.47,0.44-0.95,0.87-1.45,1.27c-0.03,0.02-0.08,0.02-0.1-0.01c-0.02-0.03-0.02-0.08,0.01-0.1l0,0l0,0
				c0.5-0.4,0.98-0.82,1.45-1.25c0.46-0.44,0.91-0.9,1.35-1.37c0.43-0.47,0.85-0.95,1.26-1.45c0.41-0.49,0.8-1,1.19-1.51
				c0.77-1.02,1.5-2.08,2.19-3.16c0.35-0.54,0.68-1.08,1.01-1.63c0.33-0.55,0.65-1.11,0.95-1.67l0,0c0.01-0.02,0.03-0.02,0.05-0.02
				S71.38,35.35,71.38,35.36z"/>
		</g>
		<g class="st131">
			
				<linearGradient id="SVGID_4_" gradientUnits="userSpaceOnUse" x1="1140.1743" y1="-6839.2632" x2="1155.4955" y2="-6839.2632" gradientTransform="matrix(-0.028 -0.974 -0.8912 0.0256 -5993.0088 1341.3451)">
				<stop  offset="0" style="stop-color:#CB266E"/>
				<stop  offset="1" style="stop-color:#4C286E"/>
			</linearGradient>
			<path class="st3" d="M78.46,40.83c-0.54,2.44-4.22,16.46-16.91,14.98c0,0,0.25-9.93,16.66-15.24
				C78.35,40.53,78.49,40.67,78.46,40.83z"/>
			<path class="st133" d="M76.72,42.45c-0.42,0.67-0.86,1.32-1.31,1.97c-0.45,0.65-0.92,1.28-1.4,1.91
				c-0.48,0.63-0.97,1.24-1.48,1.84c-0.51,0.6-1.03,1.2-1.57,1.77c-0.54,0.58-1.09,1.14-1.67,1.68c-0.58,0.54-1.16,1.07-1.78,1.56
				c-1.23,0.99-2.57,1.87-4.03,2.52c-0.09,0.04-0.2,0-0.24-0.09c-0.04-0.09,0-0.2,0.09-0.24c0,0,0,0,0,0l0,0
				c1.43-0.62,2.75-1.47,3.98-2.43c0.62-0.48,1.21-1,1.78-1.53c0.58-0.53,1.13-1.09,1.67-1.65c0.54-0.57,1.07-1.15,1.58-1.75
				c0.51-0.6,1.01-1.2,1.49-1.82c0.48-0.62,0.96-1.25,1.41-1.88c0.46-0.64,0.9-1.29,1.33-1.95l0,0c0.02-0.04,0.07-0.05,0.11-0.02
				C76.73,42.37,76.74,42.41,76.72,42.45z"/>
		</g>
		<g class="st134">
			
				<linearGradient id="SVGID_5_" gradientUnits="userSpaceOnUse" x1="2389.3374" y1="-2055.7537" x2="2409.1089" y2="-2055.7537" gradientTransform="matrix(0.7401 -0.6725 0.6725 0.7401 -378.7242 3167.5234)">
				<stop  offset="0" style="stop-color:#66CDF3"/>
				<stop  offset="1" style="stop-color:#4A5AA8"/>
			</linearGradient>
			<path class="st5" d="M13.07,16.89c-1.78,2.81-11.44,19.58,2.67,31.48c0,0,9.2-9.4-2.18-31.46
				C13.45,16.72,13.18,16.71,13.07,16.89z"/>
			<path class="st130" d="M13.42,20.24c-0.17,1.05-0.31,2.1-0.45,3.15c-0.13,1.05-0.26,2.11-0.37,3.16
				c-0.22,2.11-0.39,4.22-0.5,6.34c-0.11,2.12-0.15,4.24-0.08,6.36c0.03,1.06,0.1,2.12,0.21,3.17c0.11,1.05,0.27,2.1,0.5,3.13l0,0
				c0.02,0.07-0.03,0.15-0.1,0.16c-0.07,0.02-0.15-0.03-0.16-0.1l0,0c-0.23-1.04-0.38-2.1-0.49-3.16c-0.11-1.06-0.17-2.12-0.2-3.19
				c-0.06-2.13,0-4.25,0.12-6.37c0.12-2.12,0.31-4.24,0.54-6.35c0.12-1.06,0.25-2.11,0.39-3.16c0.14-1.05,0.29-2.1,0.47-3.15
				c0.01-0.03,0.03-0.05,0.07-0.05C13.4,20.18,13.43,20.21,13.42,20.24L13.42,20.24z"/>
		</g>
		<g class="st136">
			
				<linearGradient id="SVGID_6_" gradientUnits="userSpaceOnUse" x1="1936.475" y1="-2141.3975" x2="1958.0894" y2="-2141.3975" gradientTransform="matrix(0.4894 -0.872 0.872 0.4894 924.5844 2791.5249)">
				<stop  offset="0" style="stop-color:#8D50A0"/>
				<stop  offset="1" style="stop-color:#EF4A7B"/>
			</linearGradient>
			<path class="st7" d="M3.43,29.7c-0.87,3.53-5.09,24.26,13.65,31.72c0,0,6.29-12.93-13.14-31.87C3.77,29.39,3.49,29.47,3.43,29.7z
				"/>
			<path class="st130" d="M4.94,33.06c0.14,1.21,0.32,2.42,0.54,3.62c0.21,1.2,0.45,2.4,0.72,3.59C6.75,42.65,7.4,45,8.21,47.3
				c0.81,2.3,1.77,4.55,2.96,6.68c0.3,0.53,0.61,1.05,0.94,1.56c0.33,0.51,0.68,1.01,1.04,1.5c0.73,0.97,1.54,1.88,2.44,2.7l0,0
				c0.05,0.04,0.05,0.12,0.01,0.17c-0.04,0.05-0.12,0.05-0.17,0.01l0,0c-0.9-0.84-1.72-1.76-2.45-2.74c-0.37-0.49-0.72-1-1.05-1.51
				c-0.33-0.52-0.65-1.04-0.94-1.58c-1.19-2.14-2.14-4.41-2.94-6.72c-0.8-2.31-1.45-4.68-1.98-7.06c-0.27-1.19-0.5-2.39-0.71-3.6
				c-0.21-1.21-0.39-2.41-0.52-3.63c0-0.03,0.02-0.05,0.04-0.05C4.91,33.01,4.94,33.03,4.94,33.06L4.94,33.06z"/>
		</g>
	</g>
	<g>
		<circle class="st138" cx="57.8" cy="28.62" r="12.56"/>
		<circle class="st138" cx="25.42" cy="55.11" r="7.34"/>
		<g>
			<path class="st139" d="M25.33,20.25c-3.71,0-6.71,3.01-6.71,6.71c0,3.71,3.01,6.71,6.71,6.71c3.71,0,6.71-3.01,6.71-6.71
				C32.04,23.25,29.03,20.25,25.33,20.25z M25.33,31.25c-2.37,0-4.29-1.92-4.29-4.29s1.92-4.29,4.29-4.29
				c2.37,0,4.29,1.92,4.29,4.29S27.7,31.25,25.33,31.25z"/>
			<path class="st140" d="M50.69,63.17c0,0.43-0.34,0.77-0.77,0.77H30.44c-0.43,0-0.77-0.34-0.77-0.77c0-0.43,0.34-0.77,0.77-0.77
				h6.92l0.95-1.76h1.65h0.44h1.65L43,62.4h6.92C50.34,62.4,50.69,62.74,50.69,63.17z"/>
			<rect x="38.42" y="59.04" class="st141" width="3.19" height="0.94"/>
			<rect x="38.42" y="57.5" class="st141" width="3.19" height="0.94"/>
			<path class="st142" d="M65.43,54.34c-0.56,0.21-1.16,0.33-1.79,0.33c-2.76,0-4.99-2.23-4.99-4.99c0-2.76,2.23-4.99,4.99-4.99
				c2.76,0,4.99,2.23,4.99,4.99c0,0.74-0.16,1.44-0.45,2.07"/>
			<path class="st143" d="M51.34,26.24h-0.8c-0.17-0.71-0.44-1.37-0.82-1.97l0.56-0.56c0.24-0.24,0.24-0.64,0-0.88l-1.25-1.25
				c-0.24-0.24-0.64-0.24-0.88,0l-0.56,0.56c-0.6-0.37-1.26-0.65-1.97-0.82v-0.8c0-0.34-0.28-0.62-0.62-0.62h-1.77
				c-0.34,0-0.62,0.28-0.62,0.62v0.8c-0.71,0.17-1.37,0.44-1.97,0.82l-0.56-0.56c-0.24-0.24-0.64-0.24-0.88,0l-1.25,1.25
				c-0.24,0.24-0.24,0.64,0,0.88l0.56,0.56c-0.37,0.6-0.65,1.26-0.82,1.97h-0.8c-0.34,0-0.62,0.28-0.62,0.62v1.77
				c0,0.34,0.28,0.62,0.62,0.62h0.8c0.17,0.71,0.44,1.37,0.82,1.97l-0.56,0.56c-0.24,0.24-0.24,0.64,0,0.88l1.25,1.25
				c0.24,0.24,0.64,0.24,0.88,0l0.56-0.56c0.6,0.37,1.26,0.65,1.97,0.82v0.8c0,0.34,0.28,0.62,0.62,0.62H45
				c0.34,0,0.62-0.28,0.62-0.62v-0.8c0.71-0.17,1.37-0.44,1.97-0.82l0.56,0.56c0.24,0.24,0.64,0.24,0.88,0l1.25-1.25
				c0.24-0.24,0.24-0.64,0-0.88l-0.56-0.56c0.37-0.6,0.65-1.26,0.82-1.97h0.8c0.34,0,0.62-0.28,0.62-0.62v-1.77
				C51.96,26.52,51.68,26.24,51.34,26.24z M44.11,30.91c-1.74,0-3.16-1.41-3.16-3.16c0-1.74,1.41-3.16,3.16-3.16
				c1.74,0,3.16,1.41,3.16,3.16C47.27,29.49,45.86,30.91,44.11,30.91z"/>
			<path class="st144" d="M16.57,45.61v-6.7c0-6.33,5.13-11.47,11.47-11.47h24.28c6.33,0,11.47,5.13,11.47,11.47v6.7
				c0,6.33-5.13,11.47-11.47,11.47H28.04C21.71,57.08,16.57,51.95,16.57,45.61z"/>
			<rect x="20.02" y="31.12" class="st145" width="4.87" height="1.07"/>
			<rect x="25.88" y="31.12" class="st145" width="4.87" height="1.07"/>
			<rect x="40.73" y="31.12" class="st145" width="4.87" height="1.07"/>
			<rect x="55.59" y="31.12" class="st145" width="4.87" height="1.07"/>
			<rect x="31.41" y="31.12" class="st141" width="8.71" height="1.07"/>
			<rect x="46.18" y="31.12" class="st146" width="8.71" height="1.07"/>
			<rect x="20.04" y="30.26" class="st146" width="0.85" height="0.52"/>
			<g>
				<rect x="20.04" y="33.07" class="st6" width="8.9" height="0.52"/>
				<rect x="20.04" y="33.99" class="st6" width="2.64" height="0.52"/>
			</g>
			<path class="st145" d="M25.34,53.32L25.34,53.32c-2.89,0-5.24-2.35-5.24-5.24v-6.69c0-2.89,2.35-5.24,5.24-5.24h0
				c2.89,0,5.24,2.35,5.24,5.24v6.69C30.58,50.97,28.23,53.32,25.34,53.32z"/>
			<g>
				<rect x="21.42" y="38.67" class="st6" width="3.51" height="0.54"/>
				<rect x="21.42" y="39.87" class="st6" width="3.51" height="0.54"/>
				<rect x="21.42" y="41.06" class="st6" width="3.51" height="0.54"/>
			</g>
			<rect x="21.42" y="46.06" class="st6" width="2.15" height="0.54"/>
			<rect x="21.42" y="47.25" class="st6" width="2.15" height="0.54"/>
			<rect x="25.11" y="47.25" class="st6" width="2.15" height="0.54"/>
			<rect x="21.42" y="44.69" class="st6" width="1.35" height="0.54"/>
			<rect x="27.2" y="44.69" class="st6" width="0.72" height="0.54"/>
			<rect x="23.23" y="44.69" class="st141" width="3.69" height="0.54"/>
			<rect x="21.42" y="42.67" class="st146" width="0.52" height="0.54"/>
			<rect x="21.42" y="43.62" class="st141" width="0.52" height="0.54"/>
			<polygon class="st6" points="24.28,47.9 24.09,47.9 24.55,47.21 24.74,47.21 			"/>
			<rect x="21.42" y="48.82" class="st147" width="7.97" height="0.45"/>
			<rect x="21.42" y="49.85" class="st147" width="7.97" height="0.45"/>
			<path class="st143" d="M64.73,43.25H48.77c-2.19,0-3.96-1.77-3.96-3.96v0c0-2.19,1.77-3.96,3.96-3.96h15.96
				c2.19,0,3.96,1.77,3.96,3.96v0C68.69,41.48,66.91,43.25,64.73,43.25z"/>
			<path class="st148" d="M51.9,40.44c0,0,1.21-2.97,4.68-2.26c3.47,0.72,5.23,4.62,9.69,1.43"/>
			<rect x="62.64" y="40.61" class="st149" width="0.5" height="0.5"/>
			<line class="st150" x1="52.51" y1="38.05" x2="58.78" y2="38.05"/>
			<line class="st150" x1="59.75" y1="40.99" x2="66.02" y2="40.99"/>
			<rect x="55.15" y="37.8" class="st149" width="0.5" height="0.5"/>
			<g>
				<path class="st145" d="M46.62,45.29L46.62,45.29c-1.7,0-3.08-1.38-3.08-3.08v-2.37c0-1.7,1.38-3.08,3.08-3.08h0
					c1.7,0,3.08,1.38,3.08,3.08v2.37C49.7,43.91,48.32,45.29,46.62,45.29z"/>
				<g>
					<g>
						<rect x="44.5" y="37.97" class="st6" width="3.51" height="0.48"/>
						<rect x="44.5" y="39.05" class="st6" width="3.51" height="0.48"/>
						<rect x="44.5" y="40.13" class="st6" width="1.32" height="0.48"/>
					</g>
					<g>
						<rect x="44.5" y="41.24" class="st143" width="2.28" height="0.48"/>
						<rect x="44.5" y="42.32" class="st143" width="1.54" height="0.48"/>
						<rect x="44.5" y="43.4" class="st6" width="1.54" height="0.48"/>
					</g>
				</g>
			</g>
			<line class="st151" x1="64.84" y1="34.25" x2="67.31" y2="34.25"/>
			<g>
				<path class="st152" d="M59.27,48.23l-0.85,0.67l-1.23,0.22c0,0-1.15-0.07-1.26-0.07c-0.11,0-0.89-0.63-0.89-0.63l-1.45-0.52
					l-1,0.37L51.39,48l-1.78-0.11l-1.71,0.67l-1.41,0.22l-1.26,0.41l-1.41,0.11l-1.52-1.19l-1.41-0.26l-1.45,0.82l-1.15,0.37
					l-1.31-0.04l-1.65,1h-0.98l-1.66,0.58"/>
				<g>
					<g>
						<line class="st153" x1="32.7" y1="50.62" x2="59.31" y2="50.62"/>
						<rect x="32.44" y="50.28" class="st154" width="0.27" height="0.67"/>
						<rect x="59.15" y="50.28" class="st154" width="0.27" height="0.67"/>
					</g>
				</g>
				<line class="st153" x1="59.28" y1="50.62" x2="59.28" y2="48.37"/>
				<path class="st154" d="M59.43,48.26c0,0.12-0.09,0.21-0.21,0.21s-0.21-0.09-0.21-0.21c0-0.12,0.09-0.21,0.21-0.21
					S59.43,48.15,59.43,48.26z"/>
				<text transform="matrix(1 0 0 1 32.7412 52.1855)" class="st154 st156 st157">beta test</text>
				<rect x="38.85" y="51.58" class="st158" width="16.55" height="0.3"/>
				<rect x="38.85" y="51.58" class="st141" width="10.16" height="0.3"/>
				<rect x="38.85" y="52.15" class="st158" width="8.14" height="0.3"/>
				<g>
					<polygon class="st141" points="33.69,53.04 34.69,53.04 34.82,52.76 32.8,52.76 32.8,53.22 33.5,53.22 					"/>
					<rect x="35.66" y="52.76" class="st154" width="0.11" height="0.11"/>
					<rect x="36.35" y="52.76" class="st154" width="0.11" height="0.11"/>
					<rect x="37.04" y="52.76" class="st154" width="0.11" height="0.11"/>
				</g>
				<text transform="matrix(1 0 0 1 57.9844 47.5195)" class="st154 st159 st157">500</text>
				<g>
					<polygon class="st158" points="56.58,52.47 56.34,52.47 55.94,51.58 56.19,51.58 					"/>
					<polygon class="st158" points="57.23,52.47 56.98,52.47 56.58,51.58 56.83,51.58 					"/>
					<polygon class="st158" points="57.87,52.47 57.63,52.47 57.23,51.58 57.48,51.58 					"/>
					<polygon class="st158" points="58.52,52.47 58.27,52.47 57.87,51.58 58.12,51.58 					"/>
					<polygon class="st158" points="59.15,52.47 58.9,52.47 58.5,51.58 58.75,51.58 					"/>
				</g>
			</g>
			<g>
				<g>
					<rect x="54.05" y="21.77" class="st139" width="4.03" height="0.72"/>
					<rect x="54.05" y="23.06" class="st139" width="6.07" height="0.72"/>
					<rect x="54.05" y="24.35" class="st139" width="7.49" height="0.72"/>
					<rect x="54.05" y="25.64" class="st139" width="2.86" height="0.72"/>
				</g>
			</g>
			<g>
				<g>
					<rect x="11.78" y="30.46" class="st146" width="4.03" height="0.72"/>
					<rect x="11.78" y="31.75" class="st139" width="6.07" height="0.72"/>
					<rect x="11.78" y="33.05" class="st139" width="7.49" height="0.72"/>
					<rect x="11.78" y="34.34" class="st139" width="2.86" height="0.72"/>
				</g>
			</g>
			<rect x="21.83" y="55.8" class="st160" width="17.17" height="2.23"/>
			<rect x="30.11" y="38.24" class="st160" width="0.83" height="5.06"/>
			<g>
				
					<ellipse transform="matrix(0.9872 -0.1592 0.1592 0.9872 -7.0974 10.7668)" class="st141" cx="63.64" cy="49.68" rx="2.84" ry="2.84"/>
				<g>
					<g>
						<path class="st161" d="M63.44,49.41l-1.13,0.41l1.13,0.41v0.42l-1.62-0.61V49.6l1.62-0.61V49.41z"/>
					</g>
					<g>
						<path class="st161" d="M63.81,48.99l1.62,0.61v0.44l-1.62,0.61v-0.42l1.13-0.41l-1.13-0.41V48.99z"/>
					</g>
				</g>
			</g>
			<path class="st162" d="M68.39,52c0,0.21-0.17,0.37-0.37,0.37c-0.21,0-0.37-0.17-0.37-0.37c0-0.21,0.17-0.37,0.37-0.37
				C68.22,51.63,68.39,51.79,68.39,52z"/>
			<rect x="20.92" y="25.09" class="st160" width="13.45" height="1.4"/>
			<rect x="21.5" y="25.54" class="st143" width="8.34" height="0.41"/>
			<g>
				<rect x="32.37" y="36.04" class="st145" width="9.85" height="0.5"/>
				<rect x="32.37" y="36.04" class="st146" width="4.46" height="0.5"/>
			</g>
			<g>
				<rect x="32.37" y="37.32" class="st145" width="9.85" height="0.5"/>
				<rect x="32.37" y="37.32" class="st141" width="6.86" height="0.5"/>
			</g>
			<g>
				<rect x="32.37" y="38.6" class="st145" width="9.85" height="0.5"/>
				<rect x="32.37" y="38.6" class="st163" width="2.01" height="0.5"/>
			</g>
			<g>
				<rect x="32.41" y="35.17" class="st145" width="0.19" height="0.19"/>
				<rect x="33.07" y="35.17" class="st145" width="0.19" height="0.19"/>
				<rect x="33.73" y="35.17" class="st145" width="0.19" height="0.19"/>
			</g>
			<g>
				<rect x="50.74" y="41.92" class="st6" width="0.32" height="0.32"/>
				<rect x="51.84" y="41.92" class="st6" width="0.32" height="0.32"/>
				<rect x="52.94" y="41.92" class="st6" width="0.32" height="0.32"/>
			</g>
			<g>
				<rect x="55.37" y="29.16" class="st6" width="0.6" height="0.6"/>
				<rect x="57.44" y="29.16" class="st6" width="0.6" height="0.6"/>
				<rect x="59.5" y="29.16" class="st6" width="0.6" height="0.6"/>
			</g>
			<g>
				<rect x="46.84" y="54.04" class="st6" width="0.6" height="0.6"/>
				<rect x="48.91" y="54.04" class="st6" width="0.6" height="0.6"/>
				<rect x="50.97" y="54.04" class="st6" width="0.6" height="0.6"/>
			</g>
			<g>
				<rect x="21.59" y="37.37" class="st6" width="0.32" height="0.32"/>
				<rect x="22.69" y="37.37" class="st6" width="0.32" height="0.32"/>
				<rect x="23.79" y="37.37" class="st6" width="0.32" height="0.32"/>
			</g>
			<g>
				<rect x="61.26" y="36.98" class="st6" width="5.34" height="0.52"/>
				<rect x="61.26" y="37.9" class="st164" width="1.58" height="0.52"/>
			</g>
			<polygon class="st163" points="18.2,38.05 17.04,38.05 17.04,36.89 15.97,36.89 15.97,38.05 14.82,38.05 14.82,39.12 
				15.97,39.12 15.97,40.28 17.04,40.28 17.04,39.12 18.2,39.12 			"/>
			<polygon class="st146" points="15.11,41.27 14.4,41.27 14.4,40.56 13.75,40.56 13.75,41.27 13.04,41.27 13.04,41.92 13.75,41.92 
				13.75,42.63 14.4,42.63 14.4,41.92 15.11,41.92 			"/>
			<g>
				<path class="st145" d="M34.39,40.65c-1,0-1.81,0.81-1.81,1.81c0,1,0.81,1.81,1.81,1.81c1,0,1.81-0.81,1.81-1.81
					C36.2,41.46,35.39,40.65,34.39,40.65z M34.39,43.4c-0.52,0-0.94-0.42-0.94-0.94c0-0.52,0.42-0.94,0.94-0.94
					c0.52,0,0.94,0.42,0.94,0.94C35.34,42.98,34.91,43.4,34.39,43.4z"/>
				<path class="st143" d="M33.16,42.28c0.17,0,0.32-0.1,0.39-0.25c0.16-0.31,0.47-0.51,0.84-0.51c0.37,0,0.68,0.21,0.84,0.51
					c0.08,0.15,0.22,0.25,0.39,0.25l0,0c0.32,0,0.53-0.33,0.39-0.62c-0.29-0.6-0.91-1.01-1.62-1.01c-0.71,0-1.33,0.41-1.62,1.01
					C32.63,41.95,32.85,42.28,33.16,42.28L33.16,42.28z"/>
			</g>
			<g>
				<path class="st145" d="M37.43,42.46c0,1,0.81,1.81,1.81,1.81c1,0,1.81-0.81,1.81-1.81c0-1-0.81-1.81-1.81-1.81
					C38.24,40.65,37.43,41.46,37.43,42.46z M40.18,42.46c0,0.52-0.42,0.94-0.94,0.94c-0.52,0-0.94-0.42-0.94-0.94
					c0-0.52,0.42-0.94,0.94-0.94C39.76,41.52,40.18,41.94,40.18,42.46z"/>
				<path class="st141" d="M39.06,43.69c0-0.17-0.1-0.32-0.25-0.39c-0.31-0.16-0.51-0.47-0.51-0.84c0-0.37,0.21-0.68,0.51-0.84
					c0.15-0.08,0.25-0.22,0.25-0.39l0,0c0-0.32-0.33-0.53-0.62-0.39c-0.6,0.29-1.01,0.91-1.01,1.62c0,0.71,0.41,1.33,1.01,1.62
					C38.73,44.22,39.06,44.01,39.06,43.69L39.06,43.69z"/>
			</g>
			<rect x="25.93" y="35.33" class="st160" width="3.3" height="7.92"/>
			<g>
				<rect x="26.4" y="36.85" class="st163" width="0.96" height="0.28"/>
				<rect x="26.4" y="37.49" class="st163" width="0.96" height="0.28"/>
				<rect x="26.4" y="38.12" class="st163" width="0.96" height="0.28"/>
				<rect x="26.4" y="41.42" class="st163" width="0.96" height="0.28"/>
			</g>
			<g>
				<rect x="26.4" y="39.05" class="st163" width="1.4" height="0.28"/>
				<rect x="26.4" y="39.69" class="st6" width="1.4" height="0.28"/>
				<rect x="26.4" y="40.32" class="st6" width="1.4" height="0.28"/>
			</g>
			<rect x="14.1" y="45.23" class="st143" width="4.18" height="4.18"/>
			<rect x="11.9" y="46.22" class="st160" width="4.18" height="4.18"/>
			<rect x="63.85" y="57.34" class="st160" width="1.76" height="1.76"/>
			<g>
				<polyline class="st148" points="42.71,54.56 44.2,54.56 45.03,55.38 53.61,55.38 54.93,54.06 59.55,54.06 				"/>
				<circle class="st148" cx="42.28" cy="54.58" r="0.43"/>
				<circle class="st148" cx="60" cy="54.04" r="0.43"/>
			</g>
			<path class="st143" d="M65.83,31.25c0,0.3-0.25,0.55-0.55,0.55s-0.55-0.25-0.55-0.55c0-0.3,0.25-0.55,0.55-0.55
				S65.83,30.95,65.83,31.25z"/>
			<path class="st141" d="M14.98,52.71c0,0.3-0.25,0.55-0.55,0.55c-0.3,0-0.55-0.25-0.55-0.55c0-0.3,0.25-0.55,0.55-0.55
				C14.73,52.16,14.98,52.41,14.98,52.71z"/>
			<path class="st141" d="M17.51,54.75c0,0.53-0.43,0.96-0.96,0.96s-0.96-0.43-0.96-0.96s0.43-0.96,0.96-0.96
				S17.51,54.22,17.51,54.75z"/>
			<g>
				<rect x="46.46" y="58" class="st160" width="3.85" height="0.88"/>
				<rect x="46.46" y="59.65" class="st160" width="8.45" height="0.88"/>
			</g>
			<g>
				<line class="st165" x1="22.86" y1="58.84" x2="21.93" y2="59.77"/>
				<line class="st165" x1="23.76" y1="58.84" x2="22.82" y2="59.77"/>
				<line class="st165" x1="24.65" y1="58.84" x2="23.72" y2="59.77"/>
				<line class="st165" x1="25.55" y1="58.84" x2="24.62" y2="59.77"/>
				<line class="st165" x1="26.45" y1="58.84" x2="25.52" y2="59.77"/>
			</g>
		</g>
	</g>
</g>
</svg>
