<?xml version="1.0" encoding="utf-8"?>
<!-- Generator: Adobe Illustrator 25.0.0, SVG Export Plug-In . SVG Version: 6.00 Build 0)  -->
<svg version="1.1" id="Layer_1" xmlns="http://www.w3.org/2000/svg" xmlns:xlink="http://www.w3.org/1999/xlink" x="0px" y="0px"
	 viewBox="0 0 81 80" style="enable-background:new 0 0 81 80;" xml:space="preserve">
<style type="text/css">
	.st0{opacity:0.3;fill:url(#SVGID_1_);}
	.st1{fill:url(#SVGID_2_);}
	.st2{fill:url(#SVGID_3_);}
	.st3{fill:url(#SVGID_4_);}
	.st4{opacity:0.65;fill:#FFFFFF;}
	.st5{fill:url(#SVGID_5_);}
	.st6{fill:#FFFFFF;}
	.st7{fill:url(#SVGID_6_);}
	.st8{opacity:0.49;fill:#FFFFFF;}
	.st9{opacity:0.75;}
	.st10{opacity:0.76;fill:#FFFFFF;}
	.st11{fill:url(#SVGID_7_);}
	.st12{fill:url(#SVGID_8_);}
	.st13{fill:url(#SVGID_9_);}
	.st14{fill:url(#SVGID_10_);}
	.st15{clip-path:url(#SVGID_12_);fill:url(#SVGID_13_);}
	.st16{fill:url(#SVGID_14_);}
	.st17{fill:url(#SVGID_15_);}
	.st18{fill:url(#SVGID_16_);}
	.st19{fill:url(#SVGID_17_);}
	.st20{fill:url(#SVGID_18_);}
	.st21{fill:url(#SVGID_19_);}
	.st22{fill:url(#SVGID_20_);}
	.st23{opacity:0.9;}
	.st24{fill-rule:evenodd;clip-rule:evenodd;fill:#FFFFFF;}
	.st25{fill:url(#SVGID_21_);}
	.st26{fill:url(#SVGID_22_);}
	.st27{fill:url(#SVGID_23_);}
	.st28{fill:url(#SVGID_24_);}
	.st29{fill:url(#SVGID_25_);}
	.st30{fill:url(#SVGID_26_);}
	.st31{fill:url(#SVGID_27_);}
	.st32{fill:url(#SVGID_28_);}
	.st33{fill:url(#SVGID_29_);}
	.st34{fill:url(#SVGID_30_);}
	.st35{fill:url(#SVGID_31_);}
	.st36{fill:url(#SVGID_32_);}
	.st37{fill:url(#SVGID_33_);}
	.st38{fill:url(#SVGID_34_);}
	.st39{fill:url(#SVGID_35_);}
	.st40{fill:url(#SVGID_36_);}
	.st41{fill:url(#SVGID_37_);}
	.st42{fill:url(#SVGID_38_);}
	.st43{fill:url(#SVGID_39_);}
	.st44{fill:url(#SVGID_40_);}
	.st45{fill:url(#SVGID_41_);}
	.st46{fill:url(#SVGID_42_);}
	.st47{opacity:0.3;fill:url(#SVGID_43_);}
	.st48{fill:url(#SVGID_44_);}
	.st49{opacity:0.45;fill:#FFFFFF;}
	.st50{fill:url(#SVGID_45_);}
	.st51{fill:url(#SVGID_46_);}
	.st52{fill:url(#SVGID_47_);}
	.st53{fill:url(#SVGID_48_);}
	.st54{fill:url(#SVGID_49_);}
	.st55{fill:url(#SVGID_50_);}
	.st56{fill:url(#SVGID_51_);}
	.st57{fill:url(#SVGID_52_);}
	.st58{fill:url(#SVGID_53_);}
	.st59{opacity:0.21;fill:#FFFFFF;}
	.st60{opacity:0.69;fill:#FFFFFF;}
	.st61{fill:url(#SVGID_54_);}
	.st62{fill:url(#SVGID_55_);}
	.st63{fill:url(#SVGID_56_);}
	.st64{fill:url(#SVGID_57_);}
	.st65{fill:url(#SVGID_58_);}
	.st66{fill:url(#SVGID_59_);}
	.st67{fill:url(#SVGID_60_);}
	.st68{fill:url(#SVGID_61_);}
	.st69{fill:url(#SVGID_62_);}
	.st70{fill:url(#SVGID_63_);}
	.st71{fill:url(#SVGID_64_);}
	.st72{fill:url(#SVGID_65_);}
	.st73{fill:url(#SVGID_66_);}
	.st74{fill:url(#SVGID_67_);}
	.st75{fill:url(#SVGID_68_);}
	.st76{fill:url(#SVGID_69_);}
	.st77{fill:url(#SVGID_70_);}
	.st78{fill:url(#SVGID_71_);}
	.st79{fill:url(#SVGID_72_);}
	.st80{fill:url(#SVGID_73_);}
	.st81{fill:url(#SVGID_74_);}
	.st82{fill:url(#SVGID_75_);}
	.st83{fill:url(#SVGID_76_);}
	.st84{fill:url(#SVGID_77_);}
	.st85{fill:url(#SVGID_78_);}
	.st86{fill:#E78456;}
	.st87{opacity:0.3;fill:url(#SVGID_79_);}
	.st88{fill:url(#SVGID_80_);}
	.st89{opacity:0.1;}
	.st90{fill:url(#SVGID_81_);}
	.st91{fill:url(#SVGID_82_);}
	.st92{fill:url(#SVGID_83_);}
	.st93{fill:url(#SVGID_84_);}
	.st94{fill:url(#SVGID_85_);}
	.st95{fill:url(#SVGID_86_);}
	.st96{fill:url(#SVGID_87_);}
	.st97{fill:url(#SVGID_88_);}
	.st98{fill:url(#SVGID_89_);}
	.st99{fill:url(#SVGID_90_);}
	.st100{fill:url(#SVGID_91_);}
	.st101{fill:url(#SVGID_92_);}
	.st102{fill:url(#SVGID_93_);}
	.st103{fill:url(#SVGID_94_);}
	.st104{fill:url(#SVGID_95_);}
	.st105{fill:url(#SVGID_96_);}
	.st106{fill:url(#SVGID_97_);}
	.st107{fill:url(#SVGID_98_);}
	.st108{fill:url(#SVGID_99_);}
	.st109{fill:#C5C0E0;}
	.st110{fill:#BBA9D2;}
	.st111{fill:#AE98C8;}
	.st112{fill:#827FBD;}
	.st113{fill:#9696CA;}
	.st114{opacity:0.1;fill:#4850A2;}
	.st115{fill:#4850A2;}
	.st116{fill:#FDBA43;}
	.st117{fill:#2E2563;}
	.st118{opacity:0.2;}
	.st119{opacity:0.2;fill:#FFFFFF;}
	.st120{fill:#F8A288;}
	.st121{fill:#231645;}
	.st122{fill:#3E469D;}
	.st123{fill:#C47B2A;}
	.st124{fill:#F2A321;}
	.st125{fill:#8988C2;}
	.st126{opacity:0.26;fill:url(#SVGID_100_);}
	.st127{opacity:0.26;fill:url(#SVGID_101_);}
	.st128{opacity:0.53;}
	.st129{fill:url(#SVGID_102_);}
	.st130{opacity:0.86;fill:#FFFFFF;}
	.st131{opacity:0.88;}
	.st132{fill:url(#SVGID_103_);}
	.st133{opacity:0.48;fill:#FFFFFF;}
	.st134{opacity:0.37;}
	.st135{fill:url(#SVGID_104_);}
	.st136{opacity:0.79;}
	.st137{fill:url(#SVGID_105_);}
	.st138{fill:#E7F1FA;}
	.st139{fill:#A9CBE8;}
	.st140{fill:#143257;}
	.st141{fill:#F04F6C;}
	
		.st142{fill:none;stroke:#F04F6C;stroke-width:1.1276;stroke-linecap:round;stroke-linejoin:round;stroke-miterlimit:10;stroke-dasharray:0,5.6381;}
	.st143{fill:#4998D2;}
	.st144{fill:#223A73;}
	.st145{fill:#284D89;}
	.st146{fill:#3986C7;}
	.st147{fill:#282E5C;}
	.st148{fill:none;stroke:#FFFFFF;stroke-width:1.1276;stroke-miterlimit:10;}
	.st149{fill:#4998D2;stroke:#FFFFFF;stroke-width:1.1276;stroke-miterlimit:10;}
	.st150{fill:#4998D2;stroke:#FFFFFF;stroke-width:0.5638;stroke-miterlimit:10;}
	.st151{fill:none;stroke:#284D89;stroke-width:2.2552;stroke-linecap:round;stroke-linejoin:round;stroke-miterlimit:10;}
	.st152{fill:none;stroke:#F15E67;stroke-width:1.0152;stroke-miterlimit:10;}
	.st153{fill:none;stroke:#F7F7F7;stroke-width:0.2538;stroke-miterlimit:10;}
	.st154{fill:#F7F7F7;}
	.st155{fill:none;stroke:#F7F7F7;stroke-width:0.5076;stroke-miterlimit:10;}
	.st156{fill:#28385E;}
	.st157{fill:none;stroke:#4998D2;stroke-width:1.1276;stroke-miterlimit:10;}
	.st158{fill:#F9FCFD;}
	.st159{fill:none;stroke:#F04F6C;stroke-width:1.1276;stroke-miterlimit:10;}
	.st160{fill:#61CBE8;}
	.st161{fill:#387BBF;}
	.st162{fill:none;stroke:#4998D2;stroke-width:1.1276;stroke-linecap:round;stroke-linejoin:round;stroke-miterlimit:10;}
	.st163{opacity:0.26;fill:url(#SVGID_106_);}
	.st164{opacity:0.26;fill:url(#SVGID_107_);}
	.st165{fill:url(#SVGID_108_);}
	.st166{fill:url(#SVGID_109_);}
	.st167{fill:url(#SVGID_110_);}
	.st168{fill:url(#SVGID_111_);}
	.st169{opacity:0.56;fill:#FFFFFF;}
	.st170{fill:url(#SVGID_112_);}
	.st171{opacity:0.31;fill:#FFFFFF;}
	.st172{fill:url(#SVGID_113_);}
	.st173{fill:url(#SVGID_114_);}
	.st174{fill:url(#SVGID_115_);}
	.st175{fill:url(#SVGID_116_);}
	.st176{opacity:0.37;fill:#FFFFFF;}
	.st177{fill:url(#SVGID_117_);}
	.st178{fill:url(#SVGID_118_);}
	.st179{fill:url(#SVGID_119_);}
	.st180{fill:url(#SVGID_120_);}
	.st181{fill:url(#SVGID_121_);}
	.st182{fill:url(#SVGID_122_);}
	.st183{fill:url(#SVGID_123_);}
	.st184{fill:url(#SVGID_124_);}
	.st185{fill:url(#SVGID_125_);}
	.st186{fill:url(#SVGID_126_);}
	.st187{fill:url(#SVGID_127_);}
	.st188{fill:url(#SVGID_128_);}
	.st189{fill:url(#SVGID_129_);}
	.st190{fill:url(#SVGID_130_);}
	.st191{fill:url(#SVGID_131_);}
	.st192{fill:url(#SVGID_132_);}
	.st193{fill:url(#SVGID_133_);}
	.st194{fill:url(#SVGID_134_);}
	.st195{fill:url(#SVGID_135_);}
	.st196{fill:url(#SVGID_136_);}
	.st197{fill:url(#SVGID_137_);}
	.st198{fill:url(#SVGID_138_);}
	.st199{fill:url(#SVGID_139_);}
	.st200{fill:url(#SVGID_140_);}
	.st201{fill:url(#SVGID_141_);}
	.st202{fill:url(#SVGID_142_);}
	.st203{fill:url(#SVGID_143_);}
	.st204{fill:url(#SVGID_144_);}
	.st205{fill:url(#SVGID_145_);}
	.st206{opacity:0.64;}
	.st207{fill:url(#SVGID_146_);}
	.st208{fill:url(#SVGID_147_);}
	.st209{fill:url(#SVGID_148_);}
	.st210{fill:url(#SVGID_149_);}
	.st211{fill:url(#SVGID_150_);}
	.st212{fill:#D096C3;}
	.st213{fill:url(#SVGID_151_);}
	.st214{fill:url(#SVGID_152_);}
	.st215{fill:url(#SVGID_153_);}
	.st216{fill:url(#SVGID_154_);}
	.st217{fill:url(#SVGID_155_);}
	.st218{fill:url(#SVGID_156_);}
	.st219{fill:url(#SVGID_157_);}
	.st220{fill:url(#SVGID_158_);}
	.st221{fill:url(#SVGID_159_);}
	.st222{fill:url(#SVGID_160_);}
	.st223{fill:url(#SVGID_161_);}
	.st224{fill:url(#SVGID_162_);}
	.st225{fill:url(#SVGID_163_);}
	.st226{fill:url(#SVGID_164_);}
	.st227{fill:url(#SVGID_165_);}
	.st228{fill:url(#SVGID_166_);}
	.st229{fill:url(#SVGID_167_);}
	.st230{fill:url(#SVGID_168_);}
	.st231{fill:url(#SVGID_169_);}
	.st232{fill:url(#SVGID_170_);}
	.st233{fill:url(#SVGID_171_);}
	.st234{fill:url(#SVGID_172_);}
	.st235{fill:url(#SVGID_173_);}
	.st236{fill:url(#SVGID_174_);}
	.st237{fill:url(#SVGID_175_);}
	.st238{fill:url(#SVGID_176_);}
	.st239{fill:url(#SVGID_177_);}
	.st240{fill:url(#SVGID_178_);}
	.st241{fill:url(#SVGID_179_);}
	.st242{fill:url(#SVGID_180_);}
	.st243{fill:url(#SVGID_181_);}
	.st244{fill:url(#SVGID_182_);}
	.st245{fill:url(#SVGID_183_);}
	.st246{fill:url(#SVGID_184_);}
	.st247{fill:url(#SVGID_185_);}
	.st248{fill:url(#SVGID_186_);}
	.st249{fill:url(#SVGID_187_);}
	.st250{fill:url(#SVGID_188_);}
	.st251{fill:url(#SVGID_189_);}
	.st252{fill:url(#SVGID_190_);}
	.st253{fill:url(#SVGID_191_);}
	.st254{fill:url(#SVGID_192_);}
	.st255{fill:url(#SVGID_193_);}
	.st256{fill:url(#SVGID_194_);}
	.st257{fill:url(#SVGID_195_);}
	.st258{fill:url(#SVGID_196_);}
	.st259{fill:url(#SVGID_197_);}
	.st260{opacity:0.26;fill:url(#SVGID_198_);}
	.st261{opacity:0.26;fill:url(#SVGID_199_);}
	.st262{fill:url(#SVGID_200_);}
	.st263{fill:url(#SVGID_201_);}
	.st264{fill:url(#SVGID_202_);}
	.st265{fill:url(#SVGID_203_);}
	.st266{fill:url(#SVGID_204_);}
	.st267{fill:url(#SVGID_205_);}
	.st268{fill:url(#SVGID_206_);}
	.st269{fill:url(#SVGID_207_);}
	.st270{fill:url(#SVGID_208_);}
	.st271{opacity:0.3;fill:url(#SVGID_209_);}
	.st272{opacity:0.3;fill:url(#SVGID_210_);}
	.st273{fill:url(#SVGID_211_);}
	.st274{fill:url(#SVGID_212_);}
	.st275{opacity:0.3;fill:url(#SVGID_213_);}
	.st276{opacity:0.65;fill:url(#SVGID_214_);}
	.st277{fill:url(#SVGID_215_);}
	.st278{opacity:0.26;fill:#FFFFFF;}
	.st279{fill:url(#SVGID_216_);}
	.st280{fill:url(#SVGID_217_);}
	.st281{fill:url(#SVGID_218_);}
	.st282{fill:url(#SVGID_219_);}
	.st283{fill:url(#SVGID_220_);}
	.st284{fill:url(#SVGID_221_);}
	.st285{opacity:0.3;fill:url(#SVGID_222_);}
	.st286{fill:url(#SVGID_223_);}
	.st287{opacity:0.3;fill:url(#SVGID_224_);}
	.st288{fill:url(#SVGID_225_);}
	.st289{fill:#26274F;}
	.st290{opacity:0.3;fill:url(#SVGID_226_);}
	.st291{fill:url(#SVGID_227_);}
	.st292{fill:#B7C0CE;}
	.st293{fill:#D8DEE8;}
	.st294{fill:#BFC8D5;}
	.st295{fill:#EFF2F6;}
	.st296{opacity:0.47;fill:#D8DEE8;}
	.st297{fill:url(#SVGID_228_);}
	.st298{fill:url(#SVGID_229_);}
	.st299{fill:url(#SVGID_230_);}
	.st300{fill:url(#SVGID_231_);}
	.st301{fill:url(#SVGID_232_);}
	.st302{fill:url(#SVGID_233_);}
	.st303{fill:url(#SVGID_234_);}
	.st304{fill:url(#SVGID_235_);}
	.st305{fill:url(#SVGID_236_);}
	.st306{fill:url(#SVGID_237_);}
	.st307{opacity:0.3;fill:url(#SVGID_238_);}
	.st308{fill:url(#SVGID_239_);}
	.st309{fill:url(#SVGID_240_);}
	.st310{fill:url(#SVGID_241_);}
	.st311{opacity:0.3;fill:url(#SVGID_242_);}
	.st312{opacity:0.65;fill:url(#SVGID_243_);}
	.st313{fill:url(#SVGID_244_);}
	.st314{fill:url(#SVGID_245_);}
	.st315{fill:url(#SVGID_246_);}
	.st316{fill:url(#SVGID_247_);}
	.st317{fill:url(#SVGID_248_);}
	.st318{fill:url(#SVGID_249_);}
	.st319{fill:url(#SVGID_250_);}
	.st320{fill:url(#SVGID_251_);}
	.st321{fill:url(#SVGID_252_);}
	.st322{fill:url(#SVGID_253_);}
	.st323{fill:url(#SVGID_254_);}
	.st324{opacity:0.3;fill:url(#SVGID_255_);}
	.st325{fill:url(#SVGID_256_);}
	.st326{fill:url(#SVGID_257_);}
	.st327{fill:url(#SVGID_258_);}
	.st328{fill:url(#SVGID_259_);}
	.st329{fill:url(#SVGID_260_);}
	.st330{opacity:0.3;fill:url(#SVGID_261_);}
	.st331{opacity:0.65;fill:url(#SVGID_262_);}
	.st332{fill:url(#SVGID_263_);}
	.st333{fill:#454C8D;}
	.st334{fill:url(#SVGID_264_);}
	.st335{fill:#1F2044;}
	.st336{fill:url(#SVGID_265_);}
	.st337{opacity:0.3;}
	.st338{fill:url(#SVGID_266_);}
	.st339{opacity:0.8;fill:#FFFFFF;}
	.st340{fill:url(#SVGID_267_);}
	.st341{opacity:0.5;fill:#FFFFFF;}
	.st342{fill:url(#SVGID_268_);}
</style>
<g>
	<g>
		<g>
			
				<linearGradient id="SVGID_1_" gradientUnits="userSpaceOnUse" x1="126.1757" y1="88.365" x2="203.113" y2="88.365" gradientTransform="matrix(0.9979 -0.0652 0.0652 0.9979 -131.4146 -38.78)">
				<stop  offset="0" style="stop-color:#9A7FBA"/>
				<stop  offset="1" style="stop-color:#E09AC4"/>
			</linearGradient>
			<path style="opacity:0.26;fill:url(#SVGID_1_);" d="M12.52,21.28c-5.63,4.85,2.74,10.14-1.2,12.91
				c-3.94,2.76-20.67,8.69-2.77,17.41s19.1,13.4,30.94,6.5c11.83-6.9,10.6-6.21,21-2.64c10.4,3.57,20.49-3.55,16.35-11.04
				c-4.14-7.49-6.42-7.25-2.67-12.42c3.75-5.16-4.55-20.96-17.91-9.6s-15.34,5.24-21.7,0.13C31.11,19.76,21.43,13.61,12.52,21.28z"
				/>
			
				<linearGradient id="SVGID_2_" gradientUnits="userSpaceOnUse" x1="-1389.6763" y1="107.2836" x2="-1312.6187" y2="107.2836" gradientTransform="matrix(-0.9963 0.0864 0.0864 0.9963 -1313.8142 50.1189)">
				<stop  offset="0" style="stop-color:#9A7FBA"/>
				<stop  offset="1" style="stop-color:#E09AC4"/>
			</linearGradient>
			<path style="opacity:0.26;fill:url(#SVGID_2_);" d="M64.3,19.33c6.37,4.02-1.03,10.4,3.33,12.59c4.36,2.19,22.51,9.66,6.36,20.86
				c-8.1,5.62-17.4,11.85-30.24,6.66c-12.84-5.19-11.51-4.67-21.2,0.29c-9.69,4.96-20.85-0.68-17.99-8.65
				c2.85-7.97,5.14-8.06,0.59-12.64s1.03-21.34,16.11-11.96s16.03,3.06,21.47-2.87C45.67,20.4,54.23,12.98,64.3,19.33z"/>
		</g>
		<g class="st128">
			
				<linearGradient id="SVGID_3_" gradientUnits="userSpaceOnUse" x1="1658.2004" y1="543.5272" x2="1674.9669" y2="532.0049" gradientTransform="matrix(0.6791 -0.734 0.734 0.6791 -1460.2228 902.2535)">
				<stop  offset="0" style="stop-color:#8D50A0"/>
				<stop  offset="1" style="stop-color:#EF4A7B"/>
			</linearGradient>
			<path class="st2" d="M60.59,52.45c0,0,1.76-8.84,4.55-12.26c2.49-3.05,6.29-7.1,7.07-7.94c0.05-0.06,0.15-0.02,0.15,0.06
				c0.01,1.29-0.24,8.13-6.05,13.71C59.87,52.22,60.59,52.45,60.59,52.45z"/>
			<path class="st130" d="M71.26,34.9c-0.3,0.57-0.62,1.12-0.94,1.67c-0.32,0.55-0.66,1.09-1,1.63c-0.68,1.08-1.41,2.13-2.17,3.16
				c-0.38,0.51-0.78,1.02-1.18,1.51c-0.41,0.49-0.82,0.98-1.25,1.45c-0.43,0.47-0.88,0.93-1.34,1.37c-0.47,0.44-0.95,0.86-1.45,1.26
				c-0.03,0.02-0.07,0.02-0.1-0.01c-0.02-0.03-0.02-0.07,0.01-0.1l0,0l0,0c0.5-0.39,0.98-0.81,1.44-1.25
				c0.46-0.44,0.91-0.89,1.34-1.36c0.43-0.47,0.85-0.95,1.25-1.44c0.4-0.49,0.8-0.99,1.18-1.5c0.76-1.02,1.49-2.07,2.18-3.14
				c0.34-0.54,0.68-1.08,1.01-1.63c0.33-0.55,0.64-1.1,0.95-1.66l0,0c0.01-0.02,0.03-0.02,0.05-0.02S71.27,34.88,71.26,34.9z"/>
		</g>
		<g class="st131">
			
				<linearGradient id="SVGID_4_" gradientUnits="userSpaceOnUse" x1="1418.6907" y1="-6536.4414" x2="1433.9534" y2="-6536.4414" gradientTransform="matrix(-0.028 -0.974 -0.8912 0.0256 -5715.4487 1604.3251)">
				<stop  offset="0" style="stop-color:#CB266E"/>
				<stop  offset="1" style="stop-color:#4C286E"/>
			</linearGradient>
			<path class="st3" d="M78.31,40.34c-0.54,2.43-4.21,16.4-16.84,14.93c0,0,0.24-9.89,16.6-15.18
				C78.21,40.04,78.35,40.18,78.31,40.34z"/>
			<path class="st133" d="M76.58,41.96c-0.42,0.67-0.85,1.32-1.3,1.96c-0.45,0.64-0.91,1.28-1.39,1.9
				c-0.48,0.62-0.97,1.24-1.47,1.84c-0.5,0.6-1.02,1.19-1.56,1.77c-0.54,0.57-1.09,1.14-1.66,1.68c-0.57,0.54-1.16,1.07-1.78,1.56
				c-1.23,0.99-2.56,1.87-4.01,2.51c-0.09,0.04-0.2,0-0.24-0.09c-0.04-0.09,0-0.2,0.09-0.24c0,0,0,0,0,0l0,0
				c1.42-0.61,2.74-1.46,3.96-2.42c0.62-0.48,1.2-0.99,1.78-1.52c0.58-0.53,1.13-1.08,1.67-1.65c0.54-0.56,1.06-1.15,1.57-1.74
				c0.51-0.59,1.01-1.2,1.49-1.81c0.48-0.62,0.95-1.24,1.41-1.88c0.45-0.64,0.9-1.28,1.32-1.94l0,0c0.02-0.04,0.07-0.05,0.1-0.02
				C76.59,41.87,76.6,41.92,76.58,41.96z"/>
		</g>
		<g class="st134">
			
				<linearGradient id="SVGID_5_" gradientUnits="userSpaceOnUse" x1="2459.928" y1="-2237.5974" x2="2479.6243" y2="-2237.5974" gradientTransform="matrix(0.7401 -0.6725 0.6725 0.7401 -308.5511 3349.0984)">
				<stop  offset="0" style="stop-color:#66CDF3"/>
				<stop  offset="1" style="stop-color:#4A5AA8"/>
			</linearGradient>
			<path class="st5" d="M13.17,16.5C11.4,19.3,1.77,36,15.83,47.86c0,0,9.17-9.37-2.17-31.34C13.56,16.33,13.29,16.32,13.17,16.5z"
				/>
			<path class="st130" d="M13.52,19.83c-0.17,1.04-0.31,2.09-0.44,3.14c-0.13,1.05-0.26,2.1-0.37,3.15c-0.22,2.1-0.39,4.21-0.5,6.32
				c-0.11,2.11-0.15,4.22-0.08,6.33c0.03,1.05,0.1,2.11,0.21,3.15c0.11,1.05,0.27,2.09,0.5,3.11l0,0c0.02,0.07-0.03,0.15-0.1,0.16
				c-0.07,0.02-0.15-0.03-0.16-0.1l0,0c-0.23-1.04-0.38-2.09-0.49-3.15c-0.1-1.06-0.17-2.11-0.19-3.17c-0.06-2.12,0-4.24,0.12-6.35
				c0.12-2.11,0.31-4.22,0.54-6.32c0.12-1.05,0.24-2.1,0.39-3.15c0.14-1.05,0.29-2.09,0.46-3.14c0.01-0.03,0.03-0.05,0.07-0.05
				C13.51,19.77,13.53,19.8,13.52,19.83L13.52,19.83z"/>
		</g>
		<g class="st136">
			
				<linearGradient id="SVGID_6_" gradientUnits="userSpaceOnUse" x1="2074.8601" y1="-2377.0078" x2="2096.3921" y2="-2377.0078" gradientTransform="matrix(0.4894 -0.872 0.872 0.4894 1062.4464 3026.9648)">
				<stop  offset="0" style="stop-color:#8D50A0"/>
				<stop  offset="1" style="stop-color:#EF4A7B"/>
			</linearGradient>
			<path class="st7" d="M3.57,29.26c-0.87,3.51-5.08,24.17,13.6,31.6c0,0,6.27-12.88-13.09-31.75C3.91,28.95,3.63,29.03,3.57,29.26z
				"/>
			<path class="st130" d="M5.08,32.6c0.14,1.21,0.32,2.41,0.53,3.61c0.21,1.2,0.45,2.39,0.72,3.58c0.54,2.37,1.19,4.72,2,7.01
				c0.81,2.29,1.76,4.54,2.95,6.65c0.3,0.53,0.61,1.05,0.94,1.56c0.33,0.51,0.67,1.01,1.04,1.49c0.73,0.97,1.54,1.87,2.43,2.69l0,0
				c0.05,0.04,0.05,0.12,0.01,0.17s-0.12,0.05-0.17,0.01l0,0c-0.9-0.83-1.72-1.75-2.45-2.73c-0.37-0.49-0.71-0.99-1.04-1.51
				c-0.33-0.52-0.64-1.04-0.94-1.57c-1.19-2.14-2.14-4.39-2.93-6.7c-0.8-2.3-1.44-4.66-1.97-7.04c-0.27-1.19-0.5-2.38-0.71-3.59
				c-0.21-1.2-0.39-2.41-0.52-3.62c0-0.03,0.02-0.05,0.04-0.05C5.05,32.55,5.07,32.57,5.08,32.6L5.08,32.6z"/>
		</g>
	</g>
	<g>
		<g>
			<linearGradient id="SVGID_7_" gradientUnits="userSpaceOnUse" x1="42.7697" y1="27.9866" x2="47.0467" y2="137.7626">
				<stop  offset="0" style="stop-color:#454C8D"/>
				<stop  offset="0.9964" style="stop-color:#26274F"/>
			</linearGradient>
			<path class="st11" d="M66.16,27.32c0-0.01,0-0.03,0-0.04c-0.01-0.91-0.1-1.78-0.28-2.61c-0.45-2.25-1.42-4.03-2.87-5.37
				c-0.7-0.67-1.5-1.22-2.39-1.64c-0.01,0-0.01-0.01-0.02-0.01l0,0c-1.04-0.48-2.2-0.77-3.47-0.84c-5.28-0.29-8.61,3.28-12.05,6.66
				c-3.39-3.5-7.4-7.71-12.9-8c-1.81-0.1-3.5,0.05-5.03,0.67h0c-4.78,1.59-7.85,5.97-7.85,10.97c0,1.6,0.27,3.11,0.76,4.48
				c0.77,2.12,2.1,3.92,3.84,5.19c0.76,0.56,1.61,0.98,2.52,1.4h0c1.54,0.55,3.29,0.86,5.15,0.79c4.51-0.18,7.52-2.33,10.36-4.85v0
				v0c1.04-0.98,2.06-2.03,3.07-3.04c3.3,3.3,6.95,7.03,11.61,6.84c1.64-0.07,3.1-0.5,4.37-1.21l1.94-1.26
				c1.24-1.15,2.15-2.67,2.68-4.44C65.98,29.87,66.19,28.63,66.16,27.32z M29.32,32.62c-1.97-0.94-3.27-2.96-3.27-5.47
				c0-2.64,1.73-4.91,4.17-5.68c0,0,0,0,0,0c0.64-0.2,1.33-0.3,2.05-0.28c3.86,0.12,6.68,3.69,9.09,6.09L38.62,30l0.04,0.01
				c-1.91,1.71-4.08,3.14-6.61,3.18C31.06,33.21,30.13,33.01,29.32,32.62z M56.59,32.76c-3.23,0.06-5.72-3.2-8-5.41l3.03-3.08
				l-0.01-0.05c1.57-1.35,3.28-2.34,5.16-2.29c0.69,0.02,1.33,0.19,1.9,0.48c1.35,0.75,2.33,2.14,2.64,3.78
				c0.06,0.36,0.1,0.74,0.1,1.13c0,0.43-0.04,0.85-0.12,1.24C60.82,30.89,58.95,32.71,56.59,32.76z"/>
			<g>
				<g>
					<linearGradient id="SVGID_8_" gradientUnits="userSpaceOnUse" x1="43.4349" y1="3.9848" x2="43.8492" y2="65.9332">
						<stop  offset="0" style="stop-color:#9681BC"/>
						<stop  offset="0.9964" style="stop-color:#6166AE"/>
					</linearGradient>
					<path class="st12" d="M66.83,26.18c-0.01-0.93-0.1-1.82-0.28-2.67c-0.45-2.12-1.42-3.94-2.81-5.3
						c-0.7-0.69-1.52-1.26-2.42-1.68c0,0,0,0,0,0c-1.03-0.48-2.19-0.78-3.44-0.86c-3.83-0.23-6.64,1.6-9.2,3.91
						c-0.94,0.85-1.85,1.76-2.76,2.66c-3.37-3.51-7.34-7.67-12.8-7.99c-1.8-0.11-3.48,0.14-4.99,0.7h0
						c-4.74,1.45-7.79,5.85-7.79,10.83c0,1.6,0.26,3.07,0.76,4.44c0.07,0.2,0.15,0.38,0.23,0.58c0.79,1.86,2.02,3.43,3.58,4.59
						c0.76,0.56,1.59,0.97,2.5,1.39h0c1.53,0.55,3.25,0.89,5.1,0.82c4.48-0.16,7.56-2.27,10.27-4.76c0,0,0-0.01,0.01-0.01
						c1.06-0.97,2.06-2.01,3.06-3.01c3.28,3.3,6.91,7.04,11.54,6.87c1.63-0.06,3.09-0.48,4.34-1.18c3.19-1.77,5.1-5.32,5.1-9.23
						C66.84,26.25,66.84,26.21,66.83,26.18z M32.96,31.87c-0.98,0.01-1.9-0.2-2.71-0.59C28.29,30.33,27,28.32,27,25.81
						c0-2.63,1.72-4.88,4.14-5.64c0,0,0,0,0,0c0.64-0.2,1.32-0.3,2.04-0.27c3.83,0.14,6.64,3.71,9.03,6.11
						c0.02,0.02,0.03,0.03,0.05,0.05c-0.86,0.87-1.77,1.81-2.74,2.67C37.62,30.43,35.47,31.84,32.96,31.87z M62.02,27.33
						c-0.45,2.36-2.32,4.21-4.7,4.24c-3.21,0.04-5.68-3.22-7.95-5.43c-0.02-0.02-0.04-0.04-0.06-0.06c0.96-1.02,1.98-2.12,3.06-3.04
						c1.56-1.33,3.26-2.32,5.13-2.25c0.69,0.03,1.34,0.2,1.91,0.49c1.33,0.68,2.28,2.02,2.6,3.71c0,0,0,0.01,0,0.01
						c0.07,0.38,0.11,0.78,0.11,1.19c0,0.01,0,0.03,0,0.04C62.13,26.6,62.09,26.97,62.02,27.33z"/>
				</g>
				<linearGradient id="SVGID_9_" gradientUnits="userSpaceOnUse" x1="25.9074" y1="27.5173" x2="28.4529" y2="92.853">
					<stop  offset="3.597120e-03" style="stop-color:#D191C0"/>
					<stop  offset="1" style="stop-color:#8172B4"/>
				</linearGradient>
				<path class="st13" d="M31.15,34.85l-3.75,1.9l0,0l-2.5-1.38c-1.73-1.28-3.05-3.05-3.82-5.16c-0.49-1.36-0.76-2.81-0.76-4.41
					c0-4.98,3.04-9.38,7.79-10.83h0l-0.52,3.59l3.54,1.65c-2.43,0.76-4.14,3-4.14,5.63c0,2.51,1.29,4.52,3.25,5.46L31.15,34.85z"/>
				<linearGradient id="SVGID_10_" gradientUnits="userSpaceOnUse" x1="62.8484" y1="28.8738" x2="65.0618" y2="85.6815">
					<stop  offset="3.597120e-03" style="stop-color:#D191C0"/>
					<stop  offset="1" style="stop-color:#8172B4"/>
				</linearGradient>
				<path class="st14" d="M66.84,26.28c0,3.91-1.92,7.47-5.1,9.23l-2.77-1.44l0.71-3.18c1.21-0.69,2.07-1.96,2.36-3.57
					c0.07-0.37,0.1-0.75,0.1-1.15c0-0.02,0-0.03,0-0.05c0-0.39-0.04-0.77-0.11-1.14c0,0,0-0.01,0-0.01c-0.31-1.6-1.28-2.97-2.6-3.71
					c-0.15-0.08-0.3-0.16-0.46-0.23l2.72-1.24l-0.39-3.19l0.03-0.08c0,0,0,0,0,0c0.92,0.46,1.73,1.02,2.42,1.68
					c1.41,1.33,2.36,3.08,2.81,5.3c0.17,0.82,0.26,1.71,0.28,2.67C66.84,26.21,66.84,26.25,66.84,26.28z"/>
				<linearGradient id="SVGID_12_" gradientUnits="userSpaceOnUse" x1="45.9727" y1="26.8872" x2="48.3372" y2="87.575">
					<stop  offset="3.597120e-03" style="stop-color:#D191C0"/>
					<stop  offset="1" style="stop-color:#8172B4"/>
				</linearGradient>
				<polygon style="fill:url(#SVGID_12_);" points="39.48,28.73 42.79,29.41 42.78,32.83 52.39,23.08 51.94,20.06 48.68,19.59 				
					"/>
			</g>
			<linearGradient id="SVGID_13_" gradientUnits="userSpaceOnUse" x1="44.0516" y1="22.9453" x2="45.2417" y2="53.4909">
				<stop  offset="0" style="stop-color:#9681BC"/>
				<stop  offset="0.9964" style="stop-color:#6166AE"/>
			</linearGradient>
			<path style="opacity:0.3;fill:url(#SVGID_13_);" d="M42.28,25.94c0,0-0.1-1.76,0.34-2.67c0.44-0.91,1.07-2.95,0.43-3.91
				c1.81,1.71,2.86,2.89,2.86,2.89L42.28,25.94z"/>
			<linearGradient id="SVGID_14_" gradientUnits="userSpaceOnUse" x1="48.0195" y1="30.2755" x2="49.3516" y2="64.4663">
				<stop  offset="0" style="stop-color:#9681BC"/>
				<stop  offset="0.9964" style="stop-color:#6166AE"/>
			</linearGradient>
			<path style="opacity:0.3;fill:url(#SVGID_14_);" d="M49.42,26.17c0,0,1.22,1.55,0.44,2.78c-0.79,1.24-0.61,1.76-0.09,2.43
				c0.52,0.67-0.05,2.11-0.05,2.11l-3.9-3.64L49.42,26.17z"/>
		</g>
		<g>
			<g>
				<linearGradient id="SVGID_15_" gradientUnits="userSpaceOnUse" x1="31.7227" y1="46.2341" x2="33.4411" y2="54.5733">
					<stop  offset="0" style="stop-color:#9681BC"/>
					<stop  offset="0.9964" style="stop-color:#6166AE"/>
				</linearGradient>
				<ellipse class="st17" cx="33.64" cy="55.55" rx="4.43" ry="1.81"/>
				<linearGradient id="SVGID_16_" gradientUnits="userSpaceOnUse" x1="29.2088" y1="54.9451" x2="38.0745" y2="54.9451">
					<stop  offset="0" style="stop-color:#9681BC"/>
					<stop  offset="0.9964" style="stop-color:#6166AE"/>
				</linearGradient>
				<path class="st18" d="M29.21,55.33c0,0.94,1.98,1.71,4.43,1.71c2.45,0,4.43-0.76,4.43-1.71c0-0.94-1.98-2.49-4.43-2.49
					C31.19,52.85,29.21,54.39,29.21,55.33z"/>
				
					<linearGradient id="SVGID_17_" gradientUnits="userSpaceOnUse" x1="-3154.0813" y1="54.5103" x2="-3146.6318" y2="54.5103" gradientTransform="matrix(-1 0 0 1 -3117.4229 0)">
					<stop  offset="0" style="stop-color:#9681BC"/>
					<stop  offset="0.9964" style="stop-color:#6166AE"/>
				</linearGradient>
				<path style="opacity:0.3;fill:url(#SVGID_17_);" d="M29.21,55.33c0-0.94,1.98-2.49,4.43-2.49c1.13,0,2.16,0.33,2.94,0.78
					c0.05,0.11,0.08,0.23,0.07,0.34c-0.05,0.53-0.92,0.86-1.41,0.96c-1.25,0.27-1.86-0.48-2.89-0.45c-0.64,0.02-1.52,0.34-2.57,1.69
					C29.42,55.92,29.21,55.64,29.21,55.33z"/>
				<path class="st6" d="M33.4,53.7c0.18,0.04,0.34,0.04,0.5,0c0.14-0.04,0.24-0.17,0.24-0.31l0-5h-0.99v4.99
					C33.15,53.54,33.25,53.67,33.4,53.7z"/>
				
					<linearGradient id="SVGID_18_" gradientUnits="userSpaceOnUse" x1="-3151.5574" y1="51.0674" x2="-3150.5718" y2="51.0674" gradientTransform="matrix(-1 0 0 1 -3117.4229 0)">
					<stop  offset="0" style="stop-color:#9681BC"/>
					<stop  offset="0.9964" style="stop-color:#6166AE"/>
				</linearGradient>
				<path style="opacity:0.65;fill:url(#SVGID_18_);" d="M33.4,53.7c0.18,0.04,0.34,0.04,0.5,0c0.14-0.04,0.24-0.17,0.24-0.31l0-5
					h-0.99v4.99C33.15,53.54,33.25,53.67,33.4,53.7z"/>
				<g>
					
						<linearGradient id="SVGID_19_" gradientUnits="userSpaceOnUse" x1="-3146.1714" y1="50.0193" x2="-3147.9785" y2="47.6644" gradientTransform="matrix(-1 0 0 1 -3117.4229 0)">
						<stop  offset="0" style="stop-color:#321944"/>
						<stop  offset="1" style="stop-color:#8A3A77"/>
					</linearGradient>
					<path class="st21" d="M38.85,46.29l-1.51-0.95c-0.06-0.36-0.77-4.08-3.65-5.24c-1.17-0.48-2.43-0.42-3.13-0.39
						c-1.38,0.06-2.37,0.11-2.84,0.76c-0.61,0.85,0.41,1.61,0.2,4.03c-0.09,0.99-0.31,1.43-0.03,2.08c0.33,0.78,1.09,1.22,1.68,1.46
						c0.7,0.41,1.93,0.99,3.55,1.13c2.73,0.24,4.77-0.93,5.47-1.38c0.31-0.1,0.55-0.36,0.61-0.68
						C39.27,46.8,39.13,46.47,38.85,46.29z"/>
				</g>
				<path class="st278" d="M38.16,46.97c-0.06-0.33-0.99-0.06-1.87-0.71c-1.32-0.98-0.63-2.64-1.78-4.23
					c-1.05-1.46-3.17-2.21-3.83-1.65c-0.88,0.74,1.27,3.51,0,5.3c-0.62,0.87-1.55,0.83-1.56,1.34c-0.01,0.81,2.33,1.73,4.54,1.69
					C36.04,48.67,38.25,47.5,38.16,46.97z"/>
			</g>
			<g>
				<path class="st6" d="M45.25,28.34l-0.21-0.39c0,0-0.19-0.04-0.27-0.17c-0.09-0.14-0.09-0.14-0.09-0.14s-0.04-0.14,0.11-0.3
					c0.04-0.03,0.05-0.08,0.05-0.13c-0.02-0.15-0.06-0.45-0.07-0.52c-0.01-0.05,0.02-0.11,0.04-0.16c0.02-0.03,0.06-0.03,0.07,0.01
					l0.16,0.61c0,0,0.13-0.03,0.18,0.08c0,0,0.11,0.07,0.13,0.19c0.02,0.12,0,0.41,0,0.41l0.18,0.41L45.25,28.34z"/>
				<linearGradient id="SVGID_20_" gradientUnits="userSpaceOnUse" x1="43.3719" y1="29.1741" x2="44.6776" y2="47.8884">
					<stop  offset="0" style="stop-color:#FFC546"/>
					<stop  offset="0.9964" style="stop-color:#F36F56"/>
				</linearGradient>
				<path class="st22" d="M44.98,28.28c0.11,0.26,0.74,1.78,0.02,3.2c-0.81,1.58-2.99,2.4-5.16,1.69c-0.02,0.28-0.2,3.85,1.55,4.7
					c1.88,0.91,5.42-1.57,6-4.7c0.49-2.67-1.41-4.84-1.72-5.18C45.44,28.08,45.21,28.18,44.98,28.28z"/>
				
					<linearGradient id="SVGID_21_" gradientUnits="userSpaceOnUse" x1="-1019.9036" y1="154.4642" x2="-1018.4566" y2="154.4642" gradientTransform="matrix(-0.996 0.0897 0.0897 0.996 -990.2801 -5.4931)">
					<stop  offset="0" style="stop-color:#454C8D"/>
					<stop  offset="0.9964" style="stop-color:#26274F"/>
				</linearGradient>
				<path class="st25" d="M38.05,56.65c-0.08,0.07-0.08,0.23-0.08,0.34c0,0.05,0,0.07,0,0.09c0.05,0.12,0.28,0.12,0.65,0.13
					c0.58,0.02,0.76,0.06,0.8-0.03c0.04-0.08-0.07-0.21-0.09-0.22c-0.07-0.07-0.15-0.1-0.3-0.14c-0.28-0.07-0.47-0.11-0.52-0.12
					C38.16,56.62,38.1,56.61,38.05,56.65z"/>
				
					<linearGradient id="SVGID_22_" gradientUnits="userSpaceOnUse" x1="-1483.918" y1="99.5724" x2="-1483.2831" y2="98.2584" gradientTransform="matrix(-0.9976 0.0694 0.0694 0.9976 -1448.6942 60.5772)">
					<stop  offset="0" style="stop-color:#FFC546"/>
					<stop  offset="0.9964" style="stop-color:#F36F56"/>
				</linearGradient>
				<path class="st26" d="M38.46,56.07l0.02,0.66c-0.02,0.03-0.22,0.12-0.37,0.03l-0.11-0.66L38.46,56.07z"/>
				
					<linearGradient id="SVGID_23_" gradientUnits="userSpaceOnUse" x1="-1234.9156" y1="192.9389" x2="-1233.3783" y2="192.9389" gradientTransform="matrix(-0.977 0.2133 0.2133 0.977 -1203.2791 131.5271)">
					<stop  offset="0" style="stop-color:#454C8D"/>
					<stop  offset="0.9964" style="stop-color:#26274F"/>
				</linearGradient>
				<path class="st27" d="M42.96,56.56c-0.1,0.1-0.13,0.29-0.05,0.39c0.08,0.1,0.2,0.03,0.55,0.06c0.37,0.03,0.46,0.12,0.72,0.07
					c0.1-0.02,0.29-0.08,0.29-0.15c0-0.05-0.09-0.08-0.39-0.2c-0.43-0.17-0.42-0.18-0.51-0.2C43.32,56.48,43.09,56.43,42.96,56.56z"
					/>
				
					<linearGradient id="SVGID_24_" gradientUnits="userSpaceOnUse" x1="-1388.8392" y1="145.8444" x2="-1388.1909" y2="144.5025" gradientTransform="matrix(-0.9894 0.1453 0.1453 0.9894 -1351.851 114.3084)">
					<stop  offset="0" style="stop-color:#FFC546"/>
					<stop  offset="0.9964" style="stop-color:#F36F56"/>
				</linearGradient>
				<path class="st28" d="M43.23,55.97l0.15,0.63c-0.02,0.03-0.21,0.13-0.37,0.05l-0.24-0.61L43.23,55.97z"/>
				
					<linearGradient id="SVGID_25_" gradientUnits="userSpaceOnUse" x1="386.4148" y1="-41.2409" x2="382.3143" y2="-50.4844" gradientTransform="matrix(0.9986 0.0533 -0.0533 0.9986 -344.0552 74.6824)">
					<stop  offset="0" style="stop-color:#321944"/>
					<stop  offset="1" style="stop-color:#8A3A77"/>
				</linearGradient>
				<path class="st29" d="M42.3,42.37c-0.08,2.07-0.07,4.41,0.14,6.96c0.2,2.52,0.55,4.81,0.96,6.82c-0.24,0.05-0.48,0.1-0.72,0.15
					c-0.57-0.59-1.28-1.51-1.58-2.78c-0.19-0.79-0.09-1.18-0.18-2.14c-0.15-1.53-0.57-2.34-0.98-3.59c-0.37-1.12-0.8-2.76-0.95-4.92
					C40.09,42.71,41.19,42.54,42.3,42.37z"/>
				
					<linearGradient id="SVGID_26_" gradientUnits="userSpaceOnUse" x1="385.7789" y1="-40.9588" x2="381.6784" y2="-50.2023" gradientTransform="matrix(0.9986 0.0533 -0.0533 0.9986 -344.0552 74.6824)">
					<stop  offset="0" style="stop-color:#321944"/>
					<stop  offset="1" style="stop-color:#8A3A77"/>
				</linearGradient>
				<path style="opacity:0.3;fill:url(#SVGID_26_);" d="M41.97,52.07c-0.26-1.05-0.77-1.32-0.79-2.31c-0.01-0.7,0.24-0.76,0.22-1.42
					c-0.03-1.01-0.62-1.55-0.92-2.18c-0.32-0.67-0.44-1.76,0.41-3.56c-0.64,0.1-1.28,0.2-1.92,0.3c0.16,2.17,0.58,3.8,0.95,4.92
					c0.41,1.25,0.84,2.06,0.98,3.59c0.09,0.96,0,1.35,0.18,2.14c0.3,1.26,1.01,2.19,1.58,2.78c0.06-0.01,0.12-0.03,0.18-0.04
					c-0.62-0.74-0.83-1.39-0.89-1.93C41.88,53.48,42.24,53.12,41.97,52.07z"/>
				
					<linearGradient id="SVGID_27_" gradientUnits="userSpaceOnUse" x1="65.0527" y1="96.9746" x2="60.9521" y2="87.7309" gradientTransform="matrix(0.9976 -0.0694 0.0694 0.9976 -29.918 -37.6199)">
					<stop  offset="0" style="stop-color:#321944"/>
					<stop  offset="1" style="stop-color:#8A3A77"/>
				</linearGradient>
				<path class="st31" d="M39.9,42.24c-0.29,2.63-0.55,5.31-0.78,8.04c-0.18,2.05-0.34,4.07-0.47,6.07
					c-0.24,0.02-0.49,0.03-0.73,0.05c-0.21-0.45-0.49-1.13-0.65-1.99c-0.2-1.05-0.11-1.66-0.17-2.74c-0.06-1.21-0.23-1.48-0.48-3.02
					c-0.5-3.12-0.75-4.67,0.04-5.59C36.92,42.76,37.71,42.02,39.9,42.24z"/>
				<linearGradient id="SVGID_28_" gradientUnits="userSpaceOnUse" x1="38.566" y1="48.0761" x2="45.8042" y2="31.3516">
					<stop  offset="0" style="stop-color:#FFC546"/>
					<stop  offset="0.9964" style="stop-color:#F36F56"/>
				</linearGradient>
				<path style="opacity:0.3;fill:url(#SVGID_28_);" d="M47.08,30.27c-0.01,0.32-0.08,0.59-0.17,0.81
					c-0.32,0.79-1.08,1.36-0.92,2.25c0.08,0.44,0.32,0.6,0.22,0.92c-0.14,0.46-0.72,0.43-1.33,0.95c-0.54,0.46-0.57,0.88-0.85,1.27
					c-0.38,0.52-1.24,1-3.31,0.85c0.18,0.23,0.41,0.43,0.67,0.56c1.88,0.91,5.42-1.57,6-4.7C47.58,32.09,47.39,31.09,47.08,30.27z"
					/>
				<linearGradient id="SVGID_29_" gradientUnits="userSpaceOnUse" x1="38.1067" y1="29.5415" x2="39.4123" y2="48.2557">
					<stop  offset="0" style="stop-color:#FFC546"/>
					<stop  offset="0.9964" style="stop-color:#F36F56"/>
				</linearGradient>
				<path class="st33" d="M33.6,34.07c1.31-0.45,3.32-0.94,5.77-0.84c1.42,0.06,2.64,0.3,3.61,0.57c0.13,0.73,0.26,1.46,0.39,2.2
					c0.03,0.73,0.04,1.73-0.04,2.9c-0.08,1.17-0.16,1.19-0.35,2.85c-0.31,2.7-0.18,3.41-0.72,3.73c-0.35,0.21-0.48-0.04-2.28-0.22
					c-1.21-0.12-1.83-0.18-2.44,0.03c-0.83,0.28-1.11,0.76-1.46,0.6c-0.33-0.15-0.37-0.72-0.41-1.71c-0.06-1.53-0.06-2.57-0.06-2.94
					c-0.03-1.71-0.46-3.01-1.01-4.69C34.25,35.51,33.88,34.66,33.6,34.07z"/>
				<g>
					<path class="st6" d="M39.84,32.99c-0.11-0.23,0.04-0.53,0.22-0.78c-0.14-0.3-0.7-0.38-0.84-0.68c-0.02,0.43-0.09,0.77-0.14,1
						c-0.07,0.26-0.11,0.33-0.16,0.39c-0.08,0.08-0.19,0.15-0.81,0.27c-0.34,0.07-0.38,0.06-0.39,0.09
						c-0.04,0.16,0.84,0.76,1.79,0.68c0.58-0.05,1.13-0.35,1.1-0.53C40.58,33.25,39.99,33.32,39.84,32.99z"/>
					<g>
						<path class="st289" d="M40.28,31.76c0.15-0.17,0.17-0.49,0.02-0.7c-0.13-0.18-0.34-0.22-0.46-0.24
							c-0.37-0.06-0.84,0.07-1.02,0.4c-0.11,0.2,0.08,0.63,0.11,0.7c0.03,0.09,0.1,0.12,0.16,0.19c0.08,0.09,0.21,0.24,0.41,0.49
							c0.02-0.07,0.05-0.15,0.1-0.25c0.02-0.04,0.09-0.17,0.19-0.28C39.98,31.85,40.14,31.93,40.28,31.76z"/>
						<path class="st6" d="M39.19,32.39c0,0,0.22,0.41,0.71,0.41c0.43-0.01,0.55-0.97,0.28-1.19c-0.09-0.07-0.27-0.11-0.42-0.08
							c-0.09,0.02-0.12,0.06-0.27,0.09c-0.14,0.03-0.17,0.01-0.22,0.04c-0.05,0.04-0.1,0.14-0.03,0.43
							c-0.08-0.09-0.18-0.13-0.25-0.1c-0.01,0-0.04,0.02-0.06,0.05C38.87,32.15,38.96,32.29,39.19,32.39z"/>
						<path class="st289" d="M39.25,31.59c0.02,0.02-0.05,0.09-0.06,0.2c-0.02,0.21,0.18,0.48,0.4,0.51
							c0.13,0.02,0.17-0.06,0.39-0.07c0.13-0.01,0.24,0.02,0.31,0.03c0.06,0.24-0.02,0.47-0.18,0.57c-0.17,0.11-0.39,0.03-0.48-0.01
							c-0.06-0.02-0.25-0.1-0.34-0.28c-0.1-0.19,0.01-0.3-0.1-0.43c-0.06-0.07-0.14-0.1-0.21-0.22c-0.02-0.03-0.03-0.06-0.04-0.08
							C39.07,31.71,39.23,31.57,39.25,31.59z"/>
						<path class="st6" d="M40.14,32.35c0,0-0.1,0.04-0.26,0.03c-0.01,0-0.02,0-0.02,0c0,0.02,0.1,0.09,0.19,0.07
							c0.07-0.02,0.12-0.08,0.12-0.09C40.17,32.35,40.15,32.35,40.14,32.35z"/>
					</g>
				</g>
				<linearGradient id="SVGID_30_" gradientUnits="userSpaceOnUse" x1="37.351" y1="44.4513" x2="43.6207" y2="29.9644">
					<stop  offset="0" style="stop-color:#FFC546"/>
					<stop  offset="0.9964" style="stop-color:#F36F56"/>
				</linearGradient>
				<path style="opacity:0.3;fill:url(#SVGID_30_);" d="M41.56,44.6c-0.89-0.38-0.88-1.16-1.71-1.49c-1.18-0.47-2.49,0.62-2.69,0.32
					c-0.21-0.31,1.35-1.27,1.14-2.22c-0.16-0.75-1.25-0.62-1.84-1.65c-0.55-0.98-0.02-1.88-0.51-2.22
					c-0.18-0.12-0.49-0.17-1.07,0.09c0.41,1.28,0.7,2.41,0.72,3.81c0.01,0.37,0,1.41,0.06,2.94c0.04,0.99,0.08,1.56,0.41,1.71
					c0.34,0.15,0.62-0.32,1.46-0.6c0.61-0.21,1.23-0.15,2.44-0.03c1.8,0.18,1.93,0.43,2.28,0.22c0.23-0.14,0.34-0.34,0.41-0.74
					C42.31,44.78,41.93,44.75,41.56,44.6z"/>
				<path class="st6" d="M34.81,41.24l0.44-0.02c0,0,0.48-0.4,0.69-0.37c0.22,0.02,0.54,0.18,0.58,0.21
					c0.04,0.03-0.12,0.21-0.28,0.19c-0.16-0.02-0.51,0.07-0.57,0.21c-0.06,0.14-0.34,0.22-0.38,0.14l-0.58,0.12L34.81,41.24z"/>
				<linearGradient id="SVGID_31_" gradientUnits="userSpaceOnUse" x1="32.3407" y1="29.9438" x2="33.6463" y2="48.658">
					<stop  offset="0" style="stop-color:#FFC546"/>
					<stop  offset="0.9964" style="stop-color:#F36F56"/>
				</linearGradient>
				<path class="st35" d="M34.95,41.09c0.03,0.36-0.05,0.6-0.18,0.77c-0.58,0.74-2.53,0.44-3.69-0.55c-0.86-0.73-1.32-1.87-1.3-2.88
					c0.03-1.98,1.87-3.93,4.61-4.6c0.4,1.21,1.23,2.32,1.64,3.53c-1.69,0.03-3.13,1.4-2.98,2.31
					C33.15,40.33,33.94,40.94,34.95,41.09z"/>
			</g>
			<g>
				<path class="st292" d="M48.66,59.27c-0.04,0-0.07-0.03-0.07-0.06L47.3,45.25c0-0.04,0.03-0.07,0.06-0.08
					c0.04,0,0.07,0.03,0.08,0.06l1.15,12.42V44.93c0-0.04,0.03-0.07,0.07-0.07c0.04,0,0.07,0.03,0.07,0.07v14.26
					C48.74,59.23,48.71,59.26,48.66,59.27C48.67,59.27,48.67,59.27,48.66,59.27z"/>
				<g>
					<polygon class="st293" points="63.06,46.46 48.9,44.91 21.69,46.14 35.94,47.85 					"/>
					<polygon class="st292" points="35.94,47.85 63.06,46.46 63.06,47.13 35.94,48.52 21.69,46.82 21.69,46.14 					"/>
				</g>
				<path class="st292" d="M36.04,64.13C36.03,64.13,36.03,64.13,36.04,64.13c-0.04,0-0.07-0.03-0.07-0.07v-15.7
					c0-0.04,0.03-0.07,0.07-0.07s0.07,0.03,0.07,0.07v13.88l1.09-13.88c0-0.04,0.04-0.07,0.08-0.07c0.04,0,0.07,0.04,0.07,0.08
					l-1.23,15.7C36.1,64.1,36.07,64.13,36.04,64.13z"/>
				<path class="st292" d="M21.84,61.34C21.84,61.34,21.84,61.34,21.84,61.34c-0.04,0-0.07-0.03-0.07-0.07V46.78
					c0-0.04,0.03-0.07,0.07-0.07c0.04,0,0.07,0.03,0.07,0.07v12.67l1-12.68c0-0.04,0.04-0.07,0.08-0.07c0.04,0,0.07,0.04,0.07,0.08
					l-1.14,14.49C21.91,61.31,21.88,61.34,21.84,61.34z"/>
				<path class="st292" d="M62.93,61.34c-0.04,0-0.07-0.03-0.07-0.07l-1.21-14.49c0-0.04,0.03-0.07,0.07-0.08
					c0.04,0,0.07,0.03,0.08,0.07l1.07,12.79V47.13c0-0.04,0.03-0.07,0.07-0.07c0.04,0,0.07,0.03,0.07,0.07v14.14
					C63,61.31,62.97,61.34,62.93,61.34C62.93,61.34,62.93,61.34,62.93,61.34z"/>
			</g>
			<g>
				<g>
					<g>
						<path class="st294" d="M57.32,46.73l-9.73-0.07v0.21c0,0.06,0.04,0.11,0.1,0.12l2.75,0.42c0.03,0.01,0.07,0.01,0.1,0
							l6.68-0.48c0.06,0,0.11-0.05,0.11-0.11V46.73z"/>
						<g>
							<path class="st294" d="M53.79,46.37l-6.1,0.39c-0.11,0.01-0.2-0.07-0.2-0.17v-3.96c0-0.1,0.09-0.18,0.2-0.18h6.1
								c0.09,0,0.16,0.07,0.16,0.16v3.58C53.95,46.29,53.88,46.37,53.79,46.37z"/>
							<path class="st293" d="M53.89,46.37l-6.1,0.39c-0.11,0.01-0.2-0.07-0.2-0.17v-3.96c0-0.1,0.09-0.18,0.2-0.18h6.1
								c0.09,0,0.16,0.07,0.16,0.16v3.58C54.05,46.29,53.98,46.37,53.89,46.37z"/>
							<path class="st295" d="M53.7,46.12l-5.68,0.34c-0.09,0.01-0.16-0.06-0.16-0.14v-3.47c0-0.08,0.07-0.15,0.16-0.15l5.68-0.02
								c0.07,0,0.13,0.06,0.13,0.13v3.16C53.83,46.05,53.77,46.12,53.7,46.12z"/>
							<path class="st6" d="M51.06,42.56c0,0.04-0.03,0.07-0.07,0.07c-0.04,0-0.07-0.03-0.07-0.07s0.03-0.07,0.07-0.07
								C51.02,42.5,51.06,42.53,51.06,42.56z"/>
							<path class="st133" d="M52.44,45.29c-0.47-0.23-0.84,0.06-1.2-0.23c-0.22-0.17-0.11-0.3-0.38-0.57
								c-0.3-0.29-0.49-0.19-0.79-0.45c-0.38-0.33-0.19-0.58-0.51-0.82c-0.39-0.29-0.82-0.02-1.19-0.3
								c-0.16-0.12-0.25-0.29-0.3-0.47h-0.37c-0.06,0-0.12,0.05-0.12,0.11v4.11c0,0.06,0.05,0.1,0.12,0.1l6.25-0.4
								c0.03,0,0.06-0.02,0.08-0.04c-0.46-0.02-0.74-0.15-0.92-0.3C52.76,45.75,52.82,45.47,52.44,45.29z"/>
						</g>
						<path class="st6" d="M54.13,46.36l-6.54,0.41l2.85,0.44c0.03,0.01,0.07,0.01,0.1,0l6.78-0.49l-3.09-0.36
							C54.2,46.36,54.17,46.36,54.13,46.36z"/>
						<polygon class="st296" points="48.55,46.78 53.99,46.43 55.68,46.63 50.28,47 						"/>
					</g>
				</g>
				
					<linearGradient id="SVGID_32_" gradientUnits="userSpaceOnUse" x1="680.9579" y1="57.2273" x2="681.2778" y2="61.2981" gradientTransform="matrix(1 0 0 1 -626.2627 0)">
					<stop  offset="3.597000e-03" style="stop-color:#26274F"/>
					<stop  offset="1" style="stop-color:#454C8D"/>
				</linearGradient>
				<path class="st36" d="M55.37,59.25c0,0-1.43,0.1-1.45,0.19c-0.02,0.09,0.97,0.45,1.32,0.47c0.35,0.01,0.63-0.09,0.6-0.24
					c-0.03-0.15-0.15-0.52-0.15-0.52L55.37,59.25z"/>
				
					<linearGradient id="SVGID_33_" gradientUnits="userSpaceOnUse" x1="-430.9053" y1="-113.9236" x2="-430.9725" y2="-118.7926" gradientTransform="matrix(0.9853 0.171 -0.171 0.9853 460.5366 245.4099)">
					<stop  offset="0" style="stop-color:#FFC546"/>
					<stop  offset="0.9964" style="stop-color:#F36F56"/>
				</linearGradient>
				<path class="st37" d="M55.3,58.62l-0.03,0.68c0,0,0.22,0.12,0.39,0.05l0.19-0.71L55.3,58.62z"/>
				
					<linearGradient id="SVGID_34_" gradientUnits="userSpaceOnUse" x1="676.9574" y1="56.955" x2="677.2773" y2="61.0259" gradientTransform="matrix(1 0 0 1 -626.2627 0)">
					<stop  offset="3.597000e-03" style="stop-color:#26274F"/>
					<stop  offset="1" style="stop-color:#454C8D"/>
				</linearGradient>
				<path class="st38" d="M51.37,58.98c0,0-1.43,0.1-1.45,0.19c-0.02,0.09,0.97,0.45,1.32,0.47c0.35,0.01,0.63-0.09,0.6-0.24
					c-0.03-0.15-0.15-0.52-0.15-0.52L51.37,58.98z"/>
				
					<linearGradient id="SVGID_35_" gradientUnits="userSpaceOnUse" x1="-434.8934" y1="-113.5078" x2="-434.9605" y2="-118.3768" gradientTransform="matrix(0.9853 0.171 -0.171 0.9853 460.5366 245.4099)">
					<stop  offset="0" style="stop-color:#FFC546"/>
					<stop  offset="0.9964" style="stop-color:#F36F56"/>
				</linearGradient>
				<path class="st39" d="M51.3,58.35l-0.03,0.68c0,0,0.22,0.12,0.39,0.05l0.19-0.71L51.3,58.35z"/>
				<linearGradient id="SVGID_36_" gradientUnits="userSpaceOnUse" x1="62.6559" y1="48.5831" x2="60.8295" y2="51.3005">
					<stop  offset="0" style="stop-color:#8A3A77"/>
					<stop  offset="1" style="stop-color:#321944"/>
				</linearGradient>
				<path class="st40" d="M55.15,58.71c0.27,0.03,0.53,0.06,0.8,0.09c0.36-0.4,0.9-1.1,1.19-2.08c0.56-1.89-0.25-3.25,0.27-3.59
					c0.73-0.48,2.31,2.28,4.86,2.21c1.04-0.03,2.4-0.54,2.93-1.65c0.08-0.17,0.47-1.05,0.09-1.87c-0.39-0.85-2.33-1.22-6.18-1.93
					c-1.65-0.3-2.49-0.45-2.83-0.29C53.9,50.73,54.89,57.16,55.15,58.71z"/>
				<linearGradient id="SVGID_37_" gradientUnits="userSpaceOnUse" x1="51.07" y1="54.5664" x2="64.178" y2="54.5664">
					<stop  offset="0" style="stop-color:#8A3A77"/>
					<stop  offset="1" style="stop-color:#321944"/>
				</linearGradient>
				<path class="st41" d="M51.07,58.72c0.28,0.05,0.55,0.1,0.83,0.14c0.34-0.49,0.84-1.27,1.41-2.25c1.18-2.05,1.16-2.47,1.71-2.73
					c1.16-0.56,2.03,0.95,4.9,1.37c0.94,0.14,3.02,0.44,3.86-0.68c0.34-0.45,0.54-1.22,0.27-1.87c-0.48-1.17-2.08-1.03-7.34-2.05
					c-2.05-0.4-2.33-0.47-2.83-0.29C51.12,51.34,51.06,57.38,51.07,58.72z"/>
				<linearGradient id="SVGID_38_" gradientUnits="userSpaceOnUse" x1="58.0793" y1="44.7295" x2="63.9137" y2="50.3007">
					<stop  offset="0" style="stop-color:#F58F86"/>
					<stop  offset="1" style="stop-color:#ED72AC"/>
				</linearGradient>
				<path class="st42" d="M56.81,42.67c0.27-0.67,0.86-1.05,1.16-1.25c0.15-0.1,0.29-0.17,0.43-0.23c1.1-0.45,2.2-0.42,2.39-0.4
					c0.47,0.04,1.65,0.12,2.52,0.88c0.42,0.36,0.76,0.87,1.25,3.74c0.68,4,0.13,3.59,0.67,5.21c0.29,0.86,0.73,1.84,0.26,2.47
					c-0.15,0.2-0.37,0.26-0.81,0.46c-1.65,0.74-3.13,0.62-4.03,0.53c-0.99-0.1-1.49-0.15-1.75-0.5c-0.42-0.56,0.01-1.27,0.09-2.5
					c0.05-0.88-0.15-1.58-0.55-2.98C57.5,44.83,56.29,43.95,56.81,42.67z"/>
				<linearGradient id="SVGID_39_" gradientUnits="userSpaceOnUse" x1="51.1025" y1="46.481" x2="50.9695" y2="47.0882">
					<stop  offset="0" style="stop-color:#FFC546"/>
					<stop  offset="0.9964" style="stop-color:#F36F56"/>
				</linearGradient>
				<path class="st43" d="M52.16,46.66l-1.06-0.2c-0.08-0.01-0.15-0.02-0.23,0l-0.91,0.16c0,0,0.59,0.24,1.1,0.16
					c0.5-0.07,1.06,0.21,1.06,0.21L52.16,46.66z"/>
				<g>
					<g>
						
							<linearGradient id="SVGID_40_" gradientUnits="userSpaceOnUse" x1="3397.2368" y1="-325.6723" x2="3400.8755" y2="-321.0943" gradientTransform="matrix(0.9663 0.2576 -0.2576 0.9663 -3307.8096 -522.1406)">
							<stop  offset="0" style="stop-color:#FFC546"/>
							<stop  offset="0.9964" style="stop-color:#F36F56"/>
						</linearGradient>
						<path class="st44" d="M59.15,40.05c-0.18-0.27,0.09-0.78,0.19-0.99c0-0.01,0.01-0.02,0.02-0.03c0.16-0.3,0.2-0.34,0.28-0.39
							l0.11-0.07c0,0,0.01,0,0.01,0c0.07-0.02,0.3-0.03,0.35-0.02c0.15,0.03,0.31,0.65,0.27,1.52c0.01,0.03,0.01,0.07,0.02,0.1
							c0.02,0.14,0.04,0.27,0.06,0.41c0.01,0.13,0.19,0.12,0.32,0.12c0.52-0.03,0.77,0.01,0.79,0.09c0.04,0.14-0.57,0.61-1.32,0.72
							c-1.01,0.01-1.84-0.1-1.75-0.26c0.04-0.07,0.82-0.28,1.04-0.48c0.2-0.19,0.19-0.38,0.2-0.52
							C59.63,40.24,59.28,40.25,59.15,40.05z"/>
						<path class="st289" d="M59.43,38.32c-0.08,0.18,0.12,0.55,0.19,0.61c0.01,0.01,0.06,0.04,0.1,0.11
							c0.01,0.01,0.01,0.02,0.02,0.03c0.06,0.17-0.21,0.37-0.16,0.45c0.04,0.06,0.22-0.02,0.24,0.03c0.02,0.05-0.13,0.14-0.11,0.19
							c0.02,0.04,0.11,0,0.17,0.07c0.05,0.05,0.05,0.12,0.05,0.15c0.01,0.24-0.54,1.12-0.66,1.51c-0.12,0.42,0.1,0.82,0.88,1.92
							c1.12,1.57,1.68,2.35,2,2.58c1.53,1.09,3.32,0.96,4.05,0.85c0.88-0.14,2.71-0.42,3.3-1.83c0.68-1.62-0.65-3.83-2.02-4.2
							c-0.62-0.17-0.96,0.09-1.77-0.19c-0.9-0.31-0.79-0.86-1.62-1.19c-1.11-0.43-1.82,0.34-2.57-0.22
							c-0.41-0.31-0.34-0.64-0.85-0.89C60.2,38.04,59.54,38.08,59.43,38.32z"/>
						
							<linearGradient id="SVGID_41_" gradientUnits="userSpaceOnUse" x1="3397.4109" y1="-325.9027" x2="3401.4736" y2="-320.7914" gradientTransform="matrix(0.9663 0.2576 -0.2576 0.9663 -3307.8096 -522.1406)">
							<stop  offset="0" style="stop-color:#FFC546"/>
							<stop  offset="0.9964" style="stop-color:#F36F56"/>
						</linearGradient>
						<path class="st45" d="M59.68,39.45c0.07-0.09,0.18-0.01,0.18,0.11c0,0.12-0.11,0.24-0.22,0.22
							C59.53,39.75,59.59,39.57,59.68,39.45z"/>
					</g>
				</g>
				<linearGradient id="SVGID_42_" gradientUnits="userSpaceOnUse" x1="56.4828" y1="46.4006" x2="62.3158" y2="51.9705">
					<stop  offset="0" style="stop-color:#F58F86"/>
					<stop  offset="1" style="stop-color:#ED72AC"/>
				</linearGradient>
				<path style="opacity:0.3;fill:url(#SVGID_42_);" d="M61.51,52.91c-0.29-0.58,0.42-1.35-0.04-2.24c-0.4-0.75-1.12-0.58-1.45-1.27
					c-0.4-0.83,0.47-1.45,0.44-2.72c-0.04-1.51-1.34-3.03-2.11-2.89c-0.5,0.09-0.56,0.83-0.91,1.64c0.31,0.68,0.67,1.52,1,2.66
					c0.4,1.4,0.6,2.1,0.55,2.98c-0.08,1.23-0.51,1.94-0.09,2.5c0.26,0.35,0.76,0.41,1.75,0.5c0.9,0.09,2.38,0.22,4.03-0.53
					c0.21-0.09,0.37-0.16,0.49-0.23C62.6,53.7,61.74,53.37,61.51,52.91z"/>
				<linearGradient id="SVGID_43_" gradientUnits="userSpaceOnUse" x1="56.745" y1="45.7472" x2="63.3621" y2="52.0657">
					<stop  offset="0" style="stop-color:#F58F86"/>
					<stop  offset="1" style="stop-color:#ED72AC"/>
				</linearGradient>
				<path style="fill:url(#SVGID_43_);" d="M51.89,46.96c0.03-0.13,0.06-0.27,0.09-0.4c2.03,0.36,2.92-0.04,3.34-0.52
					c0.39-0.44,0.23-0.66,0.86-2.34c0.6-1.59,1.28-2,1.62-2.15c0.19-0.08,0.32-0.14,0.48-0.1c0.73,0.18,0.97,2.08,0.77,3.51
					c-0.12,0.8-0.34,2.38-1.63,3.12c-0.02,0.01-0.06,0.04-0.11,0.06c-0.16,0.09-0.81,0.4-2.08,0.17
					C53.72,48.05,52.26,47.19,51.89,46.96z"/>
			</g>
			<g>
				<linearGradient id="SVGID_44_" gradientUnits="userSpaceOnUse" x1="56.9497" y1="41.0358" x2="58.6681" y2="49.375">
					<stop  offset="0" style="stop-color:#9681BC"/>
					<stop  offset="0.9964" style="stop-color:#6166AE"/>
				</linearGradient>
				<ellipse class="st48" cx="61.28" cy="62.05" rx="4.43" ry="1.81"/>
				<linearGradient id="SVGID_45_" gradientUnits="userSpaceOnUse" x1="56.8481" y1="61.4535" x2="65.7137" y2="61.4535">
					<stop  offset="0" style="stop-color:#9681BC"/>
					<stop  offset="0.9964" style="stop-color:#6166AE"/>
				</linearGradient>
				<path class="st50" d="M65.71,61.84c0,0.94-1.98,1.71-4.43,1.71c-2.45,0-4.43-0.76-4.43-1.71c0-0.94,1.98-2.49,4.43-2.49
					C63.73,59.36,65.71,60.9,65.71,61.84z"/>
				
					<linearGradient id="SVGID_46_" gradientUnits="userSpaceOnUse" x1="132.5936" y1="61.0186" x2="140.043" y2="61.0186" gradientTransform="matrix(1 0 0 1 -74.3293 0)">
					<stop  offset="0" style="stop-color:#9681BC"/>
					<stop  offset="0.9964" style="stop-color:#6166AE"/>
				</linearGradient>
				<path style="opacity:0.3;fill:url(#SVGID_46_);" d="M65.71,61.84c0-0.94-1.98-2.49-4.43-2.49c-1.13,0-2.16,0.33-2.94,0.78
					c-0.05,0.11-0.08,0.23-0.07,0.34c0.05,0.53,0.92,0.86,1.41,0.96c1.25,0.27,1.86-0.48,2.89-0.45c0.64,0.02,1.52,0.34,2.57,1.69
					C65.51,62.43,65.71,62.15,65.71,61.84z"/>
				<path class="st6" d="M61.52,60.21c-0.18,0.04-0.34,0.04-0.5,0c-0.14-0.04-0.24-0.17-0.24-0.31l0-5h0.99v4.99
					C61.77,60.05,61.67,60.18,61.52,60.21z"/>
				
					<linearGradient id="SVGID_47_" gradientUnits="userSpaceOnUse" x1="135.1174" y1="57.5758" x2="136.1031" y2="57.5758" gradientTransform="matrix(1 0 0 1 -74.3293 0)">
					<stop  offset="0" style="stop-color:#9681BC"/>
					<stop  offset="0.9964" style="stop-color:#6166AE"/>
				</linearGradient>
				<path style="opacity:0.65;fill:url(#SVGID_47_);" d="M61.52,60.21c-0.18,0.04-0.34,0.04-0.5,0c-0.14-0.04-0.24-0.17-0.24-0.31
					l0-5h0.99v4.99C61.77,60.05,61.67,60.18,61.52,60.21z"/>
				<g>
					
						<linearGradient id="SVGID_48_" gradientUnits="userSpaceOnUse" x1="140.5034" y1="56.5276" x2="138.6962" y2="54.1727" gradientTransform="matrix(1 0 0 1 -74.3293 0)">
						<stop  offset="0" style="stop-color:#321944"/>
						<stop  offset="1" style="stop-color:#8A3A77"/>
					</linearGradient>
					<path class="st53" d="M56.07,52.8l1.51-0.95c0.06-0.36,0.77-4.08,3.65-5.24c1.17-0.48,2.43-0.42,3.13-0.39
						c1.38,0.06,2.37,0.11,2.84,0.76c0.61,0.85-0.41,1.61-0.2,4.03c0.09,0.99,0.31,1.43,0.03,2.08c-0.33,0.78-1.09,1.22-1.68,1.46
						c-0.7,0.41-1.93,0.99-3.55,1.13c-2.73,0.24-4.77-0.93-5.47-1.38c-0.31-0.1-0.55-0.36-0.61-0.68
						C55.65,53.31,55.79,52.98,56.07,52.8z"/>
				</g>
				<path class="st278" d="M56.76,53.48c0.06-0.33,0.99-0.06,1.87-0.71c1.32-0.98,0.63-2.64,1.78-4.23
					c1.05-1.46,3.17-2.21,3.83-1.65c0.88,0.74-1.27,3.51,0,5.3c0.62,0.87,1.55,0.83,1.56,1.34c0.01,0.81-2.33,1.73-4.54,1.69
					C58.88,55.17,56.68,54.01,56.76,53.48z"/>
			</g>
		</g>
		<g>
			
				<linearGradient id="SVGID_49_" gradientUnits="userSpaceOnUse" x1="-243.7429" y1="93.7378" x2="-242.9508" y2="94.4424" gradientTransform="matrix(-0.9902 -0.14 -0.14 0.9902 -196.8922 -66.2016)">
				<stop  offset="0" style="stop-color:#454C8D"/>
				<stop  offset="0.9964" style="stop-color:#26274F"/>
			</linearGradient>
			<path class="st54" d="M31.12,61.1c-0.02-0.12-0.42-0.24-0.62-0.07c-0.1,0.08-0.17,0.25-0.11,0.33c0.02,0.03-0.06,0.08,0.02,0.08
				C30.67,61.44,31.14,61.22,31.12,61.1z"/>
			
				<linearGradient id="SVGID_50_" gradientUnits="userSpaceOnUse" x1="-723.3765" y1="538.7652" x2="-723.3765" y2="537.3853" gradientTransform="matrix(-0.9988 0.0498 0.0498 0.9988 -718.8333 -440.7687)">
				<stop  offset="0" style="stop-color:#FFC546"/>
				<stop  offset="0.9964" style="stop-color:#F36F56"/>
			</linearGradient>
			<path class="st55" d="M30.68,61.1l-0.42,0.02c0.14-0.26-0.03-0.97-0.03-0.97l0.45,0.01c0,0-0.01,0.21-0.04,0.51
				C30.63,60.78,30.65,60.94,30.68,61.1z"/>
			
				<linearGradient id="SVGID_51_" gradientUnits="userSpaceOnUse" x1="-243.6633" y1="93.6483" x2="-242.8711" y2="94.3529" gradientTransform="matrix(-0.9902 -0.14 -0.14 0.9902 -196.8922 -66.2016)">
				<stop  offset="0" style="stop-color:#454C8D"/>
				<stop  offset="0.9964" style="stop-color:#26274F"/>
			</linearGradient>
			<path class="st56" d="M30.73,61.09c0,0-0.5-0.11-0.55-0.02c-0.05,0.1-0.1,0.36,0.22,0.35C30.72,61.42,30.76,61.18,30.73,61.09z"
				/>
			
				<linearGradient id="SVGID_52_" gradientUnits="userSpaceOnUse" x1="-78.3364" y1="61.2197" x2="-77.5442" y2="61.9243" gradientTransform="matrix(-1 0 0 1 -44.5171 0)">
				<stop  offset="0" style="stop-color:#454C8D"/>
				<stop  offset="0.9964" style="stop-color:#26274F"/>
			</linearGradient>
			<path class="st57" d="M33.65,61.61c-0.04-0.12-0.45-0.17-0.63,0.02c-0.09,0.1-0.13,0.27-0.06,0.34c0.02,0.02-0.05,0.08,0.03,0.07
				C33.26,62,33.69,61.72,33.65,61.61z"/>
			
				<linearGradient id="SVGID_53_" gradientUnits="userSpaceOnUse" x1="-493.8676" y1="434.2111" x2="-493.8676" y2="432.8311" gradientTransform="matrix(-0.9813 0.1926 0.1926 0.9813 -535.238 -269.0038)">
				<stop  offset="0" style="stop-color:#FFC546"/>
				<stop  offset="0.9964" style="stop-color:#F36F56"/>
			</linearGradient>
			<path class="st58" d="M33.16,61.72l-0.41,0.08c0.11-0.28-0.17-0.96-0.17-0.96l0.45-0.05c0,0,0.02,0.21,0.04,0.51
				C33.07,61.41,33.11,61.56,33.16,61.72z"/>
			
				<linearGradient id="SVGID_54_" gradientUnits="userSpaceOnUse" x1="-78.2567" y1="61.1302" x2="-77.4646" y2="61.8348" gradientTransform="matrix(-1 0 0 1 -44.5171 0)">
				<stop  offset="0" style="stop-color:#454C8D"/>
				<stop  offset="0.9964" style="stop-color:#26274F"/>
			</linearGradient>
			<path class="st61" d="M33.27,61.65c0,0-0.51-0.04-0.55,0.06c-0.04,0.11-0.04,0.37,0.27,0.32C33.3,61.98,33.31,61.73,33.27,61.65z
				"/>
			<g>
				<path class="st289" d="M31.1,49.21l1.75-4.11c0.09-0.21-0.03-0.44-0.25-0.49l-3.21-0.78c-0.17-0.04-0.35,0.05-0.42,0.21
					L27.36,48c-0.08,0.2,0.03,0.42,0.23,0.48l3.07,0.94C30.84,49.47,31.02,49.38,31.1,49.21z"/>
				<path class="st295" d="M31.02,49.02l1.64-3.84c0.08-0.19-0.03-0.41-0.23-0.46l-3-0.73c-0.16-0.04-0.33,0.05-0.39,0.2l-1.51,3.69
					c-0.08,0.18,0.02,0.39,0.21,0.45l2.87,0.88C30.77,49.26,30.95,49.17,31.02,49.02z"/>
			</g>
			
				<linearGradient id="SVGID_55_" gradientUnits="userSpaceOnUse" x1="-2685.5757" y1="46.4086" x2="-2686.0598" y2="48.619" gradientTransform="matrix(-1 0 0 1 -2653.5964 0)">
				<stop  offset="0" style="stop-color:#FFC546"/>
				<stop  offset="0.9964" style="stop-color:#F36F56"/>
			</linearGradient>
			<path class="st62" d="M32.03,47.89l0.05-0.48l0.28-0.53c0.04-0.07,0.06-0.15,0.06-0.23v-0.53l-0.34,0.78c0,0-0.22-0.2-0.31-0.24
				c-0.08-0.04-0.07,0.13-0.01,0.19c0.06,0.06-0.03,0.58,0.03,0.63l-0.02,0.32L32.03,47.89z"/>
			
				<linearGradient id="SVGID_56_" gradientUnits="userSpaceOnUse" x1="-2681.2007" y1="46.2184" x2="-2675.6008" y2="51.5655" gradientTransform="matrix(-1 0 0 1 -2653.5964 0)">
				<stop  offset="3.597120e-03" style="stop-color:#D191C0"/>
				<stop  offset="1" style="stop-color:#8172B4"/>
			</linearGradient>
			<path class="st63" d="M29.35,44.8c-0.26-0.64-0.82-1.01-1.12-1.2c-0.69-0.45-1.13-0.37-2.72-0.61c-2.11-0.32-2.36-0.63-3.07-0.38
				c-0.93,0.32-1.42,1.17-1.64,1.56c-1.12,1.95,0.19,2.95-0.15,6.84c-0.14,1.59-0.49,2.97,0.36,3.79c0.18,0.17,0.38,0.26,0.78,0.44
				c1.59,0.71,3.01,0.59,3.87,0.51c0.95-0.09,1.43-0.15,1.68-0.48c0.4-0.54-0.01-1.22-0.08-2.4c-0.05-0.85,0.14-1.52,0.53-2.86
				C28.69,46.88,29.86,46.03,29.35,44.8z"/>
			<g>
				<g>
					
						<linearGradient id="SVGID_57_" gradientUnits="userSpaceOnUse" x1="751.675" y1="381.7853" x2="755.1681" y2="386.1801" gradientTransform="matrix(-0.9663 0.2576 0.2576 0.9663 654.213 -522.1406)">
						<stop  offset="0" style="stop-color:#FFC546"/>
						<stop  offset="0.9964" style="stop-color:#F36F56"/>
					</linearGradient>
					<path class="st64" d="M25.82,41.84c0.1-0.34-0.07-0.66-0.11-0.73c-0.16-0.29-0.19-0.33-0.27-0.37l-0.1-0.06c0,0-0.01,0-0.01,0
						c-0.07-0.02-0.29-0.03-0.34-0.02c-0.15,0.03-0.3,0.62-0.26,1.46c-0.01,0.03-0.01,0.06-0.02,0.1c-0.02,0.13-0.04,0.26-0.06,0.39
						c-0.01,0.12-0.19,0.12-0.31,0.11c-0.49-0.03-0.74,0.01-0.76,0.08c-0.04,0.14,0.55,0.59,1.27,0.69c0.97,0.01,1.76-0.1,1.68-0.25
						c-0.04-0.07-0.79-0.26-1-0.46c-0.19-0.18-0.18-0.36-0.19-0.5C25.41,42.25,25.75,42.09,25.82,41.84z"/>
					<path class="st289" d="M25.64,40.44c0,0.26-0.12,0.54-0.19,0.58c-0.01,0.01-0.05,0.04-0.09,0.1c-0.01,0.01-0.01,0.02-0.01,0.03
						c-0.06,0.16,0.2,0.36,0.15,0.43c-0.04,0.05-0.21-0.02-0.23,0.03c-0.02,0.04,0.13,0.13,0.1,0.18c-0.02,0.04-0.11,0-0.16,0.06
						c-0.03,0.03-0.02,0.05-0.05,0.14c-0.02,0.05-0.04,0.11-0.06,0.14c-0.09,0.15-0.34,0.21-0.39,0.15c-0.01-0.02,0-0.03-0.02-0.09
						c0,0-0.01-0.05-0.05-0.11c-0.05-0.09-0.18-0.15-0.31-0.24c-0.24-0.17-0.3-0.32-0.32-0.37C24,41.46,24,41.45,24,41.44
						c-0.06-0.19-0.06-0.47,0.02-0.65c0.14-0.29,0.47-0.15,0.74-0.44c0.31-0.33,0.12-0.78,0.29-0.83
						C25.23,39.46,25.64,39.96,25.64,40.44z"/>
					
						<linearGradient id="SVGID_58_" gradientUnits="userSpaceOnUse" x1="751.8422" y1="381.5641" x2="755.7422" y2="386.4709" gradientTransform="matrix(-0.9663 0.2576 0.2576 0.9663 654.213 -522.1406)">
						<stop  offset="0" style="stop-color:#FFC546"/>
						<stop  offset="0.9964" style="stop-color:#F36F56"/>
					</linearGradient>
					<path class="st65" d="M25.41,41.52c-0.06-0.09-0.18-0.01-0.18,0.11c0,0.11,0.11,0.23,0.22,0.21
						C25.55,41.81,25.49,41.64,25.41,41.52z"/>
				</g>
				<path class="st289" d="M25.36,41.33l0.15,0.19c0,0,0.16,0.24,0.25,0.11c0.08-0.11,0.1-0.1,0.1-0.1c0,0,0,0,0,0
					c0,0-0.01-0.05-0.02-0.1c0.04,0.06,0.09,0.15,0.13,0.27c0.03,0.12,0.07,0.25,0,0.37c0,0.01-0.08,0.14-0.22,0.17
					c0,0-0.05,0.01-0.29-0.03c0,0,0.25-0.18,0.26-0.23c0.01-0.12-0.15-0.18-0.28-0.42C25.39,41.47,25.37,41.39,25.36,41.33z"/>
			</g>
			
				<linearGradient id="SVGID_59_" gradientUnits="userSpaceOnUse" x1="-2683.2678" y1="48.3833" x2="-2677.6682" y2="53.7304" gradientTransform="matrix(-1 0 0 1 -2653.5964 0)">
				<stop  offset="3.597120e-03" style="stop-color:#D191C0"/>
				<stop  offset="1" style="stop-color:#8172B4"/>
			</linearGradient>
			<path style="opacity:0.3;fill:url(#SVGID_59_);" d="M24.85,54.63c0.28-0.56-0.41-1.3,0.04-2.15c0.38-0.72,1.07-0.56,1.39-1.22
				c0.38-0.8-0.45-1.4-0.42-2.61c0.04-1.45,1.29-2.91,2.02-2.78c0.48,0.08,0.54,0.79,0.87,1.57c-0.3,0.65-0.64,1.46-0.96,2.56
				c-0.39,1.34-0.58,2.02-0.53,2.86c0.07,1.18,0.49,1.86,0.08,2.4c-0.25,0.34-0.73,0.39-1.68,0.48c-0.86,0.09-2.29,0.21-3.87-0.51
				c-0.2-0.09-0.35-0.16-0.47-0.22C23.8,55.39,24.63,55.08,24.85,54.63z"/>
			
				<linearGradient id="SVGID_60_" gradientUnits="userSpaceOnUse" x1="-2682.4309" y1="47.5068" x2="-2676.8311" y2="52.8539" gradientTransform="matrix(-1 0 0 1 -2653.5964 0)">
				<stop  offset="3.597120e-03" style="stop-color:#D191C0"/>
				<stop  offset="1" style="stop-color:#8172B4"/>
			</linearGradient>
			<path class="st67" d="M32.12,47.79c-0.15-0.07-0.31-0.13-0.46-0.2c-0.26,0.27-0.59,0.53-0.87,0.44
				c-0.42-0.13-0.31-0.89-0.82-2.24c-0.58-1.53-1.23-1.92-1.56-2.06c-0.18-0.08-0.31-0.13-0.46-0.09c-0.7,0.17-0.93,2-0.74,3.37
				c0.11,0.77,0.33,2.28,1.57,3c0.18,0.1,1.15,0.66,2.11,0.22C31.7,49.85,32.21,48.88,32.12,47.79z"/>
			
				<linearGradient id="SVGID_61_" gradientUnits="userSpaceOnUse" x1="-2677.3479" y1="52.5278" x2="-2681.938" y2="55.8066" gradientTransform="matrix(-1 0 0 1 -2653.5964 0)">
				<stop  offset="0" style="stop-color:#454C8D"/>
				<stop  offset="0.9964" style="stop-color:#26274F"/>
			</linearGradient>
			<path class="st68" d="M30.95,60.2c-0.26,0.03-0.51,0.06-0.77,0.09c-0.35-0.38-0.86-1.05-1.14-2c-0.53-1.8,0.3-2.99-0.26-3.45
				c-0.64-0.53-1.91,0.91-4.7,1.31c-0.9,0.13-2.9,0.42-3.71-0.66c-0.33-0.44-0.52-1.17-0.26-1.8c0.47-1.12,2-0.98,7.04-1.97
				c1.94-0.38,2.25-0.5,2.71-0.28C32.15,52.54,31.2,58.71,30.95,60.2z"/>
			
				<linearGradient id="SVGID_62_" gradientUnits="userSpaceOnUse" x1="-2687.248" y1="56.5427" x2="-2675.8804" y2="56.5427" gradientTransform="matrix(-1 0 0 1 -2653.5964 0)">
				<stop  offset="0" style="stop-color:#454C8D"/>
				<stop  offset="0.9964" style="stop-color:#26274F"/>
			</linearGradient>
			<path class="st69" d="M33.24,60.93c-0.26,0.03-0.51,0.06-0.77,0.09c-0.35-0.38-0.86-1.05-1.14-2c-0.53-1.8,0.3-2.99-0.26-3.45
				c-0.64-0.53-1.91,0.91-4.7,1.31c-0.9,0.13-2.9,0.42-3.71-0.66c-0.33-0.44-0.52-1.17-0.26-1.8c0.46-1.12,2-0.98,7.04-1.97
				c1.94-0.38,2.25-0.5,2.71-0.28C34.44,53.27,33.49,59.43,33.24,60.93z"/>
		</g>
		<g>
			<linearGradient id="SVGID_63_" gradientUnits="userSpaceOnUse" x1="21.2354" y1="48.3951" x2="22.9538" y2="56.7344">
				<stop  offset="0" style="stop-color:#9681BC"/>
				<stop  offset="0.9964" style="stop-color:#6166AE"/>
			</linearGradient>
			<ellipse class="st70" cx="24.46" cy="64.02" rx="4.26" ry="1.74"/>
			<linearGradient id="SVGID_64_" gradientUnits="userSpaceOnUse" x1="20.2005" y1="63.4475" x2="28.7116" y2="63.4475">
				<stop  offset="0" style="stop-color:#9681BC"/>
				<stop  offset="0.9964" style="stop-color:#6166AE"/>
			</linearGradient>
			<path class="st71" d="M20.2,63.82c0,0.91,1.91,1.64,4.26,1.64c2.35,0,4.26-0.73,4.26-1.64c0-0.91-1.91-2.39-4.26-2.39
				C22.11,61.43,20.2,62.92,20.2,63.82z"/>
			
				<linearGradient id="SVGID_65_" gradientUnits="userSpaceOnUse" x1="-3144.7749" y1="63.03" x2="-3137.6235" y2="63.03" gradientTransform="matrix(-1 0 0 1 -3117.4229 0)">
				<stop  offset="0" style="stop-color:#9681BC"/>
				<stop  offset="0.9964" style="stop-color:#6166AE"/>
			</linearGradient>
			<path style="opacity:0.3;fill:url(#SVGID_65_);" d="M20.2,63.82c0-0.91,1.91-2.39,4.26-2.39c1.09,0,2.07,0.32,2.83,0.75
				c0.05,0.11,0.08,0.22,0.07,0.32c-0.05,0.51-0.88,0.82-1.36,0.93c-1.2,0.26-1.79-0.46-2.78-0.43c-0.61,0.02-1.46,0.32-2.47,1.63
				C20.4,64.39,20.2,64.11,20.2,63.82z"/>
			<path class="st6" d="M24.22,62.26c0.17,0.04,0.33,0.04,0.48,0c0.14-0.03,0.23-0.16,0.23-0.3l0-4.8h-0.95v4.79
				C23.98,62.1,24.08,62.22,24.22,62.26z"/>
			
				<linearGradient id="SVGID_66_" gradientUnits="userSpaceOnUse" x1="-3142.3521" y1="59.7248" x2="-3141.4058" y2="59.7248" gradientTransform="matrix(-1 0 0 1 -3117.4229 0)">
				<stop  offset="0" style="stop-color:#9681BC"/>
				<stop  offset="0.9964" style="stop-color:#6166AE"/>
			</linearGradient>
			<path style="opacity:0.65;fill:url(#SVGID_66_);" d="M24.22,62.26c0.17,0.04,0.33,0.04,0.48,0c0.14-0.03,0.23-0.16,0.23-0.3
				l0-4.8h-0.95v4.79C23.98,62.1,24.08,62.22,24.22,62.26z"/>
			<g>
				
					<linearGradient id="SVGID_67_" gradientUnits="userSpaceOnUse" x1="-3137.1814" y1="58.7186" x2="-3138.9163" y2="56.4579" gradientTransform="matrix(-1 0 0 1 -3117.4229 0)">
					<stop  offset="0" style="stop-color:#321944"/>
					<stop  offset="1" style="stop-color:#8A3A77"/>
				</linearGradient>
				<path class="st74" d="M29.46,55.14l-1.45-0.91c-0.06-0.34-0.74-3.91-3.51-5.03c-1.12-0.46-2.34-0.4-3-0.37
					c-1.33,0.06-2.27,0.1-2.73,0.73c-0.58,0.81,0.4,1.55,0.19,3.87c-0.08,0.95-0.29,1.37-0.03,2c0.31,0.75,1.04,1.17,1.61,1.4
					c0.68,0.39,1.86,0.95,3.41,1.09c2.62,0.23,4.58-0.89,5.25-1.33c0.3-0.09,0.52-0.34,0.59-0.65
					C29.86,55.63,29.72,55.31,29.46,55.14z"/>
			</g>
			<path class="st278" d="M28.79,55.79c-0.05-0.32-0.95-0.05-1.8-0.68c-1.27-0.94-0.61-2.53-1.71-4.06
				c-1.01-1.4-3.05-2.12-3.68-1.58c-0.84,0.71,1.22,3.37,0,5.09c-0.59,0.83-1.49,0.79-1.5,1.28c-0.01,0.77,2.23,1.66,4.36,1.63
				C26.76,57.42,28.88,56.3,28.79,55.79z"/>
		</g>
		<g>
			<path class="st289" d="M36.85,45.48c-0.03,0-0.05,0.01-0.05,0.03c0,0,0.03,0.11,0.03,0.12c0,0.02,0.02,0.05,0.05,0.06l2.5,0.91
				l4.44-1l-2.19-0.09L36.85,45.48z"/>
			<path class="st333" d="M36.85,45.46c-0.03,0-0.05,0.02-0.05,0.04c0,0.03,0.02,0.05,0.05,0.06l2.5,0.92l4.45-1l-2.19-0.09
				L36.85,45.46z"/>
			
				<linearGradient id="SVGID_68_" gradientUnits="userSpaceOnUse" x1="-46.7329" y1="106.414" x2="-40.4727" y2="106.414" gradientTransform="matrix(0.9981 -0.0611 0.0611 0.9981 79.2652 -64.6645)">
				<stop  offset="0" style="stop-color:#41457F"/>
				<stop  offset="0.9964" style="stop-color:#3D3C6C"/>
			</linearGradient>
			<path class="st75" d="M39.25,46.44l-0.1-4.12c0-0.07,0.05-0.12,0.13-0.12l5.77-0.2c0.05,0,0.11,0.02,0.15,0.05
				c0.04,0.04,0.06,0.08,0.06,0.13l-0.13,3.94c0,0.06-0.06,0.11-0.13,0.11l-5.6,0.26L39.25,46.44z"/>
			<path class="st289" d="M39.38,46.6l-0.09-4.19c0-0.07,0.05-0.12,0.13-0.12l5.77-0.2c0.05,0,0.11,0.02,0.15,0.05
				c0.04,0.04,0.06,0.08,0.06,0.13l-0.14,3.93c0,0.06-0.06,0.11-0.13,0.11L39.38,46.6z"/>
			<path class="st335" d="M39.38,46.6l5.74-0.29c0.08,0,0.13-0.05,0.13-0.11l0.04-1.13c-1.74,0.66-3.94,0.53-5.94,0.64L39.38,46.6z"
				/>
		</g>
		<g>
			<g>
				
					<linearGradient id="SVGID_69_" gradientUnits="userSpaceOnUse" x1="508.2613" y1="26.9511" x2="518.4017" y2="26.9511" gradientTransform="matrix(1 0 0 1 -479.9574 0)">
					<stop  offset="0" style="stop-color:#F58F86"/>
					<stop  offset="1" style="stop-color:#ED72AC"/>
				</linearGradient>
				<path class="st76" d="M37.71,28.95c0.47-0.58,0.73-1.27,0.73-2c0-2.13-2.27-3.86-5.07-3.86s-5.07,1.73-5.07,3.86
					s2.27,3.86,5.07,3.86c1.05,0,2.02-0.24,2.83-0.66c0.53,0.09,1.36,0.24,1.8,0.33c0.13,0.02,0.23-0.1,0.19-0.22L37.71,28.95z"/>
				<g class="st337">
					
						<linearGradient id="SVGID_70_" gradientUnits="userSpaceOnUse" x1="509.5997" y1="24.2836" x2="518.3995" y2="35.8727" gradientTransform="matrix(1 0 0 1 -479.9574 0)">
						<stop  offset="0" style="stop-color:#F58F86"/>
						<stop  offset="1" style="stop-color:#ED72AC"/>
					</linearGradient>
					<path class="st77" d="M36.15,27.77c-1.14-0.48-2.39,0.53-3.17-0.17c-0.79-0.71,0.06-2.11-0.69-3.11
						c-0.36-0.48-0.96-0.7-1.66-0.78c-1.4,0.69-2.33,1.88-2.33,3.25c0,2.13,2.27,3.86,5.07,3.86c1.05,0,2.02-0.24,2.83-0.66
						c0.42,0.07,1.03,0.18,1.48,0.27C37.35,28.69,36.74,28.02,36.15,27.77z"/>
				</g>
			</g>
			<g>
				<path class="st339" d="M31.5,24.36c-0.08,0.03-0.16,0.07-0.24,0.12c0-0.01-0.01-0.01-0.02-0.02c-0.11-0.13-0.3-0.13-0.44-0.02
					c-0.13,0.11-0.16,0.31-0.05,0.43c0.01,0.01,0.01,0.01,0.02,0.02c-0.06,0.07-0.11,0.14-0.16,0.22c-0.01,0-0.02-0.01-0.02-0.01
					c-0.16-0.05-0.34,0.04-0.4,0.2s0.02,0.33,0.17,0.39c0.01,0,0.02,0,0.02,0.01c-0.02,0.09-0.03,0.17-0.03,0.26
					c-0.01,0-0.02,0-0.03,0c-0.17,0.04-0.29,0.2-0.26,0.37c0.03,0.17,0.18,0.27,0.35,0.23c0.01,0,0.02,0,0.03-0.01
					c0.03,0.08,0.06,0.16,0.1,0.23c-0.01,0.01-0.01,0.01-0.02,0.02c-0.13,0.11-0.16,0.31-0.05,0.43c0.11,0.13,0.3,0.13,0.44,0.02
					c0.01-0.01,0.01-0.01,0.02-0.02c0.07,0.05,0.14,0.1,0.21,0.14c0,0.01-0.01,0.02-0.01,0.02c-0.06,0.16,0.02,0.33,0.17,0.39
					c0.16,0.05,0.34-0.04,0.4-0.2c0-0.01,0.01-0.02,0.01-0.02c0.09,0.01,0.17,0.01,0.26,0.01c0,0.01,0,0.02,0,0.03
					c0.03,0.17,0.18,0.27,0.35,0.23c0.17-0.04,0.29-0.2,0.26-0.37c0-0.01,0-0.02-0.01-0.03c0.08-0.03,0.16-0.07,0.24-0.12
					c0,0.01,0.01,0.01,0.02,0.02c0.11,0.13,0.3,0.13,0.44,0.02c0.13-0.11,0.16-0.31,0.05-0.43c-0.01-0.01-0.01-0.01-0.02-0.02
					c0.06-0.07,0.11-0.14,0.16-0.22c0.01,0,0.02,0.01,0.02,0.01c0.16,0.05,0.34-0.04,0.4-0.2c0.06-0.16-0.02-0.33-0.17-0.39
					c-0.01,0-0.02,0-0.02-0.01c0.02-0.09,0.03-0.17,0.03-0.26c0.01,0,0.02,0,0.03,0c0.17-0.04,0.29-0.2,0.26-0.37
					c-0.03-0.17-0.18-0.27-0.35-0.23c-0.01,0-0.02,0-0.03,0.01c-0.03-0.08-0.06-0.16-0.1-0.23c0.01-0.01,0.01-0.01,0.02-0.02
					c0.13-0.11,0.16-0.31,0.05-0.43c-0.11-0.13-0.3-0.13-0.44-0.02c-0.01,0.01-0.01,0.01-0.02,0.02c-0.07-0.05-0.14-0.1-0.21-0.14
					c0-0.01,0.01-0.02,0.01-0.02c0.06-0.16-0.02-0.33-0.17-0.39c-0.16-0.05-0.34,0.04-0.4,0.2c0,0.01-0.01,0.02-0.01,0.02
					c-0.09-0.01-0.17-0.01-0.26-0.01c0-0.01,0-0.02,0-0.03c-0.03-0.17-0.18-0.27-0.35-0.23c-0.17,0.04-0.29,0.2-0.26,0.37
					C31.5,24.34,31.5,24.35,31.5,24.36z M31.89,24.81c0.62-0.13,1.19,0.25,1.28,0.85c0.09,0.6-0.33,1.2-0.95,1.33
					c-0.62,0.13-1.19-0.25-1.28-0.85C30.85,25.54,31.27,24.94,31.89,24.81z"/>
				<path class="st339" d="M34.47,26.93c-0.06,0.02-0.12,0.05-0.18,0.09c0,0-0.01-0.01-0.01-0.01c-0.08-0.09-0.22-0.1-0.32-0.01
					c-0.1,0.08-0.12,0.23-0.04,0.32c0,0,0.01,0.01,0.01,0.01c-0.04,0.05-0.08,0.1-0.12,0.16c-0.01,0-0.01,0-0.02-0.01
					c-0.12-0.04-0.25,0.03-0.3,0.15s0.01,0.25,0.13,0.28c0.01,0,0.01,0,0.02,0c-0.01,0.06-0.02,0.13-0.02,0.19
					c-0.01,0-0.01,0-0.02,0c-0.12,0.03-0.21,0.15-0.19,0.27s0.13,0.2,0.26,0.17c0.01,0,0.01,0,0.02-0.01
					c0.02,0.06,0.05,0.12,0.08,0.17c-0.01,0-0.01,0.01-0.02,0.01c-0.1,0.08-0.12,0.23-0.04,0.32c0.08,0.09,0.22,0.1,0.32,0.01
					c0.01,0,0.01-0.01,0.01-0.01c0.05,0.04,0.1,0.07,0.16,0.1c0,0.01-0.01,0.01-0.01,0.02c-0.05,0.12,0.01,0.25,0.13,0.28
					c0.12,0.04,0.25-0.03,0.3-0.15c0-0.01,0-0.01,0.01-0.02c0.06,0.01,0.13,0.01,0.19,0.01c0,0.01,0,0.01,0,0.02
					c0.02,0.12,0.13,0.2,0.26,0.17c0.12-0.03,0.21-0.15,0.19-0.27c0-0.01,0-0.01,0-0.02c0.06-0.02,0.12-0.05,0.18-0.09
					c0,0,0.01,0.01,0.01,0.01c0.08,0.09,0.22,0.1,0.32,0.01s0.12-0.23,0.04-0.32c0,0-0.01-0.01-0.01-0.01
					c0.04-0.05,0.08-0.1,0.12-0.16c0.01,0,0.01,0,0.02,0.01c0.12,0.04,0.25-0.03,0.3-0.15s-0.01-0.25-0.13-0.28
					c-0.01,0-0.01,0-0.02,0c0.01-0.06,0.02-0.13,0.02-0.19c0.01,0,0.01,0,0.02,0c0.12-0.03,0.21-0.15,0.19-0.27
					c-0.02-0.12-0.13-0.2-0.26-0.17c-0.01,0-0.01,0-0.02,0.01c-0.02-0.06-0.05-0.12-0.08-0.17c0.01,0,0.01-0.01,0.02-0.01
					c0.1-0.08,0.12-0.23,0.04-0.32c-0.08-0.09-0.22-0.1-0.32-0.01c-0.01,0-0.01,0.01-0.01,0.01c-0.05-0.04-0.1-0.07-0.16-0.1
					c0-0.01,0.01-0.01,0.01-0.02c0.05-0.12-0.01-0.25-0.13-0.28c-0.12-0.04-0.25,0.03-0.3,0.15c0,0.01,0,0.01-0.01,0.02
					c-0.06-0.01-0.13-0.01-0.19-0.01c0-0.01,0-0.01,0-0.02c-0.02-0.12-0.13-0.2-0.26-0.17c-0.12,0.03-0.21,0.15-0.19,0.27
					C34.47,26.92,34.47,26.93,34.47,26.93z M34.75,27.27c0.45-0.1,0.87,0.18,0.94,0.62c0.07,0.44-0.24,0.88-0.7,0.97
					c-0.45,0.1-0.87-0.18-0.94-0.62C33.99,27.8,34.3,27.36,34.75,27.27z"/>
			</g>
		</g>
		<g>
			<g>
				<linearGradient id="SVGID_71_" gradientUnits="userSpaceOnUse" x1="50.1354" y1="50.6178" x2="45.2266" y2="59.9846">
					<stop  offset="3.597120e-03" style="stop-color:#D191C0"/>
					<stop  offset="1" style="stop-color:#8172B4"/>
				</linearGradient>
				<path class="st78" d="M44.7,62.72c-0.57-0.05-1.3-0.2-2.01-0.66c-0.76-0.5-1.75-1.52-1.49-2.16c0.1-0.24,0.37-0.45,0.62-0.43
					c0.36,0.03,0.4,0.53,1.03,1.08c0.12,0.1,0.71,0.62,1.01,0.45c0.15-0.09,0.19-0.33,0.17-0.51c-0.07-0.54-0.73-0.62-1.36-1.2
					c-0.64-0.59-1.17-1.62-0.87-2.32c0.18-0.4,0.64-0.72,0.94-0.63c0.13,0.04,0.21,0.14,0.61,1c0.32,0.7,0.4,0.91,0.61,0.97
					c0.22,0.07,0.55-0.02,0.68-0.23c0.33-0.55-1.1-1.37-1.23-2.91c-0.06-0.69,0.13-1.72,0.76-1.94c0.42-0.15,1.03,0.08,1.25,0.47
					c0.2,0.35-0.04,0.61,0.11,1.4c0.05,0.24,0.14,0.73,0.34,0.76c0.23,0.03,0.49-0.6,0.55-0.75c0.45-1.15-0.07-1.74,0.36-2.3
					c0.33-0.44,1.06-0.61,1.63-0.39c0.5,0.19,0.9,0.69,0.93,1.21c0.03,0.53-0.42,1.05-1.3,2.1c-0.42,0.5-0.76,0.83-0.74,1.33
					c0.01,0.24,0.11,0.58,0.28,0.61c0.38,0.07,0.57-1.47,1.47-1.71c0.46-0.12,1.04,0.12,1.29,0.53c0.31,0.51,0.1,1.24-0.29,1.62
					c-0.51,0.5-1.03,0.12-1.98,0.65c-0.42,0.24-1.09,0.74-0.99,1.16c0.04,0.18,0.23,0.36,0.44,0.38c0.47,0.05,0.62-0.71,1.37-1.05
					c0.54-0.24,1.29-0.22,1.47,0.09c0.25,0.43-0.64,1.41-1.12,1.84C48.66,61.7,47.31,62.7,44.7,62.72z"/>
				<path class="st341" d="M44.96,62.47c-0.08-1.28,0.77-3.89,1.39-5.13c0.6-1.21,1.18-3.12,1.19-3.14l0.04,0.01
					c-0.01,0.02-0.59,1.93-1.19,3.15c-0.62,1.23-1.46,3.83-1.39,5.11L44.96,62.47z"/>
			</g>
			<linearGradient id="SVGID_72_" gradientUnits="userSpaceOnUse" x1="46.7049" y1="57.6653" x2="41.0706" y2="64.4197">
				<stop  offset="0" style="stop-color:#F58F86"/>
				<stop  offset="1" style="stop-color:#ED72AC"/>
			</linearGradient>
			<path class="st79" d="M43.35,62.88c-0.43-0.6-1.06-1.68-1.18-3.12c-0.05-0.6-0.14-1.76,0.57-2.76c0.35-0.5,1.11-1.24,1.61-1.03
				c0.33,0.14,0.53,0.66,0.44,1.06c-0.09,0.4-0.43,0.44-0.8,1.12c-0.14,0.25-0.29,0.55-0.17,0.71c0.1,0.14,0.37,0.16,0.58,0.08
				c0.43-0.17,0.29-0.7,0.75-1.08c0.33-0.27,0.87-0.4,1.11-0.18c0.2,0.19,0.17,0.64-0.01,0.94c-0.29,0.48-0.81,0.34-1.14,0.86
				c-0.15,0.23-0.26,0.58-0.13,0.72c0.15,0.16,0.59,0.02,0.87-0.15c0.37-0.23,0.39-0.48,0.63-0.51c0.27-0.03,0.61,0.23,0.67,0.51
				c0.07,0.4-0.42,0.84-0.81,1.03c-0.5,0.24-0.87,0.1-1.12,0.43c-0.09,0.12-0.17,0.32-0.1,0.44c0.11,0.17,0.49,0.11,0.74,0.08
				c0.61-0.09,0.78-0.31,1-0.21c0.22,0.11,0.34,0.48,0.24,0.74c-0.05,0.14-0.21,0.37-1.01,0.51C45.54,63.17,44.6,63.24,43.35,62.88z
				"/>
		</g>
	</g>
</g>
</svg>
