<?xml version="1.0" encoding="utf-8"?>
<!-- Generator: Adobe Illustrator 25.0.0, SVG Export Plug-In . SVG Version: 6.00 Build 0)  -->
<svg version="1.1" id="Layer_1" xmlns="http://www.w3.org/2000/svg" xmlns:xlink="http://www.w3.org/1999/xlink" x="0px" y="0px"
	 viewBox="0 0 250 250" style="enable-background:new 0 0 250 250;" xml:space="preserve">
<style type="text/css">
	.st0{opacity:0.3;fill:url(#SVGID_1_);}
	.st1{opacity:0.3;fill:url(#SVGID_2_);}
	.st2{fill:url(#SVGID_3_);}
	.st3{fill:url(#SVGID_4_);}
	.st4{fill:url(#SVGID_5_);}
	.st5{opacity:0.65;fill:#FFFFFF;}
	.st6{fill:url(#SVGID_6_);}
	.st7{fill:#FFFFFF;}
	.st8{fill:url(#SVGID_7_);}
	.st9{opacity:0.49;fill:#FFFFFF;}
	.st10{opacity:0.75;}
	.st11{opacity:0.76;fill:#FFFFFF;}
	.st12{fill:url(#SVGID_8_);}
	.st13{fill:url(#SVGID_9_);}
	.st14{fill:url(#SVGID_10_);}
	.st15{fill:url(#SVGID_11_);}
	.st16{clip-path:url(#SVGID_13_);fill:url(#SVGID_14_);}
	.st17{fill:url(#SVGID_15_);}
	.st18{fill:url(#SVGID_16_);}
	.st19{fill:url(#SVGID_17_);}
	.st20{fill:url(#SVGID_18_);}
	.st21{fill:url(#SVGID_19_);}
	.st22{fill:url(#SVGID_20_);}
	.st23{fill:url(#SVGID_21_);}
	.st24{opacity:0.9;}
	.st25{fill-rule:evenodd;clip-rule:evenodd;fill:#FFFFFF;}
	.st26{fill:url(#SVGID_22_);}
	.st27{fill:url(#SVGID_23_);}
	.st28{fill:url(#SVGID_24_);}
	.st29{fill:url(#SVGID_25_);}
	.st30{fill:url(#SVGID_26_);}
	.st31{fill:url(#SVGID_27_);}
	.st32{fill:url(#SVGID_28_);}
	.st33{fill:url(#SVGID_29_);}
	.st34{fill:url(#SVGID_30_);}
	.st35{fill:url(#SVGID_31_);}
	.st36{fill:url(#SVGID_32_);}
	.st37{fill:url(#SVGID_33_);}
	.st38{fill:url(#SVGID_34_);}
	.st39{fill:url(#SVGID_35_);}
	.st40{fill:url(#SVGID_36_);}
	.st41{fill:url(#SVGID_37_);}
	.st42{fill:url(#SVGID_38_);}
	.st43{fill:url(#SVGID_39_);}
	.st44{fill:url(#SVGID_40_);}
	.st45{fill:url(#SVGID_41_);}
	.st46{fill:url(#SVGID_42_);}
	.st47{fill:url(#SVGID_43_);}
	.st48{opacity:0.3;fill:url(#SVGID_44_);}
	.st49{fill:url(#SVGID_45_);}
	.st50{opacity:0.45;fill:#FFFFFF;}
	.st51{fill:url(#SVGID_46_);}
	.st52{fill:url(#SVGID_47_);}
	.st53{fill:url(#SVGID_48_);}
	.st54{fill:url(#SVGID_49_);}
	.st55{fill:url(#SVGID_50_);}
	.st56{fill:url(#SVGID_51_);}
	.st57{fill:url(#SVGID_52_);}
	.st58{fill:url(#SVGID_53_);}
	.st59{fill:url(#SVGID_54_);}
	.st60{opacity:0.21;fill:#FFFFFF;}
	.st61{opacity:0.69;fill:#FFFFFF;}
	.st62{fill:url(#SVGID_55_);}
	.st63{fill:url(#SVGID_56_);}
	.st64{fill:url(#SVGID_57_);}
	.st65{fill:url(#SVGID_58_);}
	.st66{fill:url(#SVGID_59_);}
	.st67{fill:url(#SVGID_60_);}
	.st68{fill:url(#SVGID_61_);}
	.st69{fill:url(#SVGID_62_);}
	.st70{fill:url(#SVGID_63_);}
	.st71{fill:url(#SVGID_64_);}
	.st72{fill:url(#SVGID_65_);}
	.st73{fill:url(#SVGID_66_);}
	.st74{fill:url(#SVGID_67_);}
	.st75{fill:url(#SVGID_68_);}
	.st76{fill:url(#SVGID_69_);}
	.st77{fill:url(#SVGID_70_);}
	.st78{fill:url(#SVGID_71_);}
	.st79{fill:url(#SVGID_72_);}
	.st80{fill:url(#SVGID_73_);}
	.st81{fill:url(#SVGID_74_);}
	.st82{fill:url(#SVGID_75_);}
	.st83{fill:url(#SVGID_76_);}
	.st84{fill:url(#SVGID_77_);}
	.st85{fill:url(#SVGID_78_);}
	.st86{fill:url(#SVGID_79_);}
	.st87{fill:#E78456;}
	.st88{fill:url(#SVGID_80_);}
	.st89{opacity:0.1;}
	.st90{fill:url(#SVGID_81_);}
	.st91{fill:url(#SVGID_82_);}
	.st92{fill:url(#SVGID_83_);}
	.st93{fill:url(#SVGID_84_);}
	.st94{fill:url(#SVGID_85_);}
	.st95{fill:url(#SVGID_86_);}
	.st96{fill:url(#SVGID_87_);}
	.st97{fill:url(#SVGID_88_);}
	.st98{fill:url(#SVGID_89_);}
	.st99{fill:url(#SVGID_90_);}
	.st100{fill:url(#SVGID_91_);}
	.st101{fill:url(#SVGID_92_);}
	.st102{fill:url(#SVGID_93_);}
	.st103{fill:url(#SVGID_94_);}
	.st104{fill:url(#SVGID_95_);}
	.st105{fill:url(#SVGID_96_);}
	.st106{fill:url(#SVGID_97_);}
	.st107{fill:url(#SVGID_98_);}
	.st108{fill:url(#SVGID_99_);}
	.st109{fill:#C5C0E0;}
	.st110{fill:#BBA9D2;}
	.st111{fill:#AE98C8;}
	.st112{fill:#827FBD;}
	.st113{fill:#9696CA;}
	.st114{opacity:0.1;fill:#4850A2;}
	.st115{fill:#4850A2;}
	.st116{fill:#FDBA43;}
	.st117{fill:#2E2563;}
	.st118{opacity:0.2;}
	.st119{opacity:0.2;fill:#FFFFFF;}
	.st120{fill:#F8A288;}
	.st121{fill:#231645;}
	.st122{fill:#3E469D;}
	.st123{fill:#C47B2A;}
	.st124{fill:#F2A321;}
	.st125{fill:#8988C2;}
</style>
<g>
	<linearGradient id="SVGID_1_" gradientUnits="userSpaceOnUse" x1="252.1169" y1="268.5145" x2="98.5316" y2="105.0205">
		<stop  offset="0" style="stop-color:#9A7FBA"/>
		<stop  offset="1" style="stop-color:#E09AC4"/>
	</linearGradient>
	<path class="st0" d="M206,202.92c-5.67,5.84-10.74,9.28-14.63,11.87c-37.88,25.29-81.18,18-94.57,15.51
		c-21.6-4.02-39.83-6.86-55.5-21.01c-35.6-32.16-33.87-99.25-6.67-140.81c3.23-4.93,30.38-45.19,73.78-50.86
		c1.06-0.14,1.85-0.22,2.55-0.29c6.71-0.71,48.31-4.46,82.24,23.96c4.86,4.07,12.67,11.41,19.92,22.6
		C239.62,104.81,239.7,168.19,206,202.92z"/>
	<g>
		
			<linearGradient id="SVGID_2_" gradientUnits="userSpaceOnUse" x1="1565.4066" y1="6225.688" x2="1589.8561" y2="6225.688" gradientTransform="matrix(-0.9282 0.3721 0.3721 0.9282 -819.2277 -6268.8643)">
			<stop  offset="0" style="stop-color:#CB266E"/>
			<stop  offset="1" style="stop-color:#4C286E"/>
		</linearGradient>
		<path style="fill:url(#SVGID_2_);" d="M49.19,141.7c0,0,4.58-11.12-1.64-27.12C41.78,99.73,26.94,64.73,26.9,48.93
			c0-0.7-0.95-0.91-1.24-0.27c-3.08,6.85-9.43,24.61-5.04,46.95C26.3,124.43,49.19,141.7,49.19,141.7z"/>
		<path class="st50" d="M25.53,63c-0.46,1.6-0.73,3.24-0.9,4.9c-0.02,0.21-0.05,0.41-0.07,0.62l-0.04,0.62l-0.09,1.24l-0.04,1.25
			c-0.01,0.42-0.03,0.83-0.02,1.25c0.02,3.33,0.32,6.66,0.9,9.93c0.11,0.83,0.31,1.63,0.48,2.45l0.26,1.22
			c0.05,0.2,0.08,0.41,0.14,0.61l0.16,0.6l0.64,2.41c0.1,0.41,0.24,0.8,0.36,1.19l0.38,1.19l0.38,1.19l0.19,0.59l0.22,0.58
			l0.88,2.34c0.15,0.39,0.29,0.78,0.45,1.16l0.48,1.15l0.96,2.3l0.98,2.29c0.33,0.76,0.65,1.53,0.99,2.28
			c0.67,1.52,1.35,3.03,2.05,4.54c0.69,1.51,1.4,3.01,2.1,4.51l2.16,4.48c1.44,2.99,2.89,5.97,4.23,8.99
			c0.35,0.75,0.65,1.52,0.98,2.28c0.17,0.38,0.3,0.77,0.45,1.15c0.14,0.39,0.3,0.77,0.43,1.16c0.25,0.78,0.54,1.56,0.74,2.36
			l0.16,0.6c0.03,0.1,0.06,0.2,0.08,0.3l0.06,0.3l0.25,1.21l0,0c0.01,0.05,0.06,0.08,0.11,0.07c0.05-0.01,0.08-0.05,0.07-0.1
			c-0.24-1.65-0.65-3.27-1.17-4.85c-0.13-0.4-0.27-0.78-0.41-1.18c-0.14-0.39-0.27-0.79-0.43-1.17c-0.31-0.77-0.6-1.55-0.93-2.31
			l-0.48-1.15c-0.16-0.38-0.34-0.76-0.5-1.14l-0.51-1.14l-0.52-1.13c-0.69-1.51-1.39-3.01-2.09-4.51c-1.4-3.01-2.8-6.01-4.17-9.03
			c-1.37-3.02-2.69-6.05-3.99-9.1l-0.95-2.29l-0.48-1.15c-0.16-0.38-0.3-0.77-0.45-1.15l-0.89-2.31l-0.22-0.58l-0.19-0.59
			l-0.39-1.18c-1.07-3.13-1.87-6.34-2.51-9.57c-0.65-3.24-1.01-6.53-1.1-9.84c-0.03-0.41-0.01-0.83-0.01-1.24l0-1.24l0.05-1.24
			l0.02-0.62c0.01-0.21,0.03-0.41,0.05-0.62c0.04-0.41,0.06-0.83,0.11-1.24l0.15-1.23c0.13-0.82,0.25-1.64,0.46-2.44
			c0-0.01,0-0.01-0.01-0.01C25.54,62.99,25.53,63,25.53,63z"/>
	</g>
	<g>
		
			<linearGradient id="SVGID_3_" gradientUnits="userSpaceOnUse" x1="3551.4429" y1="-2542.7454" x2="3640.2683" y2="-2542.7454" gradientTransform="matrix(0.4821 -1.2216 0.9033 0.3565 633.7826 5397.3652)">
			<stop  offset="0" style="stop-color:#CB266E"/>
			<stop  offset="1" style="stop-color:#4C286E"/>
		</linearGradient>
		<path class="st2" d="M40.24,25.8c-3.35,19-19.27,129.62,60.24,145.51c0,0,25.33-73.32-58.1-146.87
			C41.65,23.8,40.46,24.56,40.24,25.8z"/>
		<path class="st50" d="M46.91,41.15c0.87,5.4,1.83,10.79,2.84,16.17c1.01,5.38,2.07,10.75,3.19,16.11
			c2.24,10.72,4.7,21.39,7.45,31.98c1.39,5.29,2.84,10.57,4.39,15.82c1.57,5.24,3.22,10.45,5.01,15.62
			c1.81,5.16,3.75,10.27,5.92,15.28c2.17,5.01,4.54,9.94,7.37,14.59c0.15,0.25,0.07,0.58-0.18,0.73c-0.25,0.15-0.58,0.07-0.73-0.18
			l0,0c-2.84-4.73-5.2-9.7-7.36-14.75c-2.15-5.05-4.08-10.19-5.87-15.38c-1.77-5.19-3.4-10.43-4.95-15.68
			c-1.53-5.26-2.96-10.55-4.32-15.86c-2.7-10.62-5.12-21.31-7.31-32.05c-1.1-5.37-2.14-10.75-3.12-16.13
			c-0.98-5.39-1.92-10.78-2.77-16.2c-0.02-0.12,0.07-0.24,0.19-0.26C46.78,40.94,46.89,41.03,46.91,41.15L46.91,41.15z"/>
	</g>
	<g>
		<linearGradient id="SVGID_4_" gradientUnits="userSpaceOnUse" x1="196.214" y1="130.3312" x2="138.5809" y2="78.5791">
			<stop  offset="0" style="stop-color:#CB266E"/>
			<stop  offset="1" style="stop-color:#4C286E"/>
		</linearGradient>
		<path class="st3" d="M154.52,36.1c-31.25,0-57.48,25.48-57.48,56.91c0,31.43,26.23,55.15,57.48,53.05
			c30.1-2.02,53.71-27.42,53.71-56.79C208.23,59.91,184.62,36.1,154.52,36.1z M154.52,42.84c9.19-0.04,16.56,7.27,16.56,16.33
			c0,9.05-7.37,16.57-16.56,16.8c-9.29,0.23-16.9-7.08-16.9-16.32C137.62,50.4,145.23,42.87,154.52,42.84z M158.46,90.95
			c0,2.16-1.76,3.97-3.94,4.05c-2.19,0.08-3.96-1.61-3.96-3.78c0-2.17,1.78-3.98,3.96-4.05C156.7,87.1,158.46,88.8,158.46,90.95z
			 M121.88,109.07c-9.67,0.42-17.58-6.87-17.58-16.3c0-9.43,7.92-17.26,17.58-17.48c9.56-0.22,17.22,7.08,17.22,16.31
			C139.1,100.84,131.43,108.66,121.88,109.07z M154.52,139.33c-9.29,0.59-16.9-6.43-16.9-15.67c0-9.24,7.61-17.06,16.9-17.46
			c9.19-0.39,16.56,6.63,16.56,15.69S163.71,138.76,154.52,139.33z M185.91,106.28c-8.94,0.39-16.26-6.64-16.26-15.7
			c0-9.06,7.32-16.58,16.26-16.79c8.84-0.21,15.93,6.83,15.93,15.71C201.84,98.38,194.75,105.89,185.91,106.28z"/>
		<linearGradient id="SVGID_5_" gradientUnits="userSpaceOnUse" x1="145.8201" y1="66.9358" x2="173.8645" y2="150.1235">
			<stop  offset="3.597000e-03" style="stop-color:#26274F"/>
			<stop  offset="1" style="stop-color:#454C8D"/>
		</linearGradient>
		<path class="st4" d="M183.84,90.1c0,16.03-13,29.7-29.32,30.55c-16.66,0.86-30.41-11.91-30.41-28.54s13.75-30.32,30.41-30.58
			C170.84,61.27,183.84,74.07,183.84,90.1z"/>
		<linearGradient id="SVGID_6_" gradientUnits="userSpaceOnUse" x1="149.1739" y1="62.31" x2="182.5949" y2="161.4463">
			<stop  offset="0" style="stop-color:#454C8D"/>
			<stop  offset="0.9964" style="stop-color:#26274F"/>
		</linearGradient>
		<path class="st6" d="M194.49,89.92c0,19.04-15.41,35.33-34.82,36.4c-19.89,1.1-36.37-14.12-36.37-34.01
			c0-19.89,16.48-36.21,36.37-36.45C179.08,55.62,194.49,70.87,194.49,89.92z"/>
		<linearGradient id="SVGID_7_" gradientUnits="userSpaceOnUse" x1="150.9678" y1="66.9358" x2="179.0122" y2="150.1234">
			<stop  offset="3.597000e-03" style="stop-color:#26274F"/>
			<stop  offset="1" style="stop-color:#454C8D"/>
		</linearGradient>
		<path class="st8" d="M188.99,90.1c0,16.03-13,29.7-29.32,30.55c-16.66,0.86-30.41-11.91-30.41-28.54s13.75-30.32,30.41-30.58
			C175.99,61.27,188.99,74.07,188.99,90.1z"/>
		<linearGradient id="SVGID_8_" gradientUnits="userSpaceOnUse" x1="141.6808" y1="46.1777" x2="193.865" y2="200.9707">
			<stop  offset="0" style="stop-color:#CB266E"/>
			<stop  offset="1" style="stop-color:#4C286E"/>
		</linearGradient>
		<path class="st12" d="M158.75,36.1c-31.25,0-57.48,25.48-57.48,56.91c0,31.43,26.23,55.15,57.48,53.05
			c30.1-2.02,53.71-27.42,53.71-56.79C212.46,59.91,188.86,36.1,158.75,36.1z M158.75,42.84c9.19-0.04,16.56,7.27,16.56,16.33
			c0,9.05-7.37,16.57-16.56,16.8c-9.29,0.23-16.9-7.08-16.9-16.32C141.85,50.4,149.46,42.87,158.75,42.84z M162.7,90.95
			c0,2.16-1.76,3.97-3.94,4.05c-2.19,0.08-3.96-1.61-3.96-3.78c0-2.17,1.78-3.98,3.96-4.05C160.93,87.1,162.7,88.8,162.7,90.95z
			 M126.11,109.07c-9.67,0.42-17.58-6.87-17.58-16.3c0-9.43,7.92-17.26,17.58-17.48c9.56-0.22,17.22,7.08,17.22,16.31
			C143.33,100.84,135.67,108.66,126.11,109.07z M158.75,139.33c-9.29,0.59-16.9-6.43-16.9-15.67c0-9.24,7.61-17.06,16.9-17.46
			c9.19-0.39,16.56,6.63,16.56,15.69S167.94,138.76,158.75,139.33z M190.14,106.28c-8.94,0.39-16.26-6.64-16.26-15.7
			c0-9.06,7.32-16.58,16.26-16.79c8.84-0.21,15.93,6.83,15.93,15.71C206.07,98.38,198.98,105.89,190.14,106.28z"/>
	</g>
	<g>
		<g>
			
				<linearGradient id="SVGID_9_" gradientUnits="userSpaceOnUse" x1="-2718.8828" y1="194.6348" x2="-2674.854" y2="62.5479" gradientTransform="matrix(-1 0 0 1 -2574.2229 0)">
				<stop  offset="0" style="stop-color:#293882"/>
				<stop  offset="1" style="stop-color:#171042"/>
			</linearGradient>
			<path class="st13" d="M30.97,199.43c0,1.89,1.55,3.44,3.45,3.44h186.42c1.9,0,3.45-1.55,3.45-3.44l1.55-107.13
				c0-1.89-2.23-5.59-6.32-5.31L37.33,82.27c-2.38-0.06-4.68,0.85-6.36,2.53c-1.68,1.68-2.61,3.98-2.55,6.35L30.97,199.43z"/>
			<linearGradient id="SVGID_10_" gradientUnits="userSpaceOnUse" x1="34.709" y1="218.4261" x2="303.215" y2="-2.3517">
				<stop  offset="0" style="stop-color:#66CDF3"/>
				<stop  offset="1" style="stop-color:#4A5AA8"/>
			</linearGradient>
			<path class="st14" d="M34.38,196.12c0,1.79,1.47,3.26,3.26,3.26h178.71c1.79,0,3.26-1.47,3.26-3.26l1.46-97.26
				c-0.17-5.85-5.3-7.96-8.41-7.83L38.04,86.35c-1.67-0.04-3.29,0.6-4.47,1.78c-1.18,1.18-1.83,2.8-1.79,4.47L34.38,196.12z"/>
			<g>
				<path class="st7" d="M217.68,149.92C217.68,149.92,217.67,149.92,217.68,149.92c-0.27,0-0.48-0.22-0.48-0.49l0.12-7.89
					c0-0.26,0.22-0.47,0.48-0.47c0,0,0,0,0.01,0c0.26,0,0.47,0.22,0.47,0.49l-0.12,7.89C218.15,149.71,217.94,149.92,217.68,149.92z
					"/>
				<path class="st7" d="M217.96,130.59C217.96,130.59,217.96,130.59,217.96,130.59c-0.27,0-0.48-0.22-0.48-0.49l0.44-30.21
					c-0.01-1.79-0.55-3.23-1.62-4.25c-1.99-1.91-5.15-1.81-5.28-1.8l-55.81-1.5c-0.26-0.01-0.47-0.23-0.46-0.49
					c0.01-0.26,0.21-0.49,0.49-0.46l55.78,1.5c0.35-0.02,3.71-0.08,5.95,2.07c1.26,1.21,1.9,2.87,1.91,4.94l-0.44,30.22
					C218.44,130.38,218.22,130.59,217.96,130.59z"/>
			</g>
			<linearGradient id="SVGID_11_" gradientUnits="userSpaceOnUse" x1="125.8387" y1="209.744" x2="121.8911" y2="99.2091">
				<stop  offset="0" style="stop-color:#293882"/>
				<stop  offset="1" style="stop-color:#171042"/>
			</linearGradient>
			<path class="st15" d="M20.56,211.76h210.37c2.59,0,4.71-2.12,4.71-4.71l0,0c0-2.59-2.12-4.71-4.71-4.71H20.56
				c-2.59,0-4.71,2.12-4.71,4.71l0,0C15.85,209.65,17.97,211.76,20.56,211.76z"/>
		</g>
		<path class="st60" d="M216.35,199.38H36.87V99.99c0-4.94,4.07-8.9,9-8.77l162.02,4.21c4.68,0.12,8.41,3.95,8.42,8.63
			L216.35,199.38z"/>
	</g>
	<g>
		<g>
			<path class="st61" d="M42.6,177.01l0.12,0.75c0.11,0.68,1.03,1.21,2.12,1.21H160.2c1.18,0,2.13-0.6,2.13-1.34l0,0
				c0-0.73-0.94-1.33-2.11-1.34l-115.48-0.75C43.47,175.53,42.47,176.21,42.6,177.01z"/>
			<path class="st61" d="M40.81,184.54l0.07,0.75c0.07,0.68,0.64,1.21,1.33,1.21h72.38c0.74,0,1.34-0.6,1.34-1.34l0,0
				c0-0.73-0.59-1.33-1.33-1.34l-72.46-0.75C41.36,183.06,40.74,183.75,40.81,184.54z"/>
			<path class="st61" d="M40.81,191.75l0.07,0.75c0.07,0.68,0.64,1.21,1.33,1.21h72.38c0.74,0,1.34-0.6,1.34-1.34l0,0
				c0-0.73-0.59-1.33-1.33-1.34l-72.46-0.75C41.36,190.27,40.74,190.96,40.81,191.75z"/>
			<linearGradient id="SVGID_13_" gradientUnits="userSpaceOnUse" x1="63.4252" y1="181.045" x2="105.8208" y2="121.3177">
				<stop  offset="0" style="stop-color:#8D50A0"/>
				<stop  offset="1" style="stop-color:#EF4A7B"/>
			</linearGradient>
			<path style="fill:url(#SVGID_13_);" d="M88.92,178.46c-0.08-1.11-0.19-2.24-0.29-3.37l-44.69-0.74c-0.8-0.01-1.43,1.08-1.35,2.35
				l0.07,1.19c0.07,1.09,0.64,1.93,1.33,1.93h45.04C88.99,179.35,88.95,178.89,88.92,178.46z"/>
			<circle class="st7" cx="89.27" cy="177.41" r="2.42"/>
		</g>
		<g>
			<linearGradient id="SVGID_14_" gradientUnits="userSpaceOnUse" x1="32.6801" y1="200.5181" x2="215.4525" y2="24.1451">
				<stop  offset="0" style="stop-color:#8D50A0"/>
				<stop  offset="1" style="stop-color:#EF4A7B"/>
			</linearGradient>
			<path style="fill:url(#SVGID_14_);" d="M158.46,170.72H45.05c-2.34,0-4.24-1.9-4.24-4.24v-65.22c0-2.37,1.95-4.29,4.32-4.24
				l113.41,2.19c2.31,0.04,4.16,1.93,4.16,4.24v63.04C162.7,168.82,160.8,170.72,158.46,170.72z"/>
			<path class="st25" d="M99.34,143.65v-16.33c0-1.74,1.9-2.83,3.4-1.94l13.76,8.17c1.47,0.87,1.47,3,0,3.87l-13.76,8.17
				C101.23,146.48,99.34,145.39,99.34,143.65z"/>
		</g>
	</g>
	<g>
		<g>
			<linearGradient id="SVGID_15_" gradientUnits="userSpaceOnUse" x1="64.0004" y1="232.975" x2="246.773" y2="56.6017">
				<stop  offset="0" style="stop-color:#8D50A0"/>
				<stop  offset="1" style="stop-color:#EF4A7B"/>
			</linearGradient>
			<path class="st17" d="M207.63,122.67h-35.04c-0.72,0-1.31-0.59-1.31-1.31v-20.15c0-0.73,0.6-1.32,1.34-1.31l35.04,0.68
				c0.71,0.01,1.28,0.6,1.28,1.31v19.48C208.94,122.08,208.35,122.67,207.63,122.67z"/>
			<path class="st25" d="M189.36,114.3v-5.05c0-0.54,0.59-0.87,1.05-0.6l4.25,2.52c0.45,0.27,0.45,0.93,0,1.2l-4.25,2.52
				C189.95,115.18,189.36,114.84,189.36,114.3z"/>
		</g>
		<g>
			<linearGradient id="SVGID_16_" gradientUnits="userSpaceOnUse" x1="80.2781" y1="249.843" x2="263.0506" y2="73.4697">
				<stop  offset="0" style="stop-color:#8D50A0"/>
				<stop  offset="1" style="stop-color:#EF4A7B"/>
			</linearGradient>
			<path class="st18" d="M207.93,154.95h-35.04c-0.72,0-1.31-0.59-1.31-1.31v-20.15c0-0.73,0.6-1.32,1.34-1.31l35.04,0.68
				c0.71,0.01,1.29,0.6,1.29,1.31v19.48C209.24,154.37,208.66,154.95,207.93,154.95z"/>
			<path class="st25" d="M189.67,146.59v-5.05c0-0.54,0.59-0.87,1.05-0.6l4.25,2.52c0.45,0.27,0.45,0.93,0,1.2l-4.25,2.52
				C190.25,147.46,189.67,147.13,189.67,146.59z"/>
		</g>
		<g>
			<path class="st61" d="M172.13,189.72l0.04,0.23c0.03,0.21,0.32,0.37,0.66,0.37h35.75c0.37,0,0.66-0.19,0.66-0.41l0,0
				c0-0.23-0.29-0.41-0.65-0.41l-35.79-0.23C172.4,189.26,172.09,189.47,172.13,189.72z"/>
			<path class="st61" d="M171.58,192.28l0.02,0.31c0.02,0.28,0.2,0.5,0.41,0.5h22.37c0.23,0,0.41-0.25,0.41-0.55l0,0
				c0-0.3-0.18-0.55-0.41-0.55L172,191.67C171.75,191.67,171.56,191.95,171.58,192.28z"/>
			<linearGradient id="SVGID_17_" gradientUnits="userSpaceOnUse" x1="172.167" y1="208.3794" x2="206.8302" y2="119.055">
				<stop  offset="0" style="stop-color:#8D50A0"/>
				<stop  offset="1" style="stop-color:#EF4A7B"/>
			</linearGradient>
			<path class="st19" d="M186.45,190.16c-0.03-0.34-0.06-0.69-0.09-1.04l-13.81-0.23c-0.25,0-0.44,0.34-0.42,0.73l0.02,0.37
				c0.02,0.34,0.2,0.6,0.41,0.6h13.92C186.47,190.44,186.46,190.3,186.45,190.16z"/>
			<circle class="st7" cx="186.56" cy="189.84" r="0.75"/>
		</g>
		<g>
			<linearGradient id="SVGID_18_" gradientUnits="userSpaceOnUse" x1="96.4114" y1="266.5615" x2="279.184" y2="90.1882">
				<stop  offset="0" style="stop-color:#8D50A0"/>
				<stop  offset="1" style="stop-color:#EF4A7B"/>
			</linearGradient>
			<path class="st20" d="M207.93,187.24h-35.04c-0.72,0-1.31-0.59-1.31-1.31v-20.15c0-0.73,0.6-1.32,1.34-1.31l35.04,0.68
				c0.71,0.01,1.29,0.6,1.29,1.31v19.48C209.24,186.65,208.66,187.24,207.93,187.24z"/>
			<path class="st25" d="M189.67,178.88v-5.05c0-0.54,0.59-0.87,1.05-0.6l4.25,2.52c0.45,0.27,0.45,0.93,0,1.2l-4.25,2.52
				C190.25,179.75,189.67,179.41,189.67,178.88z"/>
		</g>
		<g>
			<path class="st61" d="M172.48,157.94l0.03,0.21c0.03,0.2,0.29,0.34,0.61,0.34h33.02c0.34,0,0.61-0.17,0.61-0.38l0,0
				c0-0.21-0.27-0.38-0.6-0.38l-33.05-0.21C172.73,157.52,172.45,157.72,172.48,157.94z"/>
			<path class="st61" d="M171.98,160.31l0.02,0.29c0.02,0.26,0.18,0.46,0.38,0.46h20.65c0.21,0,0.38-0.23,0.38-0.51l0,0
				c0-0.28-0.17-0.51-0.38-0.51l-20.67-0.29C172.13,159.75,171.95,160.01,171.98,160.31z"/>
			<linearGradient id="SVGID_19_" gradientUnits="userSpaceOnUse" x1="175.0208" y1="168.7188" x2="209.6839" y2="79.3945">
				<stop  offset="0" style="stop-color:#8D50A0"/>
				<stop  offset="1" style="stop-color:#EF4A7B"/>
			</linearGradient>
			<path class="st21" d="M185.7,158.36c-0.02-0.32-0.05-0.64-0.08-0.96l-12.75-0.21c-0.23,0-0.41,0.31-0.38,0.67l0.02,0.34
				c0.02,0.31,0.18,0.55,0.38,0.55h12.85C185.72,158.61,185.71,158.48,185.7,158.36z"/>
			<circle class="st7" cx="185.8" cy="158.06" r="0.69"/>
		</g>
		<g>
			<path class="st61" d="M172.11,126.07l0.03,0.21c0.03,0.2,0.29,0.34,0.61,0.34h33.02c0.34,0,0.61-0.17,0.61-0.38l0,0
				c0-0.21-0.27-0.38-0.6-0.38l-33.05-0.21C172.36,125.65,172.07,125.84,172.11,126.07z"/>
			<path class="st61" d="M171.6,128.44l0.02,0.29c0.02,0.26,0.18,0.46,0.38,0.46h20.65c0.21,0,0.38-0.23,0.38-0.51l0,0
				c0-0.28-0.17-0.51-0.38-0.51l-20.67-0.29C171.76,127.87,171.58,128.14,171.6,128.44z"/>
			<linearGradient id="SVGID_20_" gradientUnits="userSpaceOnUse" x1="170.5802" y1="147.3279" x2="205.2432" y2="58.0037">
				<stop  offset="0" style="stop-color:#8D50A0"/>
				<stop  offset="1" style="stop-color:#EF4A7B"/>
			</linearGradient>
			<path class="st22" d="M185.33,126.49c-0.02-0.32-0.05-0.64-0.08-0.96l-12.75-0.21c-0.23,0-0.41,0.31-0.38,0.67l0.02,0.34
				c0.02,0.31,0.18,0.55,0.38,0.55h12.85C185.35,126.74,185.34,126.61,185.33,126.49z"/>
			<circle class="st7" cx="185.43" cy="126.19" r="0.69"/>
		</g>
	</g>
	<g>
		
			<linearGradient id="SVGID_21_" gradientUnits="userSpaceOnUse" x1="177.0642" y1="168.1162" x2="152.3376" y2="207.4252" gradientTransform="matrix(1 0 0 1 -105.3078 0)">
			<stop  offset="0" style="stop-color:#CB266E"/>
			<stop  offset="1" style="stop-color:#4C286E"/>
		</linearGradient>
		<path class="st23" d="M24.66,152.45c0,0-9.34,5.17-10.11,13.92c-0.77,8.75-0.06,45.08,18.65,54.02c18.72,8.94,43.5,6.88,52.98,5.9
			s14.74-7.42,15.92-11.86c1.17-4.44,3.07-20.97-6.91-26.3c-9.98-5.33-20.46-13.5-30.93-21.46
			C53.81,158.71,35.86,145.73,24.66,152.45z"/>
		
			<linearGradient id="SVGID_22_" gradientUnits="userSpaceOnUse" x1="200.1184" y1="196.0726" x2="209.2522" y2="205.6124" gradientTransform="matrix(1 0 0 1 -105.3078 0)">
			<stop  offset="0" style="stop-color:#293882"/>
			<stop  offset="1" style="stop-color:#171042"/>
		</linearGradient>
		<path class="st26" d="M92.26,191.15c0,0-2.52,0.13-2.83,5.32c0,0,5.84,5.24,13.73,6.48c0.59,0.09-0.83-4.04-1.04-4.6
			C101.11,195.67,97.91,193.96,92.26,191.15z"/>
		
			<linearGradient id="SVGID_23_" gradientUnits="userSpaceOnUse" x1="186.0207" y1="186.6097" x2="195.5309" y2="150.7878" gradientTransform="matrix(1 0 0 1 -105.3078 0)">
			<stop  offset="0" style="stop-color:#293882"/>
			<stop  offset="1" style="stop-color:#171042"/>
		</linearGradient>
		<path class="st27" d="M63.89,185.05h5.32c0,0,16.32-18.02,27.02-19.84c0,0,7.45,9.51-0.4,27.28c-0.63,1.43-2.4,2.06-3.71,1.22
			c-0.39-0.25-0.68-0.59-0.85-1.01l0.63-15.17c0,0-13.92,12.17-16.34,14.52C73.14,194.4,60.84,192.97,63.89,185.05z"/>
		
			<linearGradient id="SVGID_24_" gradientUnits="userSpaceOnUse" x1="212.2349" y1="220.0175" x2="229.5119" y2="232.6978" gradientTransform="matrix(1 0 0 1 -105.3078 0)">
			<stop  offset="0" style="stop-color:#293882"/>
			<stop  offset="1" style="stop-color:#171042"/>
		</linearGradient>
		<path class="st28" d="M115.29,222.89c-2.23-1.95-5.78-4.14-10.9-4.77l-1.73,1.06c0,0,1.11,1.63,3.12,3.35
			c1.86,1.08,4.72,2.54,7.1,2.85C115.19,225.69,115.53,224.3,115.29,222.89z"/>
		
			<linearGradient id="SVGID_25_" gradientUnits="userSpaceOnUse" x1="220.4905" y1="213.2735" x2="184.1402" y2="183.5804" gradientTransform="matrix(1 0 0 1 -105.3078 0)">
			<stop  offset="0" style="stop-color:#F9EE4A"/>
			<stop  offset="0.6645" style="stop-color:#E57B58"/>
			<stop  offset="1" style="stop-color:#DA3D66"/>
		</linearGradient>
		<path class="st29" d="M102.13,198.34c-1.37,0.44-1.98,2.39-5.46,1.1c-3.37-1.24-5.87-2.85-7.16-3.77
			c-0.03,0.25-0.05,0.51-0.07,0.79c0,0,6.16,5.86,14.05,7.11c0.59,0.09,1.06-0.5,0.85-1.06
			C103.95,201.5,103.26,199.98,102.13,198.34z"/>
		
			<linearGradient id="SVGID_26_" gradientUnits="userSpaceOnUse" x1="230.3509" y1="234.5637" x2="194.0007" y2="204.8707" gradientTransform="matrix(1 0 0 1 -105.3078 0)">
			<stop  offset="0" style="stop-color:#F9EE4A"/>
			<stop  offset="0.6645" style="stop-color:#E57B58"/>
			<stop  offset="1" style="stop-color:#DA3D66"/>
		</linearGradient>
		<path class="st30" d="M116.97,224.56c-0.44-0.5-1-1.07-1.68-1.67c0.23,1.41-0.11,2.8-2.42,2.49c-2.38-0.32-5.24-1.78-7.1-2.85
			c2.33,1.98,5.86,4.09,10.33,3.97C117.1,226.47,117.63,225.3,116.97,224.56z"/>
		
			<linearGradient id="SVGID_27_" gradientUnits="userSpaceOnUse" x1="212.4831" y1="195.9666" x2="176.3441" y2="209.598" gradientTransform="matrix(1 0 0 1 -105.3078 0)">
			<stop  offset="0" style="stop-color:#293882"/>
			<stop  offset="1" style="stop-color:#171042"/>
		</linearGradient>
		<path class="st31" d="M64.08,188.9l24.9,0.27c0,0,14.22,11.76,16.8,29.7c0,0,0.43,1.32-2.14,1.54c0,0-8.6-5.61-14.2-15.54
			c-6.87-12.17-20.49-6.69-20.49-6.69c-4.47-3.23-10.8-3.88-15.56-4.96L64.08,188.9z"/>
		
			<linearGradient id="SVGID_28_" gradientUnits="userSpaceOnUse" x1="184.322" y1="173.1536" x2="172.5927" y2="187.1019" gradientTransform="matrix(1 0 0 1 -105.3078 0)">
			<stop  offset="0" style="stop-color:#F7B777"/>
			<stop  offset="1" style="stop-color:#F47960"/>
		</linearGradient>
		<path class="st32" d="M64.67,168.84c0,0,2.68,13.43,15.81,18.75l4.67-0.55l1.1,1.76l-10.96,0.35c0,0-9.37-3.71-14.33-13.82
			C60.81,174.99,58.08,169.35,64.67,168.84z"/>
		
			<linearGradient id="SVGID_29_" gradientUnits="userSpaceOnUse" x1="151.3361" y1="147.3071" x2="170.1288" y2="213.2383" gradientTransform="matrix(1 0 0 1 -105.3078 0)">
			<stop  offset="0" style="stop-color:#F9EE4A"/>
			<stop  offset="0.6645" style="stop-color:#E57B58"/>
			<stop  offset="1" style="stop-color:#DA3D66"/>
		</linearGradient>
		<path class="st33" d="M66.11,188.68c0,0-3.05-8.29-3.7-16.34c0,0,2.23-1.92,3.62-2.74c0.45-0.27,0.62-0.83,0.39-1.31
			c-1.02-2.12-7.22-10.46-7.69-10.57c-2.52-0.63-12.87-5.55-20.16,4.42c-3.13,4.28,0.62,17.45,14.81,31.09l2.93,0.56L66.11,188.68z"
			/>
		
			<linearGradient id="SVGID_30_" gradientUnits="userSpaceOnUse" x1="170.6451" y1="185.8449" x2="194.0902" y2="153.7709" gradientTransform="matrix(1 0 0 1 -105.3078 0)">
			<stop  offset="0" style="stop-color:#F7B777"/>
			<stop  offset="1" style="stop-color:#F47960"/>
		</linearGradient>
		<path class="st34" d="M54.36,174.16c0,0,8.47,10.03,19.3,11.49c0,0,2.8-2.55,4.88-1.64c2.08,0.91,4.93,4.93,4.93,4.93h-13.9
			c0,0-13.14-0.46-19.71-8.43C50.39,177.72,51.97,176.05,54.36,174.16z"/>
		
			<linearGradient id="SVGID_31_" gradientUnits="userSpaceOnUse" x1="156.3032" y1="159.2652" x2="157.1668" y2="151.493" gradientTransform="matrix(1 0 0 1 -105.3078 0)">
			<stop  offset="0" style="stop-color:#F7B777"/>
			<stop  offset="1" style="stop-color:#F47960"/>
		</linearGradient>
		<path class="st35" d="M49.42,150.69l-1.85,6.18c-0.08,0.28,0.02,0.59,0.26,0.76c0.89,0.61,3.22,1.83,6.42,0.65
			c0.37-0.14,0.62-0.48,0.65-0.87l0.44-5.38L49.42,150.69z"/>
		<g>
			
				<linearGradient id="SVGID_32_" gradientUnits="userSpaceOnUse" x1="370.882" y1="-1689.8995" x2="367.0757" y2="-1702.4534" gradientTransform="matrix(0.776 -0.6308 0.6308 0.776 836.081 1693.9187)">
				<stop  offset="0" style="stop-color:#F7B777"/>
				<stop  offset="1" style="stop-color:#F47960"/>
			</linearGradient>
			<path class="st36" d="M57.23,140.38c0,0,3.33,5.55,2.67,8.63c-0.67,3.08-5.32,4.95-9.63,2.23l-2.7-8.44L57.23,140.38z"/>
			
				<linearGradient id="SVGID_33_" gradientUnits="userSpaceOnUse" x1="367.4474" y1="-1712.9506" x2="370.9861" y2="-1692.7666" gradientTransform="matrix(0.776 -0.6308 0.6308 0.776 836.081 1693.9187)">
				<stop  offset="0" style="stop-color:#293882"/>
				<stop  offset="1" style="stop-color:#171042"/>
			</linearGradient>
			<path class="st37" d="M50.65,147.17c0.18-0.07,0.26-0.29,0.16-0.46c-0.3-0.51-0.87-1.56-1.02-2.46c0,0-0.71-0.5,1.92-1.01
				c2.63-0.5,6.56-1.29,7.48-3.47c0.9-2.12-0.94-7.65-4.48-3.48c-0.13,0.16-0.38,0.15-0.5-0.02c-0.51-0.74-1.88-2.28-3.92-1.48
				c-1.91,0.75-2.18,2.11-2.19,2.8c0,0.2-0.19,0.35-0.39,0.31c-0.94-0.22-3.19-0.48-4.36,1.79c-0.96,1.87-0.44,2.98,0.05,3.54
				c0.16,0.18,0.07,0.46-0.16,0.52c-0.63,0.16-1.45,0.65-1.44,2.11c0.02,2.01,2.27,1.94,2.92,1.88c0.11-0.01,0.21,0.03,0.28,0.11
				c0.52,0.63,2.87,3.32,5.53,3.76c0.23,0.04,0.42-0.18,0.35-0.41l-1-3.42c-0.05-0.16,0.04-0.33,0.19-0.39L50.65,147.17z"/>
			
				<linearGradient id="SVGID_34_" gradientUnits="userSpaceOnUse" x1="366.9395" y1="-1688.7043" x2="363.1333" y2="-1701.2582" gradientTransform="matrix(0.776 -0.6308 0.6308 0.776 836.081 1693.9187)">
				<stop  offset="0" style="stop-color:#F7B777"/>
				<stop  offset="1" style="stop-color:#F47960"/>
			</linearGradient>
			<path class="st38" d="M51.1,147.66c0,0-2.82-2.13-3.11-0.46c-0.29,1.67,2.51,2.55,3.94,1.99L51.1,147.66z"/>
		</g>
		<linearGradient id="SVGID_35_" gradientUnits="userSpaceOnUse" x1="79.4181" y1="192.819" x2="101.8159" y2="165.8884">
			<stop  offset="0" style="stop-color:#66CDF3"/>
			<stop  offset="1" style="stop-color:#4A5AA8"/>
		</linearGradient>
		<path class="st39" d="M82.77,189.72l6.24-20.82c0.25-0.85,1.01-1.45,1.89-1.51l8.43-0.58c0.86-0.06,1.49,0.78,1.21,1.59
			l-6.98,19.88c-0.22,0.64-0.8,1.09-1.47,1.16l-8.3,0.92L82.77,189.72z"/>
		
			<linearGradient id="SVGID_36_" gradientUnits="userSpaceOnUse" x1="203.0364" y1="171.0223" x2="192.1788" y2="182.0384" gradientTransform="matrix(1 0 0 1 -105.3078 0)">
			<stop  offset="0" style="stop-color:#F9EE4A"/>
			<stop  offset="1" style="stop-color:#DA3D66"/>
		</linearGradient>
		<path class="st40" d="M94.28,175.96c-0.47,0.94-1.27,1.49-1.8,1.23c-0.53-0.26-0.58-1.24-0.11-2.18c0.47-0.94,1.27-1.49,1.8-1.23
			C94.7,174.04,94.75,175.02,94.28,175.96z"/>
		<linearGradient id="SVGID_37_" gradientUnits="userSpaceOnUse" x1="72.607" y1="197.8627" x2="82.4727" y2="161.0664">
			<stop  offset="0" style="stop-color:#66CDF3"/>
			<stop  offset="1" style="stop-color:#4A5AA8"/>
		</linearGradient>
		<path class="st41" d="M83.79,190.36c-0.01,0-0.03,0-0.04,0l-17.68-0.89c-0.44-0.02-0.77-0.39-0.75-0.83
			c0.02-0.44,0.4-0.78,0.83-0.75l17.68,0.89c0.44,0.02,0.77,0.39,0.75,0.83C84.56,190.04,84.21,190.36,83.79,190.36z"/>
		<path class="st87" d="M62.41,172.54L62.41,172.54c-0.11,0-0.2-0.09-0.2-0.2c0.01-3.69-1.41-8.58-1.43-8.63
			c-0.03-0.1,0.03-0.21,0.13-0.24c0.1-0.03,0.21,0.03,0.24,0.13c0.01,0.05,1.45,5,1.44,8.74C62.6,172.45,62.51,172.54,62.41,172.54z
			"/>
		<path class="st87" d="M54.36,174.35c-0.06,0-0.11-0.03-0.15-0.07c-0.04-0.05-3.91-4.97-5.24-8.35c-0.04-0.1,0.01-0.21,0.11-0.25
			c0.1-0.04,0.21,0.01,0.25,0.11c1.31,3.32,5.15,8.2,5.19,8.25c0.07,0.08,0.05,0.21-0.03,0.27
			C54.45,174.34,54.41,174.35,54.36,174.35z"/>
		<path class="st87" d="M48.94,181.88l-0.15-0.06c-5.61-2.4-9.08-9.1-9.11-9.17c-0.05-0.1-0.01-0.21,0.09-0.26
			c0.1-0.05,0.21-0.01,0.26,0.09c0.03,0.07,3.38,6.52,8.77,8.92l0.55-0.78c0.06-0.09,0.18-0.11,0.27-0.05
			c0.09,0.06,0.11,0.18,0.05,0.27L48.94,181.88z"/>
	</g>
</g>
</svg>
