<?xml version="1.0" encoding="utf-8"?>
<!-- Generator: Adobe Illustrator 25.0.0, SVG Export Plug-In . SVG Version: 6.00 Build 0)  -->
<svg version="1.1" id="Layer_1" xmlns="http://www.w3.org/2000/svg" xmlns:xlink="http://www.w3.org/1999/xlink" x="0px" y="0px"
	 viewBox="0 0 720 691" style="enable-background:new 0 0 720 691;" xml:space="preserve">
<style type="text/css">
	.st0{fill:#F8CF0D;}
	.st1{fill:#E6B722;}
	.st2{fill:#D0A32B;}
	.st3{fill:#010101;}
	.st4{fill:#E73925;}
	.st5{fill:none;stroke:#010101;stroke-width:3;stroke-linecap:round;stroke-linejoin:round;stroke-dasharray:7.1779,7.1779;}
	.st6{fill:#FFFFFF;}
	.st7{fill:#F3941F;}
	.st8{fill:#E5E6E7;}
	.st9{font-family:'Roboto-Bold';}
	.st10{font-size:27.9757px;}
	.st11{fill:none;}
	.st12{font-family:'Roboto-Medium';}
	.st13{font-size:8px;}
	.st14{fill:#E0E0DF;}
</style>
<g>
	<g>
		<g>
			<rect x="0.24" class="st0" width="719.52" height="691"/>
			<path class="st1" d="M0.24,208.39c5.14,0.02,10.28-0.48,15.23-1.47c14.55-2.91,29.67-10.63,34.77-24.57
				c11.89,4.98,26.11,3.99,37.19-2.58c11.09-6.57,18.77-18.58,20.1-31.4c10.04,15,30.17,20.08,48.15,18.52
				c19.05-1.65,38.45-10.3,48.5-26.57c10.05-16.27,7.6-40.55-8.24-51.26c9.63,2.77,20.92-3.12,24.16-12.61
				c3.23-9.49-2.11-21.05-11.43-24.74c9.47-5.13,19.17-10.44,26.18-18.62c7.01-8.18,10.85-19.99,6.76-29.95
				C241.16,2.05,240.66,1,240.13,0H0.24V208.39z"/>
			<path class="st1" d="M719.76,0H410.69c0.5,3.77,1.84,7.41,4.04,10.52c5.72,8.09,16.77,11.97,26.29,9.23
				c-5.03,12.83,4.69,28.05,17.78,32.34c13.09,4.29,27.7-0.21,39.11-7.94c-3.37,14.62,3.81,31.03,16.84,38.47
				c13.02,7.44,30.82,5.29,41.69-5.04c-8.06,15.51-1.13,36.98,14.48,44.85c15.61,7.86,36.99,0.65,44.66-15.06
				c3.33,13.04,12.98,24.97,26,28.37c13.02,3.4,28.69-3.79,32.39-16.73c6.21,12.56,18.74,21.78,32.58,23.97
				c4.38,0.69,8.85,0.67,13.22,0.01V0z"/>
			<path class="st1" d="M719.76,640c-23.67-9.38-51.89-8.44-77.45-3.34c0.3-17.52-10.32-34.76-26.1-42.36
				c-15.78-7.6-35.89-5.16-49.4,6c-11.37-21.27-44.44-26.39-61.72-9.57c-11.86-28.3-42.89-47.31-73.49-45.04
				c-30.6,2.27-58.48,25.65-66.04,55.39c-7.49-13.42-23.45-21.59-38.72-19.81c-15.27,1.78-28.92,13.4-33.12,28.19
				c-17.67-15.03-49.23-7.38-58.06,14.08c-24.88-17.75-63.36-12.17-82.18,11.92c-14.28-10.83-38.64-1.49-42.02,16.11
				c-21.6-9.24-49.85,7.21-52.48,30.55C46.2,668.49,25.22,663.26,7.54,669.3c-2.49,0.85-4.93,1.96-7.3,3.28V691h719.52V640z"/>
		</g>
	</g>
	<g>
		<g>
			<path class="st2" d="M264.94,418.85c-1.06-0.69-2.61-0.42-3.48,0.45c-0.98,0.98-0.96,2.29-0.45,3.48
				c2.38,5.53,5.84,10.52,8.76,15.77c0.73,1.32,1.49,2.62,2.15,3.98c0.3,0.6,0.57,1.22,0.85,1.83c0.02,0.04,0.03,0.09,0.06,0.15
				c0.14,0.36,0.28,0.72,0.41,1.09c0.89,2.48,1.58,5.04,2,7.64c0.23,2.16,0.25,4.32,0.01,6.48c-0.19,1.07-0.43,2.13-0.76,3.16
				c-0.11,0.33-0.23,0.66-0.34,0.99c-0.28,0.54-0.54,1.08-0.85,1.61c-0.29,0.49-0.59,0.98-0.92,1.45c-0.12,0.17-0.24,0.33-0.35,0.5
				c-0.75,0.87-1.51,1.72-2.35,2.51c-0.41,0.39-0.84,0.76-1.27,1.12c-0.02,0.02-0.03,0.03-0.05,0.04c-0.16,0.12-0.31,0.23-0.47,0.34
				c-0.94,0.67-1.91,1.28-2.9,1.86c-1.98,1.16-4.04,2.15-6.14,3.05c-0.88,0.37-1.77,0.73-2.65,1.1c0.5-0.21,0.99-0.42,1.49-0.63
				c-5.88,2.48-11.96,4.52-17.95,6.7c-6.9,2.51-13.81,5.01-20.68,7.58c-4.24,1.59-8.41,3.3-12.57,5.07c0.47-0.2,0.93-0.39,1.4-0.59
				c-0.49,0.2-0.97,0.4-1.46,0.6c-1.46,0.59-2.64,1.25-3.46,2.66c-0.73,1.24-1.03,3.07-0.58,4.47c0.93,2.88,4.04,5.05,7.13,4.05
				c2.43-0.78,4.88-1.48,7.31-2.26c2.43-0.78,4.82-1.7,7.22-2.56c4.69-1.67,9.37-3.39,14.05-5.11c4.74-1.74,9.48-3.48,14.22-5.21
				c4.07-1.49,8.18-2.96,12.07-4.87c7.24-3.55,14.31-8.55,18.36-15.7c2.41-4.26,3.7-9.01,3.99-13.88c0.27-4.58-0.41-9.48-1.96-13.81
				C281.08,433.73,274.08,424.76,264.94,418.85z M476.03,430.58c-0.3-0.01-0.61-0.02-0.91-0.03c-0.21-0.01-0.8-0.08-0.48-0.02
				c-0.69-0.12-1.38-0.24-2.07-0.29c-1.15-0.07-2.31,0-3.46-0.02c-2.37-0.05-4.73-0.13-7.1-0.17c-4.41-0.08-8.85-0.47-13.23-1.03
				c-12.24-1.75-24.14-5.37-35.68-9.77c-3.19-1.22-6.36-2.5-9.51-3.83c-11.92-5.07-23.58-10.71-35.51-15.76
				c-12.44-5.27-25.13-10.08-38.38-12.87c-3.95-0.83-7.97-1.56-12-1.91c-3.68-0.32-7.34-0.28-11.03-0.19
				c-2.94,0.07-5.76,2.54-5.62,5.62c0.14,3.2,2.47,5.43,5.62,5.62c1.46,0.09,2.9,0.24,4.34,0.43c1.29,0.18,2.57,0.36,3.86,0.53
				c-0.54-0.07-1.08-0.15-1.62-0.22c6.69,0.91,13.33,2.09,19.86,3.81c6.64,1.75,13.16,3.95,19.57,6.4c3.43,1.31,6.83,2.68,10.22,4.1
				c14.12,6,27.93,12.72,42.18,18.41c14.7,5.87,29.86,10.51,45.65,12.19c4.22,0.45,8.49,0.59,12.72,0.36c2.5-0.14,5.01-0.53,7.46-1
				c1.05-0.2,2.17-0.35,3.18-0.72c0.58-0.21,1.15-0.56,1.73-0.79c0.09-0.02,0.22-0.05,0.3-0.08c0.35-0.12,0.69-0.25,1.04-0.38
				c2.02-0.76,3.37-2.47,3.07-4.7C479.95,432.15,478.18,430.65,476.03,430.58z M553.25,284.66c-0.61-1.04-2.06-1.74-3.24-1.32
				c-1.3,0.46-2.54,0.98-3.8,1.53c-0.06,0.03-0.84,0.35-0.55,0.23c-0.13,0.05-0.26,0.11-0.39,0.16c-0.7,0.28-1.4,0.56-2.1,0.82
				c-2.23,0.84-4.45,1.69-6.67,2.57c-4.48,1.77-9.1,3.18-13.76,4.41c-4.81,1.26-9.71,2.26-14.62,3.01c-0.55,0.08-1.1,0.17-1.65,0.24
				c-0.02,0-0.05,0.01-0.08,0.01c0.06-0.01,0.11-0.01,0.18-0.02c-0.22,0.03-0.44,0.06-0.66,0.09c-1.33,0.17-2.66,0.32-3.99,0.45
				c-2.45,0.24-4.9,0.42-7.35,0.55c-21.86,1.08-43.58-2.11-65.24-4.6c-12.79-1.47-25.72-2.78-38.61-2.53
				c-2.71,0.05-5.3,2.34-5.18,5.18c0.13,2.9,2.27,5.06,5.18,5.18c11.64,0.48,23.19,1.57,34.76,2.9c11.56,1.32,23.1,2.83,34.69,3.85
				c10.44,0.92,20.91,1.41,31.38,0.94c10.32-0.47,20.79-1.6,30.79-4.29c5.62-1.51,11.07-3.53,16.34-6.01
				c2.48-1.17,4.89-2.45,7.12-4.06c2.45-1.77,4.98-3.57,7.03-5.8C553.67,287.2,553.91,285.79,553.25,284.66z M502.64,390.62
				c-4.25-2.52-8.56-4.99-13.1-6.96c-2.27-0.98-4.42-2.21-6.62-3.35c-2.2-1.14-4.45-2.16-6.7-3.2c-2.15-0.99-4.23-2.11-6.38-3.09
				c-2.25-1.03-4.51-2.05-6.78-3.04c-4.89-2.15-9.9-4.02-14.89-5.91c-9.19-3.49-18.42-6.89-27.56-10.51
				c-2.3-0.91-4.59-1.84-6.87-2.79c-0.47-0.2-0.95-0.4-1.42-0.59c-0.01-0.01-0.02-0.01-0.03-0.01c-0.3-0.13-0.59-0.25-0.89-0.38
				c-1.18-0.51-2.36-1.03-3.53-1.56c-4.38-1.98-8.72-4.06-12.99-6.28c-4.82-2.51-9.5-5.27-14.06-8.24
				c-2.32-1.52-4.59-3.11-6.92-4.62c-1.37-0.88-2.94-1.89-4.48-2.4c-0.23-0.08-0.48-0.16-0.72-0.21c-0.31-0.1-0.2-0.04,0.33,0.18
				c-0.3-0.12-0.54-0.22-0.71-0.29c0.04,0.01,0.09,0.03,0.12,0.03c-0.19-0.07-0.31-0.12-0.39-0.15c0.03,0.02,0.06,0.03,0.08,0.04
				c-0.19-0.08-0.22-0.09-0.08-0.04c-0.18-0.1-0.36-0.22-0.47-0.27c-0.38-0.19-0.76-0.38-1.14-0.58c-1.67-0.86-3.65-0.56-4.83,0.96
				c-1.2,1.55-0.93,3.47,0.29,4.91c0.41,0.49,0.81,1,1.25,1.46c0.07,0.08,0.14,0.16,0.21,0.24c-0.49-0.68-0.36-0.51,0.4,0.5
				c-0.64-0.76-0.28-0.36-0.16-0.15c0.75,1.34,2.01,2.44,3.16,3.44c2.11,1.83,4.47,3.37,6.83,4.85c4.15,2.61,8.43,4.98,12.75,7.31
				c8.57,4.62,17.44,8.67,26.39,12.51c9.46,4.05,19.03,7.81,28.6,11.58c9.14,3.6,18.2,7.46,27.44,10.8c0.3,0.11,0.6,0.22,0.91,0.33
				c0.19,0.07,0.38,0.14,0.56,0.21c0.51,0.22,1.01,0.44,1.51,0.67c1.28,0.57,2.56,1.15,3.83,1.73c2.44,1.12,4.95,2.15,7.34,3.38
				c1.23,0.64,2.39,1.45,3.57,2.18c1.19,0.73,2.42,1.39,3.63,2.09c2.42,1.4,4.8,2.86,7.16,4.36c2.33,1.49,5.92,0.56,7.22-1.89
				C505.88,395.29,505.18,392.12,502.64,390.62z M506.37,296.33C505.11,296.48,505.98,296.38,506.37,296.33L506.37,296.33z"/>
			<g>
				<path class="st3" d="M264.41,422.94c4.31,8.53,12.27,14.76,15.87,23.69c3.12,7.75,1.94,16.81-2.84,23.63
					c-1.02,1.45-2.21,2.8-3.55,3.96c-0.19,0.17-0.39,0.33-0.59,0.49c-0.04,0.03-0.35,0.28-0.18,0.15c-0.13,0.1-0.27,0.2-0.4,0.3
					c-0.51,0.37-1.02,0.73-1.55,1.07c-2.62,1.72-5.4,3.18-8.21,4.56c-7.77,3.81-15.86,6.97-23.93,10.07
					c-9.66,3.7-19.4,7.17-29.16,10.61c-1.25,0.44-2.5,0.88-3.73,1.37c-0.45,0.18-0.77,0.61-0.63,1.11c0.13,0.46,0.64,0.78,1.11,0.63
					c2.59-0.8,5.14-1.74,7.7-2.64c2.5-0.88,5-1.76,7.5-2.65c4.96-1.76,9.91-3.55,14.84-5.4c8.55-3.2,17.09-6.54,25.34-10.45
					c3.04-1.44,6.06-2.97,8.93-4.73c2.4-1.47,4.64-3.14,6.49-5.27c5.65-6.53,7.89-15.84,5.73-24.22
					c-2.43-9.42-10.14-15.88-15.16-23.84c-0.7-1.1-1.34-2.24-1.92-3.4C265.5,420.89,263.86,421.85,264.41,422.94L264.41,422.94z"/>
			</g>
			<g>
				<path class="st3" d="M475.38,435.44c-11.7,0.86-23.43-0.31-34.87-2.8c-11.49-2.5-22.68-6.25-33.63-10.5
					c-10.89-4.23-21.56-8.98-32.31-13.54c-10.6-4.5-21.29-8.83-32.28-12.32c-11.18-3.55-22.75-6.3-34.47-7.16
					c-1.51-0.11-3.03-0.18-4.54-0.22c-1.54-0.04-1.54,2.35,0,2.39c11.85,0.29,23.59,2.8,34.93,6.16
					c11.05,3.28,21.79,7.48,32.42,11.92c10.75,4.48,21.39,9.22,32.21,13.52c10.93,4.33,22.07,8.23,33.51,10.97
					c11.34,2.72,23.03,4.29,34.71,3.9c1.45-0.05,2.89-0.13,4.33-0.24C476.7,437.42,476.71,435.34,475.38,435.44L475.38,435.44z"/>
			</g>
			<g>
				<path class="st3" d="M363.82,331.13c7.3,6.43,15.41,11.89,23.94,16.56c8.54,4.68,17.48,8.59,26.55,12.14
					c9.18,3.6,18.5,6.82,27.79,10.09c9.31,3.28,18.61,6.61,27.72,10.41c4.53,1.89,9.01,3.9,13.41,6.08
					c4.67,2.31,9.3,4.86,13.26,8.28c1,0.86,1.94,1.77,2.84,2.74c1.02,1.09,2.65-0.55,1.64-1.64c-3.61-3.89-8.07-6.89-12.71-9.42
					c-4.42-2.41-9.01-4.53-13.63-6.54c-9.07-3.94-18.36-7.35-27.68-10.65c-9.3-3.29-18.65-6.46-27.89-9.93
					c-9.09-3.42-18.07-7.15-26.71-11.61c-8.56-4.41-16.76-9.55-24.18-15.71c-0.94-0.78-1.87-1.58-2.79-2.39
					C364.32,328.62,362.75,330.18,363.82,331.13L363.82,331.13z"/>
			</g>
			<g>
				<path class="st3" d="M545.58,288.62c-8.57,4.68-17.86,7.89-27.4,9.87c-9.6,2-19.42,2.77-29.21,2.82
					c-10.17,0.05-20.32-0.73-30.43-1.79c-11.19-1.18-22.35-2.69-33.54-3.83c-11.09-1.13-22.25-1.89-33.41-1.56
					c-1.4,0.04-2.8,0.1-4.2,0.19c-1.43,0.09-1.45,2.31,0,2.24c11.27-0.54,22.5-0.08,33.73,0.93c11.26,1.02,22.46,2.5,33.7,3.72
					c10.34,1.12,20.72,2.01,31.13,2.08c9.89,0.07,19.81-0.57,29.55-2.36c9.58-1.76,19.01-4.69,27.66-9.21
					c1.08-0.57,2.15-1.16,3.21-1.77C547.23,289.46,546.46,288.14,545.58,288.62L545.58,288.62z"/>
			</g>
			<circle class="st4" cx="362.3" cy="302.43" r="13.14"/>
			<circle class="st5" cx="362.3" cy="302.43" r="20.22"/>
			<circle class="st5" cx="502.81" cy="425.18" r="20.22"/>
			
				<ellipse transform="matrix(0.2947 -0.9556 0.9556 0.2947 -184.057 540.4856)" class="st5" cx="274.12" cy="394.93" rx="20.22" ry="20.22"/>
			
				<ellipse transform="matrix(0.9239 -0.3827 0.3827 0.9239 -183.4824 107.2197)" class="st5" cx="177.77" cy="514.82" rx="20.22" ry="20.22"/>
			
				<ellipse transform="matrix(0.7071 -0.7071 0.7071 0.7071 -152.409 479.6732)" class="st6" cx="502.81" cy="423.81" rx="13.14" ry="13.14"/>
			
				<ellipse transform="matrix(0.2298 -0.9732 0.9732 0.2298 -364.1224 569.5604)" class="st7" cx="177.77" cy="514.82" rx="13.14" ry="13.14"/>
			
				<ellipse transform="matrix(0.233 -0.9725 0.9725 0.233 -173.8169 569.4733)" class="st3" cx="274.12" cy="394.93" rx="13.14" ry="13.14"/>
			<g>
				<path class="st6" d="M597.1,350.66c-0.44-2.93-2.71-7.39-3.37-8.29c-2.38-3.26-5.4-6.08-9.45-6.96
					c-7.13-1.54-15.06,2.94-17.43,9.84c-3.95-4.55-10.32-7.52-16.1-5.82c-5.79,1.71-9.59,9.23-6.25,14.25
					c-4.64-2.19-10.69-0.84-13.96,3.12c-3.27,3.96-3.44,10.16-0.4,14.29c3.04,4.14,9,5.83,13.76,3.9
					c-0.48,8.04,4.41,16.52,12.13,18.82c7.72,2.3,17.21-3.22,17.83-11.25c2.77,4.66,7.37,8.34,12.68,9.39
					c5.31,1.05,11.26-0.79,14.58-5.07c3.57-4.6,3.07-10.47-0.02-15.07c4.49,0.64,8.76,3.14,13.32,0.72
					c2.24-1.19,3.82-3.39,4.71-5.76c1.49-3.93,1.2-8.57-1.03-12.14c-3.97-6.37-16.18-4.8-21.55-1.52
					C597.16,352.74,597.27,351.82,597.1,350.66z"/>
				<path class="st8" d="M612.78,368.46c-5.92,0.55-12.12-0.54-17.08-3.82c0.4,3.94-0.25,7.98-1.87,11.59
					c-1.2,2.67-3.15,5.27-5.96,6.06c-2.85,0.8-5.96-0.48-8.11-2.51c-2.15-2.04-3.53-4.73-4.87-7.38c-0.68,3.35-1.43,6.84-3.59,9.48
					c-2.17,2.64-6.23,4.07-9.09,2.2c-2.32-1.51-3.08-4.57-3.14-7.34c-0.05-2.77,0.4-5.6-0.3-8.28c-7.84,3.75-17.3,3.95-25.29,0.53
					c-2.65-1.13-3.95-2.82-5.5-4.53c0.04,2.37,0.75,4.72,2.16,6.63c3.04,4.14,9,5.83,13.76,3.9c-0.48,8.04,4.41,16.52,12.13,18.82
					c7.72,2.3,17.21-3.22,17.83-11.25c2.77,4.66,7.37,8.34,12.68,9.39c5.31,1.05,11.26-0.79,14.58-5.07
					c3.57-4.6,3.07-10.47-0.02-15.07c4.49,0.64,8.76,3.14,13.32,0.72c2.05-1.09,3.54-3.03,4.46-5.16
					C616.87,367.88,614.84,368.27,612.78,368.46z"/>
				<g>
					<path class="st3" d="M568.34,346.48c-1.12-2.06-2.82-3.87-4.87-5.02c-2.08-1.17-4.45-1.82-6.84-1.86
						c-4.89-0.09-9.36,2.65-11.84,6.81c-1.35,2.26-2.23,5.09-2.11,7.73c0.39-0.3,0.78-0.59,1.17-0.89c-3.29-0.75-6.8-0.5-9.88,0.91
						c-2.99,1.37-5.31,3.82-6.51,6.88c-1.15,2.9-1.14,6.28,0.24,9.1c1.45,2.97,4.3,5.02,7.34,6.12c4.19,1.51,8.78,1.13,13.1,0.52
						c-0.38-0.38-0.75-0.75-1.13-1.13c-1.24,6.39,2.01,13.26,7.45,16.7c2.79,1.77,6.09,2.5,9.36,2.04c3.19-0.45,6.22-1.99,8.54-4.21
						c2.64-2.53,4.37-5.96,4.51-9.64c-0.59,0.08-1.19,0.16-1.78,0.24c1.8,5.94,7.72,10.08,13.85,10.24c3.1,0.08,6.08-0.95,8.5-2.88
						c2.36-1.88,4.04-4.6,4.88-7.48c0.96-3.3,0.79-6.87-0.67-10c-0.35,0.46-0.71,0.92-1.06,1.38c3.81,1.6,8.25,1.73,12.13,0.27
						c3.84-1.44,7.05-4.36,8.31-8.33c1.14-3.6,0.67-7.81-1.33-11.03c-2.23-3.6-6.26-5.52-10.46-5.25c-2.57,0.16-5.04,1-7.31,2.2
						c-2.28,1.21-4.45,2.81-6.28,4.62c0.52,0.3,1.04,0.61,1.56,0.91c0.98-6.17-0.98-12.88-6.27-16.55c-2.4-1.67-5.42-2.65-8.36-2.43
						c-2.96,0.21-5.66,1.49-7.98,3.28c-2.64,2.05-4.81,4.61-6.83,7.26c0.35-0.04,0.7-0.09,1.04-0.13c-0.82-0.85-1.65-1.69-2.46-2.55
						c-0.56-0.59-1.45,0.3-0.89,0.89c0.81,0.86,1.61,1.74,2.42,2.6c0.22,0.24,0.72,0.28,0.94,0c3.2-4.14,7.12-8.6,12.56-9.51
						c5.43-0.91,10.66,2.61,12.88,7.43c1.31,2.84,1.65,6.15,1.16,9.22c-0.14,0.87,0.85,1.62,1.56,0.91
						c2.97-2.94,6.6-5.35,10.78-6.12c3.57-0.65,7.39,0.39,9.65,3.32c1.97,2.56,2.62,6.1,1.99,9.19c-0.7,3.44-3.03,6.16-6.19,7.71
						c-3.59,1.77-8.19,1.96-11.88,0.38c-0.87-0.38-1.69,0.39-1.28,1.28c2.21,4.83,0.51,10.75-3.18,14.33
						c-1.87,1.82-4.35,2.94-6.95,3.1c-2.66,0.16-5.29-0.57-7.59-1.93c-2.6-1.54-4.63-3.9-5.48-6.82c-0.29-1-1.73-0.77-1.78,0.24
						c-0.29,5.76-5.17,10.56-10.63,11.82c-2.75,0.63-5.63,0.26-8.13-1.06c-2.52-1.33-4.56-3.44-5.93-5.93
						c-1.55-2.82-2.18-6.06-1.6-9.23c0.14-0.74-0.41-1.24-1.13-1.13c-3.55,0.54-7.27,0.89-10.79,0.02c-2.75-0.68-5.46-2.17-7.1-4.55
						c-1.59-2.31-1.89-5.17-1.12-7.84c0.79-2.76,2.65-5,5.18-6.36c2.88-1.55,6.36-1.95,9.54-1.25c0.56,0.12,1.2-0.26,1.17-0.89
						c-0.05-1.05-0.04-2.13,0.17-3.16c0.22-1.04,0.63-2.05,1.13-2.98c1-1.87,2.45-3.52,4.23-4.68c3.52-2.3,7.96-2.38,11.71-0.57
						c2.12,1.02,4.04,2.5,5.34,4.47C567.6,347.98,568.78,347.3,568.34,346.48L568.34,346.48z"/>
				</g>
				<g>
					<g>
						<path class="st6" d="M530.58,345.64c4,0,4.01-6.22,0-6.22C526.58,339.42,526.57,345.64,530.58,345.64L530.58,345.64z"/>
					</g>
				</g>
				<g>
					<g>
						<path class="st6" d="M516.56,349.96c1.83,0,1.83-2.84,0-2.84C514.73,347.12,514.73,349.96,516.56,349.96L516.56,349.96z"/>
					</g>
				</g>
				<g>
					<g>
						<path class="st6" d="M547.31,333.52c0.32,0.2,0.63,0.4,0.95,0.6c0.16,0.1,0.35,0.11,0.53,0.07c0.12-0.03,0.22-0.09,0.3-0.18
							c0.07-0.06,0.11-0.14,0.14-0.22c0.04-0.08,0.06-0.17,0.06-0.26c0-0.09-0.02-0.18-0.06-0.26c-0.03-0.09-0.08-0.16-0.14-0.22
							c-0.09-0.09-0.19-0.14-0.3-0.18c-0.34-0.13-0.69-0.26-1.03-0.4c-0.08-0.02-0.15-0.03-0.23-0.01c-0.08,0-0.15,0.03-0.21,0.07
							c-0.11,0.07-0.19,0.16-0.24,0.28c-0.05,0.11-0.07,0.25-0.03,0.38C547.09,333.32,547.18,333.44,547.31,333.52L547.31,333.52z"
							/>
					</g>
				</g>
				<g>
					<g>
						<path class="st6" d="M570.63,328.7c3.46,0,3.46-5.38,0-5.38C567.17,323.32,567.16,328.7,570.63,328.7L570.63,328.7z"/>
					</g>
				</g>
				<g>
					<g>
						<path class="st6" d="M602.67,335.77c2.9,0,2.9-4.5,0-4.5C599.77,331.27,599.77,335.77,602.67,335.77L602.67,335.77z"/>
					</g>
				</g>
				<g>
					<g>
						<path class="st6" d="M623.19,345.16c3.38,0,3.38-5.25,0-5.25C619.81,339.91,619.81,345.16,623.19,345.16L623.19,345.16z"/>
					</g>
				</g>
				<g>
					<g>
						<path class="st6" d="M612.68,383.75c2.15,0,2.16-3.34,0-3.34C610.53,380.41,610.52,383.75,612.68,383.75L612.68,383.75z"/>
					</g>
				</g>
				<g>
					<g>
						<path class="st6" d="M612.68,403.45c3.02,0,3.02-4.69,0-4.69C609.66,398.76,609.66,403.45,612.68,403.45L612.68,403.45z"/>
					</g>
				</g>
				<g>
					<g>
						<path class="st6" d="M589.12,399.1c0.01,0.17,0.01,0.33,0.02,0.5c-0.01,0.21,0.04,0.4,0.13,0.58
							c0.06,0.19,0.17,0.35,0.31,0.49c0.14,0.15,0.3,0.25,0.49,0.31c0.18,0.09,0.38,0.14,0.58,0.13c0.13-0.02,0.27-0.04,0.4-0.05
							c0.26-0.07,0.48-0.2,0.67-0.39c0.08-0.1,0.16-0.2,0.24-0.31c0.14-0.24,0.21-0.49,0.21-0.76c0.01-0.17,0.01-0.33,0.02-0.5
							c0.01-0.21-0.04-0.41-0.13-0.59c-0.06-0.19-0.17-0.35-0.32-0.49c-0.14-0.15-0.3-0.25-0.49-0.32c-0.18-0.1-0.38-0.14-0.59-0.13
							c-0.14,0.02-0.27,0.04-0.41,0.05c-0.26,0.07-0.48,0.2-0.68,0.39c-0.08,0.1-0.16,0.21-0.24,0.31
							C589.19,398.57,589.12,398.82,589.12,399.1L589.12,399.1z"/>
					</g>
				</g>
				<g>
					<g>
						<path class="st6" d="M585.65,413.99c1.77,0,1.77-2.75,0-2.75C583.88,411.24,583.87,413.99,585.65,413.99L585.65,413.99z"/>
					</g>
				</g>
				<g>
					<g>
						<path class="st6" d="M575.73,400.95c-0.06-0.02-0.12-0.03-0.17-0.05c-0.06-0.01-0.12-0.03-0.17-0.05
							c0.19,0.08,0.37,0.16,0.56,0.23c-0.03-0.02-0.06-0.04-0.09-0.07c-0.38-0.22-0.78-0.33-1.21-0.33c-0.43,0-0.84,0.11-1.21,0.33
							c-0.36,0.21-0.65,0.5-0.86,0.86c-0.22,0.38-0.33,0.78-0.33,1.21c0,0.43,0.11,0.84,0.33,1.21c0.21,0.36,0.5,0.65,0.86,0.86
							c0.38,0.22,0.78,0.33,1.21,0.33c0.43,0,0.84-0.11,1.21-0.33c0.03-0.02,0.06-0.04,0.09-0.07c-0.19,0.08-0.37,0.16-0.56,0.23
							c0.06-0.02,0.12-0.03,0.17-0.05c0.06-0.02,0.12-0.03,0.17-0.05c0.18-0.08,0.36-0.15,0.53-0.23c0.26-0.14,0.47-0.33,0.63-0.58
							c0.14-0.14,0.23-0.3,0.29-0.49c0.14-0.27,0.2-0.55,0.19-0.86c-0.03-0.2-0.05-0.4-0.08-0.59c-0.08-0.18-0.15-0.36-0.23-0.53
							c-0.14-0.26-0.33-0.47-0.58-0.63C576.27,401.15,576.02,401.02,575.73,400.95L575.73,400.95z"/>
					</g>
				</g>
				<g>
					<g>
						<path class="st6" d="M535.08,400.15c3.28,0,3.28-5.09,0-5.09C531.81,395.05,531.8,400.15,535.08,400.15L535.08,400.15z"/>
					</g>
				</g>
				<g>
					<g>
						<path class="st6" d="M533.11,384.22c-0.14,0.18-0.28,0.37-0.42,0.55c-0.05,0.13-0.11,0.26-0.16,0.38
							c-0.07,0.21-0.08,0.43-0.03,0.64c0,0.15,0.04,0.28,0.11,0.41c0.06,0.2,0.18,0.37,0.33,0.52c0.11,0.08,0.22,0.17,0.33,0.25
							c0.13,0.05,0.26,0.11,0.38,0.16c0.21,0.07,0.43,0.08,0.64,0.03c0.21-0.01,0.41-0.07,0.6-0.19c0.18-0.14,0.37-0.28,0.55-0.42
							c0.26-0.15,0.46-0.36,0.61-0.61c0.15-0.27,0.23-0.55,0.23-0.86c-0.02-0.15-0.04-0.3-0.06-0.45c-0.08-0.29-0.23-0.54-0.44-0.75
							c-0.15-0.17-0.34-0.28-0.55-0.35c-0.2-0.11-0.42-0.16-0.66-0.15c-0.31,0-0.59,0.08-0.86,0.23
							C533.47,383.76,533.26,383.97,533.11,384.22L533.11,384.22z"/>
					</g>
				</g>
				<g>
					<g>
						<path class="st6" d="M506.55,371.9c-0.17,0.01-0.33,0.02-0.5,0.03c-0.16-0.01-0.3,0.03-0.44,0.1
							c-0.14,0.05-0.26,0.12-0.37,0.24c-0.11,0.1-0.19,0.23-0.24,0.37c-0.07,0.14-0.1,0.28-0.1,0.44c0.01,0.1,0.03,0.2,0.04,0.3
							c0.05,0.19,0.15,0.36,0.29,0.5c0.08,0.06,0.15,0.12,0.23,0.18c0.18,0.1,0.37,0.16,0.58,0.16c0.17,0.01,0.33,0.02,0.5,0.03
							c0.16,0.01,0.31-0.03,0.45-0.1c0.15-0.05,0.27-0.13,0.38-0.24c0.11-0.11,0.2-0.23,0.24-0.38c0.07-0.14,0.11-0.29,0.1-0.45
							c-0.01-0.1-0.03-0.21-0.04-0.31c-0.06-0.2-0.16-0.37-0.3-0.52c-0.08-0.06-0.16-0.12-0.24-0.18
							C506.96,371.95,506.76,371.9,506.55,371.9L506.55,371.9z"/>
					</g>
				</g>
				<g>
					<g>
						<path class="st6" d="M510.67,358.67c-0.06,0.15-0.11,0.3-0.17,0.45c-0.08,0.29-0.08,0.57,0,0.86
							c0.08,0.27,0.21,0.51,0.41,0.71c0.11,0.08,0.22,0.17,0.33,0.25c0.25,0.15,0.52,0.22,0.81,0.22c0.22,0.01,0.43-0.04,0.62-0.14
							c0.2-0.06,0.37-0.18,0.52-0.33c0.2-0.2,0.34-0.44,0.41-0.71c0.08-0.29,0.08-0.57,0-0.86c-0.06-0.15-0.11-0.3-0.17-0.45
							c-0.05-0.11-0.1-0.23-0.14-0.34c-0.09-0.17-0.21-0.3-0.37-0.4c-0.09-0.09-0.2-0.15-0.32-0.18c-0.17-0.09-0.36-0.13-0.55-0.12
							c-0.13,0.02-0.25,0.03-0.38,0.05c-0.11,0.05-0.23,0.1-0.34,0.14c-0.17,0.09-0.3,0.21-0.4,0.37
							C510.8,358.32,510.71,358.48,510.67,358.67L510.67,358.67z"/>
					</g>
				</g>
				<g>
					<g>
						<path class="st6" d="M490.53,357.31c1.63,0,1.63-2.53,0-2.53C488.9,354.78,488.9,357.31,490.53,357.31L490.53,357.31z"/>
					</g>
				</g>
				<g>
					<g>
						<path class="st6" d="M631.7,373.92c3.68,0,3.69-5.72,0-5.72C628.02,368.21,628.02,373.92,631.7,373.92L631.7,373.92z"/>
					</g>
				</g>
				<g>
					<g>
						<path class="st6" d="M629.42,356.54c0.03,0.16,0.05,0.32,0.08,0.48c0.06,0.14,0.12,0.28,0.18,0.42
							c0.11,0.21,0.26,0.37,0.45,0.5c0.11,0.11,0.24,0.19,0.39,0.23c0.21,0.11,0.44,0.16,0.68,0.15c0.16-0.02,0.31-0.04,0.47-0.06
							c0.14-0.06,0.28-0.12,0.42-0.18c0.21-0.11,0.37-0.26,0.5-0.45c0.16-0.17,0.26-0.37,0.32-0.6c0.03-0.16,0.05-0.32,0.08-0.48
							c0.09-0.33,0.09-0.65,0-0.98c-0.09-0.31-0.25-0.58-0.47-0.81c-0.12-0.1-0.25-0.19-0.37-0.29c-0.29-0.17-0.6-0.25-0.93-0.25
							c-0.25-0.01-0.49,0.04-0.71,0.16c-0.23,0.07-0.43,0.2-0.59,0.38c-0.23,0.23-0.39,0.5-0.47,0.81
							C629.34,355.88,629.34,356.21,629.42,356.54L629.42,356.54z"/>
					</g>
				</g>
				<g>
					<g>
						<path class="st6" d="M622.69,387.68c2.05,0,2.05-3.19,0-3.19C620.64,384.49,620.64,387.68,622.69,387.68L622.69,387.68z"/>
					</g>
				</g>
				<g>
					<g>
						<path class="st6" d="M642.4,372.98c0.34,0.15,0.69,0.3,1.03,0.45c0.17,0.11,0.36,0.17,0.56,0.18c0.2,0.05,0.4,0.04,0.6-0.03
							c0.2-0.05,0.37-0.14,0.52-0.27c0.16-0.11,0.3-0.25,0.39-0.43c0.05-0.12,0.1-0.24,0.15-0.36c0.07-0.27,0.07-0.54,0-0.81
							c-0.05-0.12-0.1-0.24-0.15-0.36c-0.13-0.23-0.32-0.41-0.54-0.54c-0.32-0.19-0.65-0.37-0.97-0.56
							c-0.18-0.12-0.38-0.18-0.59-0.19c-0.21-0.05-0.42-0.04-0.63,0.03c-0.21,0.05-0.38,0.14-0.54,0.28
							c-0.17,0.11-0.31,0.26-0.41,0.44c-0.05,0.13-0.11,0.25-0.16,0.38c-0.08,0.28-0.08,0.56,0,0.84c0.05,0.13,0.11,0.25,0.16,0.38
							C641.97,372.65,642.16,372.84,642.4,372.98L642.4,372.98z"/>
					</g>
				</g>
			</g>
			<g>
				<path class="st6" d="M165.75,301.67c3.67-2.5,7.83-6.14,8.86-10.46c5.92,3.14,13.06,3.9,19.5,2.06
					c3.89-1.11,7.78-3.44,9.18-7.23c0.65-1.77,0.7-3.71,0.38-5.57c-1.28-7.32-8.9-12.91-16.24-11.77c0.39-3.11,0.78-6.3,0.01-9.33
					c-1.09-4.28-4.63-7.85-8.91-8.98c-4.28-1.13-9.78,0.65-12.85,3.83c1.45-5.41-2.12-11.45-7.34-13.48
					c-5.22-2.03-11.46-0.36-15.56,3.46c-4.1,3.82-6.1,10.45-6.34,16.05c0.62-4.97-3-10.05-7.85-11.3s-10.35,1.31-12.73,5.72
					c-2.79,5.15-0.59,12.21,2.44,17.22c-5.95-1.81-12.34-3.23-18.32-1.52c-5.98,1.71-11.18,7.56-10.11,13.68
					c2.54,14.4,25.82,13.86,35.82,9.54c0.56-0.24,1.2-0.5,1.76-0.27c0.5,0.2,0.78,0.71,1.03,1.18
					C135.9,307.93,153.65,309.9,165.75,301.67z"/>
				<path class="st8" d="M203.3,286.04c0.31-0.83,0.48-1.7,0.54-2.58c-11.7,2.56-24.58-0.03-34.04-7.44
					c-3.92,8.06-11.99,14.32-20.94,14.8c-8.95,0.49-18.19-5.6-20.15-14.35c-4.28,3.71-9.01,7.05-14.37,8.9
					c-5.36,1.85-11.43,2.11-16.61-0.19c-2.77-1.23-5.22-3.26-6.92-5.77c-0.12-0.18-0.24-0.41-0.36-0.66
					c-0.65,1.67-0.89,3.46-0.57,5.28c2.54,14.4,25.82,13.86,35.82,9.54c0.56-0.24,1.2-0.5,1.76-0.27c0.5,0.2,0.78,0.71,1.03,1.18
					c7.4,13.44,25.15,15.41,37.25,7.18c3.67-2.5,7.83-6.14,8.86-10.46c5.92,3.14,13.06,3.9,19.5,2.06
					C198.01,292.16,201.9,289.84,203.3,286.04z"/>
				<g>
					<path class="st3" d="M139.43,258.62c0.32-1.78,0.3-3.58-0.19-5.33c-0.48-1.75-1.32-3.38-2.43-4.8
						c-2.29-2.94-5.72-4.67-9.43-4.9c-3.68-0.23-7.44,1.33-9.97,3.99c-2.51,2.64-3.98,6.27-4.5,9.84
						c-0.73,5.08,0.31,10.21,1.44,15.15c0.41-0.31,0.82-0.63,1.23-0.94c-2.87-1.62-5.95-2.68-9.25-2.9c-3.24-0.22-6.5,0.33-9.46,1.7
						c-5.11,2.37-8.95,7.56-9.4,13.21c-0.47,5.81,3.08,11.21,7.88,14.2c5.41,3.38,12.33,3.91,18.5,2.92
						c6.39-1.03,12.58-4.09,16.32-9.51c-0.53,0-1.06,0-1.59,0c2.34,3.74,4.89,7.43,8.42,10.14c3.3,2.54,7.33,3.97,11.46,4.34
						c8.34,0.74,16.32-2.99,22.1-8.84c1.44-1.46,2.75-3.05,3.93-4.73c0.42-0.6,0.93-1.74,1.67-1.99c0.4-0.13,0.8,0.18,1.14,0.37
						c0.51,0.3,1.02,0.59,1.54,0.88c4.01,2.23,8.41,4.09,13.08,3.14c2.11-0.43,4.11-1.39,5.91-2.54c1.77-1.13,3.48-2.45,4.94-3.96
						c2.86-2.96,4.68-7.01,3.11-11.08c-1.45-3.76-4.81-6.83-8.33-8.68c-3.29-1.74-7.29-2.65-10.92-1.47
						c-0.86,0.28-1.69,0.69-2.45,1.18c0.44,0.34,0.88,0.68,1.32,1.02c1-4.83,1.32-10.32-1.4-14.68c-2.79-4.46-8.64-6.59-13.6-4.66
						c-2.67,1.04-5,2.97-6.28,5.56c0.62,0.17,1.23,0.33,1.85,0.5c-0.4-3.26-1.18-6.53-2.92-9.36c-1.55-2.53-3.85-4.59-6.64-5.65
						c-5.91-2.23-11.79,1.65-14.62,6.75c-0.88,1.59-1.58,3.27-2.11,5.01c-0.53,1.74-1.06,3.54-1.41,5.33
						c-0.19,1,1.33,1.42,1.53,0.42c0.29-1.48,0.47-2.96,0.89-4.41c0.41-1.44,0.91-2.86,1.56-4.21c1.19-2.45,2.94-4.62,5.28-6.06
						c2.14-1.31,4.72-1.98,7.2-1.37c2.48,0.61,4.65,2.27,6.11,4.34c1.9,2.7,2.77,5.97,3.15,9.21c0.05,0.44,0.27,0.83,0.73,0.96
						c0.4,0.11,0.93-0.07,1.12-0.46c2.05-4.1,6.58-6.34,11.06-5.08c4.46,1.26,6.93,5.36,7.36,9.78c0.25,2.54,0.02,5.12-0.59,7.59
						c-0.18,0.74,0.63,1.43,1.32,1.02c6.23-3.77,14.53,0.88,17.98,6.43c1,1.61,1.68,3.43,1.37,5.36c-0.29,1.79-1.3,3.39-2.49,4.72
						c-1.28,1.44-2.8,2.66-4.39,3.74c-1.67,1.13-3.47,2.11-5.44,2.62c-4.21,1.09-8.35-0.62-12.03-2.58
						c-0.94-0.5-1.87-1.17-2.88-1.52c-1-0.35-1.98-0.04-2.75,0.64c-0.7,0.61-1.16,1.46-1.68,2.21c-0.53,0.77-1.1,1.51-1.7,2.22
						c-4.87,5.84-11.81,10.12-19.56,10.38c-3.83,0.13-7.73-0.65-11.11-2.5c-3.57-1.96-6.26-5.09-8.56-8.39
						c-0.59-0.85-1.16-1.71-1.72-2.58c-0.39-0.6-1.2-0.58-1.59,0c-2.97,4.44-7.89,7.14-12.98,8.4c-5.55,1.38-11.89,1.37-17.18-1
						c-4.77-2.14-8.99-6.6-9.33-12.04c-0.32-5.13,2.75-10.05,7.08-12.64c2.69-1.61,5.86-2.28,8.97-2.22
						c3.25,0.06,6.64,0.84,9.58,2.25c0.66,0.31,1.4-0.2,1.23-0.94c-1.61-7.06-3.41-15.69,1.46-21.94c2.01-2.58,4.99-4.18,8.27-4.33
						c3.19-0.14,6.26,0.74,8.56,3.02c2.47,2.45,3.7,6.06,3.41,9.51C137.6,259.37,139.26,259.61,139.43,258.62L139.43,258.62z"/>
				</g>
				<g>
					<g>
						<path class="st6" d="M195.45,250.69c0.08,0.23,0.16,0.46,0.24,0.68c0.08,0.2,0.17,0.39,0.25,0.59
							c0.16,0.29,0.37,0.52,0.64,0.69c0.15,0.15,0.34,0.26,0.54,0.32c0.29,0.15,0.61,0.23,0.95,0.21c0.22-0.03,0.44-0.06,0.66-0.09
							c0.2-0.08,0.39-0.17,0.59-0.25c0.29-0.16,0.52-0.37,0.69-0.64c0.22-0.24,0.37-0.52,0.44-0.84c0.08-0.23,0.16-0.46,0.24-0.68
							c0.13-0.48,0.13-0.96,0-1.45c-0.13-0.46-0.36-0.86-0.7-1.2c-0.18-0.14-0.37-0.28-0.55-0.43c-0.42-0.25-0.88-0.37-1.37-0.37
							c-0.37-0.01-0.72,0.06-1.05,0.23c-0.34,0.11-0.63,0.3-0.87,0.56c-0.34,0.34-0.57,0.74-0.7,1.2
							C195.32,249.73,195.32,250.21,195.45,250.69L195.45,250.69z"/>
					</g>
				</g>
				<g>
					<g>
						<path class="st6" d="M214.59,265c2.92,0,2.92-4.53,0-4.53C211.67,260.47,211.67,265,214.59,265L214.59,265z"/>
					</g>
				</g>
				<g>
					<g>
						<path class="st6" d="M215.34,283.94c2.17,0,2.18-3.38,0-3.38C213.17,280.57,213.16,283.94,215.34,283.94L215.34,283.94z"/>
					</g>
				</g>
				<g>
					<g>
						<path class="st6" d="M231.86,283.94c2.17,0,2.18-3.38,0-3.38C229.69,280.57,229.68,283.94,231.86,283.94L231.86,283.94z"/>
					</g>
				</g>
				<g>
					<g>
						<path class="st6" d="M204.83,314.79c4.18,0,4.19-6.5,0-6.5C200.64,308.29,200.64,314.79,204.83,314.79L204.83,314.79z"/>
					</g>
				</g>
				<g>
					<g>
						<path class="st6" d="M176.29,307.39c2.39,0,2.4-3.72,0-3.72C173.9,303.68,173.89,307.39,176.29,307.39L176.29,307.39z"/>
					</g>
				</g>
				<g>
					<g>
						<path class="st6" d="M175.08,328.53c-0.25-0.25-0.5-0.5-0.75-0.75c-0.13-0.14-0.29-0.24-0.47-0.3
							c-0.18-0.09-0.36-0.13-0.57-0.13c-0.2-0.01-0.39,0.03-0.57,0.13c-0.18,0.06-0.34,0.16-0.47,0.3c-0.08,0.1-0.15,0.2-0.23,0.3
							c-0.13,0.23-0.2,0.48-0.2,0.74c0.02,0.13,0.03,0.26,0.05,0.39c0.07,0.25,0.2,0.46,0.38,0.65c0.25,0.25,0.5,0.5,0.75,0.75
							c0.13,0.14,0.29,0.24,0.47,0.3c0.18,0.09,0.36,0.13,0.57,0.13c0.2,0.01,0.39-0.03,0.57-0.13c0.18-0.06,0.34-0.16,0.47-0.3
							c0.08-0.1,0.15-0.2,0.23-0.3c0.13-0.23,0.2-0.48,0.2-0.74c-0.02-0.13-0.03-0.26-0.05-0.39
							C175.38,328.92,175.26,328.71,175.08,328.53L175.08,328.53z"/>
					</g>
				</g>
				<g>
					<g>
						<path class="st6" d="M158.27,318.94c1.79,0,1.79-2.78,0-2.78C156.48,316.16,156.48,318.94,158.27,318.94L158.27,318.94z"/>
					</g>
				</g>
				<g>
					<g>
						<path class="st6" d="M138.74,335.43c3.68,0,3.69-5.72,0-5.72C135.06,329.71,135.06,335.43,138.74,335.43L138.74,335.43z"/>
					</g>
				</g>
				<g>
					<g>
						<path class="st6" d="M124.56,312.14c0.06,0.24,0.11,0.47,0.17,0.71c0.07,0.17,0.14,0.33,0.21,0.5
							c0.13,0.24,0.31,0.44,0.54,0.58c0.13,0.13,0.28,0.22,0.46,0.27c0.25,0.13,0.51,0.19,0.8,0.18c0.18-0.02,0.37-0.05,0.55-0.07
							c0.17-0.07,0.33-0.14,0.5-0.21c0.24-0.13,0.44-0.31,0.58-0.54c0.18-0.2,0.31-0.44,0.37-0.71c0.06-0.24,0.11-0.47,0.17-0.71
							c0.11-0.4,0.11-0.8,0-1.2c-0.11-0.38-0.3-0.71-0.58-0.99c-0.15-0.12-0.3-0.23-0.46-0.35c-0.35-0.2-0.73-0.31-1.14-0.31
							c-0.31-0.01-0.6,0.05-0.87,0.19c-0.28,0.09-0.52,0.25-0.72,0.47c-0.28,0.28-0.47,0.61-0.58,0.99
							C124.45,311.34,124.45,311.74,124.56,312.14L124.56,312.14z"/>
					</g>
				</g>
				<g>
					<g>
						<path class="st6" d="M114.02,322.81c-0.01-0.25-0.02-0.5-0.03-0.75c0.01-0.21-0.04-0.41-0.13-0.59
							c-0.06-0.19-0.17-0.35-0.32-0.49c-0.14-0.15-0.3-0.25-0.49-0.32c-0.18-0.1-0.38-0.14-0.59-0.13
							c-0.14,0.02-0.27,0.04-0.41,0.05c-0.26,0.07-0.48,0.2-0.68,0.39c-0.08,0.1-0.16,0.21-0.24,0.31c-0.14,0.24-0.21,0.5-0.21,0.77
							c-0.01,0.25-0.02,0.5-0.03,0.75c-0.01,0.22,0.04,0.42,0.13,0.6c0.06,0.19,0.17,0.36,0.32,0.5c0.14,0.15,0.31,0.26,0.5,0.32
							c0.19,0.1,0.39,0.14,0.6,0.13c0.14-0.02,0.28-0.04,0.42-0.06c0.26-0.07,0.49-0.21,0.69-0.4c0.08-0.11,0.16-0.21,0.24-0.32
							C113.95,323.35,114.02,323.09,114.02,322.81L114.02,322.81z"/>
					</g>
				</g>
				<g>
					<g>
						<path class="st6" d="M108.62,310.79c0.02,0.25,0.04,0.5,0.06,0.75c-0.01,0.21,0.04,0.41,0.13,0.59
							c0.06,0.19,0.17,0.35,0.32,0.49c0.14,0.15,0.3,0.25,0.49,0.32c0.18,0.1,0.38,0.14,0.59,0.13c0.14-0.02,0.27-0.04,0.41-0.05
							c0.26-0.07,0.48-0.2,0.68-0.39c0.08-0.1,0.16-0.21,0.24-0.31c0.14-0.24,0.21-0.5,0.21-0.77c0.02-0.25,0.04-0.5,0.06-0.75
							c0.01-0.22-0.04-0.42-0.14-0.61c-0.06-0.2-0.17-0.37-0.33-0.51c-0.14-0.16-0.32-0.27-0.51-0.33c-0.19-0.1-0.39-0.15-0.61-0.14
							c-0.14,0.02-0.28,0.04-0.42,0.06c-0.27,0.08-0.5,0.21-0.7,0.41c-0.08,0.11-0.17,0.22-0.25,0.32
							C108.69,310.24,108.62,310.5,108.62,310.79L108.62,310.79z"/>
					</g>
				</g>
				<g>
					<g>
						<path class="st6" d="M86.93,309.02c2.55,0,2.56-3.97,0-3.97C84.38,305.05,84.37,309.02,86.93,309.02L86.93,309.02z"/>
					</g>
				</g>
				<g>
					<g>
						<path class="st6" d="M70.41,285.76c2.57,0,2.58-4,0-4C67.84,281.76,67.83,285.76,70.41,285.76L70.41,285.76z"/>
					</g>
				</g>
				<g>
					<g>
						<path class="st6" d="M77.17,267.52c4.22,0,4.23-6.56,0-6.56C72.95,260.95,72.94,267.52,77.17,267.52L77.17,267.52z"/>
					</g>
				</g>
				<g>
					<g>
						<path class="st6" d="M101.2,258.48c1.29,0,1.29-2,0-2C99.91,256.48,99.91,258.48,101.2,258.48L101.2,258.48z"/>
					</g>
				</g>
				<g>
					<g>
						<path class="st6" d="M88.93,245.46c-0.02-0.25-0.03-0.5-0.05-0.75c0.01-0.17-0.03-0.32-0.1-0.46
							c-0.05-0.15-0.13-0.28-0.25-0.39c-0.11-0.12-0.24-0.2-0.39-0.25c-0.14-0.08-0.3-0.11-0.46-0.1c-0.11,0.01-0.21,0.03-0.32,0.04
							c-0.2,0.06-0.38,0.16-0.53,0.31c-0.06,0.08-0.13,0.16-0.19,0.24c-0.11,0.19-0.16,0.39-0.16,0.61
							c-0.02,0.25-0.03,0.5-0.05,0.75c-0.01,0.17,0.03,0.33,0.11,0.48c0.05,0.15,0.14,0.29,0.26,0.4c0.11,0.12,0.25,0.21,0.4,0.26
							c0.15,0.08,0.31,0.11,0.48,0.11c0.11-0.01,0.22-0.03,0.33-0.04c0.21-0.06,0.4-0.17,0.55-0.32c0.07-0.08,0.13-0.17,0.2-0.25
							C88.87,245.9,88.93,245.69,88.93,245.46L88.93,245.46z"/>
					</g>
				</g>
				<g>
					<g>
						<path class="st6" d="M89.93,256.91c2.17,0,2.18-3.38,0-3.38C87.76,253.54,87.76,256.91,89.93,256.91L89.93,256.91z"/>
					</g>
				</g>
				<g>
					<g>
						<path class="st6" d="M104.2,246.32c2.07,0,2.07-3.22,0-3.22C102.13,243.1,102.13,246.32,104.2,246.32L104.2,246.32z"/>
					</g>
				</g>
				<g>
					<g>
						<path class="st6" d="M101.95,227.56c0.25-0.01,0.5-0.01,0.75-0.02c0.22,0.01,0.43-0.04,0.62-0.14
							c0.2-0.06,0.37-0.18,0.52-0.33c0.16-0.15,0.27-0.32,0.33-0.52c0.1-0.19,0.15-0.4,0.14-0.62c-0.02-0.14-0.04-0.29-0.06-0.43
							c-0.08-0.27-0.21-0.51-0.41-0.71c-0.11-0.08-0.22-0.17-0.33-0.25c-0.25-0.15-0.52-0.22-0.81-0.22
							c-0.25-0.01-0.5-0.01-0.75-0.02c-0.22-0.01-0.43,0.04-0.63,0.14c-0.2,0.07-0.38,0.18-0.52,0.34
							c-0.16,0.15-0.27,0.32-0.34,0.52c-0.1,0.19-0.15,0.4-0.14,0.63c0.02,0.14,0.04,0.29,0.06,0.43c0.08,0.28,0.22,0.51,0.42,0.72
							c0.11,0.08,0.22,0.17,0.33,0.25C101.38,227.49,101.66,227.56,101.95,227.56L101.95,227.56z"/>
					</g>
				</g>
				<g>
					<g>
						<path class="st6" d="M135.74,238.89c2.06,0,4.03-1.81,3.94-3.94c-0.1-2.13-1.73-3.94-3.94-3.94c-2.06,0-4.03,1.81-3.94,3.94
							C131.9,237.08,133.53,238.89,135.74,238.89L135.74,238.89z"/>
					</g>
				</g>
				<g>
					<g>
						<path class="st6" d="M156.53,219.18c0.02,0.25,0.04,0.5,0.06,0.75c-0.01,0.23,0.04,0.44,0.14,0.64
							c0.07,0.21,0.18,0.39,0.35,0.54c0.15,0.16,0.33,0.28,0.54,0.35c0.2,0.1,0.41,0.15,0.64,0.14c0.15-0.02,0.3-0.04,0.44-0.06
							c0.28-0.08,0.53-0.22,0.74-0.43c0.09-0.11,0.17-0.23,0.26-0.34c0.15-0.26,0.23-0.54,0.23-0.84c0.02-0.25,0.04-0.5,0.06-0.75
							c0.01-0.24-0.04-0.46-0.15-0.67c-0.07-0.22-0.19-0.4-0.36-0.56c-0.16-0.17-0.34-0.29-0.56-0.36
							c-0.21-0.11-0.43-0.16-0.67-0.15c-0.15,0.02-0.31,0.04-0.46,0.06c-0.29,0.08-0.55,0.23-0.77,0.45
							c-0.09,0.12-0.18,0.23-0.27,0.35C156.61,218.57,156.53,218.87,156.53,219.18L156.53,219.18z"/>
					</g>
				</g>
				<g>
					<g>
						<path class="st6" d="M167.35,238.77c0.27-0.24,0.53-0.47,0.8-0.71c0.12-0.11,0.2-0.24,0.25-0.39c0.08-0.15,0.11-0.3,0.1-0.47
							c0.01-0.17-0.03-0.32-0.1-0.47c-0.05-0.15-0.13-0.28-0.25-0.39c-0.08-0.06-0.16-0.13-0.25-0.19c-0.19-0.11-0.4-0.17-0.62-0.17
							c-0.11,0.01-0.22,0.03-0.32,0.04c-0.21,0.06-0.39,0.16-0.54,0.31c-0.24,0.27-0.47,0.53-0.71,0.8
							c-0.11,0.1-0.19,0.23-0.24,0.37c-0.07,0.14-0.11,0.29-0.1,0.45c-0.01,0.16,0.03,0.31,0.1,0.45c0.05,0.14,0.13,0.27,0.24,0.37
							c0.08,0.06,0.16,0.12,0.23,0.18c0.18,0.1,0.37,0.16,0.58,0.16c0.1-0.01,0.2-0.03,0.31-0.04
							C167.03,239.01,167.2,238.91,167.35,238.77L167.35,238.77z"/>
					</g>
				</g>
				<g>
					<g>
						<path class="st6" d="M184.55,230.38c0.88,0,0.89-1.38,0-1.38C183.67,229,183.66,230.38,184.55,230.38L184.55,230.38z"/>
					</g>
				</g>
			</g>
			<g>
				<path class="st6" d="M337.04,492.27c-3.99-5.87-12.89-7.68-18.86-3.83c-5.97,3.85-7.99,12.71-4.28,18.77
					c-5.95-2.23-12.66,4.13-12.09,10.46c0.57,6.33,6.55,11.2,12.82,12.22c6.28,1.02,12.66-1.06,18.35-3.89
					c3.8,5.65,10.43,9.29,17.23,9.49c6.81,0.19,13.63-3.08,17.74-8.5c5.92,3.73,13.55,5.52,20,2.8c6.45-2.72,10.66-10.89,7.53-17.15
					c-2-4.02-6.45-6.41-10.91-6.94c-4.9-0.58-9.27,1.09-13.95,1.97c-0.51-2.42,1.39-4.87,2.06-7.38c1.15-4.32,1.16-8.86-0.41-13.08
					c-2.07-5.56-6.79-10.12-12.49-11.76c-5.37-1.54-11.28-0.44-15.79,2.82C341.22,480.26,334.31,488.24,337.04,492.27z"/>
				<path class="st8" d="M396.16,514.43c-2.87,2.35-6.31,3.99-9.97,4.63c-6.62,1.16-13.74-0.97-18.63-5.6
					c-4.07,6.14-9.36,12.97-16.72,12.94c-7.1-0.03-12.38-6.56-15.44-12.96c-4.6,6.24-12.81,9.61-20.46,8.38
					c-6.25-1-8.6-4.69-12.61-8.03c-0.44,1.24-0.64,2.56-0.52,3.88c0.57,6.33,6.55,11.2,12.82,12.22c6.28,1.02,12.66-1.06,18.35-3.89
					c3.8,5.65,10.43,9.3,17.23,9.49c6.81,0.19,13.63-3.08,17.74-8.5c5.92,3.73,13.55,5.52,20,2.8
					C393.81,527.31,397.79,520.37,396.16,514.43z"/>
				<g>
					<path class="st3" d="M338.29,491.89c-2.43-6-9.37-8.94-15.54-7.79c-3.14,0.59-5.91,2.34-7.82,4.89
						c-1.91,2.55-2.86,5.77-2.89,8.94c-0.03,3.6,1.2,7.27,3.59,10c0.33-0.43,0.67-0.87,1-1.3c-4.03-1.81-8.73-0.94-12.16,1.74
						c-3.6,2.82-5.09,7.41-4.5,11.87c0.61,4.63,3.35,8.73,7.35,11.12c4.13,2.47,9.26,3.13,13.92,2.02
						c5.41-1.29,10.05-4.72,13.41-9.09c-0.5,0-1,0-1.51,0c2.98,4.98,8.04,8.67,13.69,10c5.7,1.35,11.83-0.01,16.6-3.35
						c2.68-1.88,4.91-4.31,6.49-7.18c-0.45,0-0.9,0-1.36,0c2.55,3.55,7,5.29,11.3,4.96c4.6-0.35,9.12-2.65,12.51-5.74
						c1.62-1.48,2.99-3.29,3.67-5.4c0.63-1.95,0.58-4.12-0.15-6.03c-1.46-3.84-4.97-6.77-8.85-7.95c-5.65-1.72-11.79-0.25-17.35,1.1
						c0.36,0.36,0.72,0.72,1.08,1.08c3.25-8.09,2.69-18.38-4.15-24.49c-3.05-2.72-6.92-4.44-10.98-4.85
						c-3.99-0.41-8.04,0.67-11.4,2.85c-3.72,2.41-6.63,6.02-7.95,10.28c-0.26,0.84,1.05,1.19,1.31,0.36
						c2.19-7.1,9.19-12.21,16.64-11.95c3.68,0.13,7.34,1.51,10.21,3.82c3.09,2.49,5.16,5.87,6.01,9.74
						c1.02,4.59,0.33,9.45-1.39,13.78c-0.26,0.66,0.49,1.23,1.08,1.08c4.6-1.14,9.42-2.37,14.18-1.58c3.7,0.61,7.21,2.61,9.13,5.92
						c4.53,7.78-5.1,14.76-11.86,16.13c-4.18,0.85-9.11-0.26-11.68-3.89c-0.33-0.46-1.05-0.55-1.36,0
						c-2.59,4.7-7.22,8.15-12.39,9.48c-5.21,1.34-10.8,0.3-15.31-2.57c-2.54-1.61-4.71-3.87-6.22-6.48
						c-0.26-0.44-1.01-0.62-1.37-0.18c-2.75,3.45-6.36,6.36-10.55,7.84c-4.11,1.45-8.67,1.48-12.72-0.21
						c-3.93-1.63-6.95-4.85-8.09-8.97c-1.07-3.87-0.38-8.15,2.49-11.08c2.94-3.01,7.61-4.35,11.57-2.68
						c0.82,0.34,1.31-0.83,0.8-1.38c-3.89-4.24-4.11-11.12-1.06-15.9c1.5-2.35,3.79-4.03,6.49-4.71c2.62-0.67,5.42-0.42,7.94,0.53
						c2.8,1.05,5.24,3.14,6.55,5.87C337.14,493.41,338.66,492.8,338.29,491.89L338.29,491.89z"/>
				</g>
				<g>
					<g>
						<path class="st6" d="M340.06,462.44c2.45,0,2.46-3.81,0-3.81C337.61,458.62,337.6,462.44,340.06,462.44L340.06,462.44z"/>
					</g>
				</g>
				<g>
					<g>
						<path class="st6" d="M365.59,463.73c2.19,0,2.2-3.41,0-3.41C363.4,460.33,363.4,463.73,365.59,463.73L365.59,463.73z"/>
					</g>
				</g>
				<g>
					<g>
						<path class="st6" d="M346.82,447.78c1.95,0,1.95-3.03,0-3.03C344.87,444.75,344.86,447.78,346.82,447.78L346.82,447.78z"/>
					</g>
				</g>
				<g>
					<g>
						<path class="st6" d="M333.3,478.25c2.51,0,2.52-3.91,0-3.91C330.79,474.35,330.78,478.25,333.3,478.25L333.3,478.25z"/>
					</g>
				</g>
				<g>
					<g>
						<path class="st6" d="M308.48,467.17c0.04,0.24,0.07,0.48,0.11,0.72c0.08,0.18,0.15,0.36,0.23,0.54
							c0.14,0.26,0.34,0.48,0.58,0.64c0.14,0.14,0.31,0.24,0.5,0.29c0.27,0.14,0.56,0.21,0.87,0.2c0.2-0.03,0.4-0.05,0.6-0.08
							c0.18-0.08,0.36-0.15,0.54-0.23c0.26-0.14,0.48-0.34,0.64-0.58c0.2-0.22,0.34-0.48,0.41-0.77c0.04-0.24,0.07-0.48,0.11-0.72
							c0.11-0.42,0.11-0.84,0-1.26c-0.11-0.4-0.32-0.75-0.61-1.05c-0.16-0.12-0.32-0.25-0.48-0.37c-0.37-0.21-0.77-0.32-1.2-0.32
							c-0.33-0.01-0.63,0.06-0.92,0.2c-0.29,0.1-0.55,0.26-0.76,0.49c-0.29,0.3-0.5,0.65-0.61,1.05
							C308.37,466.33,308.37,466.75,308.48,467.17L308.48,467.17z"/>
					</g>
				</g>
				<g>
					<g>
						<path class="st6" d="M307.02,475.05c-0.5,0.02-1,0.04-1.5,0.06c-0.27-0.01-0.52,0.05-0.75,0.17c-0.24,0.08-0.45,0.21-0.62,0.4
							c-0.19,0.18-0.32,0.38-0.4,0.62c-0.12,0.23-0.18,0.48-0.17,0.75c0.02,0.17,0.05,0.34,0.07,0.52c0.09,0.33,0.26,0.61,0.5,0.85
							c0.13,0.1,0.26,0.2,0.39,0.3c0.3,0.18,0.63,0.26,0.98,0.26c0.5,0.02,1,0.04,1.5,0.06c0.28,0.01,0.53-0.05,0.77-0.17
							c0.25-0.08,0.46-0.22,0.64-0.41c0.2-0.18,0.33-0.4,0.41-0.64c0.13-0.24,0.18-0.5,0.17-0.77c-0.02-0.18-0.05-0.35-0.07-0.53
							c-0.1-0.34-0.27-0.63-0.51-0.88c-0.13-0.1-0.27-0.21-0.4-0.31C307.72,475.14,307.38,475.05,307.02,475.05L307.02,475.05z"/>
					</g>
				</g>
				<g>
					<g>
						<path class="st6" d="M292.75,484.9c3.34,0,3.34-5.19,0-5.19C289.41,479.71,289.41,484.9,292.75,484.9L292.75,484.9z"/>
					</g>
				</g>
				<g>
					<g>
						<path class="st6" d="M305.41,495.32c-0.07-0.1-0.15-0.2-0.22-0.31c0.12,0.43,0.23,0.86,0.35,1.29c0,0,0-0.01,0-0.01
							c-0.03,0.23-0.06,0.45-0.09,0.68c0,0,0,0,0-0.01c-0.09,0.2-0.17,0.41-0.26,0.61c0.01-0.01,0.02-0.02,0.02-0.03
							c0.09-0.22,0.18-0.44,0.28-0.65c0.11-0.36,0.13-0.73,0.05-1.09c0-0.25-0.06-0.48-0.19-0.69c-0.11-0.34-0.3-0.63-0.57-0.88
							c-0.12-0.1-0.25-0.2-0.37-0.31c-0.24-0.26-0.53-0.45-0.86-0.56c-0.32-0.17-0.67-0.25-1.04-0.23
							c-0.37-0.01-0.72,0.06-1.04,0.23c-0.33,0.11-0.62,0.29-0.86,0.56c-0.14,0.18-0.28,0.36-0.42,0.54
							c-0.24,0.42-0.37,0.87-0.37,1.36c0.03,0.24,0.06,0.48,0.1,0.71c0.13,0.46,0.36,0.85,0.69,1.19c0.1,0.12,0.2,0.25,0.31,0.37
							c0.18,0.14,0.37,0.29,0.55,0.43c0.31,0.2,0.65,0.31,1.02,0.32c0.24,0.07,0.48,0.07,0.73,0c0.36-0.02,0.7-0.12,1.02-0.32
							c0.01-0.01,0.02-0.02,0.03-0.02c-0.2,0.09-0.41,0.17-0.61,0.26c0,0,0,0,0.01,0c-0.23,0.03-0.45,0.06-0.68,0.09
							c0,0,0.01,0,0.01,0c-0.43-0.12-0.86-0.23-1.29-0.35c0.1,0.07,0.2,0.15,0.31,0.22c0.2,0.08,0.4,0.17,0.59,0.25
							c0.33,0.1,0.66,0.12,0.99,0.04c0.22,0,0.43-0.06,0.63-0.17c0.31-0.1,0.57-0.27,0.8-0.51c0.13-0.17,0.26-0.34,0.39-0.5
							c0.08-0.2,0.17-0.4,0.25-0.59c0.1-0.33,0.12-0.66,0.04-0.99C305.69,495.91,305.59,495.6,305.41,495.32L305.41,495.32z"/>
					</g>
				</g>
				<g>
					<g>
						<path class="st6" d="M280.29,520.29c0.25,0.25,0.49,0.51,0.74,0.76c0.25,0.27,0.55,0.46,0.89,0.57
							c0.33,0.17,0.68,0.25,1.07,0.24c0.38,0.01,0.74-0.07,1.07-0.24c0.34-0.11,0.64-0.3,0.89-0.57c0.14-0.19,0.29-0.37,0.43-0.56
							c0.25-0.43,0.38-0.9,0.38-1.4c-0.03-0.25-0.07-0.49-0.1-0.74c-0.13-0.47-0.37-0.88-0.71-1.22c-0.25-0.25-0.51-0.49-0.76-0.74
							c-0.25-0.27-0.54-0.46-0.89-0.57c-0.33-0.17-0.68-0.25-1.06-0.24c-0.38-0.01-0.73,0.06-1.06,0.24
							c-0.34,0.11-0.64,0.3-0.89,0.57c-0.14,0.19-0.29,0.37-0.43,0.56c-0.25,0.43-0.37,0.89-0.38,1.39c0.03,0.24,0.07,0.49,0.1,0.73
							C279.72,519.55,279.95,519.95,280.29,520.29L280.29,520.29z"/>
					</g>
				</g>
				<g>
					<g>
						<path class="st6" d="M295.87,540.9c-0.01,0.34,0.08,0.55,0.22,0.85c0.07,0.14,0.17,0.27,0.28,0.37
							c0.27,0.24,0.38,0.3,0.73,0.42c0.01,0.01,0.03,0.01,0.05,0.01c0.14,0.03,0.29,0.05,0.44,0.06c0.02,0,0.03,0,0.05,0
							c0.15-0.01,0.3-0.03,0.43-0.06c0.04-0.01,0.07-0.01,0.1-0.03c0.12-0.04,0.25-0.1,0.36-0.15c0.01,0,0.01-0.01,0.02-0.01
							c0.02-0.01,0.03-0.02,0.05-0.03c0.11-0.08,0.22-0.15,0.32-0.25c0.01-0.01,0.01-0.01,0.01-0.02c0,0,0.01-0.01,0.01-0.01
							c0.07-0.09,0.15-0.19,0.22-0.28c0,0,0,0,0-0.01c0.07-0.1,0.16-0.37,0.16-0.37c0-0.01,0.01-0.02,0.01-0.02c0,0,0-0.01,0-0.01
							c0,0,0-0.01,0-0.01c0.02-0.12,0.03-0.25,0.05-0.37c0-0.02,0-0.03,0-0.05c0-0.04-0.02-0.3-0.07-0.42
							c-0.04-0.18-0.12-0.33-0.25-0.47c-0.1-0.15-0.23-0.27-0.39-0.35c-0.11-0.05-0.22-0.09-0.33-0.14
							c-0.18-0.06-0.37-0.07-0.55-0.02c-0.12,0-0.24,0.03-0.35,0.09c-0.17,0.06-0.32,0.15-0.44,0.28c-0.07,0.09-0.14,0.19-0.21,0.28
							c-0.12,0.21-0.19,0.45-0.19,0.69c0,0.02,0,0.04,0,0.05c0.02-0.12,0.03-0.25,0.05-0.37c0,0.02-0.01,0.03-0.01,0.05
							c0.05-0.11,0.09-0.22,0.14-0.33c-0.01,0.02-0.01,0.03-0.03,0.04c0.07-0.09,0.15-0.19,0.22-0.28
							c-0.01,0.01-0.02,0.02-0.04,0.03c0.09-0.07,0.19-0.15,0.28-0.22c-0.02,0.01-0.04,0.02-0.06,0.03c0.11-0.05,0.23-0.1,0.34-0.14
							c-0.03,0.01-0.06,0.02-0.09,0.02c0.13-0.02,0.25-0.03,0.38-0.05c-0.04,0.01-0.08,0-0.13,0c0.13,0.02,0.26,0.03,0.38,0.05
							c-0.04-0.01-0.08-0.02-0.12-0.03c0.12,0.05,0.23,0.1,0.35,0.15c-0.03-0.01-0.05-0.03-0.07-0.04c0.1,0.08,0.2,0.15,0.3,0.23
							c-0.02-0.01-0.03-0.03-0.04-0.04c0.08,0.1,0.15,0.2,0.23,0.3c-0.01-0.01-0.02-0.03-0.02-0.04c0.05,0.12,0.1,0.24,0.15,0.36
							c-0.01-0.01-0.01-0.03-0.01-0.04c0.02,0.13,0.04,0.27,0.05,0.4c0-0.02,0-0.04,0-0.05c-0.02,0.13-0.04,0.27-0.05,0.4
							c0-0.01,0.01-0.03,0.01-0.04c0.07-0.27,0.07-0.54,0-0.81c-0.05-0.12-0.1-0.24-0.15-0.36c-0.13-0.23-0.32-0.41-0.54-0.54
							c-0.17-0.11-0.36-0.17-0.56-0.18c-0.2-0.05-0.4-0.04-0.6,0.03c-0.2,0.05-0.37,0.14-0.52,0.27c-0.17,0.11-0.3,0.25-0.39,0.43
							C295.94,540.37,295.87,540.63,295.87,540.9L295.87,540.9z"/>
					</g>
				</g>
				<g>
					<g>
						<path class="st6" d="M307.28,540.1c0.11,0.14,0.21,0.28,0.32,0.42c0.08,0.1,0.16,0.2,0.24,0.31c0,0,0.01,0.01,0.01,0.01
							c0.01,0.01,0.02,0.01,0.02,0.02c0.02,0.01,0.04,0.03,0.05,0.04c0.04,0.03,0.07,0.06,0.11,0.08c0.07,0.06,0.15,0.11,0.22,0.17
							c0.13,0.14,0.29,0.24,0.47,0.3c0.17,0.09,0.36,0.13,0.56,0.13c0.2,0.01,0.39-0.03,0.56-0.13c0.18-0.06,0.34-0.16,0.47-0.3
							c0.08-0.1,0.15-0.2,0.23-0.29c0.13-0.23,0.2-0.47,0.2-0.73c-0.02-0.13-0.03-0.26-0.05-0.39c-0.07-0.25-0.19-0.46-0.37-0.64
							c-0.06-0.07-0.11-0.14-0.17-0.21c-0.03-0.04-0.06-0.07-0.08-0.11c-0.01-0.02-0.03-0.04-0.04-0.05
							c-0.09-0.12-0.22-0.18-0.34-0.28c-0.14-0.11-0.28-0.21-0.42-0.31c-0.11-0.05-0.23-0.1-0.34-0.14
							c-0.19-0.06-0.38-0.07-0.57-0.03c-0.13,0-0.25,0.03-0.36,0.1c-0.18,0.06-0.33,0.16-0.46,0.3c-0.07,0.1-0.15,0.19-0.22,0.29
							c-0.05,0.11-0.1,0.23-0.14,0.34c-0.06,0.19-0.07,0.38-0.03,0.57C307.12,539.76,307.17,539.94,307.28,540.1L307.28,540.1z"/>
					</g>
				</g>
				<g>
					<g>
						<path class="st6" d="M318.28,554.88c0.62,0,0.62-0.97,0-0.97C317.66,553.91,317.66,554.88,318.28,554.88L318.28,554.88z"/>
					</g>
				</g>
				<g>
					<g>
						<path class="st6" d="M334.8,542.74c3.36,0,3.36-5.22,0-5.22C331.44,537.52,331.44,542.74,334.8,542.74L334.8,542.74z"/>
					</g>
				</g>
				<g>
					<g>
						<path class="st6" d="M371.48,545.33c-0.02-0.01-0.05-0.01-0.07-0.02c0.56,0.56,1.12,1.12,1.68,1.68
							c-0.04-0.33-0.16-0.63-0.34-0.91c-0.16-0.21-0.32-0.42-0.48-0.62c-0.28-0.3-0.61-0.51-0.99-0.64
							c-0.37-0.19-0.76-0.28-1.19-0.27c-0.42-0.02-0.82,0.07-1.19,0.27c-0.38,0.12-0.71,0.34-0.99,0.64
							c-0.3,0.28-0.51,0.61-0.64,0.99c-0.19,0.37-0.28,0.76-0.27,1.19c0.04,0.27,0.07,0.55,0.11,0.82c0.15,0.52,0.41,0.97,0.79,1.36
							c0.21,0.16,0.42,0.32,0.62,0.48c0.48,0.28,1,0.42,1.55,0.42c0.27-0.04,0.55-0.07,0.82-0.11c0.4-0.1,0.75-0.28,1.05-0.55
							c0.34-0.22,0.6-0.5,0.79-0.86c0.19-0.28,0.3-0.59,0.34-0.91c-0.56,0.56-1.12,1.12-1.68,1.68c0.02-0.01,0.05-0.01,0.07-0.02
							c0.19-0.08,0.38-0.16,0.57-0.24c0.28-0.15,0.5-0.36,0.67-0.62c0.15-0.15,0.25-0.32,0.31-0.53c0.15-0.28,0.22-0.59,0.21-0.92
							c-0.03-0.21-0.06-0.42-0.09-0.64c-0.08-0.19-0.16-0.38-0.24-0.57c-0.15-0.28-0.36-0.5-0.62-0.67
							C372.06,545.55,371.79,545.4,371.48,545.33L371.48,545.33z"/>
					</g>
				</g>
				<g>
					<g>
						<path class="st6" d="M370.77,534.2c0.27,0.23,0.54,0.46,0.82,0.68c0.1,0.11,0.21,0.18,0.35,0.22c0.13,0.07,0.27,0.1,0.42,0.09
							c0.15,0.01,0.29-0.03,0.42-0.09c0.13-0.04,0.25-0.12,0.35-0.22c0.06-0.07,0.11-0.15,0.17-0.22c0.1-0.17,0.15-0.35,0.15-0.54
							c-0.01-0.1-0.03-0.19-0.04-0.29c-0.05-0.18-0.14-0.34-0.28-0.48c-0.23-0.27-0.46-0.54-0.68-0.82
							c-0.11-0.11-0.23-0.2-0.38-0.24c-0.14-0.07-0.29-0.11-0.45-0.1c-0.16-0.01-0.31,0.03-0.45,0.1c-0.15,0.05-0.27,0.13-0.38,0.24
							c-0.06,0.08-0.12,0.16-0.18,0.24c-0.11,0.18-0.16,0.38-0.16,0.59c0.01,0.1,0.03,0.21,0.04,0.31
							C370.52,533.88,370.62,534.05,370.77,534.2L370.77,534.2z"/>
					</g>
				</g>
				<g>
					<g>
						<path class="st6" d="M388.87,548.84c2.51,0,2.52-3.91,0-3.91C386.36,544.93,386.35,548.84,388.87,548.84L388.87,548.84z"/>
					</g>
				</g>
				<g>
					<g>
						<path class="st6" d="M403.89,529.74c3.06,0,3.06-4.75,0-4.75C400.83,524.99,400.83,529.74,403.89,529.74L403.89,529.74z"/>
					</g>
				</g>
				<g>
					<g>
						<path class="st6" d="M400.88,494.48c-0.25,0.01-0.5,0.02-0.75,0.03c-0.39-0.01-0.75,0.07-1.08,0.24
							c-0.35,0.11-0.65,0.31-0.91,0.58c-0.27,0.25-0.47,0.56-0.58,0.91c-0.18,0.34-0.26,0.7-0.24,1.08c0.03,0.25,0.07,0.5,0.1,0.75
							c0.13,0.48,0.37,0.89,0.72,1.24c0.19,0.15,0.38,0.29,0.57,0.44c0.44,0.25,0.91,0.38,1.42,0.38c0.25,0.01,0.5,0.02,0.75,0.03
							c0.39,0.01,0.76-0.07,1.1-0.24c0.35-0.11,0.66-0.31,0.92-0.59c0.28-0.26,0.47-0.56,0.59-0.92c0.18-0.34,0.26-0.7,0.24-1.1
							c-0.03-0.25-0.07-0.5-0.1-0.76c-0.14-0.48-0.38-0.9-0.73-1.25c-0.19-0.15-0.38-0.3-0.58-0.44
							C401.88,494.61,401.4,494.48,400.88,494.48L400.88,494.48z"/>
					</g>
				</g>
				<g>
					<g>
						<path class="st6" d="M380.61,495.57c2.57,0,2.58-4,0-4C378.04,491.57,378.03,495.57,380.61,495.57L380.61,495.57z"/>
					</g>
				</g>
				<g>
					<g>
						<path class="st6" d="M386.62,478.24c-0.25,0.02-0.5,0.03-0.75,0.05c-0.24-0.01-0.47,0.04-0.68,0.15
							c-0.22,0.07-0.41,0.19-0.57,0.37c-0.17,0.16-0.29,0.35-0.37,0.57c-0.11,0.21-0.16,0.44-0.15,0.68
							c0.02,0.16,0.04,0.31,0.06,0.47c0.08,0.3,0.24,0.56,0.45,0.78c0.12,0.09,0.24,0.18,0.36,0.28c0.28,0.16,0.57,0.24,0.89,0.24
							c0.25,0.02,0.5,0.03,0.75,0.05c0.25,0.01,0.48-0.04,0.7-0.16c0.22-0.07,0.42-0.2,0.58-0.37c0.18-0.16,0.3-0.36,0.37-0.58
							c0.11-0.22,0.17-0.45,0.16-0.7c-0.02-0.16-0.04-0.32-0.06-0.48c-0.09-0.31-0.24-0.57-0.47-0.8c-0.12-0.09-0.24-0.19-0.37-0.28
							C387.25,478.32,386.94,478.24,386.62,478.24L386.62,478.24z"/>
					</g>
				</g>
				<g>
					<g>
						<path class="st6" d="M369.35,473.67c2.41,0,2.42-3.75,0-3.75C366.93,469.92,366.93,473.67,369.35,473.67L369.35,473.67z"/>
					</g>
				</g>
			</g>
			<g>
				<g>
					<text transform="matrix(1 2.000100e-05 0 1 82.79 522.8653)" class="st3 st9 st10">2010</text>
					<g>
						<rect x="72.61" y="528.99" class="st11" width="84.57" height="50.54"/>
						<text transform="matrix(1 0 0 1 74.9663 534.9951)"><tspan x="0" y="0" class="st3 st12 st13">SPM Global Technolo</tspan><tspan x="77.23" y="0" class="st3 st12 st13">-</tspan><tspan x="4.92" y="9.6" class="st3 st12 st13">gies founded with a </tspan><tspan x="7.99" y="19.2" class="st3 st12 st13">vision to help IT &amp; </tspan><tspan x="9.88" y="28.8" class="st3 st12 st13">business work in </tspan><tspan x="25.21" y="38.4" class="st3 st12 st13">tandem.</tspan></text>
					</g>
				</g>
				<g>
					<path class="st3" d="M65.77,535.79c-0.27-1.14-0.7-2.26-1.49-3.14c0.39-1.73,0.68-3.49,0.88-5.25
						c0.58-5.26,0.28-10.6-0.73-15.79c-0.12-0.64-0.26-1.28-0.41-1.91c-0.17-0.74-1.25-0.48-1.21,0.22
						c-3.49,2.73-6.29,6.28-8.49,10.11c-1.64,2.86-2.94,5.93-3.86,9.1c-1.09,0.15-2.15,0.75-3.01,1.4
						c-1.02,0.77-1.89,1.69-2.59,2.76c-1.57,2.39-2.16,5.25-2.18,8.07c0,0.51,0.68,0.82,1.04,0.43c1.72-1.87,3.85-3.15,6.21-4.03
						c0.36,0.24,0.79,0.41,1.22,0.56c-0.04,0.44-0.04,0.89-0.06,1.33c-0.02,0.62-0.11,1.27-0.04,1.89c0.15,1.34,1.74,1.44,2.78,1.68
						c0.65,0.15,1.3,0.3,1.95,0.45c0.61,0.14,1.24,0.32,1.8-0.05c0.5-0.32,0.83-0.93,1.18-1.39c0.37-0.49,0.74-0.98,1.11-1.46
						c0.27,0.05,0.54,0.07,0.8,0.04c1.42,1.86,2.28,4.08,2.26,6.45c-0.01,0.52,0.72,0.71,0.98,0.26c1.36-2.36,2.15-4.97,2.25-7.7
						C66.21,538.47,66.08,537.1,65.77,535.79z M62.98,510.82c0.16,0.74,0.3,1.48,0.43,2.23c-0.04-0.01-0.08-0.02-0.12-0.03
						c-0.25-0.08-0.51-0.14-0.76-0.21c-0.38-0.1-0.77-0.21-1.16-0.29c0.38-0.41,0.76-0.82,1.15-1.23
						C62.68,511.13,62.83,510.98,62.98,510.82z M54.81,521.7c1.66-3.11,3.73-5.98,6.06-8.62c0.45,0.23,0.93,0.41,1.39,0.59
						c0.24,0.09,0.47,0.19,0.71,0.28c0.2,0.07,0.41,0.16,0.62,0.21c0.53,3.51,0.73,7.06,0.53,10.61c-0.14,2.46-0.46,4.91-0.99,7.32
						c-0.14,0.62-0.28,1.25-0.44,1.87c-1.93-0.61-3.87-1.24-5.8-1.84c-0.97-0.3-1.94-0.6-2.91-0.88c-0.84-0.24-1.74-0.55-2.62-0.67
						C52.15,527.5,53.31,524.51,54.81,521.7z M60.99,539.1c-0.07,0.16-0.15,0.33-0.3,0.42c-0.04,0.01-0.07,0.03-0.1,0.05
						c-0.22,0.06-0.49-0.02-0.71-0.07c-0.64-0.14-1.27-0.3-1.91-0.47c-1.27-0.32-2.53-0.67-3.78-1.05
						c-0.63-0.19-1.25-0.38-1.87-0.59c-0.51-0.16-1.07-0.29-1.55-0.54c-0.06-0.16-0.18-0.28-0.36-0.33c-0.14-0.29-0.07-0.66-0.03-1
						c0.06-0.53,0.14-1.05,0.23-1.58c0.14-0.85,0.32-1.7,0.52-2.53c0.34,0.16,0.71,0.28,1.05,0.41c0.49,0.18,0.98,0.36,1.47,0.53
						c0.96,0.33,1.92,0.65,2.89,0.97c1.93,0.63,3.87,1.24,5.81,1.85C61.99,536.51,61.54,537.84,60.99,539.1z M43.98,539.83
						c0.19-2.05,0.78-4.08,1.89-5.81c0.6-0.93,1.35-1.77,2.22-2.46c0.64-0.5,1.33-0.86,2.04-1.22c-0.23,0.88-0.43,1.76-0.59,2.65
						c-0.11,0.58-0.2,1.16-0.28,1.74c-0.08,0.58-0.21,1.19-0.13,1.78c0.01,0.1,0.05,0.18,0.07,0.26
						C47.26,537.38,45.48,538.47,43.98,539.83z M57.05,542.44c-0.16,0.18-0.26,0.18-0.49,0.13c-0.27-0.06-0.55-0.12-0.82-0.18
						c-0.53-0.12-1.05-0.24-1.58-0.36c-0.5-0.11-1-0.21-1.49-0.34c-0.12-0.03-0.32-0.07-0.39-0.19c-0.07-0.11-0.02-0.41-0.03-0.53
						c-0.02-0.75,0-1.54-0.06-2.31c1.21,0.39,2.42,0.76,3.64,1.1c0.9,0.25,1.8,0.51,2.71,0.73
						C58.06,541.14,57.59,541.83,57.05,542.44z M64.94,539.88c-0.06,1.82-0.44,3.66-1.12,5.37c-0.29-1.81-0.98-3.55-2.06-5.03
						c0.31-0.38,0.47-0.88,0.64-1.33c0.47-1.23,0.89-2.49,1.25-3.76c0.12-0.41,0.22-0.83,0.33-1.25
						C64.79,535.75,65.01,537.87,64.94,539.88z"/>
					<path class="st3" d="M57.24,527.55c1.37,0.67,3.02,0.39,4.17-0.58c1.23-1.04,1.6-2.9,0.97-4.36c-0.66-1.53-2.66-2.45-4.21-1.77
						c-0.04,0.02-0.06,0.04-0.09,0.07c-0.31,0.08-0.62,0.21-0.87,0.36c-0.72,0.44-1.21,1.14-1.49,1.93
						C55.13,524.83,55.6,526.76,57.24,527.55z M56.58,524.04c0.11-0.68,0.41-1.33,0.92-1.8c0.25-0.23,0.55-0.39,0.88-0.5
						c0.21-0.07,0.42-0.1,0.63-0.12c0.86,0.02,1.65,0.41,2.1,1.19c0.53,0.91,0.42,2.18-0.27,2.98c-0.64,0.73-1.71,1.1-2.65,0.88
						c-0.51-0.12-0.98-0.4-1.29-0.83C56.54,525.33,56.48,524.65,56.58,524.04z"/>
				</g>
			</g>
			<g>
				<g>
					<text transform="matrix(1 2.000100e-05 0 1 167.6216 369.9197)" class="st3 st9 st10">2012</text>
					<g>
						<rect x="157.44" y="376.05" class="st11" width="84.57" height="21.75"/>
						<text transform="matrix(1 0 0 1 160.3486 382.0498)"><tspan x="0" y="0" class="st3 st12 st13">Successful delivery of </tspan><tspan x="6.27" y="9.6" class="st3 st12 st13">First ITSM project.</tspan></text>
					</g>
				</g>
				<g>
					<path class="st3" d="M150.6,382.84c-0.27-1.14-0.7-2.26-1.49-3.14c0.39-1.73,0.68-3.49,0.88-5.25
						c0.58-5.26,0.28-10.6-0.73-15.79c-0.12-0.64-0.26-1.28-0.41-1.91c-0.17-0.74-1.25-0.48-1.21,0.22
						c-3.49,2.73-6.29,6.28-8.49,10.11c-1.64,2.86-2.94,5.93-3.86,9.1c-1.09,0.15-2.15,0.75-3.01,1.4
						c-1.02,0.77-1.88,1.69-2.59,2.76c-1.57,2.39-2.16,5.25-2.18,8.07c0,0.51,0.68,0.82,1.04,0.43c1.72-1.87,3.85-3.15,6.21-4.03
						c0.36,0.24,0.79,0.41,1.22,0.56c-0.04,0.44-0.04,0.89-0.06,1.33c-0.02,0.62-0.11,1.27-0.04,1.89c0.15,1.34,1.74,1.44,2.78,1.68
						c0.65,0.15,1.3,0.3,1.95,0.45c0.61,0.14,1.24,0.32,1.8-0.05c0.5-0.32,0.83-0.93,1.18-1.39c0.37-0.49,0.74-0.98,1.11-1.46
						c0.27,0.05,0.54,0.07,0.8,0.04c1.42,1.86,2.28,4.08,2.26,6.45c-0.01,0.52,0.72,0.71,0.98,0.26c1.36-2.36,2.15-4.97,2.25-7.7
						C151.05,385.52,150.91,384.15,150.6,382.84z M147.81,357.87c0.16,0.74,0.3,1.48,0.43,2.23c-0.04-0.01-0.08-0.02-0.12-0.03
						c-0.25-0.08-0.51-0.14-0.76-0.21c-0.38-0.1-0.77-0.21-1.16-0.29c0.38-0.41,0.76-0.82,1.15-1.23
						C147.51,358.19,147.66,358.03,147.81,357.87z M139.64,368.76c1.66-3.11,3.73-5.98,6.06-8.62c0.45,0.23,0.93,0.41,1.39,0.59
						c0.24,0.09,0.47,0.19,0.71,0.28c0.2,0.07,0.41,0.16,0.62,0.21c0.53,3.51,0.73,7.06,0.53,10.61c-0.14,2.46-0.46,4.91-0.99,7.32
						c-0.14,0.62-0.28,1.25-0.44,1.87c-1.93-0.61-3.87-1.24-5.8-1.84c-0.97-0.3-1.94-0.6-2.91-0.88c-0.84-0.24-1.74-0.55-2.62-0.67
						C136.98,374.56,138.14,371.57,139.64,368.76z M145.82,386.15c-0.07,0.16-0.15,0.33-0.3,0.42c-0.04,0.01-0.07,0.03-0.1,0.05
						c-0.22,0.06-0.49-0.02-0.71-0.07c-0.64-0.14-1.27-0.3-1.91-0.47c-1.27-0.32-2.53-0.67-3.78-1.05
						c-0.63-0.19-1.25-0.38-1.87-0.59c-0.51-0.16-1.07-0.29-1.55-0.54c-0.06-0.16-0.18-0.28-0.36-0.33c-0.14-0.29-0.07-0.66-0.03-1
						c0.06-0.53,0.14-1.05,0.23-1.58c0.14-0.85,0.32-1.7,0.52-2.53c0.34,0.16,0.71,0.28,1.05,0.41c0.49,0.18,0.98,0.36,1.47,0.53
						c0.96,0.33,1.92,0.65,2.89,0.97c1.93,0.63,3.87,1.24,5.81,1.85C146.82,383.56,146.38,384.89,145.82,386.15z M128.81,386.89
						c0.19-2.05,0.78-4.08,1.89-5.81c0.6-0.93,1.35-1.77,2.22-2.46c0.64-0.5,1.33-0.86,2.04-1.22c-0.23,0.88-0.43,1.76-0.59,2.65
						c-0.11,0.58-0.2,1.16-0.28,1.74c-0.08,0.58-0.21,1.19-0.13,1.78c0.01,0.1,0.05,0.18,0.07,0.26
						C132.1,384.43,130.31,385.53,128.81,386.89z M141.88,389.49c-0.16,0.18-0.26,0.18-0.49,0.13c-0.27-0.06-0.55-0.12-0.82-0.18
						c-0.53-0.12-1.05-0.24-1.58-0.36c-0.5-0.11-1-0.21-1.49-0.34c-0.12-0.03-0.32-0.07-0.39-0.19c-0.07-0.11-0.02-0.41-0.03-0.53
						c-0.02-0.75,0-1.54-0.06-2.31c1.21,0.39,2.42,0.76,3.64,1.1c0.9,0.25,1.8,0.51,2.71,0.73
						C142.89,388.2,142.42,388.88,141.88,389.49z M149.77,386.94c-0.06,1.82-0.44,3.66-1.12,5.37c-0.29-1.81-0.98-3.55-2.06-5.03
						c0.31-0.38,0.47-0.88,0.64-1.33c0.47-1.23,0.89-2.49,1.25-3.76c0.12-0.41,0.22-0.83,0.33-1.25
						C149.62,382.8,149.84,384.92,149.77,386.94z"/>
					<path class="st3" d="M142.07,374.61c1.37,0.67,3.02,0.39,4.17-0.58c1.23-1.04,1.6-2.9,0.97-4.36
						c-0.66-1.53-2.66-2.45-4.21-1.77c-0.04,0.02-0.06,0.04-0.09,0.07c-0.31,0.08-0.62,0.21-0.87,0.36
						c-0.72,0.44-1.21,1.14-1.49,1.93C139.97,371.89,140.43,373.81,142.07,374.61z M141.41,371.1c0.11-0.68,0.41-1.33,0.92-1.8
						c0.25-0.23,0.55-0.39,0.88-0.5c0.21-0.07,0.42-0.1,0.63-0.12c0.86,0.02,1.65,0.41,2.1,1.19c0.53,0.91,0.42,2.18-0.27,2.98
						c-0.64,0.73-1.71,1.1-2.65,0.88c-0.51-0.12-0.98-0.4-1.29-0.83C141.37,372.38,141.31,371.71,141.41,371.1z"/>
				</g>
			</g>
			<g>
				<g>
					<text transform="matrix(1 2.000100e-05 0 1 266.6953 267.7503)" class="st3 st9 st10">2016</text>
					<g>
						<rect x="256.51" y="273.88" class="st11" width="84.57" height="55.68"/>
						<text transform="matrix(1 0 0 1 258.8716 279.8804)"><tspan x="0" y="0" class="st3 st12 st13">SPM Global Technolo</tspan><tspan x="77.23" y="0" class="st3 st12 st13">-</tspan><tspan x="6.55" y="9.6" class="st3 st12 st13">gies enters Europe </tspan><tspan x="-1.64" y="19.2" class="st3 st12 st13">market with successful </tspan><tspan x="7.01" y="28.8" class="st3 st12 st13">Implementation of </tspan><tspan x="-1.65" y="38.4" class="st3 st12 st13">CMDB for a prestigious </tspan><tspan x="-0.74" y="48" class="st3 st12 st13">large areospace client.</tspan></text>
					</g>
				</g>
				<g>
					<path class="st3" d="M249.67,280.67c-0.27-1.14-0.7-2.26-1.49-3.14c0.39-1.73,0.68-3.49,0.88-5.25
						c0.58-5.26,0.28-10.6-0.73-15.79c-0.12-0.64-0.26-1.28-0.41-1.91c-0.17-0.74-1.25-0.48-1.21,0.22
						c-3.49,2.73-6.29,6.28-8.49,10.11c-1.64,2.86-2.94,5.93-3.86,9.1c-1.09,0.15-2.15,0.75-3.01,1.4
						c-1.02,0.77-1.89,1.69-2.59,2.76c-1.57,2.39-2.16,5.25-2.18,8.07c0,0.51,0.68,0.82,1.04,0.43c1.72-1.87,3.85-3.15,6.21-4.03
						c0.36,0.24,0.79,0.41,1.22,0.56c-0.04,0.44-0.04,0.89-0.06,1.33c-0.02,0.62-0.11,1.27-0.04,1.89c0.15,1.34,1.74,1.44,2.78,1.68
						c0.65,0.15,1.3,0.3,1.95,0.45c0.61,0.14,1.24,0.32,1.8-0.05c0.5-0.32,0.83-0.93,1.18-1.39c0.37-0.49,0.74-0.98,1.11-1.46
						c0.27,0.05,0.54,0.07,0.8,0.04c1.42,1.86,2.28,4.08,2.26,6.45c-0.01,0.52,0.72,0.71,0.98,0.26c1.36-2.36,2.15-4.97,2.25-7.7
						C250.12,283.35,249.98,281.98,249.67,280.67z M246.88,255.7c0.16,0.74,0.3,1.48,0.43,2.23c-0.04-0.01-0.08-0.02-0.12-0.03
						c-0.25-0.08-0.51-0.14-0.76-0.21c-0.38-0.1-0.77-0.21-1.16-0.29c0.38-0.41,0.76-0.82,1.15-1.23
						C246.58,256.02,246.73,255.86,246.88,255.7z M238.71,266.59c1.66-3.11,3.73-5.98,6.06-8.62c0.45,0.23,0.93,0.41,1.39,0.59
						c0.24,0.09,0.47,0.19,0.71,0.28c0.2,0.07,0.41,0.16,0.62,0.21c0.53,3.51,0.73,7.06,0.53,10.61c-0.14,2.46-0.46,4.91-0.99,7.32
						c-0.14,0.62-0.28,1.25-0.44,1.87c-1.93-0.61-3.87-1.24-5.8-1.84c-0.97-0.3-1.94-0.6-2.91-0.88c-0.84-0.24-1.74-0.55-2.62-0.67
						C236.05,272.39,237.21,269.4,238.71,266.59z M244.89,283.98c-0.07,0.16-0.15,0.33-0.3,0.42c-0.04,0.01-0.07,0.03-0.1,0.05
						c-0.22,0.06-0.49-0.02-0.71-0.07c-0.64-0.14-1.27-0.3-1.91-0.47c-1.27-0.32-2.53-0.67-3.78-1.05
						c-0.63-0.19-1.25-0.38-1.87-0.59c-0.51-0.16-1.07-0.29-1.55-0.54c-0.06-0.16-0.18-0.28-0.36-0.33c-0.14-0.29-0.07-0.66-0.03-1
						c0.06-0.53,0.14-1.05,0.23-1.58c0.14-0.85,0.32-1.7,0.52-2.53c0.34,0.16,0.71,0.28,1.05,0.41c0.49,0.18,0.98,0.36,1.47,0.53
						c0.96,0.33,1.92,0.65,2.89,0.97c1.93,0.63,3.87,1.24,5.81,1.85C245.89,281.39,245.45,282.72,244.89,283.98z M227.88,284.72
						c0.19-2.05,0.78-4.08,1.89-5.81c0.6-0.93,1.35-1.77,2.22-2.46c0.64-0.5,1.33-0.86,2.04-1.22c-0.23,0.88-0.43,1.76-0.59,2.65
						c-0.11,0.58-0.2,1.16-0.28,1.74c-0.08,0.58-0.21,1.19-0.13,1.78c0.01,0.1,0.05,0.18,0.07,0.26
						C231.17,282.26,229.39,283.36,227.88,284.72z M240.95,287.32c-0.16,0.18-0.26,0.18-0.49,0.13c-0.27-0.06-0.55-0.12-0.82-0.18
						c-0.53-0.12-1.05-0.24-1.58-0.36c-0.5-0.11-1-0.21-1.49-0.34c-0.12-0.03-0.32-0.07-0.39-0.19c-0.07-0.11-0.02-0.41-0.03-0.53
						c-0.02-0.75,0-1.54-0.06-2.31c1.21,0.39,2.42,0.76,3.64,1.1c0.9,0.25,1.8,0.51,2.71,0.73
						C241.96,286.03,241.49,286.71,240.95,287.32z M248.84,284.77c-0.06,1.82-0.44,3.66-1.12,5.37c-0.29-1.81-0.98-3.55-2.06-5.03
						c0.31-0.38,0.47-0.88,0.64-1.33c0.47-1.23,0.89-2.49,1.25-3.76c0.12-0.41,0.22-0.83,0.33-1.25
						C248.7,280.63,248.91,282.76,248.84,284.77z"/>
					<path class="st3" d="M241.14,272.44c1.37,0.67,3.02,0.39,4.17-0.58c1.23-1.04,1.6-2.9,0.97-4.36
						c-0.66-1.53-2.66-2.45-4.21-1.77c-0.04,0.02-0.06,0.04-0.09,0.07c-0.31,0.08-0.62,0.21-0.87,0.36
						c-0.72,0.44-1.21,1.14-1.49,1.93C239.04,269.72,239.51,271.64,241.14,272.44z M240.49,268.93c0.11-0.68,0.41-1.33,0.92-1.8
						c0.25-0.23,0.55-0.39,0.88-0.5c0.21-0.07,0.42-0.1,0.63-0.12c0.86,0.02,1.65,0.41,2.1,1.19c0.53,0.91,0.42,2.18-0.27,2.98
						c-0.64,0.73-1.71,1.1-2.65,0.88c-0.51-0.12-0.98-0.4-1.29-0.83C240.44,270.21,240.38,269.54,240.49,268.93z"/>
				</g>
			</g>
			<g>
				<g>
					<text transform="matrix(1 2.000100e-05 0 1 489.6104 475.1859)" class="st3 st9 st10">2014</text>
					<g>
						<rect x="479.43" y="481.32" class="st11" width="84.57" height="29.5"/>
						<text transform="matrix(1 0 0 1 482.3379 487.3154)"><tspan x="0" y="0" class="st3 st12 st13">Successful delivery of </tspan><tspan x="12.1" y="9.6" class="st3 st12 st13">First Enterprise </tspan><tspan x="5.34" y="19.2" class="st3 st12 st13">integration project.</tspan></text>
					</g>
				</g>
				<g>
					<path class="st3" d="M472.59,488.11c-0.27-1.14-0.7-2.26-1.49-3.14c0.39-1.73,0.68-3.49,0.88-5.25
						c0.58-5.26,0.28-10.6-0.73-15.79c-0.12-0.64-0.26-1.28-0.41-1.91c-0.17-0.74-1.25-0.48-1.21,0.22
						c-3.49,2.73-6.29,6.28-8.49,10.11c-1.64,2.86-2.94,5.93-3.86,9.1c-1.09,0.15-2.15,0.75-3.01,1.4
						c-1.02,0.77-1.88,1.69-2.59,2.76c-1.57,2.39-2.16,5.25-2.18,8.07c0,0.51,0.68,0.82,1.04,0.43c1.72-1.87,3.85-3.15,6.21-4.03
						c0.36,0.24,0.79,0.41,1.22,0.56c-0.04,0.44-0.04,0.89-0.06,1.33c-0.02,0.62-0.11,1.27-0.04,1.89c0.15,1.34,1.74,1.44,2.78,1.68
						c0.65,0.15,1.3,0.3,1.95,0.45c0.61,0.14,1.24,0.32,1.8-0.05c0.5-0.32,0.83-0.93,1.18-1.39c0.37-0.49,0.74-0.98,1.11-1.46
						c0.27,0.05,0.54,0.07,0.8,0.04c1.42,1.86,2.28,4.08,2.26,6.45c-0.01,0.52,0.72,0.71,0.98,0.26c1.36-2.36,2.15-4.97,2.25-7.7
						C473.03,490.79,472.9,489.42,472.59,488.11z M469.8,463.14c0.16,0.74,0.3,1.48,0.43,2.23c-0.04-0.01-0.08-0.02-0.12-0.03
						c-0.25-0.08-0.51-0.14-0.76-0.21c-0.38-0.1-0.77-0.21-1.16-0.29c0.38-0.41,0.76-0.82,1.15-1.23
						C469.5,463.45,469.65,463.3,469.8,463.14z M461.63,474.02c1.66-3.11,3.73-5.98,6.06-8.62c0.45,0.23,0.93,0.41,1.39,0.59
						c0.24,0.09,0.47,0.19,0.71,0.28c0.2,0.07,0.41,0.16,0.62,0.21c0.53,3.51,0.73,7.06,0.53,10.61c-0.14,2.46-0.46,4.91-0.99,7.32
						c-0.14,0.62-0.28,1.25-0.44,1.87c-1.93-0.61-3.87-1.24-5.8-1.84c-0.97-0.3-1.94-0.6-2.91-0.88c-0.84-0.24-1.74-0.55-2.62-0.67
						C458.97,479.82,460.13,476.83,461.63,474.02z M467.81,491.42c-0.07,0.16-0.15,0.33-0.3,0.42c-0.04,0.01-0.07,0.03-0.1,0.05
						c-0.22,0.06-0.49-0.02-0.71-0.07c-0.64-0.14-1.27-0.3-1.91-0.47c-1.27-0.32-2.53-0.67-3.78-1.05
						c-0.63-0.19-1.25-0.38-1.87-0.59c-0.51-0.16-1.07-0.29-1.55-0.54c-0.06-0.16-0.18-0.28-0.36-0.33c-0.14-0.29-0.07-0.66-0.03-1
						c0.06-0.53,0.14-1.05,0.23-1.58c0.14-0.85,0.32-1.7,0.52-2.53c0.34,0.16,0.71,0.28,1.05,0.41c0.49,0.18,0.98,0.36,1.47,0.53
						c0.96,0.33,1.92,0.65,2.89,0.97c1.93,0.63,3.87,1.24,5.81,1.85C468.81,488.83,468.37,490.16,467.81,491.42z M450.8,492.15
						c0.19-2.05,0.78-4.08,1.89-5.81c0.6-0.93,1.35-1.77,2.22-2.46c0.64-0.5,1.33-0.86,2.04-1.22c-0.23,0.88-0.43,1.76-0.59,2.65
						c-0.11,0.58-0.2,1.16-0.28,1.74c-0.08,0.58-0.21,1.19-0.13,1.78c0.01,0.1,0.05,0.18,0.07,0.26
						C454.09,489.7,452.3,490.79,450.8,492.15z M463.87,494.76c-0.16,0.18-0.26,0.18-0.49,0.13c-0.27-0.06-0.55-0.12-0.82-0.18
						c-0.53-0.12-1.05-0.24-1.58-0.36c-0.5-0.11-1-0.21-1.49-0.34c-0.12-0.03-0.32-0.07-0.39-0.19c-0.07-0.11-0.02-0.41-0.03-0.53
						c-0.02-0.75,0-1.54-0.06-2.31c1.21,0.39,2.42,0.76,3.64,1.1c0.9,0.25,1.8,0.51,2.71,0.73
						C464.88,493.46,464.41,494.15,463.87,494.76z M471.76,492.2c-0.06,1.82-0.44,3.66-1.12,5.37c-0.29-1.81-0.98-3.55-2.06-5.03
						c0.31-0.38,0.47-0.88,0.64-1.33c0.47-1.23,0.89-2.49,1.25-3.76c0.12-0.41,0.22-0.83,0.33-1.25
						C471.61,488.07,471.83,490.19,471.76,492.2z"/>
					<path class="st3" d="M464.06,479.87c1.37,0.67,3.02,0.39,4.17-0.58c1.23-1.04,1.6-2.9,0.97-4.36
						c-0.66-1.53-2.66-2.45-4.21-1.77c-0.04,0.02-0.06,0.04-0.09,0.07c-0.31,0.08-0.62,0.21-0.87,0.36
						c-0.72,0.44-1.21,1.14-1.49,1.93C461.96,477.15,462.42,479.08,464.06,479.87z M463.4,476.36c0.11-0.68,0.41-1.33,0.92-1.8
						c0.25-0.23,0.55-0.39,0.88-0.5c0.21-0.07,0.42-0.1,0.63-0.12c0.86,0.02,1.65,0.41,2.1,1.19c0.53,0.91,0.42,2.18-0.27,2.98
						c-0.64,0.73-1.71,1.1-2.65,0.88c-0.51-0.12-0.98-0.4-1.29-0.83C463.36,477.65,463.3,476.97,463.4,476.36z"/>
				</g>
			</g>
			<path class="st6" d="M423.96,314.67c-0.67-0.5-1.37-0.92-2.06-1.25c-6.07-2.9-13.39,1.93-14.13,8.39
				c-3.6-1.05-7.56-1.74-11.02-0.3c-3.46,1.44-5.92,5.76-4.18,9.08c1.17,2.22,3.84,3.33,6.35,3.32c2.51-0.01,4.92-0.95,7.24-1.93
				c0.39,3.6,3.82,6.25,7.42,5.99c3.61-0.26,6.75-2.92,8.29-6.2c4.94,5.6,13.91,7.12,20.42,3.47c2.64-1.48,5.05-4.38,4.19-7.28
				c-0.4-1.34-1.43-2.4-2.57-3.2c-4.27-2.96-10.04-2.37-14.06,0.69C430.23,321.56,427.35,317.18,423.96,314.67z"/>
			<path class="st6" d="M429.67,397.94c-2.16-0.76-4.55-1.47-6.84-0.88c-2.3,0.58-4.32,2.93-3.69,5.23
				c-2.99-1.39-6.81,1.2-7.21,4.47c-0.4,3.27,2.02,6.45,5.1,7.61c3.08,1.17,6.59,0.62,9.61-0.71c1.92,2.9,5.34,4.44,8.81,4.28
				c3.48-0.17,6.8-2.27,8.43-5.34c3.5,1.78,7.29,3.18,11.22,3.27c2.6,0.06,5.24-0.54,7.64-1.59c1.99-0.87,3.83-2.24,4.85-4.14
				c0.74-1.38,1.02-3.03,0.6-4.54c-0.42-1.51-1.58-2.83-3.07-3.28c-1.62-0.49-3.81,0.19-4.48,1.81c0.16-2.56-1.33-5.14-3.65-6.24
				c-2.34-1.11-5.34-0.62-7.21,1.18c1.31-7.58-8.34-11.38-14.08-8.8C433.15,391.41,429.04,394.83,429.67,397.94z"/>
			<path class="st6" d="M300.22,427.46c-0.09-0.04-0.21-0.07-0.37-0.09c-0.59-0.07-1.5,0.35-2.12,0.43
				c-1.51,0.2-3.08,0.16-4.53-0.32c-2.31-0.7-4.37-2.83-4.18-5.24c0.07-0.85,0.4-1.66,0.87-2.36c2.1-3.14,7.19-3.64,9.87-0.97
				c-0.51-0.51,0.13-2.63,0.35-3.19c0.4-1.01,1.09-1.9,1.95-2.57c1.98-1.56,4.62-2.09,7.03-1.26c1.97,0.68,3.62,2.24,4.4,4.17
				c0.91-1.08,1.92-2.11,3.14-2.82c1.6-0.93,3.37-1.15,5.04-0.28c0.74,0.39,1.4,0.94,1.91,1.61c0.11,0.14,1.15,1.92,0.96,1.98
				c1.13-0.36,2.35-0.51,3.51-0.24c3.94,0.9,4.84,6.67,2.23,9.38c-1.82,1.88-5.29,1.96-7.38,0.57c0.43,2.33-0.99,4.86-3.19,5.71
				c-2.21,0.85-4.96-0.07-6.2-2.08c-1.69,2.27-4.77,3.42-7.54,2.82c-2.32-0.5-4.27-2.19-5.24-4.34
				C300.53,427.88,300.52,427.6,300.22,427.46z"/>
			<g>
				<g>
					<path class="st3" d="M436.93,298.92c0.88,0,0.89-1.38,0-1.38C436.04,297.54,436.04,298.92,436.93,298.92L436.93,298.92z"/>
				</g>
			</g>
		</g>
		<g>
			<g>
				<circle class="st4" cx="557.19" cy="261.21" r="13.14"/>
				<circle class="st5" cx="557.19" cy="261.21" r="20.22"/>
			</g>
			<g>
				<path class="st2" d="M534.55,247.52c-4.25-2.52-8.56-4.99-13.1-6.96c-2.27-0.98-4.42-2.21-6.62-3.35
					c-2.2-1.14-4.45-2.16-6.7-3.2c-2.15-0.99-4.23-2.11-6.38-3.09c-2.25-1.03-4.51-2.05-6.78-3.04c-4.89-2.15-9.9-4.02-14.89-5.91
					c-9.19-3.49-18.42-6.89-27.56-10.51c-2.3-0.91-4.59-1.84-6.87-2.79c-0.47-0.2-0.95-0.4-1.42-0.59
					c-0.01-0.01-0.02-0.01-0.03-0.01c-0.3-0.13-0.59-0.25-0.89-0.38c-1.18-0.51-2.36-1.03-3.53-1.56
					c-4.38-1.98-8.72-4.06-12.99-6.28c-4.82-2.51-9.5-5.27-14.06-8.24c-2.32-1.52-4.59-3.11-6.92-4.62
					c-1.37-0.88-2.94-1.89-4.48-2.4c-0.23-0.08-0.48-0.16-0.72-0.21c-0.31-0.1-0.2-0.04,0.33,0.18c-0.3-0.12-0.54-0.22-0.71-0.29
					c0.04,0.01,0.09,0.03,0.12,0.03c-0.19-0.07-0.31-0.12-0.39-0.15c0.03,0.02,0.06,0.03,0.08,0.04c-0.19-0.08-0.22-0.09-0.08-0.04
					c-0.18-0.1-0.36-0.22-0.47-0.27c-0.38-0.19-0.76-0.38-1.14-0.58c-1.67-0.86-3.65-0.56-4.83,0.96c-1.2,1.55-0.93,3.47,0.29,4.91
					c0.41,0.49,0.81,1,1.25,1.46c0.07,0.08,0.14,0.16,0.21,0.24c-0.49-0.68-0.36-0.51,0.4,0.5c-0.64-0.76-0.28-0.36-0.16-0.15
					c0.75,1.34,2.01,2.44,3.16,3.44c2.11,1.83,4.47,3.37,6.83,4.85c4.15,2.61,8.43,4.98,12.75,7.31
					c8.57,4.62,17.44,8.67,26.39,12.51c9.46,4.05,19.03,7.81,28.6,11.58c9.14,3.6,18.2,7.46,27.44,10.8c0.3,0.11,0.6,0.22,0.91,0.33
					c0.19,0.07,0.38,0.14,0.56,0.21c0.51,0.22,1.01,0.44,1.51,0.67c1.28,0.57,2.56,1.15,3.83,1.73c2.44,1.12,4.95,2.15,7.34,3.38
					c1.23,0.64,2.39,1.45,3.57,2.18c1.19,0.73,2.42,1.39,3.63,2.09c2.42,1.4,4.8,2.86,7.16,4.36c2.33,1.49,5.92,0.56,7.22-1.89
					C537.78,252.19,537.08,249.02,534.55,247.52z M538.28,153.23C537.01,153.38,537.89,153.28,538.28,153.23L538.28,153.23z"/>
				<g>
					<path class="st3" d="M395.72,188.03c7.3,6.43,15.41,11.89,23.94,16.56c8.54,4.68,17.48,8.59,26.55,12.14
						c9.18,3.6,18.5,6.82,27.79,10.09c9.31,3.28,18.61,6.61,27.72,10.41c4.53,1.89,9.01,3.9,13.41,6.08
						c4.67,2.31,9.3,4.86,13.26,8.28c1,0.86,1.94,1.77,2.84,2.74c1.02,1.09,2.65-0.55,1.64-1.64c-3.61-3.89-8.07-6.89-12.71-9.42
						c-4.42-2.41-9.01-4.53-13.63-6.54c-9.07-3.94-18.36-7.35-27.68-10.65c-9.3-3.29-18.65-6.46-27.89-9.93
						c-9.09-3.42-18.07-7.15-26.71-11.61c-8.56-4.41-16.76-9.55-24.18-15.71c-0.94-0.78-1.87-1.58-2.79-2.39
						C396.22,185.52,394.65,187.08,395.72,188.03L395.72,188.03z"/>
				</g>
			</g>
			<g>
				<path class="st6" d="M246.62,164.45c1.12-0.72,2.18-1.49,3.24-2.29c-10.41-1.4-20.71-3.3-30.86-6.03
					c-10.66-2.86-21.1-6.49-31.35-10.58c-1.5-0.6-3-1.2-4.5-1.81c3.42,1.98,6.79,4.04,10.12,6.18c7.37,4.75,14.52,9.82,21.4,15.24
					c3.76,2.96,7.44,6.04,11.03,9.2C232.86,171.54,240.11,168.63,246.62,164.45z"/>
				<path class="st14" d="M221.97,193.1c0.84-5.87,1.62-11.75,2.59-17.59c-6.43-5.67-13.12-11.05-20.06-16.09
					c-7.09-5.14-14.43-9.93-22-14.34c-2.34-1.37-4.71-2.7-7.09-4.01c6.61,5.8,13.21,11.62,19.84,17.39
					c4.11,3.58,8.24,7.15,12.37,10.71c2.09,1.8,4.18,3.61,6.27,5.41c1.78,1.54,3.97,3.08,5.02,5.24c0.59,1.2,0.89,2.51,1.16,3.82
					c0.3,1.47,0.6,2.94,0.9,4.41C221.31,189.73,221.64,191.42,221.97,193.1z"/>
				<path class="st14" d="M207.59,183.7c0.7,0.61,1.39,1.22,2.08,1.85c1.45,1.31,2.88,2.64,4.3,3.99c1.39,1.32,2.77,2.66,4.12,4.02
					c0.23,0.24,0.46,0.48,0.69,0.72c0.78,0.71,1.56,1.41,2.35,2.12c-0.5-2.27-1-4.54-1.48-6.81c-0.28-1.31-0.55-2.62-0.82-3.93
					c-0.26-1.23-0.47-2.49-0.84-3.7c-0.25-0.84-0.61-1.64-1.09-2.37c-3.42,1.23-6.95,2.18-10.47,3.07
					C206.84,183.01,207.22,183.37,207.59,183.7z"/>
				<path class="st6" d="M180.87,154.68c2.64,6.24,4.53,12.78,5.67,19.46c0.61,3.58,1.01,7.18,1.25,10.8
					c7.68-1.27,15.27-2.93,22.8-4.87c1.86-0.48,3.71-0.99,5.57-1.47c-0.66-0.75-1.43-1.42-2.18-2.08c-2.04-1.81-4.08-3.61-6.12-5.42
					c-8.11-7.18-16.23-14.34-24.4-21.46c-3.35-2.92-6.72-5.82-10.07-8.73C176.33,145.25,178.83,149.85,180.87,154.68z"/>
				<path class="st3" d="M169.29,137.53c0.01,0.06,0.04,0.11,0.07,0.16c0,0.01,0,0.01,0.01,0.02c0,0,0,0,0,0
					c0.02,0.03,0.03,0.05,0.05,0.07c2.22,3.11,4.29,6.34,6.15,9.68c3.23,5.79,5.73,11.97,7.49,18.36c1.8,6.55,2.82,13.28,3.2,20.05
					c0.03,0.56,0.48,0.86,1.01,0.77c2.24-0.36,4.48-0.77,6.72-1.2c3.27-0.63,6.52-1.36,9.75-2.14c1.65,0.25,2.87,1.66,4.05,2.75
					c1.51,1.39,3.03,2.77,4.55,4.14c3.07,2.77,6.16,5.52,9.23,8.29c0.32,0.29,0.99,0.23,1.07-0.28c0.29-1.93,0.68-3.86,1.02-5.78
					c0.61-3.39,1.25-6.78,1.91-10.17c0.29-1.51,0.49-3.05,0.89-4.54c0.22-0.83,0.55-1.68,1.07-2.36c1.75-0.69,3.49-1.4,5.22-2.12
					c3.66-1.54,7.28-3.16,10.76-5.07c3.13-1.71,6.23-3.64,8.94-5.97c0.58-0.5,0.06-1.31-0.57-1.38c-6.27-0.61-12.5-1.62-18.68-2.85
					c-10.7-2.14-21.21-5.09-31.52-8.64c-5.25-1.81-10.45-3.77-15.6-5.83c-4.5-1.8-8.95-3.75-13.46-5.5
					c-0.59-0.3-1.17-0.62-1.77-0.92c-0.12-0.1-0.23-0.21-0.35-0.31c-0.31-0.27-0.68-0.17-0.9,0.05
					C169.36,136.98,169.21,137.26,169.29,137.53z M225.69,174.37c-3.59-3.16-7.27-6.24-11.03-9.2c-6.89-5.42-14.03-10.5-21.4-15.24
					c-3.32-2.14-6.7-4.19-10.12-6.18c1.5,0.61,3,1.21,4.5,1.81c10.25,4.08,20.69,7.71,31.35,10.58c10.15,2.73,20.46,4.63,30.86,6.03
					c-1.05,0.79-2.12,1.57-3.24,2.29C240.11,168.63,232.86,171.54,225.69,174.37z M225.38,177.77c0.07-0.56,0.14-1.11,0.2-1.67
					c0.05,0,0.11-0.01,0.16-0.03c0.15-0.06,0.29-0.12,0.44-0.18c-0.26,0.45-0.47,0.93-0.65,1.42
					C225.48,177.47,225.43,177.62,225.38,177.77z M220.97,188.05c-0.3-1.47-0.6-2.94-0.9-4.41c-0.27-1.3-0.57-2.61-1.16-3.82
					c-1.06-2.17-3.24-3.71-5.02-5.24c-2.09-1.8-4.18-3.61-6.27-5.41c-4.13-3.56-8.25-7.13-12.37-10.71
					c-6.64-5.77-13.23-11.59-19.84-17.39c2.38,1.31,4.74,2.65,7.09,4.01c7.57,4.41,14.91,9.2,22,14.34
					c6.94,5.03,13.63,10.41,20.06,16.09c-0.98,5.85-1.75,11.73-2.59,17.59C221.64,191.42,221.31,189.73,220.97,188.05z
					 M206.44,182.66c3.52-0.89,7.05-1.84,10.47-3.07c0.48,0.73,0.84,1.53,1.09,2.37c0.36,1.21,0.58,2.46,0.84,3.7
					c0.27,1.31,0.54,2.62,0.82,3.93c0.48,2.27,0.98,4.54,1.48,6.81c-0.78-0.71-1.57-1.41-2.35-2.12c-0.23-0.24-0.46-0.48-0.69-0.72
					c-1.35-1.36-2.73-2.7-4.12-4.02c-1.42-1.34-2.85-2.67-4.3-3.99c-0.69-0.62-1.38-1.24-2.08-1.85
					C207.22,183.37,206.84,183.01,206.44,182.66z M173.38,140.93c3.36,2.91,6.72,5.81,10.07,8.73c8.17,7.12,16.29,14.28,24.4,21.46
					c2.04,1.81,4.08,3.61,6.12,5.42c0.75,0.67,1.52,1.33,2.18,2.08c-1.86,0.47-3.71,0.99-5.57,1.47c-7.54,1.94-15.12,3.6-22.8,4.87
					c-0.23-3.62-0.64-7.23-1.25-10.8c-1.14-6.68-3.03-13.22-5.67-19.46C178.83,149.85,176.33,145.25,173.38,140.93z"/>
			</g>
			<g>
				<g>
					<text transform="matrix(1 2.000100e-05 0 1 602.9258 288.0637)" class="st3 st9 st10">2018</text>
					<g>
						<rect x="592.74" y="294.19" class="st11" width="84.57" height="17.25"/>
						<text transform="matrix(1 0 0 1 599.2344 300.1943)"><tspan x="0" y="0" class="st3 st12 st13">Entered Middle East </tspan><tspan x="23.47" y="9.6" class="st3 st12 st13">maket.</tspan></text>
					</g>
				</g>
				<g>
					<path class="st3" d="M585.9,300.99c-0.27-1.14-0.7-2.26-1.49-3.14c0.39-1.73,0.68-3.49,0.88-5.25
						c0.58-5.26,0.28-10.6-0.73-15.79c-0.12-0.64-0.26-1.28-0.41-1.91c-0.17-0.74-1.25-0.48-1.21,0.22
						c-3.49,2.73-6.29,6.28-8.49,10.11c-1.64,2.86-2.94,5.93-3.86,9.1c-1.09,0.15-2.15,0.75-3.01,1.4
						c-1.02,0.77-1.89,1.69-2.59,2.76c-1.57,2.39-2.16,5.25-2.18,8.07c0,0.51,0.68,0.82,1.04,0.43c1.72-1.87,3.85-3.15,6.21-4.03
						c0.36,0.24,0.79,0.41,1.22,0.56c-0.04,0.44-0.04,0.89-0.06,1.33c-0.02,0.62-0.11,1.27-0.04,1.89c0.15,1.34,1.74,1.44,2.78,1.68
						c0.65,0.15,1.3,0.3,1.95,0.45c0.61,0.14,1.24,0.32,1.8-0.05c0.5-0.32,0.83-0.93,1.18-1.39c0.37-0.49,0.74-0.98,1.11-1.46
						c0.27,0.05,0.54,0.07,0.8,0.04c1.42,1.86,2.28,4.08,2.26,6.45c-0.01,0.52,0.72,0.71,0.98,0.26c1.36-2.36,2.15-4.97,2.25-7.7
						C586.35,303.67,586.22,302.3,585.9,300.99z M583.11,276.02c0.16,0.74,0.3,1.48,0.43,2.23c-0.04-0.01-0.08-0.02-0.12-0.03
						c-0.25-0.08-0.51-0.14-0.76-0.21c-0.38-0.1-0.77-0.21-1.16-0.29c0.38-0.41,0.76-0.82,1.15-1.23
						C582.81,276.33,582.96,276.17,583.11,276.02z M574.94,286.9c1.66-3.11,3.73-5.98,6.06-8.62c0.45,0.23,0.93,0.41,1.39,0.59
						c0.24,0.09,0.47,0.19,0.71,0.28c0.2,0.07,0.41,0.16,0.62,0.21c0.53,3.51,0.73,7.06,0.53,10.61c-0.14,2.46-0.46,4.91-0.99,7.32
						c-0.14,0.62-0.28,1.25-0.44,1.87c-1.93-0.61-3.87-1.24-5.8-1.84c-0.97-0.3-1.94-0.6-2.91-0.88c-0.84-0.24-1.74-0.55-2.62-0.67
						C572.28,292.7,573.44,289.71,574.94,286.9z M581.13,304.29c-0.07,0.16-0.15,0.33-0.3,0.42c-0.04,0.01-0.07,0.03-0.1,0.05
						c-0.22,0.06-0.49-0.02-0.71-0.07c-0.64-0.14-1.27-0.3-1.91-0.47c-1.27-0.32-2.53-0.67-3.78-1.05
						c-0.63-0.19-1.25-0.38-1.87-0.59c-0.51-0.16-1.07-0.29-1.55-0.54c-0.06-0.16-0.18-0.28-0.36-0.33c-0.14-0.29-0.07-0.66-0.03-1
						c0.06-0.53,0.14-1.05,0.23-1.58c0.14-0.85,0.32-1.7,0.52-2.53c0.34,0.16,0.71,0.28,1.05,0.41c0.49,0.18,0.98,0.36,1.47,0.53
						c0.96,0.33,1.92,0.65,2.89,0.97c1.93,0.63,3.87,1.24,5.81,1.85C582.12,301.71,581.68,303.04,581.13,304.29z M564.11,305.03
						c0.19-2.05,0.78-4.08,1.89-5.81c0.6-0.93,1.35-1.77,2.22-2.46c0.64-0.5,1.33-0.86,2.04-1.22c-0.23,0.88-0.43,1.76-0.59,2.65
						c-0.11,0.58-0.2,1.16-0.28,1.74c-0.08,0.58-0.21,1.19-0.13,1.78c0.01,0.1,0.05,0.18,0.07,0.26
						C567.4,302.58,565.62,303.67,564.11,305.03z M577.18,307.64c-0.16,0.18-0.26,0.18-0.49,0.13c-0.27-0.06-0.55-0.12-0.82-0.18
						c-0.53-0.12-1.05-0.24-1.58-0.36c-0.5-0.11-1-0.21-1.49-0.34c-0.12-0.03-0.32-0.07-0.39-0.19c-0.07-0.11-0.02-0.41-0.03-0.53
						c-0.02-0.75,0-1.54-0.06-2.31c1.21,0.39,2.42,0.76,3.64,1.1c0.9,0.25,1.8,0.51,2.71,0.73
						C578.2,306.34,577.72,307.03,577.18,307.64z M585.07,305.08c-0.07,1.82-0.44,3.66-1.12,5.37c-0.29-1.81-0.98-3.55-2.06-5.03
						c0.31-0.38,0.47-0.88,0.64-1.33c0.47-1.23,0.89-2.49,1.25-3.76c0.12-0.41,0.22-0.83,0.33-1.25
						C584.93,300.95,585.15,303.07,585.07,305.08z"/>
					<path class="st3" d="M577.37,292.75c1.37,0.67,3.02,0.39,4.17-0.58c1.23-1.04,1.6-2.9,0.97-4.36
						c-0.66-1.53-2.66-2.45-4.21-1.77c-0.04,0.02-0.06,0.04-0.09,0.07c-0.31,0.08-0.62,0.21-0.87,0.36
						c-0.72,0.44-1.21,1.14-1.49,1.93C575.27,290.03,575.74,291.96,577.37,292.75z M576.72,289.24c0.11-0.68,0.41-1.33,0.92-1.8
						c0.25-0.23,0.55-0.39,0.88-0.5c0.21-0.07,0.42-0.1,0.63-0.12c0.86,0.02,1.65,0.41,2.1,1.19c0.53,0.91,0.42,2.18-0.27,2.98
						c-0.64,0.73-1.71,1.1-2.65,0.88c-0.51-0.12-0.98-0.4-1.29-0.83C576.68,290.53,576.62,289.85,576.72,289.24z"/>
				</g>
			</g>
			<g>
				<g>
					<text transform="matrix(1 2.000100e-05 0 1 310.04 166.699)" class="st3 st9 st10">2012</text>
					<rect x="299.86" y="172.83" class="st11" width="84.57" height="27.55"/>
					<text transform="matrix(1 0 0 1 310.6055 178.8291)"><tspan x="0" y="0" class="st3 st12 st13">Full-fildged office </tspan><tspan x="-0.93" y="9.6" class="st3 st12 st13">launched expands </tspan><tspan x="11.15" y="19.2" class="st3 st12 st13">team to 50.</tspan></text>
				</g>
				<g>
					<path class="st3" d="M293.02,179.62c-0.27-1.14-0.7-2.26-1.49-3.14c0.39-1.73,0.68-3.49,0.88-5.25
						c0.58-5.26,0.28-10.6-0.73-15.79c-0.12-0.64-0.26-1.28-0.41-1.91c-0.17-0.74-1.25-0.48-1.21,0.22
						c-3.49,2.73-6.29,6.28-8.49,10.11c-1.64,2.86-2.94,5.93-3.86,9.1c-1.09,0.15-2.15,0.75-3.01,1.4
						c-1.02,0.77-1.89,1.69-2.59,2.76c-1.57,2.39-2.16,5.25-2.18,8.07c0,0.51,0.68,0.82,1.04,0.43c1.72-1.87,3.85-3.15,6.21-4.03
						c0.36,0.24,0.79,0.41,1.22,0.56c-0.04,0.44-0.04,0.89-0.06,1.33c-0.02,0.62-0.11,1.27-0.04,1.89c0.15,1.34,1.74,1.44,2.78,1.68
						c0.65,0.15,1.3,0.3,1.95,0.45c0.61,0.14,1.24,0.32,1.8-0.05c0.5-0.32,0.83-0.93,1.18-1.39c0.37-0.49,0.74-0.98,1.11-1.46
						c0.27,0.05,0.54,0.07,0.8,0.04c1.42,1.86,2.28,4.08,2.26,6.45c-0.01,0.52,0.72,0.71,0.98,0.26c1.36-2.36,2.15-4.97,2.25-7.7
						C293.46,182.3,293.33,180.93,293.02,179.62z M290.23,154.65c0.16,0.74,0.3,1.48,0.43,2.23c-0.04-0.01-0.08-0.02-0.12-0.03
						c-0.25-0.08-0.51-0.14-0.76-0.21c-0.38-0.1-0.77-0.21-1.16-0.29c0.38-0.41,0.76-0.82,1.15-1.23
						C289.93,154.97,290.08,154.81,290.23,154.65z M282.06,165.53c1.66-3.11,3.73-5.98,6.06-8.62c0.45,0.23,0.93,0.41,1.39,0.59
						c0.24,0.09,0.47,0.19,0.71,0.28c0.2,0.07,0.41,0.16,0.62,0.21c0.53,3.51,0.73,7.06,0.53,10.61c-0.14,2.46-0.46,4.91-0.99,7.32
						c-0.14,0.62-0.28,1.25-0.44,1.87c-1.93-0.61-3.87-1.24-5.8-1.84c-0.97-0.3-1.94-0.6-2.91-0.88c-0.84-0.24-1.74-0.55-2.62-0.67
						C279.4,171.33,280.56,168.35,282.06,165.53z M288.24,182.93c-0.07,0.16-0.15,0.33-0.3,0.42c-0.04,0.01-0.07,0.03-0.1,0.05
						c-0.22,0.06-0.49-0.02-0.71-0.07c-0.64-0.14-1.27-0.3-1.91-0.47c-1.27-0.32-2.53-0.67-3.78-1.05
						c-0.63-0.19-1.25-0.38-1.87-0.59c-0.51-0.16-1.07-0.29-1.55-0.54c-0.06-0.16-0.18-0.28-0.36-0.33c-0.14-0.29-0.07-0.66-0.03-1
						c0.06-0.53,0.14-1.05,0.23-1.58c0.14-0.85,0.32-1.7,0.52-2.53c0.34,0.16,0.71,0.28,1.05,0.41c0.49,0.18,0.98,0.36,1.47,0.53
						c0.96,0.33,1.92,0.65,2.89,0.97c1.93,0.63,3.87,1.24,5.81,1.85C289.24,180.34,288.79,181.67,288.24,182.93z M271.23,183.67
						c0.19-2.05,0.78-4.08,1.89-5.81c0.6-0.93,1.35-1.77,2.22-2.46c0.64-0.5,1.33-0.86,2.04-1.22c-0.23,0.88-0.43,1.76-0.59,2.65
						c-0.11,0.58-0.2,1.16-0.28,1.74c-0.08,0.58-0.21,1.19-0.13,1.78c0.01,0.1,0.05,0.18,0.07,0.26
						C274.51,181.21,272.73,182.31,271.23,183.67z M284.3,186.27c-0.16,0.18-0.26,0.18-0.49,0.13c-0.27-0.06-0.55-0.12-0.82-0.18
						c-0.53-0.12-1.05-0.24-1.58-0.36c-0.5-0.11-1-0.21-1.49-0.34c-0.12-0.03-0.32-0.07-0.39-0.19c-0.07-0.11-0.02-0.41-0.03-0.53
						c-0.02-0.75,0-1.54-0.06-2.31c1.21,0.39,2.42,0.76,3.64,1.1c0.9,0.25,1.8,0.51,2.71,0.73
						C285.31,184.98,284.84,185.66,284.3,186.27z M292.19,183.71c-0.06,1.82-0.44,3.66-1.12,5.37c-0.29-1.81-0.98-3.55-2.06-5.03
						c0.31-0.38,0.47-0.88,0.64-1.33c0.47-1.23,0.89-2.49,1.25-3.76c0.12-0.41,0.22-0.83,0.33-1.25
						C292.04,179.58,292.26,181.7,292.19,183.71z"/>
					<path class="st3" d="M284.49,171.39c1.37,0.67,3.02,0.39,4.17-0.58c1.23-1.04,1.6-2.9,0.97-4.36
						c-0.66-1.53-2.66-2.45-4.21-1.77c-0.04,0.02-0.06,0.04-0.09,0.07c-0.31,0.08-0.62,0.21-0.87,0.36
						c-0.72,0.44-1.21,1.14-1.49,1.93C282.38,168.66,282.85,170.59,284.49,171.39z M283.83,167.88c0.11-0.68,0.41-1.33,0.92-1.8
						c0.25-0.23,0.55-0.39,0.88-0.5c0.21-0.07,0.42-0.1,0.63-0.12c0.86,0.02,1.65,0.41,2.1,1.19c0.53,0.91,0.42,2.18-0.27,2.98
						c-0.64,0.73-1.71,1.1-2.65,0.88c-0.51-0.12-0.98-0.4-1.29-0.83C283.79,169.16,283.73,168.49,283.83,167.88z"/>
				</g>
			</g>
		</g>
	</g>
</g>
</svg>
