<svg id="Layer_1" data-name="Layer 1" xmlns="http://www.w3.org/2000/svg" viewBox="0 0 685.4 451.25"><rect x="447.61" y="311.95" width="170.85" height="78.79" style="fill:#f5f5f5"/><path d="M614.39,387H451.52V316.09H614.39ZM452.58,386H613.33V317.15H452.58Z" style="fill:#e0e0e0"/><rect x="618.46" y="311.95" width="41.74" height="78.79" style="fill:#e0e0e0"/><path d="M452.05,338H613.86a.21.21,0,0,0,0-.42H452.05a.21.21,0,1,0,0,.42Z" style="fill:#e0e0e0"/><path d="M533.48,337.83a177.66,177.66,0,0,0,.06-21.4.22.22,0,0,0-.44,0,175.62,175.62,0,0,0,.06,21.4.16.16,0,0,0,.32,0Z" style="fill:#e0e0e0"/><path d="M577,327.13a2.21,2.21,0,1,1-2.21-2.21A2.2,2.2,0,0,1,577,327.13Z" style="fill:#e0e0e0"/><path d="M492.12,327.13a2.21,2.21,0,1,1-2.21-2.21A2.2,2.2,0,0,1,492.12,327.13Z" style="fill:#e0e0e0"/><path d="M535.16,351.56a2.21,2.21,0,1,1-2.21-2.2A2.2,2.2,0,0,1,535.16,351.56Z" style="fill:#e0e0e0"/><polygon points="468.03 390.74 459.24 440.21 464.18 440.21 480.4 390.74 468.03 390.74" style="fill:#e0e0e0"/><polygon points="606.37 390.74 613.73 440.3 608.78 440.3 594 390.74 606.37 390.74" style="fill:#e0e0e0"/><polygon points="639.4 390.74 647.73 440.3 642.78 440.3 627.03 390.74 639.4 390.74" style="fill:#e0e0e0"/><path d="M535,373.86a2.21,2.21,0,1,1-2.2-2.21A2.2,2.2,0,0,1,535,373.86Z" style="fill:#e0e0e0"/><path d="M452.05,362.44H613.86a.21.21,0,0,0,0-.42H452.05a.21.21,0,1,0,0,.42Z" style="fill:#e0e0e0"/><rect x="535.78" y="254.25" width="10.52" height="51.66" transform="matrix(0.01, 1, -1, 0.01, 818.26, -262.42)" style="fill:#e0e0e0"/><rect x="536.1" y="274.92" width="16.34" height="57.58" transform="translate(845.09 -242.16) rotate(89.7)" style="fill:#f5f5f5"/><path d="M562,311.61a58.73,58.73,0,0,1-.28-8.17,58.85,58.85,0,0,1,.28-8.17,60.78,60.78,0,0,1,.28,8.17A60.65,60.65,0,0,1,562,311.61Z" style="fill:#e0e0e0"/><path d="M564.42,311.61a61.76,61.76,0,0,1-.27-8.17,61.89,61.89,0,0,1,.27-8.17,58.85,58.85,0,0,1,.28,8.17A58.73,58.73,0,0,1,564.42,311.61Z" style="fill:#e0e0e0"/><path d="M524.19,311.61a58.73,58.73,0,0,1-.28-8.17,58.85,58.85,0,0,1,.28-8.17,60.78,60.78,0,0,1,.28,8.17A60.65,60.65,0,0,1,524.19,311.61Z" style="fill:#e0e0e0"/><path d="M526.6,311.61a60.65,60.65,0,0,1-.28-8.17,60.78,60.78,0,0,1,.28-8.17,58.85,58.85,0,0,1,.28,8.17A58.73,58.73,0,0,1,526.6,311.61Z" style="fill:#e0e0e0"/><path d="M531.88,303.71c0-.16,5.81-.29,13-.29s13,.13,13,.29-5.81.28-13,.28S531.88,303.86,531.88,303.71Z" style="fill:#e0e0e0"/><rect x="553.91" y="254.7" width="10.52" height="71.05" transform="translate(846.43 -270.47) rotate(89.7)" style="fill:#ebebeb"/><path d="M584.55,294a3.4,3.4,0,1,1,3.35-3.4A3.38,3.38,0,0,1,584.55,294Z" style="fill:#e0e0e0"/><rect x="550.48" y="266.81" width="2.1" height="47.56" transform="translate(842.12 -260.95) rotate(90)" style="fill:#e0e0e0"/><path d="M39,92.22s-6.05,4.61-.25,10.69a.52.52,0,0,0,.38.17l52.82-.31s4.52-5.06.77-10.89Z" style="fill:#ebebeb"/><path d="M80.27,97c0,.06-6.58.11-14.69.11s-14.69,0-14.69-.11,6.57-.11,14.69-.11S80.27,97,80.27,97Z" style="fill:#e0e0e0"/><path d="M72.05,98.94c0,.06-3.09.11-6.9.11s-6.91,0-6.91-.11,3.09-.11,6.91-.11S72.05,98.88,72.05,98.94Z" style="fill:#e0e0e0"/><path d="M85.67,102.6s.12-.61.28-1.59a22.14,22.14,0,0,0,.31-3.85,23.42,23.42,0,0,0-.38-3.85c-.18-1-.35-1.57-.31-1.58a1.82,1.82,0,0,1,.15.41c.09.26.19.65.31,1.14A18.79,18.79,0,0,1,86.1,101c-.1.49-.2.88-.28,1.15A1.82,1.82,0,0,1,85.67,102.6Z" style="fill:#e0e0e0"/><path d="M89.61,91.81s.1.13.24.39a4.15,4.15,0,0,1,.23.47,5.11,5.11,0,0,1,.27.65,11.69,11.69,0,0,1,.51,1.75,14.85,14.85,0,0,1,.23,2.22,12.84,12.84,0,0,1-.2,2.23,11.64,11.64,0,0,1-.47,1.76c-.08.25-.18.46-.26.65s-.16.35-.23.48a1.59,1.59,0,0,1-.23.38s.26-.58.57-1.56a13.19,13.19,0,0,0,.43-1.75,14.76,14.76,0,0,0,.17-2.19,13.22,13.22,0,0,0-.21-2.18,12.43,12.43,0,0,0-.45-1.74C89.88,92.39,89.58,91.83,89.61,91.81Z" style="fill:#e0e0e0"/><path d="M47.32,102.67a2.26,2.26,0,0,1-.24-.35c-.08-.12-.16-.27-.25-.44s-.19-.38-.28-.61A9.18,9.18,0,0,1,46,99.6a10.86,10.86,0,0,1-.2-2.13,10.6,10.6,0,0,1,.26-2.12,9.31,9.31,0,0,1,.56-1.65,5.58,5.58,0,0,1,.3-.6,3,3,0,0,1,.26-.43,1.49,1.49,0,0,1,.25-.35s-.3.53-.67,1.44a10.69,10.69,0,0,0-.51,1.64A11.88,11.88,0,0,0,46,97.48a11.24,11.24,0,0,0,.19,2.08,9,9,0,0,0,.46,1.65C47,102.13,47.36,102.65,47.32,102.67Z" style="fill:#e0e0e0"/><path d="M41.62,104a2.25,2.25,0,0,1-.27-.4c-.08-.13-.18-.3-.28-.5s-.22-.42-.32-.68a11.65,11.65,0,0,1-.6-1.86,13.33,13.33,0,0,1-.3-2.39A13.78,13.78,0,0,1,40,95.74a11.24,11.24,0,0,1,.52-1.89c.09-.27.21-.49.29-.7s.18-.37.26-.51a2.84,2.84,0,0,1,.25-.41s-.3.62-.65,1.67a11.83,11.83,0,0,0-.47,1.87,13.47,13.47,0,0,0-.18,2.36,14.85,14.85,0,0,0,.28,2.34,13,13,0,0,0,.55,1.85C41.29,103.35,41.66,103.94,41.62,104Z" style="fill:#e0e0e0"/><path d="M90,118.86V129H70.45v-10.1Z" style="fill:#ebebeb"/><path d="M26.83,124a2.44,2.44,0,0,1,0,.27,5.8,5.8,0,0,0,5.82,5.43H90.92V129H77.09A5.06,5.06,0,0,1,72,123.91h0a5.06,5.06,0,0,1,5.06-5H90.92v-1.08l-58.27.2A5.83,5.83,0,0,0,26.83,124Z" style="fill:#e0e0e0"/><path d="M90,124.05s-4,.1-9,.1-9-.05-9-.1,4-.11,9-.11S90,124,90,124.05Z" style="fill:#e0e0e0"/><path d="M89.72,126.32c0,.06-3.8.11-8.5.11s-8.5-.05-8.5-.11,3.81-.1,8.5-.1S89.72,126.26,89.72,126.32Z" style="fill:#e0e0e0"/><path d="M90,128.41c0,.05-3.43.1-7.65.1s-7.64,0-7.64-.1,3.42-.11,7.64-.11S90,128.35,90,128.41Z" style="fill:#e0e0e0"/><path d="M90,122c0,.06-3.94.11-8.8.11s-8.8,0-8.8-.11,3.94-.11,8.8-.11S90,121.94,90,122Z" style="fill:#e0e0e0"/><path d="M89.72,120c0,.06-3.5.11-7.83.11s-7.83,0-7.83-.11,3.51-.1,7.83-.1S89.72,119.89,89.72,120Z" style="fill:#e0e0e0"/><path d="M33.89,118.15a12.58,12.58,0,0,0-1.24,1.47,7.46,7.46,0,0,0,.11,8.66A11.85,11.85,0,0,0,34,129.72a1.67,1.67,0,0,1-.42-.31,6.36,6.36,0,0,1-1-1,7.38,7.38,0,0,1-.1-8.84,6.75,6.75,0,0,1,.95-1.06A1.67,1.67,0,0,1,33.89,118.15Z" style="fill:#f5f5f5"/><path d="M31.92,117.93a13.76,13.76,0,0,0-1.24,1.47,7.87,7.87,0,0,0-1.33,4.35,7.79,7.79,0,0,0,1.44,4.32,14.23,14.23,0,0,0,1.27,1.44,1.67,1.67,0,0,1-.42-.31,6.81,6.81,0,0,1-1-1,7.65,7.65,0,0,1-1.52-4.41,7.52,7.52,0,0,1,1.42-4.43,6.91,6.91,0,0,1,1-1.07A2.08,2.08,0,0,1,31.92,117.93Z" style="fill:#f5f5f5"/><path d="M71.5,118.15a13.27,13.27,0,0,0-1.23,1.47,7.48,7.48,0,0,0,.1,8.66,11.85,11.85,0,0,0,1.27,1.44,1.91,1.91,0,0,1-.42-.31,6,6,0,0,1-1-1,7.36,7.36,0,0,1-.11-8.84,6.75,6.75,0,0,1,1-1.06A1.93,1.93,0,0,1,71.5,118.15Z" style="fill:#f5f5f5"/><path d="M69.53,117.93a14.6,14.6,0,0,0-1.23,1.47,7.5,7.5,0,0,0,.1,8.67,14.23,14.23,0,0,0,1.27,1.44,1.91,1.91,0,0,1-.42-.31,6.37,6.37,0,0,1-1-1,7.36,7.36,0,0,1-.11-8.84,6.91,6.91,0,0,1,1-1.07A2.51,2.51,0,0,1,69.53,117.93Z" style="fill:#f5f5f5"/><path d="M40.52,125.42c0-1.37,0-2.74-.05-4.11a3.11,3.11,0,0,0-.15-1,1,1,0,0,0-.78-.66c-.51-.23-1.32.2-1.68.79a3.84,3.84,0,0,0-.4,2,27,27,0,0,0,.16,3.24,3.61,3.61,0,0,0,.38,1.49,1.24,1.24,0,0,0,2.35-.2A4.07,4.07,0,0,0,40.52,125.42Z" style="fill:#f5f5f5"/><path d="M63.15,124.24c0,.06-4.22.11-9.41.11s-9.41,0-9.41-.11,4.21-.1,9.41-.1S63.15,124.18,63.15,124.24Z" style="fill:#f5f5f5"/><polygon points="36.62 117.74 36.51 108.16 41.73 108.16 41.91 117.74 36.62 117.74" style="fill:#f5f5f5"/><path d="M41.42,109.87A14.26,14.26,0,0,1,39,110a14.18,14.18,0,0,1-2.42-.1,13.55,13.55,0,0,1,2.42-.11A13.62,13.62,0,0,1,41.42,109.87Z" style="fill:#e0e0e0"/><path d="M41.42,111.35a15.61,15.61,0,0,1-2.43.1,15.53,15.53,0,0,1-2.42-.1,13.55,13.55,0,0,1,2.42-.11A13.62,13.62,0,0,1,41.42,111.35Z" style="fill:#e0e0e0"/><path d="M41.42,112.82a13.62,13.62,0,0,1-2.43.11,13.55,13.55,0,0,1-2.42-.11,15.53,15.53,0,0,1,2.42-.1A15.61,15.61,0,0,1,41.42,112.82Z" style="fill:#e0e0e0"/><path d="M41.42,114.3a13.62,13.62,0,0,1-2.43.11,13.55,13.55,0,0,1-2.42-.11,14.18,14.18,0,0,1,2.42-.1A14.26,14.26,0,0,1,41.42,114.3Z" style="fill:#e0e0e0"/><path d="M41.42,115.78a13.62,13.62,0,0,1-2.43.11,13.55,13.55,0,0,1-2.42-.11,14.18,14.18,0,0,1,2.42-.1A14.26,14.26,0,0,1,41.42,115.78Z" style="fill:#e0e0e0"/><path d="M36.23,107.91H94a27.06,27.06,0,0,1,0,10.35H36.48v-.7H40a1.66,1.66,0,0,0,1.66-1.66v-5.73A1.66,1.66,0,0,0,40,108.51H36.23Z" style="fill:#ebebeb"/><path d="M49.9,113.09h1a.2.2,0,0,1,.11,0,.19.19,0,0,1,.1.18s0,0,0,.06a2.27,2.27,0,0,1-.06.25,2.94,2.94,0,0,1-.6,1.09,1.17,1.17,0,0,1-.83.43h-.11a.92.92,0,0,1-.66-.48,2.17,2.17,0,0,1-.29-1.16,3,3,0,0,1,.12-.83,2.66,2.66,0,0,1,.57-1.11,1.15,1.15,0,0,1,.87-.46.73.73,0,0,1,.36.08,1.21,1.21,0,0,1,.57.7.36.36,0,0,1,0,.1.19.19,0,0,1,0,.1.2.2,0,0,1-.18.11h-.06a.21.21,0,0,1-.13-.13v0a1.24,1.24,0,0,0-.12-.23.55.55,0,0,0-.46-.28.53.53,0,0,0-.32.12,1.72,1.72,0,0,0-.53.76,2.87,2.87,0,0,0-.23,1.08,2,2,0,0,0,.17.86.56.56,0,0,0,.5.38.7.7,0,0,0,.47-.28,2.42,2.42,0,0,0,.49-.9h-.69c-.15,0-.23-.1-.23-.23a.14.14,0,0,1,0-.07A.22.22,0,0,1,49.9,113.09Z" style="fill:#fafbfb"/><path d="M53.18,111.21l0,.07c0,.14.27,1.34.68,3.58a.43.43,0,0,0,0,0,.2.2,0,0,1,0,.11.2.2,0,0,1-.17.11h0a.19.19,0,0,1-.16-.14l-.23-1.19H52.09l-.57,1.2,0,0a.26.26,0,0,1-.18.11.21.21,0,0,1-.11,0,.19.19,0,0,1-.1-.17s0,0,0-.06l.18-.4c.83-1.81,1.33-2.88,1.49-3.21a.23.23,0,0,1,.2-.14A.2.2,0,0,1,53.18,111.21Zm-.26.8-.64,1.35h.91Z" style="fill:#fafbfb"/><path d="M56.41,115.13H54.66a.25.25,0,0,1-.11,0,.32.32,0,0,1-.1-.22h0q0-.11.48-3.57s0,0,0-.07a.17.17,0,0,1,.18-.13l.1,0a.2.2,0,0,1,.11.19c0,.16-.06.48-.12,1-.2,1.52-.3,2.32-.31,2.41h1.48l.11,0a.19.19,0,0,1,.13.19.15.15,0,0,1,0,.07A.25.25,0,0,1,56.41,115.13Z" style="fill:#fafbfb"/><path d="M58.79,111.21a.14.14,0,0,1,0,.07c0,.14.27,1.34.69,3.58v0a.2.2,0,0,1-.2.22h0a.18.18,0,0,1-.16-.14l-.23-1.19H57.69l-.57,1.2s0,0,0,0a.22.22,0,0,1-.17.11.25.25,0,0,1-.12,0,.2.2,0,0,1-.09-.17.13.13,0,0,1,0-.06l.18-.4c.83-1.81,1.33-2.88,1.49-3.21a.21.21,0,0,1,.2-.14A.22.22,0,0,1,58.79,111.21Zm-.26.8-.64,1.35h.9Z" style="fill:#fafbfb"/><path d="M61.56,113.27c.14.37.25.66.32.87.18.5.27.76.27.79a.19.19,0,0,1,0,.1.22.22,0,0,1-.18.1.2.2,0,0,1-.17-.14.92.92,0,0,1,0-.09c-.1-.22-.25-.63-.47-1.23l-1,1.35a.25.25,0,0,1-.18.11.23.23,0,0,1-.11,0,.21.21,0,0,1-.1-.18.06.06,0,0,1,0,0,.46.46,0,0,1,.1-.17c.33-.43.7-.93,1.1-1.52a3.43,3.43,0,0,1-.12-.33c-.38-1-.56-1.51-.56-1.54a.2.2,0,0,1,0-.11.16.16,0,0,1,.16-.1.22.22,0,0,1,.2.11l.58,1.57,1.16-1.58a.22.22,0,0,1,.19-.1l.09,0a.2.2,0,0,1,.1.19.15.15,0,0,1,0,.09Z" style="fill:#fafbfb"/><path d="M65.88,111.12l.09,0a.2.2,0,0,1,.11.18c-.28,2.25-.44,3.47-.47,3.65a2.15,2.15,0,0,1-.37,1,1.37,1.37,0,0,1-1.16.57,1.38,1.38,0,0,1-.56-.15,1.2,1.2,0,0,1-.61-.53.22.22,0,0,1,0-.11.36.36,0,0,1,0-.1.21.21,0,0,1,.18-.1.19.19,0,0,1,.16.08,1.12,1.12,0,0,0,.89.51.9.9,0,0,0,.7-.35,2,2,0,0,0,.38-1.1,1,1,0,0,1-.26.28,1,1,0,0,1-.62.2h-.12a.92.92,0,0,1-.66-.47,2.19,2.19,0,0,1-.29-1.16q0-.32,0-.66c0-.35.11-.85.23-1.5,0,0,0,0,0-.06a.2.2,0,0,1,.19-.14.19.19,0,0,1,.1,0,.17.17,0,0,1,.1.16,7.91,7.91,0,0,1-.09.8,11.48,11.48,0,0,0-.14,1.21,2.35,2.35,0,0,0,.16,1q.18.42.51.42h.07a1,1,0,0,0,.52-.42,2.46,2.46,0,0,0,.43-1l.27-2a.29.29,0,0,1,0-.09A.2.2,0,0,1,65.88,111.12Z" style="fill:#fafbfb"/><path d="M91.87,118.4c-.06,0-.11-2.38-.11-5.31s0-5.32.11-5.32.11,2.38.11,5.32S91.93,118.4,91.87,118.4Z" style="fill:#f5f5f5"/><path d="M44.57,118.4c-.06,0-.11-2.38-.11-5.31s0-5.32.11-5.32.1,2.38.1,5.32S44.62,118.4,44.57,118.4Z" style="fill:#e0e0e0"/><path d="M92.88,118.4s-.1-2.38-.1-5.31,0-5.32.1-5.32.11,2.38.11,5.32S92.94,118.4,92.88,118.4Z" style="fill:#f5f5f5"/><path d="M43.62,118.4c-.06,0-.11-2.38-.11-5.31s.05-5.32.11-5.32.1,2.38.1,5.32S43.68,118.4,43.62,118.4Z" style="fill:#e0e0e0"/><path d="M77.85,109.52h0L84,114.43l.06,0-.07,0-.81.21L78,116.06h0l-4.68-2L72,113.51l-.35-.15-.09,0s0,0,0,0l0,0,.1,0,.35.14,1.33.55L78,116h0l5.16-1.36.81-.21v.06l-6.1-4.95h0" style="fill:#e0e0e0"/><polygon points="83.4 113.67 83.73 113.98 84.18 113.88 83.99 114.3 84.22 114.69 83.76 114.64 83.46 114.98 83.37 114.53 82.95 114.34 83.36 114.12 83.4 113.67" style="fill:#e0e0e0"/><polygon points="77.54 115.61 77.77 115.8 78.05 115.72 77.94 115.99 78.11 116.24 77.81 116.22 77.63 116.45 77.56 116.17 77.28 116.06 77.53 115.91 77.54 115.61" style="fill:#e0e0e0"/><polygon points="71.07 112.95 71.43 112.98 71.66 112.69 71.75 113.04 72.09 113.17 71.78 113.36 71.77 113.73 71.49 113.49 71.14 113.59 71.27 113.26 71.07 112.95" style="fill:#e0e0e0"/><polygon points="86.14 109.6 86.5 109.62 86.73 109.34 86.82 109.69 87.16 109.81 86.85 110.01 86.84 110.37 86.56 110.14 86.21 110.24 86.34 109.9 86.14 109.6" style="fill:#e0e0e0"/><polygon points="77.56 109.36 77.79 109.38 77.93 109.19 77.99 109.42 78.21 109.5 78.01 109.62 78 109.86 77.83 109.71 77.6 109.77 77.69 109.56 77.56 109.36" style="fill:#e0e0e0"/><path d="M86.65,109.86s-2,0-4.41-.15-4.42-.21-4.41-.23,2,0,4.41.14S86.65,109.83,86.65,109.86Z" style="fill:#e0e0e0"/><path d="M88.87,107.82H30.24c-.77-1.74-1-3.4,0-4.88H88.87A5.67,5.67,0,0,1,88.87,107.82Z" style="fill:#e0e0e0"/><rect x="42.38" y="104.33" width="31.76" height="1.78" style="fill:#ebebeb"/><path d="M32.49,107.84s-.23-.18-.46-.59a4.25,4.25,0,0,1-.54-1.73,4.35,4.35,0,0,1,.23-1.8,1.7,1.7,0,0,1,.35-.66,5.9,5.9,0,0,1-.21.71,5,5,0,0,0,.3,3.41A4.58,4.58,0,0,1,32.49,107.84Z" style="fill:#e0e0e0"/><path d="M33.76,107.84s-.23-.18-.46-.59a4.25,4.25,0,0,1-.54-1.73,4.19,4.19,0,0,1,.23-1.8,1.7,1.7,0,0,1,.35-.66,5.9,5.9,0,0,1-.21.71,4.87,4.87,0,0,0,.3,3.41A6.45,6.45,0,0,1,33.76,107.84Z" style="fill:#e0e0e0"/><path d="M86.5,107.73a7.43,7.43,0,0,0,0-4.78,4.38,4.38,0,0,1,.59,2.4A4.23,4.23,0,0,1,86.5,107.73Z" style="fill:#f5f5f5"/><path d="M85.41,107.72c-.07,0,.18-1,.17-2.34s-.24-2.32-.18-2.33a5.65,5.65,0,0,1,.4,2.33A5.78,5.78,0,0,1,85.41,107.72Z" style="fill:#f5f5f5"/><rect x="116.54" y="35.18" width="20.88" height="22.15" transform="translate(-0.25 0.68) rotate(-0.31)" style="fill:#ebebeb"/><rect x="137.32" y="35.07" width="20.88" height="22.15" transform="translate(-0.24 0.79) rotate(-0.31)" style="fill:#f5f5f5"/><path d="M116.52,41.35c13.87.11,27.78,0,41.65-.19a.23.23,0,0,0,0-.45q-20.82-.1-41.66.26a.19.19,0,0,0,0,.38Z" style="fill:#e0e0e0"/><rect x="103.51" y="57" width="37.93" height="18.05" transform="translate(-0.35 0.66) rotate(-0.31)" style="fill:#ebebeb"/><rect x="141.26" y="56.8" width="37.93" height="18.05" transform="translate(-0.35 0.86) rotate(-0.31)" style="fill:#f5f5f5"/><path d="M103.49,62.12c25.2.29,50.49,0,75.68-.37a.23.23,0,0,0,0-.45c-25.2-.13-50.49-.12-75.68.44a.19.19,0,0,0,0,.38Z" style="fill:#e0e0e0"/><rect x="69.28" y="159.14" width="37.93" height="18.05" transform="translate(-0.9 0.48) rotate(-0.31)" style="fill:#ebebeb"/><rect x="107.03" y="158.94" width="37.93" height="18.05" transform="translate(-0.9 0.68) rotate(-0.31)" style="fill:#f5f5f5"/><path d="M69.26,164.27c25.19.28,50.48,0,75.67-.38a.22.22,0,0,0,0-.44c-25.2-.14-50.48-.12-75.67.43a.2.2,0,0,0,0,.39Z" style="fill:#e0e0e0"/><rect x="46.81" y="27.61" width="9.57" height="47.61" transform="translate(-0.27 0.28) rotate(-0.31)" style="fill:#e0e0e0"/><rect x="56.19" y="9.86" width="9.57" height="65.48" transform="translate(-0.23 0.33) rotate(-0.31)" style="fill:#ebebeb"/><rect x="65.81" y="22.06" width="14.87" height="53.06" transform="translate(-0.26 0.39) rotate(-0.31)" style="fill:#f5f5f5"/><path d="M80.44,32.25A55.18,55.18,0,0,1,73,32.5a55.08,55.08,0,0,1-7.43-.25A52.19,52.19,0,0,1,73,32,52.28,52.28,0,0,1,80.44,32.25Z" style="fill:#e0e0e0"/><path d="M80.44,30a55.18,55.18,0,0,1-7.44.25A55.08,55.08,0,0,1,65.57,30,52.19,52.19,0,0,1,73,29.76,52.28,52.28,0,0,1,80.44,30Z" style="fill:#e0e0e0"/><path d="M80.44,67.1a54.11,54.11,0,0,1-7.44.26,54,54,0,0,1-7.43-.26A54,54,0,0,1,73,66.84,54.11,54.11,0,0,1,80.44,67.1Z" style="fill:#e0e0e0"/><path d="M80.44,64.87a52.28,52.28,0,0,1-7.44.26,52.19,52.19,0,0,1-7.43-.26A55.08,55.08,0,0,1,73,64.62,55.18,55.18,0,0,1,80.44,64.87Z" style="fill:#e0e0e0"/><path d="M73.24,60c-.14,0-.26-5.35-.26-12s.12-11.95.26-11.95.26,5.35.26,11.95S73.38,60,73.24,60Z" style="fill:#e0e0e0"/><rect x="80.6" y="35.05" width="16.18" height="40.05" style="fill:#ebebeb"/><path d="M63.41,21a2.75,2.75,0,1,1-2.75-2.75A2.75,2.75,0,0,1,63.41,21Z" style="fill:#e0e0e0"/><rect x="59.81" y="28.58" width="1.7" height="38.95" style="fill:#e0e0e0"/><rect x="20.03" y="130.02" width="168.45" height="5.76" style="fill:#e0e0e0"/><rect x="20.03" y="75.36" width="168.45" height="5.76" style="fill:#e0e0e0"/><rect x="54.4" y="177.32" width="134.07" height="5.44" style="fill:#e0e0e0"/><rect x="97.83" y="80" width="6.42" height="54.37" style="fill:#e0e0e0"/><rect x="54.44" y="130.02" width="6.42" height="52.72" style="fill:#e0e0e0"/><path d="M136.41,105.3,132.46,111s8.89,2.47,8.89,10.36-5.43,9.38-11.36,9.38-11.6-1.72-11.35-9.62,7.65-10.86,7.65-10.86l-3.7-4.94Z" style="fill:#f5f5f5"/><rect x="658.86" y="33.28" width="6.66" height="143.19" style="fill:#e0e0e0"/><rect x="562.25" y="34.39" width="95.6" height="142.28" rx="0.1" style="fill:#f5f5f5"/><path d="M658.86,177.78H561.24a.09.09,0,0,1-.1-.1V33.38a.09.09,0,0,1,.1-.1h97.62a.09.09,0,0,1,.09.1v144.3A.09.09,0,0,1,658.86,177.78Zm-95.41-2.22h93.19a.1.1,0,0,0,.1-.09V35.59a.11.11,0,0,0-.1-.1H563.45a.11.11,0,0,0-.1.1V175.47A.1.1,0,0,0,563.45,175.56Z" style="fill:#ebebeb"/><rect x="571.87" y="43.17" width="76.51" height="124.63" rx="0.1" style="fill:#fff"/><rect x="588.56" y="78.5" width="42.96" height="50.35" rx="0.06" style="fill:#ebebeb"/><path d="M628.13,122.69c0,.16-2.07,1.09-6.1.62a15,15,0,0,1-6.86-2.74,13.93,13.93,0,0,1-5.33-8.38,12.07,12.07,0,0,1,4.08-11.46A10.88,10.88,0,0,1,617,98.92a8.28,8.28,0,0,1,3.86-.44,6.8,6.8,0,0,1,3.87,1.69,5,5,0,0,1,1.52,4.5,7.34,7.34,0,0,1-2.12,3.86,14,14,0,0,1-3.24,2.39,17.8,17.8,0,0,1-7.72,2.2,15.37,15.37,0,0,1-8.23-1.87A15,15,0,0,1,598.9,105a12.78,12.78,0,0,1-1.09-8.79,13,13,0,0,1,4.63-7.24,11.24,11.24,0,0,1,3.89-2,9.63,9.63,0,0,1,4.37-.14,7.1,7.1,0,0,1,4,2.24,6.61,6.61,0,0,1,1.56,4.24,8.13,8.13,0,0,1-1,4,10.81,10.81,0,0,1-2.45,3,16.42,16.42,0,0,1-6.09,3.23,15.57,15.57,0,0,1-6.4.5,13.16,13.16,0,0,1-5.57-2.14,12,12,0,0,1-5.32-8.43,10.17,10.17,0,0,1,2-7.23A8.6,8.6,0,0,1,595,83.33c1-.38,1.57-.37,1.6-.27s-.46.36-1.27.9A9.44,9.44,0,0,0,592.47,87a9,9,0,0,0-1.16,6.17A10.14,10.14,0,0,0,596,99.81a11.67,11.67,0,0,0,9.76.93A13.72,13.72,0,0,0,610.69,98,6,6,0,0,0,613,93.4,3.29,3.29,0,0,0,610,90.15a6.24,6.24,0,0,0-2.81.13,8.14,8.14,0,0,0-2.65,1.39A9.63,9.63,0,0,0,601.23,97a9.28,9.28,0,0,0,.82,6.39,11.56,11.56,0,0,0,4.62,4.8,11.86,11.86,0,0,0,6.36,1.48,14.49,14.49,0,0,0,6.26-1.71,10.44,10.44,0,0,0,2.49-1.76,4.24,4.24,0,0,0,1.27-2.06,1.83,1.83,0,0,0-.51-1.66,3.74,3.74,0,0,0-2.07-.91,5.13,5.13,0,0,0-2.44.21,7.84,7.84,0,0,0-2.27,1.24,9.46,9.46,0,0,0-3.46,8.76,12.1,12.1,0,0,0,4.1,7.25,14.42,14.42,0,0,0,5.88,2.94C625.92,122.8,628.1,122.38,628.13,122.69Z" style="fill:#e0e0e0"/><polygon points="175.74 417.47 175.74 440.86 209.95 440.86 247.69 440.86 247.69 417.47 175.74 417.47" style="fill:#f5f5f5"/><polygon points="172.72 410.93 172.72 417.47 250.2 417.47 250.2 410.93 209.95 410.93 172.72 410.93" style="fill:#e0e0e0"/><polygon points="211.46 440.86 247.69 440.86 247.69 417.47 250.2 417.47 250.2 410.93 209.95 410.93 209.95 416.86 211.46 440.86" style="fill:#e0e0e0"/><rect x="185.8" y="421.24" width="14.59" height="3.52" style="fill:#e0e0e0"/><rect x="183.92" y="429.17" width="18.74" height="7.44" style="fill:#fff"/><polygon points="192.48 387.56 192.48 410.96 226.69 410.96 264.43 410.96 264.43 387.56 192.48 387.56" style="fill:#f5f5f5"/><polygon points="189.46 381.02 189.46 387.56 266.94 387.56 266.94 381.02 226.69 381.02 189.46 381.02" style="fill:#e0e0e0"/><polygon points="228.2 410.96 264.43 410.96 264.43 387.56 266.94 387.56 266.94 381.02 226.69 381.02 226.69 386.96 228.2 410.96" style="fill:#e0e0e0"/><rect x="202.54" y="391.34" width="14.59" height="3.52" style="fill:#e0e0e0"/><rect x="200.67" y="399.26" width="18.74" height="7.44" style="fill:#fff"/><polygon points="45.82 416.62 45.82 440.02 80.03 440.02 117.77 440.02 117.77 416.62 45.82 416.62" style="fill:#f5f5f5"/><polygon points="42.8 410.08 42.8 416.62 120.28 416.62 120.28 410.08 80.03 410.08 42.8 410.08" style="fill:#e0e0e0"/><polygon points="81.54 440.02 117.77 440.02 117.77 416.62 120.28 416.62 120.28 410.08 80.03 410.08 80.03 416.02 81.54 440.02" style="fill:#e0e0e0"/><rect x="55.89" y="420.39" width="14.59" height="3.52" style="fill:#e0e0e0"/><rect x="54.01" y="428.32" width="18.74" height="7.44" style="fill:#fff"/><path d="M635.64,440.1c0,.14-126.32.25-282.11.25s-282.14-.11-282.14-.25,126.3-.25,282.14-.25S635.64,440,635.64,440.1Z" style="fill:#263238"/><path d="M580.56,61l-.15,289.86a16.24,16.24,0,0,1-16.24,16.22l-430.09-.23a16.24,16.24,0,0,1-16.22-16.24L118,60.78a16.23,16.23,0,0,1,16.24-16.22l430.09.22A16.23,16.23,0,0,1,580.56,61Z" style="fill:#e0e0e0"/><path d="M580.56,61l-.06-1a9.7,9.7,0,0,0-.13-1.24,12.42,12.42,0,0,0-.33-1.69,15.56,15.56,0,0,0-1.89-4.49,16.63,16.63,0,0,0-4.61-4.88,15.86,15.86,0,0,0-3.6-1.86,15.3,15.3,0,0,0-4.39-1l-1.2-.06H364l-114.09,0-63.55,0H136.17a27.07,27.07,0,0,0-4.23.19,15.71,15.71,0,0,0-10.61,6.39,17.58,17.58,0,0,0-1.15,1.79,19,19,0,0,0-.88,2,16.4,16.4,0,0,0-1,4.15c-.1,1.42-.07,2.88-.08,4.33V68q0,8.76,0,17.61,0,17.7,0,35.82,0,36.19,0,73.87c0,50.18-.06,102.13-.08,155.34a17.62,17.62,0,0,0,.73,4.84,17.38,17.38,0,0,0,2.17,4.38,15.86,15.86,0,0,0,3.38,3.51,15,15,0,0,0,4.27,2.34c3.06,1.23,6.42.92,9.7,1h9.88l39.15,0,76.56.05,144.72.09,131,.09H562.4a32.53,32.53,0,0,0,3.71-.13,15.55,15.55,0,0,0,3.56-.86,16,16,0,0,0,9.75-10.08c.19-.57.31-1.16.47-1.74s.2-1.18.25-1.77c.09-1.19.08-2.39.08-3.6v-7.17q0-28.56,0-54.75c.07-69.75.12-126.19.16-165.2,0-19.5.06-34.65.07-44.92,0-5.13,0-9,0-11.68s0-4,0-4,0,1.35,0,4,0,6.55,0,11.68c0,10.27,0,25.42,0,44.92V286.8q0,26.16,0,54.75v7.17c0,1.21,0,2.41-.07,3.63-.06.61-.18,1.21-.26,1.82s-.29,1.19-.48,1.78a16.43,16.43,0,0,1-10,10.33,15.81,15.81,0,0,1-3.65.88,29.66,29.66,0,0,1-3.76.13H539.63l-131-.05L264,367.18l-76.56,0-39.15,0h-9.88c-1.65,0-3.28,0-5,0a15.63,15.63,0,0,1-4.92-1,15.47,15.47,0,0,1-4.4-2.41,16,16,0,0,1-3.48-3.62,17.12,17.12,0,0,1-2.24-4.51,18.34,18.34,0,0,1-.76-5c0-53.21.06-105.16.09-155.34q0-37.63,0-73.88,0-18.09,0-35.81c0-5.91,0-11.77,0-17.61V63.58c0-1.45,0-2.9.09-4.37a16.48,16.48,0,0,1,1-4.28,18.82,18.82,0,0,1,.9-2A18,18,0,0,1,121,51.09a16.23,16.23,0,0,1,10.91-6.57,28.12,28.12,0,0,1,4.29-.19h17l33.24,0,63.55,0L364,44.5l165.21.17,25.93,0h9.18l1.21.06a16.28,16.28,0,0,1,8,2.86,16.47,16.47,0,0,1,4.61,4.92,15.74,15.74,0,0,1,1.88,4.52,13.73,13.73,0,0,1,.32,1.7,7.81,7.81,0,0,1,.11,1.24C580.55,60.68,580.56,61,580.56,61Z" style="fill:#263238"/><rect x="192.05" y="13.28" width="301.99" height="386.28" transform="translate(136.44 549.36) rotate(-89.97)" style="fill:#fff"/><path d="M557.25,193.57a12.37,12.37,0,1,1-12.38,12.36A12.36,12.36,0,0,1,557.25,193.57Z" style="fill:#263238"/><rect x="85.28" y="203.16" width="97.08" height="5.11" rx="1.22" transform="translate(-71.97 339.42) rotate(-89.97)" style="fill:#263238"/><rect x="149.71" y="54.94" width="386.67" height="23.67" style="fill:#f3735e"/><path d="M172.78,65.61v1.57h2.74v1.1h-2.74v2.15h-1.37V64.51h4.48v1.1Z" style="fill:#fff"/><path d="M176.38,67.47a3.24,3.24,0,1,1,3.24,3.07A3.06,3.06,0,0,1,176.38,67.47Zm5.09,0a1.85,1.85,0,1,0-1.85,1.9A1.8,1.8,0,0,0,181.47,67.47Z" style="fill:#fff"/><path d="M187.66,70.43l-1.14-1.65h-1.26v1.65h-1.37V64.51h2.56c1.59,0,2.58.82,2.58,2.15a1.93,1.93,0,0,1-1.22,1.87l1.33,1.9Zm-1.28-4.8h-1.12v2.06h1.12c.84,0,1.26-.39,1.26-1S187.22,65.63,186.38,65.63Z" style="fill:#fff"/><path d="M195.49,70.43V66.88l-1.75,2.93h-.61L191.39,67v3.47H190.1V64.51h1.14l2.22,3.68,2.18-3.68h1.12l0,5.92Z" style="fill:#fff"/><path d="M536.27,55.53,150,55.55l.22-.22c0,90.12-.09,193.09-.14,302v0l-.24-.25,386.28.25-.21.2c.22-182.28.37-300.29.37-302,0,1.7,0,119.71,0,302v.2h-.2l-386.28-.16h-.25v-.28c.07-108.86.13-211.83.18-301.95v-.22H150Z" style="fill:#263238"/><rect x="82.48" y="381.59" width="69.67" height="9.57" style="fill:#263238"/><path d="M152.26,391.28H82.36v-9.81h69.9ZM82.6,391H152v-9.33H82.6Z" style="fill:#263238"/><polygon points="88.94 387.98 98.97 437.45 136.07 437.45 145.76 391.16 88.94 387.98" style="fill:#263238"/><polygon points="88.94 432.77 94.28 440.12 139.38 440.12 145.76 432.77 88.94 432.77" style="fill:#455b64"/><path d="M114.7,389.42c-.14,0-.32-22.92-.4-51.18s0-51.19.11-51.2.31,22.92.39,51.19S114.83,389.42,114.7,389.42Z" style="fill:#263238"/><path d="M130.21,332.07a2.42,2.42,0,0,1-.18.53c-.17.39-.37.88-.62,1.48l-.46,1.07-.46,1.3-.54,1.49c-.19.53-.33,1.11-.52,1.71a68.55,68.55,0,0,0-1.94,8.53,102.31,102.31,0,0,0-1.08,10.66,143.66,143.66,0,0,0,.55,19.49c.22,2.48.45,4.49.61,5.88.07.65.13,1.18.18,1.6a4,4,0,0,1,0,.57,2.41,2.41,0,0,1-.13-.55l-.27-1.59c-.22-1.38-.5-3.39-.77-5.88a128.18,128.18,0,0,1-.7-19.54A95.42,95.42,0,0,1,125,348.1a64.31,64.31,0,0,1,2.06-8.56c.19-.59.35-1.17.55-1.7l.58-1.49c.18-.46.35-.89.5-1.29s.35-.74.5-1.06l.71-1.44A2.41,2.41,0,0,1,130.21,332.07Z" style="fill:#263238"/><path d="M128.43,313.53a4.06,4.06,0,0,1-.22.76c-.18.53-.42,1.23-.72,2.13-.17.46-.34,1-.54,1.53l-.56,1.85c-.4,1.33-.88,2.84-1.3,4.53-.22.85-.45,1.73-.7,2.65s-.42,1.9-.65,2.9c-.49,2-.84,4.16-1.29,6.42-.76,4.56-1.44,9.59-1.91,14.9s-.63,10.39-.7,15,0,8.78.24,12.27c.06,1.75.17,3.32.26,4.71s.17,2.58.26,3.55.13,1.69.17,2.25a4.18,4.18,0,0,1,0,.78,5.27,5.27,0,0,1-.12-.77c-.07-.56-.15-1.31-.26-2.24s-.24-2.16-.34-3.55-.26-3-.34-4.71c-.24-3.49-.33-7.66-.34-12.29s.22-9.72.66-15,1.16-10.37,2-14.94c.47-2.26.83-4.43,1.34-6.43.24-1,.46-2,.68-2.9s.5-1.81.74-2.65c.44-1.7.93-3.2,1.37-4.52.21-.66.41-1.27.6-1.84l.57-1.53.82-2.1A5.42,5.42,0,0,1,128.43,313.53Z" style="fill:#263238"/><path d="M110.29,393.48a1.14,1.14,0,0,1,0-.27c0-.21,0-.47-.07-.79-.05-.73-.11-1.75-.2-3-.17-2.67-.41-6.47-.7-11.16-.6-9.42-1.48-22.44-3.07-36.76-.81-7.16-1.75-14-2.72-20.13-.52-3.07-1-6-1.53-8.72s-1-5.27-1.5-7.58-1-4.39-1.38-6.22-.79-3.39-1.12-4.67-.55-2.25-.72-3c-.08-.31-.13-.57-.18-.77a.76.76,0,0,1,0-.27,2.32,2.32,0,0,1,.09.26l.22.76c.2.7.47,1.68.82,2.93s.77,2.83,1.2,4.66,1,3.9,1.45,6.21,1.06,4.84,1.57,7.57,1,5.65,1.57,8.73c1,6.17,2,13,2.77,20.14,1.59,14.34,2.41,27.37,2.92,36.8.26,4.72.43,8.53.54,11.17,0,1.3.09,2.31.11,3,0,.33,0,.59,0,.8A1.17,1.17,0,0,1,110.29,393.48Z" style="fill:#263238"/><path d="M114.13,298.06c-.31-3.24-3.59-5.69-6.85-5.73a10.77,10.77,0,0,0-8.29,4.5,26,26,0,0,0-4,8.87c-2.19,7.65-3.39,15.69-2.45,23.59s4.14,15.68,9.81,21.27c.92.9,2.12,1.81,3.38,1.54a4.14,4.14,0,0,0,1.79-1.1,52.79,52.79,0,0,0,17.13-40.14c-.09-3-.48-6.14-2.15-8.64s-5.54-5.16-8.37-4.16" style="fill:#f3735e"/><path d="M89.78,272.06q-2.3,4.15-4.6,8.31c-.1.2-.24.41-.46.43s-.43-.21-.56-.41L72,261.76l2.8-1.59Z" style="fill:#f3735e"/><g style="opacity:0.2"><path d="M89.78,272.06q-2.3,4.15-4.6,8.31c-.1.2-.24.41-.46.43s-.43-.21-.56-.41L72,261.76l2.8-1.59Z"/></g><path d="M114.41,287,73,262.6a1.92,1.92,0,0,1-1-1c-.17-.62.29-1.21.74-1.66a28.51,28.51,0,0,1,22.13-8.7,25.28,25.28,0,0,1,20,12.45c4,7.14,4.13,16.58-.45,23.36" style="fill:#f3735e"/><path d="M79,254.8a2.07,2.07,0,0,1,.54-.07c.36,0,.88-.08,1.56-.07a30.48,30.48,0,0,1,5.75.45,33.22,33.22,0,0,1,23.52,16.37,33.29,33.29,0,0,1,3.29,7.89,30.92,30.92,0,0,1,1,5.68c.07.67,0,.85.06,1.2a2,2,0,0,1-.32.91,6.87,6.87,0,0,0,.07-2.09,34,34,0,0,0-27.71-29.61,35.76,35.76,0,0,0-5.69-.61C79.71,254.82,79,254.85,79,254.8Z" style="fill:#263238"/><path d="M108.8,270.17a9.3,9.3,0,0,1-2.09,1c-1.32.52-3.17,1.18-5.23,1.84s-4,1.17-5.33,1.51a9.4,9.4,0,0,1-2.26.43,10.63,10.63,0,0,1,2.16-.77l5.28-1.65,5.26-1.69A11.94,11.94,0,0,1,108.8,270.17Z" style="fill:#263238"/><path d="M102.28,252.65a17.64,17.64,0,0,1,.49,4.62,17,17,0,0,1-.26,4.64,29.34,29.34,0,0,1-.24-4.62A29.14,29.14,0,0,1,102.28,252.65Z" style="fill:#263238"/><path d="M72.63,262.14a18.62,18.62,0,0,1,3-1.06c1.89-.58,4.51-1.31,7.43-2s5.59-1.24,7.53-1.58a19.62,19.62,0,0,1,3.16-.43,22.7,22.7,0,0,1-3.09.77c-1.92.43-4.57,1-7.49,1.72s-5.54,1.39-7.44,1.88A22.15,22.15,0,0,1,72.63,262.14Z" style="fill:#263238"/><path d="M96.94,291c-3.57-2.7-7.33-3.24-11.8-3.06a36.14,36.14,0,0,0-12.91,3.33c-7,3.06-13.55,7.57-17.72,13.95S48.88,320.07,52,327a3.14,3.14,0,0,0,1.42,1.71,3.35,3.35,0,0,0,2.34-.18C63.7,326,71.7,323.36,79,319.3s14-9.7,17.88-17.08a14.79,14.79,0,0,0,1.88-5.67A7.06,7.06,0,0,0,96.94,291" style="fill:#f3735e"/><path d="M97,290.18a2.67,2.67,0,0,1-.58.23l-1.66.57-1.21.41c-.43.15-.9.35-1.4.54-1,.41-2.18.82-3.4,1.41l-2,.89c-.68.31-1.35.7-2.07,1.06-1.44.71-2.89,1.61-4.44,2.53a76.54,76.54,0,0,0-9.41,7,78.34,78.34,0,0,0-8.12,8.44c-1.1,1.43-2.19,2.76-3.07,4.09-.45.67-.92,1.29-1.31,1.92s-.77,1.24-1.13,1.82c-.75,1.14-1.3,2.24-1.83,3.19-.26.48-.51.91-.73,1.33l-.55,1.14-.78,1.58a3.73,3.73,0,0,1-.3.54,2.62,2.62,0,0,1,.21-.58c.18-.42.41-1,.7-1.62.15-.36.33-.75.51-1.17s.44-.87.69-1.35c.51-1,1-2.08,1.78-3.24l1.1-1.85c.39-.64.85-1.27,1.3-1.94.88-1.36,2-2.7,3.06-4.14a67.69,67.69,0,0,1,17.64-15.52c1.56-.91,3-1.81,4.5-2.51.72-.35,1.4-.73,2.08-1l2-.86c1.24-.58,2.42-1,3.44-1.35.51-.18,1-.36,1.43-.51l1.22-.36,1.7-.48A2.41,2.41,0,0,1,97,290.18Z" style="fill:#263238"/><path d="M69.18,305.25A85.94,85.94,0,0,1,60.51,308a85.19,85.19,0,0,1-8.81,2.32,87.39,87.39,0,0,1,8.67-2.8A82.79,82.79,0,0,1,69.18,305.25Z" style="fill:#263238"/><path d="M68.82,324.37a13.11,13.11,0,0,1-.19-2.7c0-1.67,0-4,0-6.52s.2-4.85.34-6.52a14.65,14.65,0,0,1,.34-2.68,15.21,15.21,0,0,1,0,2.7c0,1.83-.12,4.05-.2,6.51s-.11,4.68-.16,6.51A14.94,14.94,0,0,1,68.82,324.37Z" style="fill:#263238"/><path d="M85.2,316c-.14,0-.57-4.68-1-10.48s-.62-10.49-.48-10.5.57,4.68,1,10.47S85.34,316,85.2,316Z" style="fill:#263238"/><path d="M64.81,294.59a15.69,15.69,0,0,1,2.78-.08c1.71,0,4.07.06,6.68.15s5,.19,6.69.29a14.81,14.81,0,0,1,2.76.27,15.61,15.61,0,0,1-2.77.08c-1.71,0-4.08-.06-6.69-.15s-5-.19-6.69-.29A14.81,14.81,0,0,1,64.81,294.59Z" style="fill:#263238"/><path d="M104.13,351.65a2.05,2.05,0,0,1-.06-.56c0-.42,0-.94-.07-1.59-.07-1.39-.08-3.39,0-5.87s.22-5.42.51-8.69.79-6.83,1.46-10.56,1.51-7.24,2.36-10.41,1.75-6,2.58-8.32,1.55-4.22,2.09-5.5l.63-1.47a1.75,1.75,0,0,1,.26-.5,2.9,2.9,0,0,1-.16.54l-.54,1.5c-.5,1.29-1.16,3.18-1.94,5.53s-1.63,5.18-2.48,8.34-1.63,6.67-2.31,10.38-1.14,7.27-1.49,10.52-.53,6.18-.62,8.65-.13,4.47-.13,5.86c0,.64,0,1.17,0,1.59A2.28,2.28,0,0,1,104.13,351.65Z" style="fill:#263238"/><path d="M106.31,324.53a11.76,11.76,0,0,1-1.65,1.81c-1.07,1.07-2.59,2.5-4.33,4s-3.36,2.84-4.56,3.76a11.88,11.88,0,0,1-2,1.4,13.41,13.41,0,0,1,1.79-1.67L100,330l4.41-3.91A12.39,12.39,0,0,1,106.31,324.53Z" style="fill:#263238"/><path d="M119.42,335.09a20.58,20.58,0,0,1-1.76-2.44l-4.09-6-4.18-5.92a18.51,18.51,0,0,1-1.67-2.5,16.69,16.69,0,0,1,2,2.29c1.15,1.46,2.69,3.52,4.31,5.84s3,4.49,4,6.07A15.57,15.57,0,0,1,119.42,335.09Z" style="fill:#263238"/><path d="M112.56,301.87c.07.12-4.28,3.05-9.73,6.55s-9.92,6.25-10,6.13,4.28-3,9.73-6.55S112.48,301.76,112.56,301.87Z" style="fill:#263238"/><path d="M124.84,315.13a79.62,79.62,0,0,1-6.59-6.09A80.56,80.56,0,0,1,112,302.6a83.57,83.57,0,0,1,6.59,6.09A82.76,82.76,0,0,1,124.84,315.13Z" style="fill:#263238"/><path d="M127.92,314.86l3.74-.31a18.41,18.41,0,0,0,7.55-2.31,31.3,31.3,0,0,1,3.52-1.77c4.62-1.85,9.78-1.52,14.76-1.77a61.2,61.2,0,0,0,23.47-6,2.35,2.35,0,0,0,1-.93c.77-1.4-.66-2.64-1.89-3.4-6.3-3.88-12.71-7.81-19.85-9.74s-15.25-1.6-21.35,2.6c-7.15,4.92-9.76,15-11,23.63" style="fill:#f3735e"/><path d="M182.06,301.31a2.91,2.91,0,0,1-.63-.29l-1.77-.93c-1.54-.81-3.75-2-6.55-3.34A60.9,60.9,0,0,0,163,292.84a33.45,33.45,0,0,0-13.13-1.06,22.4,22.4,0,0,0-12,5.14,26.64,26.64,0,0,0-6.23,8.75,73.18,73.18,0,0,0-2.72,6.82l-.66,1.89a4.46,4.46,0,0,1-.26.64,3.5,3.5,0,0,1,.16-.67l.58-1.92a60.15,60.15,0,0,1,2.58-6.9,26.33,26.33,0,0,1,6.25-8.95,22.62,22.62,0,0,1,12.21-5.29,33.34,33.34,0,0,1,13.31,1.11,59.31,59.31,0,0,1,10.17,4c2.78,1.39,5,2.63,6.48,3.49l1.73,1A4.5,4.5,0,0,1,182.06,301.31Z" style="fill:#263238"/><path d="M173.08,306.14c-.07.11-5-3.05-10.92-7.07s-10.72-7.36-10.64-7.47,5,3,10.92,7.06S173.16,306,173.08,306.14Z" style="fill:#263238"/><path d="M167.87,291.34a11.81,11.81,0,0,1-3.56.64,11.94,11.94,0,0,1-3.63-.05,23.6,23.6,0,0,1,3.59-.37A22.51,22.51,0,0,1,167.87,291.34Z" style="fill:#263238"/><path d="M146.46,288.55a9.39,9.39,0,0,1-1.6,2.5,10.42,10.42,0,0,1-2,2.31,9.57,9.57,0,0,1,1.6-2.5A11,11,0,0,1,146.46,288.55Z" style="fill:#263238"/><path d="M150.85,309a13,13,0,0,1-2.36-1.28c-1.41-.86-3.32-2.11-5.36-3.59s-3.84-2.89-5.13-3.91a15.46,15.46,0,0,1-2-1.74,13,13,0,0,1,2.24,1.46l5.21,3.78c2,1.48,3.9,2.78,5.26,3.71A16.07,16.07,0,0,1,150.85,309Z" style="fill:#263238"/><path d="M133.43,330.75c-3.57-.95-7.82,2.52-8.55,6.14s.62,7.31,2.21,10.64a54.29,54.29,0,0,0,14.74,19.29c6.39,5.09,14.38,8.34,22.55,8.3-1.51-7,.4-14.32-.44-21.43a27.86,27.86,0,0,0-24.69-24.44c-2.28-.25-4.91-.61-5.82,1.5" style="fill:#f3735e"/><path d="M164.38,375.12a1.9,1.9,0,0,1-.51-.23,9.72,9.72,0,0,1-1.33-.9,13.94,13.94,0,0,1-3.52-4.71c-.57-1.1-1.21-2.3-1.83-3.63s-1.24-2.75-1.92-4.24a40.84,40.84,0,0,0-2.35-4.53,35.66,35.66,0,0,0-3.25-4.41c-2.44-2.87-5.06-5.35-7.33-7.72a50.89,50.89,0,0,1-5.59-6.71,24.35,24.35,0,0,1-2.73-5.22,14.89,14.89,0,0,1-.48-1.53,2,2,0,0,1-.11-.54s.25.72.77,2a27,27,0,0,0,2.84,5.09,53.37,53.37,0,0,0,5.63,6.59c2.28,2.34,4.91,4.82,7.38,7.71a35.56,35.56,0,0,1,3.28,4.48,40.16,40.16,0,0,1,2.36,4.6l1.88,4.26c.59,1.32,1.21,2.53,1.76,3.64a14.29,14.29,0,0,0,3.33,4.72C163.7,374.74,164.41,375.07,164.38,375.12Z" style="fill:#263238"/><path d="M145.94,369.3a10.44,10.44,0,0,1,.33-2.4c.28-1.47.73-3.48,1.35-5.68s1.28-4.15,1.81-5.55a11.21,11.21,0,0,1,1-2.22,12.7,12.7,0,0,1-.64,2.33c-.44,1.42-1,3.39-1.66,5.58s-1.13,4.17-1.49,5.62A13.12,13.12,0,0,1,145.94,369.3Z" style="fill:#263238"/><path d="M163.7,352.12a16.46,16.46,0,0,1-2.51-.58c-1.54-.4-3.66-1-6-1.49s-4.51-.94-6.07-1.24a14.63,14.63,0,0,1-2.52-.55,11.58,11.58,0,0,1,2.57.21c1.58.21,3.76.57,6.13,1.1s4.49,1.14,6,1.63A11.17,11.17,0,0,1,163.7,352.12Z" style="fill:#263238"/><path d="M132.71,357.11a14,14,0,0,1,.38-2.78c.32-1.7.81-4,1.48-6.6s1.38-4.84,1.94-6.48a14,14,0,0,1,1-2.61,18.86,18.86,0,0,1-.69,2.71c-.47,1.67-1.12,4-1.79,6.51s-1.21,4.86-1.61,6.54A18.64,18.64,0,0,1,132.71,357.11Z" style="fill:#263238"/><path d="M155.52,337.14c0,.13-4.46-.23-9.94-.81a98.54,98.54,0,0,1-9.89-1.3c0-.13,4.47.23,9.94.81A98,98,0,0,1,155.52,337.14Z" style="fill:#263238"/><path d="M152.26,391.12c0,.14-15.65.25-34.95.25s-34.95-.11-34.95-.25,15.65-.25,35-.25S152.26,391,152.26,391.12Z" style="fill:#455b64"/><path d="M141.37,411.26c0,.14-10.54.25-23.54.25s-23.55-.11-23.55-.25,10.54-.25,23.55-.25S141.37,411.12,141.37,411.26Z" style="fill:#455b64"/><path d="M141,414.14c0,.14-10.36.25-23.13.25s-23.14-.11-23.14-.25,10.36-.25,23.14-.25S141,414,141,414.14Z" style="fill:#455b64"/><path d="M141.79,408.89c0,.13-10.91.24-24.36.24s-24.36-.11-24.36-.24,10.9-.25,24.36-.25S141.79,408.75,141.79,408.89Z" style="fill:#455b64"/><path d="M557.05,143.9s-7.6-1.22-12,2.31a18.3,18.3,0,0,0-6.95,12.8c-.55,4.85-4.06,23.62-4.06,23.62l-6.87-9.28L519.6,180S526,210.61,532,212.67s12.51-4.67,14-5.88S557.05,143.9,557.05,143.9Z" style="fill:#f3735e"/><path d="M554.48,143.7s-10,14.22-11.12,17.85-9.56,10.2-9.4,18.81a82,82,0,0,0,1,11.71,18.3,18.3,0,0,1-.13,6.64L531,217.47a11.45,11.45,0,0,0,8.57,4.95c6.11.66,21.66,4.33,32,0l7.43-3.63v-29l5.11-11.88,14.56-23.59s-7.44-5.14-14.37-7.37C577,144.58,565.21,144.38,554.48,143.7Z" style="fill:#f3735e"/><path d="M531.76,213.73a5.06,5.06,0,0,1,.09-.66c.09-.47.2-1.09.34-1.86.33-1.67.79-4,1.35-6.84.24-1.46.72-3,1-4.71.07-.42.13-.85.2-1.29l.12-1.35a26,26,0,0,0,.07-2.81,25.65,25.65,0,0,0-1-6,20.22,20.22,0,0,1-1.11-6.49,18.46,18.46,0,0,1,1.63-6.39,41.9,41.9,0,0,1,2.87-5.42c2.06-3.31,4.14-6.13,5.86-8.52l4.07-5.65,1.11-1.54a4.16,4.16,0,0,1,.41-.52,2.7,2.7,0,0,1-.33.57l-1,1.59c-.91,1.37-2.27,3.33-4,5.74s-3.73,5.25-5.76,8.56a40.48,40.48,0,0,0-2.81,5.37,17.89,17.89,0,0,0-1.59,6.23,20.32,20.32,0,0,0,1.09,6.36,25.13,25.13,0,0,1,1,6.05,22.42,22.42,0,0,1-.09,2.86c0,.46-.08.92-.13,1.37l-.21,1.31c-.26,1.72-.75,3.26-1,4.71-.61,2.83-1.12,5.15-1.48,6.8l-.43,1.85A3.1,3.1,0,0,1,531.76,213.73Z" style="fill:#263238"/><path d="M593.78,151.28s18.16,6.49,11.27,29.13c-5.49,18-16.77,39.52-23.9,40-3.7.22-7.74.08-10.26-1.9-10.2-8-16.41-29.6-16.41-29.6l9.76-10.9,11.83,17.53c1.33-.57,9.2-24.84,9.2-24.84S590.93,152,593.78,151.28Z" style="fill:#f3735e"/><path d="M585.16,172.67a2,2,0,0,1-.13.44l-.43,1.24c-.41,1.12-1,2.7-1.71,4.69l-6.18,16.67-.15.39-.23-.35-11.86-17.51.38,0-1.2,1.22-9,9.2.05-.24a114.85,114.85,0,0,0,4.72,13,60.35,60.35,0,0,0,5.26,9.54,51.11,51.11,0,0,0,4.43,5.62l1.34,1.38a4,4,0,0,1,.44.5,4,4,0,0,1-.5-.44L569,216.69a46,46,0,0,1-4.57-5.56,58.84,58.84,0,0,1-5.38-9.54,110.57,110.57,0,0,1-4.8-13l0-.14.1-.1,9-9.21,1.2-1.23.21-.22.17.26,11.81,17.54-.38.05,6.35-16.6c.77-2,1.38-3.54,1.81-4.66.21-.5.37-.91.5-1.22A2.32,2.32,0,0,1,585.16,172.67Z" style="fill:#263238"/><path d="M541,410.36l1.21,18.44s-18.34,7.43-18.45,10.86l35.84-1.06-.71-28.81Z" style="fill:#f3735e"/><path d="M553.25,426.92a1.47,1.47,0,0,1,1.06,1.64,1.4,1.4,0,0,1-1.61,1.07,1.55,1.55,0,0,1-1.12-1.74,1.45,1.45,0,0,1,1.81-.92" style="fill:#e0e0e0"/><path d="M559.67,439.87l-.08-3.31-34.46,1.24s-1.58.74-1.36,1.86Z" style="fill:#263238"/><path d="M541.63,428.64c0,.17.89.23,1.77.77s1.35,1.25,1.51,1.18-.13-1.08-1.2-1.71S541.59,428.48,541.63,428.64Z" style="fill:#263238"/><path d="M537.92,430.31c0,.17.73.44,1.34,1.16s.82,1.5,1,1.49.26-1-.53-1.89S537.91,430.14,537.92,430.31Z" style="fill:#263238"/><path d="M535.91,434.87c.16,0,.38-.85-.1-1.8s-1.3-1.3-1.37-1.15.45.64.83,1.43S535.74,434.86,535.91,434.87Z" style="fill:#263238"/><path d="M541.82,424.41c.08.15.87-.11,1.87-.07s1.77.32,1.85.17-.67-.75-1.84-.78S541.73,424.27,541.82,424.41Z" style="fill:#263238"/><path d="M574,410.72l1.05,18.45s-18.4,7.27-18.54,10.7l35.85-.76-.46-28.81Z" style="fill:#f3735e"/><path d="M586.13,427.39a1.45,1.45,0,0,1,1,1.64,1.42,1.42,0,0,1-1.63,1.06,1.56,1.56,0,0,1-1.1-1.76,1.46,1.46,0,0,1,1.82-.9" style="fill:#e0e0e0"/><path d="M592.43,439.87l0-2.8-34.47.95s-1.58.73-1.38,1.85Z" style="fill:#263238"/><path d="M574.49,429c0,.18.89.24,1.76.78s1.35,1.27,1.51,1.2-.12-1.08-1.19-1.72S574.45,428.84,574.49,429Z" style="fill:#263238"/><path d="M570.77,430.64c0,.17.72.45,1.34,1.18s.79,1.5,1,1.49.26-1-.51-1.89S570.77,430.47,570.77,430.64Z" style="fill:#263238"/><path d="M568.73,435.18c.16,0,.38-.85-.09-1.79s-1.29-1.32-1.37-1.17.45.65.82,1.43S568.55,435.17,568.73,435.18Z" style="fill:#263238"/><path d="M574.72,424.77c.08.16.88-.1,1.87,0s1.77.34,1.85.19-.66-.76-1.83-.8S574.63,424.63,574.72,424.77Z" style="fill:#263238"/><path d="M579.5,218.16s9.13,9.58,13.92,21.38,2.69,68.58,2.69,68.58l-1,29.77s1.44,25.6.33,43.84-2.34,38.46-2.34,38.46l-19.91.95L552.07,266.42l5.28,71.36c3.37,18.2,3,50.3,2.32,83.34l-21.09,0s-7.26-49.38-8.91-61.12c-1.88-13.25-7.39-49.72-7.39-49.72s-4.25-34.89-2.78-53.69,12.68-45.09,13-46.19l45,8.11" style="fill:#263238"/><path d="M581.8,213.16l5.28,14.05s39.25,54.76,38.11,59.32-22.53,22.25-28.81,19.4-22.53-14.55-28-26.24-20.82-44.49-20.82-44.49l-4.85-9.13,5.42-3.71Z" style="fill:#455b64"/><path d="M532.19,211.21h0c4.76,2.55,4.25,10.53,9,13.08-7.94,11.11-10.65,25.1-11.73,38.72s-.75,27.4-3.48,40.78l-9.85-.7a231.69,231.69,0,0,1,8.4-78.1A34.33,34.33,0,0,1,532.19,211.21Z" style="fill:#455b64"/><path d="M570.59,234.25a11.11,11.11,0,0,0,2.48-.57,52,52,0,0,0,5.78-2.1,52.67,52.67,0,0,0,5.5-2.75,11.11,11.11,0,0,0,2.12-1.41,15.67,15.67,0,0,0-2.29,1.11c-1.39.71-3.33,1.66-5.52,2.61s-4.22,1.69-5.69,2.21A15.54,15.54,0,0,0,570.59,234.25Z" style="fill:#263238"/><g style="opacity:0.2"><path d="M596.05,275.94l1,.07a23.19,23.19,0,0,1-25.8,4.73c-2.88-1.35-5.74-3.84-5.61-7A57.92,57.92,0,0,0,596.05,275.94Z"/></g><path d="M547,226.11c3.67-.68,10.71,1.24,13.29,3.94s4.12,6.2,5.4,9.71c2.75,7.6,4.71,16,10.68,21.46,5.62,5.13,13.61,6.5,21.13,7.66.2,2.77.17,6.08-2.11,7.67a7.42,7.42,0,0,1-2.27.94,37,37,0,0,1-6.83,1.21c-10.71.88-22-3.43-28.32-12.13-8-11-8.58-24.26-13.07-37.07" style="fill:#455b64"/><path d="M544.93,229.5a2.43,2.43,0,0,0,.11.4l.36,1.17c.33,1,.78,2.56,1.31,4.53s1.13,4.41,1.82,7.24,1.46,6,2.54,9.56a52.3,52.3,0,0,0,4.68,11,32.36,32.36,0,0,0,3.89,5.46,28.52,28.52,0,0,0,5.37,4.66,33.5,33.5,0,0,0,14.25,5.2,35.65,35.65,0,0,0,8.07.08,38.11,38.11,0,0,0,4.08-.67c.68-.15,1.35-.33,2-.52a7.41,7.41,0,0,0,2-.82,4.79,4.79,0,0,0,1.53-1.67,7,7,0,0,0,.71-2.1,17.06,17.06,0,0,0,.1-4.21v-.19l-.19,0c-5-.78-10-1.61-14.33-3.45a23.06,23.06,0,0,1-6-3.51,22,22,0,0,1-4.37-5,50.58,50.58,0,0,1-5-11.17,98,98,0,0,0-3.75-10,24.18,24.18,0,0,0-2.39-4,17.31,17.31,0,0,0-1.4-1.63,8.39,8.39,0,0,0-1.61-1.23,20,20,0,0,0-6.17-2.33,17.32,17.32,0,0,0-4.13-.42,6.66,6.66,0,0,0-1.43.18s.49-.08,1.43-.09a18.55,18.55,0,0,1,4.09.5,20.61,20.61,0,0,1,6.08,2.37,8.71,8.71,0,0,1,1.54,1.21,16.72,16.72,0,0,1,1.36,1.61,23.43,23.43,0,0,1,2.33,4,97.07,97.07,0,0,1,3.68,10,51.16,51.16,0,0,0,5,11.28A22.39,22.39,0,0,0,577,262a23.3,23.3,0,0,0,6.06,3.6c4.45,1.88,9.4,2.72,14.43,3.5l-.2-.23a17,17,0,0,1-.1,4.09,5,5,0,0,1-2,3.45,13.72,13.72,0,0,1-3.85,1.27,37.62,37.62,0,0,1-4,.67,35.26,35.26,0,0,1-8-.07,33,33,0,0,1-14.06-5.11,28.34,28.34,0,0,1-5.31-4.57,32,32,0,0,1-3.85-5.38,52.06,52.06,0,0,1-4.7-10.94c-1.1-3.49-1.89-6.71-2.61-9.53s-1.33-5.25-1.9-7.22-1-3.49-1.4-4.51c-.17-.49-.31-.87-.41-1.15A2,2,0,0,0,544.93,229.5Z" style="fill:#263238"/><path d="M589.15,278.19a14.63,14.63,0,0,1-.68-5.42,14.92,14.92,0,0,1,1.78-5.17,3.84,3.84,0,0,0-1,1.3,9.71,9.71,0,0,0-.81,7.81A3.69,3.69,0,0,0,589.15,278.19Z" style="fill:#263238"/><path d="M588.88,271.36a18.56,18.56,0,0,0,4.19.52,17.89,17.89,0,0,0,4.23,0,18.56,18.56,0,0,0-4.19-.52A17.89,17.89,0,0,0,588.88,271.36Z" style="fill:#263238"/><path d="M588.09,274.42a20.31,20.31,0,0,0,4.36.33,19.49,19.49,0,0,0,4.37-.15,20.21,20.21,0,0,0-4.36-.33A19.49,19.49,0,0,0,588.09,274.42Z" style="fill:#263238"/><path d="M538,228.49c-6.57,5.93-9,15.34-8.79,24.19S532,270.12,534,278.75s3.36,17.69,1.24,26.28l8.43,1.21a35.39,35.39,0,0,0,9.33-27.6c-.86-8.25-4.61-15.87-7.3-23.72s-4.28-16.71-.89-24.28" style="fill:#455b64"/><path d="M544.82,230.64a1.87,1.87,0,0,0-.17.37c-.12.27-.27.63-.47,1.1a24,24,0,0,0-1.13,4.48,29.67,29.67,0,0,0-.07,7.31,48.56,48.56,0,0,0,2.06,9.49c1.08,3.45,2.54,7.11,4,11.09a62,62,0,0,1,3.59,13,34.73,34.73,0,0,1-1.2,14.77,35.15,35.15,0,0,1-7.94,13.82l.21-.07-4.14-.6-4.29-.61.21.3a44.87,44.87,0,0,0,.62-16.16,127.6,127.6,0,0,0-3-14.74c-1.13-4.63-2.21-9-2.9-13.2a56.66,56.66,0,0,1-.82-11.67,33,33,0,0,1,4.68-16,24.83,24.83,0,0,1,2.79-3.63l.83-.85c.19-.19.28-.3.28-.3a1.76,1.76,0,0,0-.31.26l-.87.82a22.6,22.6,0,0,0-2.87,3.6,32.73,32.73,0,0,0-4.87,16.13,57.14,57.14,0,0,0,.77,11.75c.67,4.19,1.74,8.61,2.86,13.25A128.36,128.36,0,0,1,535.64,289a44.36,44.36,0,0,1-.63,16l-.06.26.26,0,4.29.62,4.14.59.13,0,.08-.09a35.48,35.48,0,0,0,8-14,35,35,0,0,0,1.19-15,62.93,62.93,0,0,0-3.65-13.08c-1.49-4-3-7.63-4.07-11a50,50,0,0,1-2.12-9.41,29.74,29.74,0,0,1,0-7.27,24.49,24.49,0,0,1,1-4.46l.42-1.12Z" style="fill:#263238"/><path d="M536.63,298.25a39.17,39.17,0,0,1,5.88.1,40.26,40.26,0,0,1,5.7,1.45,4.84,4.84,0,0,0-1.54-.84,16.55,16.55,0,0,0-4.1-1.09,16.14,16.14,0,0,0-4.23,0A4.72,4.72,0,0,0,536.63,298.25Z" style="fill:#263238"/><path d="M541.53,306a15.83,15.83,0,0,0,2-3.34,15.53,15.53,0,0,0,1.54-3.56,30.62,30.62,0,0,0-3.52,6.9Z" style="fill:#263238"/><path d="M537.13,305.39a16.88,16.88,0,0,0,1.81-3.58,15.8,15.8,0,0,0,1.37-3.79,17.45,17.45,0,0,0-1.81,3.59A16.53,16.53,0,0,0,537.13,305.39Z" style="fill:#263238"/><path d="M549.22,225.73c.06,0,.19-.18.26-.56a2.73,2.73,0,0,0-1.13-2.64c-.33-.21-.57-.24-.6-.19s.69.59,1.09,1.54S549.08,225.7,549.22,225.73Z" style="fill:#263238"/><path d="M538.26,223.68c1.14-1.79,3.84-2.39,5.94-2.64a5.16,5.16,0,0,1,5.32,4.55,5.71,5.71,0,0,1-4.14,5.82,6.41,6.41,0,0,1-6.77-2.66A4.79,4.79,0,0,1,538.26,223.68Z" style="fill:#455b64"/><path d="M543,222a3.08,3.08,0,0,0-1.12,1.33,5.63,5.63,0,0,0,2,7.51,3,3,0,0,0,1.64.58c0-.08-.61-.26-1.45-.87a5.7,5.7,0,0,1-1.89-7.07C542.59,222.57,543.05,222.09,543,222Z" style="fill:#263238"/><path d="M538.79,223s-.36.26-.67.88a4.91,4.91,0,0,0-.44,2.66,5,5,0,0,0,1,2.51c.44.54.82.76.85.72s-.23-.36-.56-.92a5.89,5.89,0,0,1-.79-2.36,5.79,5.79,0,0,1,.28-2.48C538.64,223.41,538.86,223.05,538.79,223Z" style="fill:#263238"/><g style="opacity:0.2"><path d="M538.15,228.48a8.67,8.67,0,0,0,6.4,2.91,4.38,4.38,0,0,1-3.31,2.29,3.39,3.39,0,0,1-3.09-5.2Z"/></g><g style="opacity:0.2"><path d="M568.14,236.73a7.61,7.61,0,0,1,3.52-2c4.88-1.76,10.14-4.78,15-6.54-4.45,4-9.27,8.61-14.38,11.67-1.23.73-2.85,1.43-4,.6S567.27,237.8,568.14,236.73Z"/></g><g style="opacity:0.2"><path d="M527.7,245.51c.76-5.86,3.47-11.65,8.2-15.19-2.54,4.63-5.12,9.34-6.25,14.5-1.25,5.67-.33,9.3.23,15.07l-.55,2.85A42.83,42.83,0,0,1,527.7,245.51Z"/></g><path d="M570.77,240.79a2.92,2.92,0,0,0,.76-.37c.47-.27,1.14-.68,2-1.21a59.29,59.29,0,0,0,6-4.57,58.29,58.29,0,0,0,5.39-5.3c.65-.72,1.15-1.32,1.48-1.75a3.43,3.43,0,0,0,.48-.69,25.91,25.91,0,0,0-2.21,2.21c-1.34,1.38-3.24,3.24-5.46,5.16s-4.35,3.53-5.91,4.66A27.58,27.58,0,0,0,570.77,240.79Z" style="fill:#263238"/><path d="M546.66,99c-1.42-2.54-.54-5.93,1.56-7.94a11.18,11.18,0,0,1,8-2.69,33.23,33.23,0,0,1,8.5,1.75A9.26,9.26,0,0,1,581,93.16a5.89,5.89,0,0,1,7.91,6.77l-12.29,6.19-10.84,26.55a11.34,11.34,0,0,1-18.49-12.81,9.49,9.49,0,0,1-2.29-2.18,9.93,9.93,0,0,1-5.34-5.5C537.73,106.9,541.21,100.33,546.66,99Z" style="fill:#263238"/><path d="M562,146.88a41.42,41.42,0,0,1,.39-4.4s-8-2-8.82-12.63c-.43-5.31.51-13.88,1.5-20.87.89-6.29,5.68-13.72,11.93-12.56l19.28,6.5c1.9.35,2.44,2,2.25,3.94l.09.92-3.27,30.1-1,9c-.6,5.72-5.74,11.55-11.49,11.46h0A10.75,10.75,0,0,1,562,146.88Z" style="fill:#af7462"/><path d="M557,118.61a1.36,1.36,0,0,0,1.2,1.47,1.3,1.3,0,0,0,1.48-1.11,1.36,1.36,0,0,0-1.19-1.47A1.3,1.3,0,0,0,557,118.61Z" style="fill:#263238"/><path d="M556.79,114.66c.15.19,1.23-.48,2.69-.37s2.46.93,2.63.76-.06-.4-.5-.77a3.63,3.63,0,0,0-2.09-.83,3.58,3.58,0,0,0-2.16.51C556.89,114.27,556.71,114.58,556.79,114.66Z" style="fill:#263238"/><path d="M569.56,119.34a1.37,1.37,0,0,0,1.2,1.47,1.3,1.3,0,0,0,1.48-1.11,1.35,1.35,0,0,0-1.19-1.47A1.3,1.3,0,0,0,569.56,119.34Z" style="fill:#263238"/><path d="M570.69,115.47c.16.19,1.24-.49,2.7-.37s2.46.92,2.63.76-.06-.41-.5-.78a3.77,3.77,0,0,0-2.09-.83,3.58,3.58,0,0,0-2.16.52C570.8,115.08,570.62,115.38,570.69,115.47Z" style="fill:#263238"/><path d="M564.69,125.35a10.42,10.42,0,0,0-2.33-.61c-.37-.06-.72-.16-.76-.42a1.86,1.86,0,0,1,.33-1.08l1.32-2.75c1.84-3.9,3.2-7.13,3-7.2s-1.78,3-3.62,6.94c-.44,1-.87,1.89-1.27,2.76a2.13,2.13,0,0,0-.31,1.45,1,1,0,0,0,.57.59,2.29,2.29,0,0,0,.62.13A8.8,8.8,0,0,0,564.69,125.35Z" style="fill:#263238"/><path d="M562.34,142.48a26.93,26.93,0,0,0,14.41-2.66s-4.14,7.16-14.61,5.35Z" style="fill:#6f453a"/><path d="M571,111.52c.15.4,1.6.2,3.31.39s3.11.65,3.33.29c.1-.17-.14-.54-.7-.92a5.52,5.52,0,0,0-2.47-.84,5.46,5.46,0,0,0-2.59.32C571.24,111,570.93,111.33,571,111.52Z" style="fill:#263238"/><path d="M557.07,110.42c.28.35,1.49.1,2.92.2s2.61.42,2.92.1c.13-.16,0-.51-.54-.86a4.58,4.58,0,0,0-2.32-.72,4.47,4.47,0,0,0-2.38.48C557.14,109.92,557,110.25,557.07,110.42Z" style="fill:#263238"/><path d="M580.88,96.68a7.23,7.23,0,0,1-9,6.48c-1.59-.42-3.29-1.37-4.75-.62s-1.77,3-3.15,4c-2,1.47-4.82-.26-7.23.26-1.86.4-3.13,2-4.46,3.43s-3.23,2.63-5,1.95a21.24,21.24,0,0,1,1.09-4.81,7.14,7.14,0,0,1,3.06-3.75c.79-.43,1.68-.67,2.43-1.18,1.6-1.1,2.11-3.2,3.18-4.83a7.9,7.9,0,0,1,6.32-3.54c2.09-.06,4.18.73,6.24.37,1.52-.26,2.9-1.14,4.43-1.31,3-.34,5.57,2,7.55,4.25" style="fill:#263238"/><path d="M571.13,100.16c1.35-.28,4.12-.93,4.92-2a8.1,8.1,0,0,1,7.33-3.51,6.7,6.7,0,0,1,5.6,5.73,9.62,9.62,0,0,1,7.84,5.92,11.14,11.14,0,0,1-1.09,10.31,21.23,21.23,0,0,0-1.26,2.47,16.14,16.14,0,0,1,2,2.35c2.8,4.53-2.86,7.14-2.86,7.14.4,3.24-2.59,3.62-4.5,3.86s-2.32,5.48-3.83,5.47l-.53-16a2.17,2.17,0,0,1-.69.21c-3.6.54-3.54-6.41-2.6-8.33a20.71,20.71,0,0,1-3.27-4,14.89,14.89,0,0,1-1.09-7.28C575.84,102.49,570.54,100.28,571.13,100.16Z" style="fill:#263238"/><path d="M584.34,122.82a3.08,3.08,0,0,1,4.69-2.27c1,.69,1.74,2,1.47,4.37-.75,6.33-7,4.28-6.94,4.09S584,125.44,584.34,122.82Z" style="fill:#af7462"/><path d="M585.78,126.84s.1.09.28.2a1.09,1.09,0,0,0,.82.12,2.77,2.77,0,0,0,1.55-2.3,3.75,3.75,0,0,0-.13-1.62,1.27,1.27,0,0,0-.73-.94.55.55,0,0,0-.68.22c-.11.17-.08.3-.12.31s-.12-.12,0-.38a.72.72,0,0,1,.3-.37.85.85,0,0,1,.62-.09,1.55,1.55,0,0,1,1,1.12,3.85,3.85,0,0,1,.18,1.81,2.88,2.88,0,0,1-1.93,2.54,1.17,1.17,0,0,1-1-.28C585.77,127,585.76,126.85,585.78,126.84Z" style="fill:#6f453a"/><path d="M550.35,118.53c0-.06-.61-.36-1.52-1.22a9,9,0,0,1-2.53-4.51,8.82,8.82,0,0,1-.12-3.57,7.69,7.69,0,0,1,1.74-3.67,9,9,0,0,1,8.53-2.84c.3.06.58.17.87.24s.54.23.8.33l.41.16,0-.42a3.11,3.11,0,0,1,.51-2.1,4.92,4.92,0,0,1,1.6-1.48,6.55,6.55,0,0,1,4-.83c2.7.25,5.09,1.17,7.22,1.14a6.8,6.8,0,0,0,4.63-1.58,3.73,3.73,0,0,0,.81-1.07,1.55,1.55,0,0,0,.15-.44,5.29,5.29,0,0,1-1.09,1.38,6.78,6.78,0,0,1-4.5,1.36,16.23,16.23,0,0,1-3.31-.5,29.09,29.09,0,0,0-3.88-.74,8.44,8.44,0,0,0-2.18.06,6.92,6.92,0,0,0-2.15.8,5.46,5.46,0,0,0-1.76,1.63,3.59,3.59,0,0,0-.59,2.44l.35-.26c-.28-.11-.56-.24-.86-.35s-.6-.2-.92-.26a9.43,9.43,0,0,0-9,3,8.12,8.12,0,0,0-1.8,3.9,9.12,9.12,0,0,0,.19,3.72,9,9,0,0,0,2.74,4.58,7.07,7.07,0,0,0,1.19.85A2.87,2.87,0,0,0,550.35,118.53Z" style="fill:#455b64"/><path d="M548.8,96.84a6.48,6.48,0,0,1,1.89-.93,5.23,5.23,0,0,1,2.37-.1,4.7,4.7,0,0,1,2.64,1.45l.27.3.1-.4a7.2,7.2,0,0,1,5.25-5.06,9.24,9.24,0,0,1,5.79.89,25.13,25.13,0,0,0,4.72,1.71,7,7,0,0,0,3.4,0,3.94,3.94,0,0,0,.86-.36c.18-.11.27-.17.26-.19s-.4.18-1.17.36a7.39,7.39,0,0,1-3.27-.11,27.08,27.08,0,0,1-4.62-1.8,15.52,15.52,0,0,0-2.84-1,7.43,7.43,0,0,0-3.25,0,7.57,7.57,0,0,0-5.55,5.45L556,97a4.9,4.9,0,0,0-2.9-1.5,5.14,5.14,0,0,0-2.51.2,4.64,4.64,0,0,0-1.42.76A1.6,1.6,0,0,0,548.8,96.84Z" style="fill:#455b64"/><path d="M565.6,128.43a2.09,2.09,0,0,1,1.61-.71,2.49,2.49,0,0,1,1.76,1l0,0,.06.07h0a1.2,1.2,0,0,1,.28.69,1.77,1.77,0,0,1-.83,1.42,2.19,2.19,0,0,1-2.54,0A1.8,1.8,0,0,1,565.6,128.43Z" style="fill:#6f453a"/><path d="M569.36,127.24c-.08,0-.21.31-.52.75a3.67,3.67,0,0,1-1.6,1.27,3.62,3.62,0,0,1-2,.13c-.53-.11-.84-.27-.89-.2s.21.35.77.59a3.32,3.32,0,0,0,2.36,0,3.26,3.26,0,0,0,1.73-1.6C569.44,127.64,569.43,127.25,569.36,127.24Z" style="fill:#263238"/><path d="M593.74,109.76a1.74,1.74,0,0,0,.28-.21,7.73,7.73,0,0,0,.71-.71,7.34,7.34,0,0,0,1.71-3.25,5.81,5.81,0,0,0,0-2.56,5.3,5.3,0,0,0-1.42-2.59,4.25,4.25,0,0,0-3-1.21,3.89,3.89,0,0,0-3.14,1.49l.29.15,0-.07a8.73,8.73,0,0,0-.18-6.64,5.77,5.77,0,0,0-4.27-3.26,4.7,4.7,0,0,0-3.52,1,3.83,3.83,0,0,0-.68.75,1.19,1.19,0,0,0-.17.31,6,6,0,0,1,.93-1,4.69,4.69,0,0,1,3.41-.86,5.54,5.54,0,0,1,4,3.16,8.51,8.51,0,0,1,.13,6.39l0,.07-.32,1,.62-.83A3.56,3.56,0,0,1,592,99.56a3.85,3.85,0,0,1,2.79,1.1,5,5,0,0,1,1.37,2.43,5.65,5.65,0,0,1,0,2.45,7.52,7.52,0,0,1-1.58,3.22C594.09,109.43,593.72,109.73,593.74,109.76Z" style="fill:#263238"/><path d="M502.9,168l6.15,23.2a2.87,2.87,0,0,0,2.84,2.15l31.82-.62a2.88,2.88,0,0,0,2.76-3.48L541.79,167a2.88,2.88,0,0,0-2.83-2.29H505.42A2.6,2.6,0,0,0,502.9,168Z" style="fill:#263238"/><path d="M500.23,173.19a2.34,2.34,0,0,1,0-2.88,3.55,3.55,0,0,1,2.73-1.29,7.81,7.81,0,0,1,3,.63,19.39,19.39,0,0,1,3.44,1.72,3.28,3.28,0,0,1,1.72,2c.15.9-.82,1.92-1.61,1.47a3.78,3.78,0,0,1,2.22,2.65c.16,1.13-.44,1.74-1.54,2.07a1.7,1.7,0,0,1,1,2.18,2,2,0,0,1-2.46.75,5.7,5.7,0,0,1-2.14-1.8,5.21,5.21,0,0,1,.61,3.6,7,7,0,0,1-4.6-5.65,3.26,3.26,0,0,1-.88-4,3.36,3.36,0,0,1-2-2.81" style="fill:#af7462"/><path d="M510.19,179.57a10.5,10.5,0,0,1-1.05-.8,7.07,7.07,0,0,0-2.76-1.42,4,4,0,0,0-1.68,0,3.18,3.18,0,0,0-1.22.62,3.77,3.77,0,0,0-.8,1,.8.8,0,0,1,.09-.35,2.33,2.33,0,0,1,.58-.79,3.12,3.12,0,0,1,1.29-.71,3.89,3.89,0,0,1,1.8,0,6.51,6.51,0,0,1,2.82,1.53A4.66,4.66,0,0,1,510.19,179.57Z" style="fill:#6f453a"/><path d="M509.92,175a6.21,6.21,0,0,1-1.27-.53,12.86,12.86,0,0,0-1.35-.59,11.44,11.44,0,0,0-1.75-.45,4.75,4.75,0,0,0-1.76,0,3,3,0,0,0-1.31.57,3.27,3.27,0,0,0-.86,1,.75.75,0,0,1,.1-.36,2.33,2.33,0,0,1,.64-.81,3.18,3.18,0,0,1,1.38-.66,4.83,4.83,0,0,1,1.86,0,10.69,10.69,0,0,1,1.78.49,11.67,11.67,0,0,1,1.36.65A9.4,9.4,0,0,1,509.92,175Z" style="fill:#6f453a"/><path d="M523.82,175.9l.18,0a1.56,1.56,0,1,1-1.38,1.84A1.62,1.62,0,0,1,523.82,175.9Z" style="fill:#fff"/><path d="M554.74,167.92s-3.38-6.58-4.38-6.2-2.3.41-1.66,2.9,2.29,4.2,2.2,6.16-1.63,6.33.07,8.38,4.57,8.18,4.57,8.18l7.48-7.61-1.67-2.45s2.8-3.89,3.35-6.15a13.88,13.88,0,0,0-.28-5.45,5.49,5.49,0,0,0-.81-3.33,23.5,23.5,0,0,0,.14-3c0-1.53-4-7.81-4-7.81a2.28,2.28,0,0,0-1.34,2.87,29.63,29.63,0,0,0,1.55,3.88l-4.59-1.75a2.56,2.56,0,0,0,1.24,3.54c2.43,1.32,2.81,2.43,2.81,2.43l-3.49.26s-.32,1.94,1.08,2.34l1.4.39Z" style="fill:#af7462"/><path d="M556.77,165l3.15.68H560l0,0a5.47,5.47,0,0,1,.62,2.8,5.18,5.18,0,0,1-1.45,3.11,12.48,12.48,0,0,1-3.13,2,7.59,7.59,0,0,0-2.39,1.72,3.72,3.72,0,0,0-.88,1.75c-.08.47,0,.73-.06.74a.67.67,0,0,1,0-.19,2.45,2.45,0,0,1,0-.56,3.62,3.62,0,0,1,.84-1.87,7.87,7.87,0,0,1,2.42-1.82,12.28,12.28,0,0,0,3.05-2,5,5,0,0,0,1.39-2.93,5.58,5.58,0,0,0-.54-2.7l.07.06A17.68,17.68,0,0,1,556.77,165Z" style="fill:#6f453a"/><path d="M563.67,165.41a7.69,7.69,0,0,1-.32-.74,3.14,3.14,0,0,0-1.29-1.34,6.45,6.45,0,0,0-1.8-.64,3.3,3.3,0,0,1-.8-.19,1.86,1.86,0,0,1,.83,0,5,5,0,0,1,1.91.59,3.4,3.4,0,0,1,.86.71,2.92,2.92,0,0,1,.47.79A1.48,1.48,0,0,1,563.67,165.41Z" style="fill:#6f453a"/><path d="M563.27,161.53c-.07,0-.6-.84-1.49-1.71s-1.77-1.39-1.73-1.46a4.72,4.72,0,0,1,1.93,1.26A4.55,4.55,0,0,1,563.27,161.53Z" style="fill:#6f453a"/></svg>