<?xml version="1.0" encoding="utf-8"?>
<!-- Generator: Adobe Illustrator 25.0.0, SVG Export Plug-In . SVG Version: 6.00 Build 0)  -->
<svg version="1.1" id="Layer_1" xmlns="http://www.w3.org/2000/svg" xmlns:xlink="http://www.w3.org/1999/xlink" x="0px" y="0px"
	 viewBox="0 0 51 51" style="enable-background:new 0 0 51 51;" xml:space="preserve">
<style type="text/css">
	.st0{fill:url(#SVGID_1_);}
	.st1{fill:url(#SVGID_2_);}
	.st2{fill:url(#SVGID_3_);}
	.st3{fill:url(#SVGID_4_);}
	.st4{fill:url(#SVGID_5_);}
	.st5{fill:url(#SVGID_6_);}
	.st6{fill:url(#SVGID_7_);}
	.st7{fill:url(#SVGID_8_);}
	.st8{fill:url(#SVGID_9_);}
	.st9{fill:url(#SVGID_10_);}
	.st10{fill:url(#SVGID_11_);}
	.st11{fill:url(#SVGID_12_);}
	.st12{fill:url(#SVGID_13_);}
	.st13{fill:url(#SVGID_14_);}
	.st14{fill:url(#SVGID_15_);}
</style>
<g>
	<linearGradient id="SVGID_1_" gradientUnits="userSpaceOnUse" x1="25.5" y1="20.5206" x2="25.5089" y2="20.5206">
		<stop  offset="0" style="stop-color:#039447"/>
		<stop  offset="0.4677" style="stop-color:#6ABA45"/>
		<stop  offset="1" style="stop-color:#7FBC42"/>
	</linearGradient>
	<polygon class="st0" points="25.51,20.52 25.5,20.52 25.5,20.52 	"/>
	<linearGradient id="SVGID_2_" gradientUnits="userSpaceOnUse" x1="25.4911" y1="20.5206" x2="25.5" y2="20.5206">
		<stop  offset="0" style="stop-color:#039447"/>
		<stop  offset="0.4677" style="stop-color:#6ABA45"/>
		<stop  offset="1" style="stop-color:#7FBC42"/>
	</linearGradient>
	<polygon class="st1" points="25.5,20.52 25.5,20.52 25.49,20.52 	"/>
	<linearGradient id="SVGID_3_" gradientUnits="userSpaceOnUse" x1="25.5" y1="30.3822" x2="25.5082" y2="30.3822">
		<stop  offset="0" style="stop-color:#039447"/>
		<stop  offset="0.4677" style="stop-color:#6ABA45"/>
		<stop  offset="1" style="stop-color:#7FBC42"/>
	</linearGradient>
	<polygon class="st2" points="25.5,30.38 25.51,30.38 25.5,30.38 	"/>
	<linearGradient id="SVGID_4_" gradientUnits="userSpaceOnUse" x1="25.4916" y1="30.3823" x2="25.5" y2="30.3823">
		<stop  offset="0" style="stop-color:#039447"/>
		<stop  offset="0.4677" style="stop-color:#6ABA45"/>
		<stop  offset="1" style="stop-color:#7FBC42"/>
	</linearGradient>
	<polygon class="st3" points="25.49,30.38 25.5,30.38 25.5,30.38 	"/>
	<linearGradient id="SVGID_5_" gradientUnits="userSpaceOnUse" x1="33.7996" y1="32.3408" x2="6.1418" y2="17.977">
		<stop  offset="0" style="stop-color:#AC92C4"/>
		<stop  offset="1" style="stop-color:#8BD6EF"/>
	</linearGradient>
	<path class="st4" d="M25.5,20.52C25.5,20.52,25.49,20.52,25.5,20.52c-0.04,0.02-0.07,0.03-0.1,0.04c-1.7,0.71-3.43,1.36-5.17,1.98
		c-2.21,0.79-4.48,1.53-6.78,2.08c-0.15,0.04-0.29,0.07-0.44,0.1c-1.49,0.35-3.01,0.64-4.55,0.69c-1.46,0.04-2.99-0.15-4.26-0.94
		c-0.81-0.51-1.5-1.27-1.88-2.15c-0.14-0.33-0.22-0.68-0.25-1.03c-0.04-0.46,0.02-0.92,0.14-1.37c0.06-0.23,0.14-0.45,0.23-0.66
		c1.91-4.42,7.32-3.46,11.09-2.62c2.28,0.51,4.55,1.22,6.74,1.97c1.73,0.59,3.45,1.21,5.15,1.89C25.46,20.5,25.48,20.51,25.5,20.52z
		"/>
	<linearGradient id="SVGID_6_" gradientUnits="userSpaceOnUse" x1="31.5196" y1="19.2451" x2="9.5156" y2="31.6223">
		<stop  offset="0" style="stop-color:#93C6EB"/>
		<stop  offset="1" style="stop-color:#94D5D6"/>
	</linearGradient>
	<path class="st5" d="M25.5,30.38C25.5,30.38,25.49,30.38,25.5,30.38c-0.04,0.02-0.07,0.03-0.1,0.04c-1.7,0.71-3.43,1.36-5.17,1.98
		c-2.21,0.79-4.48,1.53-6.78,2.08c-0.15,0.04-0.29,0.07-0.44,0.1c-1.49,0.35-3.01,0.64-4.55,0.69c-1.46,0.04-2.99-0.15-4.26-0.94
		c-0.81-0.51-1.5-1.27-1.88-2.16c-0.08-0.3-0.16-0.59-0.24-0.89c-0.01-0.05-0.01-0.1-0.02-0.15c-0.06-0.69,0.09-1.39,0.37-2.03
		c1.91-4.42,7.32-3.46,11.09-2.62c2.28,0.51,4.55,1.22,6.74,1.97c1.73,0.59,3.45,1.21,5.15,1.89C25.46,30.36,25.48,30.37,25.5,30.38
		z"/>
	<linearGradient id="SVGID_7_" gradientUnits="userSpaceOnUse" x1="49.7785" y1="27.4832" x2="0.2695" y2="23.663">
		<stop  offset="0.0108" style="stop-color:#7187C3"/>
		<stop  offset="0.5108" style="stop-color:#2BAAE2"/>
		<stop  offset="1" style="stop-color:#4EC3C7"/>
	</linearGradient>
	<path class="st6" d="M48.92,31.15c0.06-0.69-0.09-1.39-0.37-2.03c-1.91-4.42-7.32-3.46-11.09-2.62c-2.28,0.51-4.55,1.22-6.74,1.97
		c-1.73,0.59-3.45,1.21-5.15,1.89c-0.02,0.01-0.04,0.02-0.07,0.03c-0.02-0.01-0.04-0.02-0.07-0.03c-1.7-0.68-3.42-1.3-5.15-1.89
		c-2.2-0.75-4.46-1.46-6.74-1.97c-3.77-0.84-9.18-1.8-11.09,2.62c-0.28,0.64-0.42,1.34-0.37,2.03c0,0.05,0.01,0.1,0.02,0.15
		c-1.67-6.75,0.12-11.38,0.12-11.38h0c-0.12,0.45-0.17,0.91-0.14,1.37c0.03,0.35,0.11,0.7,0.25,1.03c0.38,0.89,1.07,1.64,1.88,2.15
		c1.26,0.79,2.8,0.98,4.26,0.94c1.54-0.05,3.06-0.34,4.55-0.69c0.15-0.03,0.29-0.07,0.44-0.1c2.3-0.55,4.57-1.29,6.78-2.08
		c1.74-0.62,3.46-1.27,5.17-1.98l0.01,0l0.08-0.04l0.01,0c0.03,0.01,0.06,0.02,0.09,0.04c1.7,0.71,3.43,1.36,5.17,1.98
		c2.21,0.79,4.48,1.53,6.78,2.08c0.15,0.04,0.29,0.07,0.44,0.1c1.49,0.35,3.01,0.64,4.55,0.69c1.46,0.04,2.99-0.15,4.26-0.94
		c0.81-0.51,1.5-1.27,1.88-2.15c0.14-0.33,0.22-0.68,0.25-1.03c0.04-0.46-0.02-0.92-0.14-1.37h0c0,0,1.79,4.62,0.12,11.38
		C48.91,31.24,48.91,31.19,48.92,31.15z"/>
	<linearGradient id="SVGID_8_" gradientUnits="userSpaceOnUse" x1="43.8813" y1="18.0742" x2="28.9063" y2="26.6313">
		<stop  offset="0" style="stop-color:#93C6EB"/>
		<stop  offset="1" style="stop-color:#94D5D6"/>
	</linearGradient>
	<path class="st7" d="M48.92,21.28c-0.03,0.35-0.11,0.7-0.25,1.03c-0.38,0.89-1.07,1.64-1.88,2.15c-1.26,0.79-2.8,0.98-4.26,0.94
		c-1.54-0.05-3.06-0.34-4.55-0.69c-0.15-0.03-0.29-0.07-0.44-0.1c-2.3-0.55-4.57-1.29-6.78-2.08c-1.74-0.62-3.46-1.27-5.17-1.98
		c-0.03-0.01-0.06-0.02-0.09-0.04c0,0-0.01,0-0.01,0c0.02-0.01,0.04-0.02,0.07-0.03c1.7-0.68,3.42-1.3,5.15-1.89
		c2.2-0.75,4.46-1.46,6.74-1.97c3.77-0.84,9.18-1.8,11.09,2.62c0.09,0.22,0.17,0.44,0.23,0.66C48.9,20.36,48.95,20.83,48.92,21.28z"
		/>
	<linearGradient id="SVGID_9_" gradientUnits="userSpaceOnUse" x1="45.1938" y1="33.2179" x2="21.8145" y2="21.2991">
		<stop  offset="0" style="stop-color:#AC92C4"/>
		<stop  offset="1" style="stop-color:#8BD6EF"/>
	</linearGradient>
	<path class="st8" d="M48.92,31.15c0,0.05-0.01,0.1-0.02,0.15c-0.07,0.29-0.15,0.59-0.24,0.89c-0.38,0.89-1.07,1.65-1.88,2.16
		c-1.26,0.79-2.8,0.98-4.26,0.94c-1.54-0.04-3.06-0.34-4.55-0.69c-0.15-0.03-0.29-0.07-0.44-0.1c-2.3-0.55-4.57-1.29-6.78-2.08
		c-1.74-0.62-3.46-1.27-5.17-1.98c-0.03-0.01-0.06-0.02-0.09-0.04c0,0-0.01,0-0.01,0c0.02-0.01,0.04-0.02,0.07-0.03
		c1.7-0.68,3.42-1.3,5.15-1.89c2.2-0.75,4.46-1.46,6.74-1.97c3.77-0.84,9.18-1.8,11.09,2.62C48.83,29.76,48.97,30.46,48.92,31.15z"
		/>
	<linearGradient id="SVGID_10_" gradientUnits="userSpaceOnUse" x1="13.4429" y1="11.072" x2="25.3617" y2="2.5149">
		<stop  offset="0" style="stop-color:#93C6EB"/>
		<stop  offset="1" style="stop-color:#94D5D6"/>
	</linearGradient>
	<path class="st9" d="M8.34,8.83C8.25,8.89,8.18,8.95,8.1,9.02c-0.24,0.23-0.44,0.5-0.57,0.81c-0.46,1.07,0.14,2.16,1.04,2.77
		c1.01,0.69,2.27,0.73,3.43,0.58c0.99-0.12,2.3-0.4,4.02-0.93c2.33-0.73,5.42-1.94,9.48-3.92C25.5,8.34,15.62,3.23,8.34,8.83z"/>
	<linearGradient id="SVGID_11_" gradientUnits="userSpaceOnUse" x1="10.9401" y1="7.9085" x2="39.3619" y2="4.5468">
		<stop  offset="0" style="stop-color:#60ABDE"/>
		<stop  offset="1" style="stop-color:#4EC3C7"/>
	</linearGradient>
	<path class="st10" d="M25.5,1.48C25.31,1.47,15.3,1.01,8.1,9.02c0.07-0.07,0.15-0.14,0.23-0.2c7.16-5.5,16.83-0.66,17.16-0.49v0
		c0,0,0,0,0,0c0,0,0,0,0,0v0c0.32-0.17,10-5,17.16,0.49c0.08,0.06,0.16,0.13,0.23,0.2C35.69,1.01,25.68,1.47,25.5,1.48z"/>
	<linearGradient id="SVGID_12_" gradientUnits="userSpaceOnUse" x1="23.3484" y1="7.4026" x2="41.9906" y2="10.4587">
		<stop  offset="0" style="stop-color:#93C6EB"/>
		<stop  offset="1" style="stop-color:#94D5D6"/>
	</linearGradient>
	<path class="st11" d="M42.66,8.83c0.08,0.06,0.16,0.13,0.23,0.2c0.24,0.23,0.44,0.5,0.57,0.81c0.46,1.07-0.14,2.16-1.04,2.77
		c-1.01,0.69-2.27,0.73-3.43,0.58c-0.99-0.12-2.3-0.4-4.02-0.93c-2.33-0.73-5.42-1.94-9.48-3.92C25.49,8.34,35.38,3.23,42.66,8.83z"
		/>
	<linearGradient id="SVGID_13_" gradientUnits="userSpaceOnUse" x1="32.4193" y1="43.4948" x2="16.8332" y2="41.6611">
		<stop  offset="0" style="stop-color:#AC92C4"/>
		<stop  offset="1" style="stop-color:#8BD6EF"/>
	</linearGradient>
	<path class="st12" d="M8.34,42.17c-0.08-0.06-0.16-0.13-0.23-0.2c-0.24-0.23-0.44-0.5-0.57-0.81c-0.46-1.07,0.14-2.16,1.04-2.77
		c1.01-0.69,2.27-0.73,3.43-0.58c0.99,0.12,2.3,0.4,4.02,0.93c2.33,0.73,5.42,1.94,9.48,3.92C25.5,42.66,15.62,47.77,8.34,42.17z"/>
	<linearGradient id="SVGID_14_" gradientUnits="userSpaceOnUse" x1="36.7761" y1="46.5921" x2="-4.9398" y2="37.5766">
		<stop  offset="0" style="stop-color:#7B65AD"/>
		<stop  offset="0.5108" style="stop-color:#2BAAE2"/>
		<stop  offset="1" style="stop-color:#4EC3C7"/>
	</linearGradient>
	<path class="st13" d="M42.66,42.17c-7.16,5.5-16.83,0.66-17.16,0.49v0c0,0,0,0,0,0c0,0,0,0,0,0v0c-0.32,0.17-10,5-17.16-0.49
		c-0.08-0.06-0.16-0.13-0.23-0.2c7.19,8.02,17.2,7.56,17.39,7.55c0.19,0.01,10.2,0.47,17.39-7.55
		C42.81,42.05,42.74,42.11,42.66,42.17z"/>
	<linearGradient id="SVGID_15_" gradientUnits="userSpaceOnUse" x1="43.1669" y1="40.1233" x2="24.1426" y2="44.0199">
		<stop  offset="0" style="stop-color:#AC92C4"/>
		<stop  offset="1" style="stop-color:#8BD6EF"/>
	</linearGradient>
	<path class="st14" d="M42.66,42.17c0.08-0.06,0.16-0.13,0.23-0.2c0.24-0.23,0.44-0.5,0.57-0.81c0.46-1.07-0.14-2.16-1.04-2.77
		c-1.01-0.69-2.27-0.73-3.43-0.58c-0.99,0.12-2.3,0.4-4.02,0.93c-2.33,0.73-5.42,1.94-9.48,3.92
		C25.49,42.66,35.38,47.77,42.66,42.17z"/>
</g>
</svg>
