<svg id="Layer_1" data-name="Layer 1" xmlns="http://www.w3.org/2000/svg" xmlns:xlink="http://www.w3.org/1999/xlink" viewBox="0 0 590.94 362.1"><defs><linearGradient id="linear-gradient" x1="226.16" y1="306.97" x2="278.52" y2="254.62" gradientUnits="userSpaceOnUse"><stop offset="0" stop-color="#a179b5"/><stop offset="1" stop-color="#cda2cb"/></linearGradient><linearGradient id="linear-gradient-2" x1="712.55" y1="24.34" x2="712.53" y2="23.65" gradientTransform="matrix(0.97, -0.23, 0.23, 0.97, -456.92, 351.22)" gradientUnits="userSpaceOnUse"><stop offset="0" stop-color="#ea2d4e"/><stop offset="0.21" stop-color="#eb3253"/><stop offset="1" stop-color="#ef3f61"/></linearGradient><linearGradient id="linear-gradient-3" x1="717.88" y1="37.52" x2="717.82" y2="35.75" xlink:href="#linear-gradient-2"/><linearGradient id="linear-gradient-4" x1="202.76" y1="320.56" x2="229.91" y2="282.15" gradientUnits="userSpaceOnUse"><stop offset="0" stop-color="#b88bbe"/><stop offset="1" stop-color="#e7cee4"/></linearGradient><linearGradient id="linear-gradient-5" x1="-1994.09" y1="315.13" x2="-1941.73" y2="262.78" gradientTransform="matrix(-1, 0, 0, 1, -1637.76, 0)" xlink:href="#linear-gradient"/><linearGradient id="linear-gradient-6" x1="-1440.81" y1="-481.76" x2="-1440.84" y2="-482.45" gradientTransform="matrix(-0.97, -0.23, -0.23, 0.97, -1180.84, 351.22)" xlink:href="#linear-gradient-2"/><linearGradient id="linear-gradient-7" x1="-1435.48" y1="-468.58" x2="-1435.54" y2="-470.35" gradientTransform="matrix(-0.97, -0.23, -0.23, 0.97, -1180.84, 351.22)" xlink:href="#linear-gradient-2"/><linearGradient id="linear-gradient-8" x1="-2009.34" y1="320.56" x2="-1982.18" y2="282.15" gradientTransform="matrix(-1, 0, 0, 1, -1637.76, 0)" xlink:href="#linear-gradient-4"/><linearGradient id="linear-gradient-9" x1="-5616.18" y1="1435.45" x2="-5551.27" y2="1435.45" gradientTransform="matrix(-0.99, 0.14, 0.14, 0.99, -5625.26, -279.11)" gradientUnits="userSpaceOnUse"><stop offset="0" stop-color="#d9bad9"/><stop offset="1" stop-color="#efd9e9"/></linearGradient><linearGradient id="linear-gradient-10" x1="-5620.73" y1="1422.3" x2="-5567.22" y2="1406.73" xlink:href="#linear-gradient-9"/><linearGradient id="linear-gradient-11" x1="-5638.21" y1="1413.6" x2="-5579.71" y2="1361.43" xlink:href="#linear-gradient-9"/><linearGradient id="linear-gradient-12" x1="-5671.16" y1="1385.8" x2="-5615.47" y2="1357.59" xlink:href="#linear-gradient-9"/><linearGradient id="linear-gradient-13" x1="-2715.23" y1="1016.01" x2="-2650.32" y2="1016.01" gradientTransform="matrix(0.99, 0.14, -0.14, 0.99, 3270.65, -279.11)" xlink:href="#linear-gradient-9"/><linearGradient id="linear-gradient-14" x1="-2719.78" y1="1002.85" x2="-2666.27" y2="987.29" gradientTransform="matrix(0.99, 0.14, -0.14, 0.99, 3270.65, -279.11)" xlink:href="#linear-gradient-9"/><linearGradient id="linear-gradient-15" x1="-2737.26" y1="994.16" x2="-2678.76" y2="941.99" gradientTransform="matrix(0.99, 0.14, -0.14, 0.99, 3270.65, -279.11)" xlink:href="#linear-gradient-9"/><linearGradient id="linear-gradient-16" x1="-2770.21" y1="966.36" x2="-2714.52" y2="938.15" gradientTransform="matrix(0.99, 0.14, -0.14, 0.99, 3270.65, -279.11)" xlink:href="#linear-gradient-9"/><linearGradient id="linear-gradient-17" x1="156.26" y1="338.74" x2="196.11" y2="338.74" gradientUnits="userSpaceOnUse"><stop offset="0" stop-color="#4c499e"/><stop offset="1" stop-color="#32308e"/></linearGradient><linearGradient id="linear-gradient-18" x1="183.13" y1="335.07" x2="225.85" y2="335.07" xlink:href="#linear-gradient-17"/><linearGradient id="linear-gradient-19" x1="102.78" y1="290.87" x2="111.82" y2="258.06" gradientUnits="userSpaceOnUse"><stop offset="0" stop-color="#f9c895"/><stop offset="1" stop-color="#fee3c2"/></linearGradient><linearGradient id="linear-gradient-20" x1="170.8" y1="257.08" x2="152.49" y2="242.34" gradientUnits="userSpaceOnUse"><stop offset="0" stop-color="#91b6e0"/><stop offset="1" stop-color="#cfdff2"/></linearGradient><linearGradient id="linear-gradient-21" x1="231.64" y1="297.15" x2="166.46" y2="271.7" xlink:href="#linear-gradient-20"/><linearGradient id="linear-gradient-22" x1="197.14" y1="185.07" x2="214.68" y2="174.21" gradientUnits="userSpaceOnUse"><stop offset="0" stop-color="#925a50"/><stop offset="1" stop-color="#db8569"/></linearGradient><linearGradient id="linear-gradient-23" x1="190.45" y1="200.96" x2="154.95" y2="163.46" xlink:href="#linear-gradient-22"/><linearGradient id="linear-gradient-24" x1="180.16" y1="215.16" x2="184.51" y2="244.29" xlink:href="#linear-gradient-19"/><linearGradient id="linear-gradient-25" x1="194.83" y1="221.68" x2="172.73" y2="198.91" xlink:href="#linear-gradient-19"/><linearGradient id="linear-gradient-26" x1="197.47" y1="323.84" x2="188.43" y2="308.44" xlink:href="#linear-gradient-19"/><linearGradient id="linear-gradient-27" x1="235.73" y1="262.33" x2="211.18" y2="260.54" xlink:href="#linear-gradient-20"/><linearGradient id="linear-gradient-28" x1="387.96" y1="231.63" x2="405.82" y2="158.87" gradientUnits="userSpaceOnUse"><stop offset="0" stop-color="#494443"/><stop offset="1" stop-color="#666060"/></linearGradient><linearGradient id="linear-gradient-29" x1="353.3" y1="336.22" x2="431.09" y2="336.22" gradientUnits="userSpaceOnUse"><stop offset="0" stop-color="#32308e"/><stop offset="1" stop-color="#4c499e"/></linearGradient><linearGradient id="linear-gradient-30" x1="486.97" y1="234.36" x2="473.6" y2="224.07" gradientUnits="userSpaceOnUse"><stop offset="0" stop-color="#e07288"/><stop offset="1" stop-color="#f59f90"/></linearGradient><linearGradient id="linear-gradient-31" x1="382.67" y1="331.39" x2="404.99" y2="235.85" gradientUnits="userSpaceOnUse"><stop offset="0" stop-color="#f8bc3c"/><stop offset="1" stop-color="#fee287"/></linearGradient><linearGradient id="linear-gradient-32" x1="391.11" y1="206.83" x2="393.79" y2="239.64" xlink:href="#linear-gradient-30"/><linearGradient id="linear-gradient-33" x1="374.71" y1="210.76" x2="397.48" y2="194.69" xlink:href="#linear-gradient-30"/><linearGradient id="linear-gradient-34" x1="348.85" y1="324.16" x2="363.58" y2="314.79" xlink:href="#linear-gradient-30"/><linearGradient id="linear-gradient-35" x1="244.54" y1="336.98" x2="282.93" y2="336.98" xlink:href="#linear-gradient-17"/><linearGradient id="linear-gradient-36" x1="278.72" y1="335.08" x2="317.1" y2="335.08" xlink:href="#linear-gradient-17"/><linearGradient id="linear-gradient-37" x1="280.71" y1="340.65" x2="280.71" y2="227.47" gradientUnits="userSpaceOnUse"><stop offset="0" stop-color="#ee3a6b"/><stop offset="1" stop-color="#f3726b"/></linearGradient><linearGradient id="linear-gradient-38" x1="271.79" y1="280.95" x2="241.99" y2="266.22" gradientUnits="userSpaceOnUse"><stop offset="0" stop-color="#f8aba8"/><stop offset="1" stop-color="#fee3d1"/></linearGradient><linearGradient id="linear-gradient-39" x1="280.61" y1="208.15" x2="281.4" y2="225.45" xlink:href="#linear-gradient-38"/><linearGradient id="linear-gradient-40" x1="206.6" y1="116.41" x2="244.27" y2="116.41" gradientTransform="translate(59.62 63.21) rotate(2.59)" xlink:href="#linear-gradient-38"/><linearGradient id="linear-gradient-41" x1="258.32" y1="131.51" x2="221.89" y2="110.05" gradientTransform="translate(59.62 63.21) rotate(2.59)" xlink:href="#linear-gradient-38"/><linearGradient id="linear-gradient-42" x1="226.44" y1="111.72" x2="226.44" y2="80.77" gradientTransform="translate(59.62 63.21) rotate(2.59)" gradientUnits="userSpaceOnUse"><stop offset="0" stop-color="#773e4f"/><stop offset="1" stop-color="#ab5757"/></linearGradient><linearGradient id="linear-gradient-43" x1="285.83" y1="276.97" x2="293.86" y2="252.86" xlink:href="#linear-gradient-38"/></defs><path d="M288.86,345.87H260.14l-2.32-.43A112,112,0,0,0,247.24,330c-7.84-9.78-18.9-21.86-13.25-25.73,5.29-3.61,6.82-3.94-1.11-14.69s-10.62-19.14-6.51-21.54,10.13.14,9.79-5.91-11.71-14.55-16.49-25.68,1.39-14,3.26-13.75,10.49,4.75,9.91-2.32-1.55-23.43,4.45-25.56,15.37,8.65,16.29,21.77,5.82,15.57,10,13.5,6.81-.16,8.7,4.8-7.09,31.23-3.71,33.32,7.8-9.77,13.22-8.16c3.71,1.11,2.89,10.18.73,19.22A104.08,104.08,0,0,1,279,291c-4,10.67-.17,17.69,6.09,15.14s7.59,2.81,8.11,8.09C293.66,319,289.45,330.06,288.86,345.87Z" style="fill:url(#linear-gradient)"/><path d="M242.2,211.78c0-.16,0-.33,0-.48A3.27,3.27,0,0,0,242.2,211.78Z" style="fill:url(#linear-gradient-2)"/><path d="M250.39,223.19q-.09-.6-.21-1.14S250.26,222.47,250.39,223.19Z" style="fill:url(#linear-gradient-3)"/><path d="M275.45,345.87h-5.7c-.32-2.1-.73-4.43-1.24-6.92-9-8-16.69-22.17-17.17-23a58.88,58.88,0,0,0,15.75,16.65,126.4,126.4,0,0,0-6.29-19.29c-5.75-13.55-9.11-22.09-10.68-29.77-7.16-3.75-10.16-16-10.28-16.47,3,7.54,7.25,11.51,9.73,13.31a53.5,53.5,0,0,1-.51-9.36c.21-7.4,1.41-13.86,1.49-20.14-6.59-6.34-10.4-18.05-10.63-18.77a37.57,37.57,0,0,0,10.54,15.24,31.3,31.3,0,0,0-1.87-9c-3.82-10.3-6.75-21.13-6.39-26.51-.06,1.56.3,7.11,6.23,19.69.55,1.18,1,2.26,1.5,3.27.4-2.72,1-7.84.46-11.55.62,3.45,2.38,13.75,1.82,17.31,2.17,6.69,1.44,11.53.7,28.48a56.3,56.3,0,0,0,2.86,18.51c2.3-3.38,5.8-9,6.69-13.17a40.38,40.38,0,0,1-5.72,16.21c3.48,10.27,8.53,20.44,11.87,29.3a52.07,52.07,0,0,0,1.72-12c.06.59,1,10.23.16,17.47A170.19,170.19,0,0,1,275.45,345.87Z" style="fill:#9e73b2;opacity:0.51"/><path d="M262.56,337.66l-.11,8.2H225.33s-5.8-3.23-9.08-6.76c-1.35-1.44-2.27-2.94-2.21-4.28.09-2,2.14-3.8,3.82-5.54,1.89-2,3.31-3.8.92-5.63a9.42,9.42,0,0,0-1.79-1c-8.21-3.79-14.44-5.45-13.05-10.31,1.26-4.42,6.3-8.27.21-9.68-9.05-2.11-15.37-9.06-14.11-14.11.93-3.7,9.69-2.1,6.32-7.79S178.47,270.41,178.68,263s9.47-2.1,9.68-6.1-9.47-9.26-6.1-16.84,13.68-2.53,18.94,4.21,6.32,5.26,9.05,2.74,6.95-2.32,8.42,9.47,3,17.47,8.84,16.42,7.79,7.15,6.11,15.36.84,15.16,6.94,13.26a8.32,8.32,0,0,1,2.44-.42c3.89,0,4.53,4.07,5.25,8.53.84,5.26-1.27,15.57,6.31,16.21S262.56,337.66,262.56,337.66Z" style="fill:url(#linear-gradient-4)"/><path d="M240.91,331.37l0,0a23.41,23.41,0,0,0,0-17.84s2.84,6.67-1.63,16.07v0q-.63-.67-1.32-1.35c-8.73-8.57-13.36-17.75-16.71-29.83,5.52-3.88,6-11.85,6-11.85a23.36,23.36,0,0,1-6.44,10.06c-.59-2.23-1.14-4.56-1.66-7-1.68-7.81-5.43-13.51-9.72-19l0,0c2.1-6.74-2.11-15.16-2.11-15.16a22.2,22.2,0,0,1,.81,13.55c-4.51-5.61-9.45-11.15-13.12-18.7.09.22,3.08,7.36,11.47,18.83,5.3,7.26,7.82,11.95,9.45,16.69-1.76-.3-10-2-13.13-8.16a17.7,17.7,0,0,0,13.74,10.08c1.15,3.88,1.89,8,3.2,13.81,2.43,10.7,12.1,23.26,15.89,27.47,2.86,3.17,7.28,7.67,8.82,16.73h3.82C247.88,343.08,246.28,337.65,240.91,331.37Z" style="fill:#ac7fb8"/><path d="M285.47,345.87h28.72l2.32-.43A112,112,0,0,1,327.09,330c7.84-9.78,18.91-21.86,13.25-25.73-5.29-3.61-6.82-3.94,1.11-14.69S352.08,270.42,348,268s-10.13.14-9.79-5.91,11.71-14.55,16.49-25.68-1.39-14-3.26-13.75-10.49,4.75-9.91-2.32,1.55-23.43-4.44-25.56-15.37,8.65-16.3,21.77-5.82,15.57-10,13.5-6.81-.16-8.69,4.8,7.08,31.23,3.7,33.32-7.8-9.77-13.22-8.16c-3.7,1.11-2.89,10.18-.73,19.22A106.19,106.19,0,0,0,295.34,291c4,10.67.17,17.69-6.09,15.14s-7.59,2.81-8.11,8.09C280.67,319,284.88,330.06,285.47,345.87Z" style="fill:url(#linear-gradient-5)"/><path d="M332.13,211.78c0-.16,0-.33,0-.48A3.27,3.27,0,0,1,332.13,211.78Z" style="fill:url(#linear-gradient-6)"/><path d="M323.94,223.19q.09-.6.21-1.14S324.07,222.47,323.94,223.19Z" style="fill:url(#linear-gradient-7)"/><path d="M298.88,345.87h5.7c.33-2.1.74-4.43,1.24-6.92,9-8,16.69-22.17,17.17-23a58.74,58.74,0,0,1-15.75,16.65,126.4,126.4,0,0,1,6.29-19.29c5.75-13.55,9.11-22.09,10.68-29.77,7.17-3.75,10.16-16,10.28-16.47-3,7.54-7.25,11.51-9.73,13.31a52.55,52.55,0,0,0,.51-9.36c-.21-7.4-1.41-13.86-1.49-20.14,6.59-6.34,10.4-18.05,10.63-18.77a37.47,37.47,0,0,1-10.54,15.24,31.64,31.64,0,0,1,1.87-9c3.83-10.3,6.75-21.13,6.39-26.51.06,1.56-.29,7.11-6.23,19.69-.55,1.18-1,2.26-1.5,3.27-.4-2.72-1-7.84-.46-11.55-.62,3.45-2.38,13.75-1.82,17.31-2.17,6.69-1.44,11.53-.7,28.48.26,6-.95,12.24-2.85,18.51-2.31-3.38-5.81-9-6.7-13.17a40.38,40.38,0,0,0,5.72,16.21c-3.48,10.27-8.53,20.44-11.87,29.3a52.62,52.62,0,0,1-1.72-12c-.06.59-1,10.23-.15,17.47A168.37,168.37,0,0,0,298.88,345.87Z" style="fill:#9e73b2;opacity:0.51"/><path d="M311.77,337.66l.11,8.2H349s5.79-3.23,9.07-6.76c1.35-1.44,2.27-2.94,2.21-4.28-.09-2-2.14-3.8-3.82-5.54-1.89-2-3.31-3.8-.92-5.63a9.42,9.42,0,0,1,1.79-1c8.21-3.79,14.44-5.45,13.05-10.31-1.26-4.42-6.3-8.27-.21-9.68,9.05-2.11,15.37-9.06,14.11-14.11-.93-3.7-9.69-2.1-6.32-7.79s17.89-10.31,17.68-17.68-9.47-2.1-9.68-6.1,9.47-9.26,6.1-16.84-13.68-2.53-18.94,4.21-6.31,5.26-9.05,2.74-6.95-2.32-8.42,9.47-3,17.47-8.84,16.42-7.79,7.15-6.11,15.36-.84,15.16-6.94,13.26a8.27,8.27,0,0,0-2.44-.42c-3.89,0-4.53,4.07-5.24,8.53-.85,5.26,1.26,15.57-6.32,16.21S311.77,337.66,311.77,337.66Z" style="fill:url(#linear-gradient-8)"/><path d="M333.42,331.37l0,0a23.41,23.41,0,0,1,0-17.84s-2.84,6.67,1.63,16.07v0q.63-.67,1.32-1.35c8.74-8.57,13.36-17.75,16.71-29.83-5.52-3.88-6-11.85-6-11.85a23.28,23.28,0,0,0,6.45,10.06c.58-2.23,1.13-4.56,1.65-7,1.68-7.81,5.43-13.51,9.72-19l0,0c-2.11-6.74,2.1-15.16,2.1-15.16a22.28,22.28,0,0,0-.81,13.55c4.52-5.61,9.45-11.15,13.12-18.7-.09.22-3.07,7.36-11.47,18.83-5.3,7.26-7.82,11.95-9.45,16.69,1.76-.3,9.95-2,13.14-8.16a17.73,17.73,0,0,1-13.75,10.08c-1.15,3.88-1.88,8-3.2,13.81-2.43,10.7-12.1,23.26-15.89,27.47-2.86,3.17-7.27,7.67-8.82,16.73H326C326.45,343.08,328.06,337.65,333.42,331.37Z" style="fill:#ac7fb8"/><path d="M165.17,345.08s-72.59,9.49-79.23-2.34S136.28,322.69,165.17,345.08Z" style="fill:url(#linear-gradient-9)"/><path d="M165.17,345.08s-22-36.18-60.53-43.41-33.63,26.5-1.2,25.75S165.17,345.08,165.17,345.08Z" style="fill:url(#linear-gradient-10)"/><path d="M171.5,334.33s-32.25-52.41-51.61-70.28-33-23.77-41.84-16.6S74,273.63,97.57,286.94s48.37,34.35,67.6,58.14Z" style="fill:url(#linear-gradient-11)"/><path d="M165.17,345.08s-18.73-54.36-48.84-99.18c-28.26-42.06-15.91-67.55,2.94-58.45,22.55,10.88,43.31,69.3,51.8,148.59Z" style="fill:url(#linear-gradient-12)"/><g style="opacity:0.63"><path d="M158.31,345.38a2,2,0,0,0,1.67-1.54,2,2,0,0,0-1.51-2.4c-32.16-7.44-58.77-3.22-59.89-3a2,2,0,0,0,.61,4h0a168.83,168.83,0,0,1,58.33,3A2.13,2.13,0,0,0,158.31,345.38Z" style="fill:#b88bbe"/><path d="M160.55,345.05a2,2,0,0,0,1.09-.52,2,2,0,0,0,.08-2.84,110.22,110.22,0,0,0-46.64-29.19C101.59,308.22,92,308,91.58,308a2,2,0,1,0-.08,4c.46,0,37.82,1.28,67.3,32.48A2,2,0,0,0,160.55,345.05Z" style="fill:#b88bbe"/><path d="M164.06,340.87a1.94,1.94,0,0,0,.69-.23,2,2,0,0,0,.78-2.73c-18-32.27-38-51.59-51.59-62.11-14.81-11.47-25.24-15.23-25.68-15.38a2,2,0,1,0-1.34,3.78h0c.1,0,10.4,3.76,24.73,14.9,13.23,10.29,32.71,29.18,50.37,60.77A2,2,0,0,0,164.06,340.87Z" style="fill:#b88bbe"/><path d="M166.65,317.87a2,2,0,0,0,1.32-.78l1.06-1.42-.37-1c-15.3-42.46-32-78.47-52.52-113.32a2,2,0,0,0-3.47,2c20.25,34.37,36.74,69.88,51.86,111.68a2,2,0,0,0,.63,2.44A2,2,0,0,0,166.65,317.87Z" style="fill:#b88bbe"/></g><path d="M411.32,345.08s72.58,9.49,79.23-2.34S440.2,322.69,411.32,345.08Z" style="fill:url(#linear-gradient-13)"/><path d="M411.32,345.08s22-36.18,60.53-43.41,33.63,26.5,1.19,25.75S411.32,345.08,411.32,345.08Z" style="fill:url(#linear-gradient-14)"/><path d="M405,334.33s32.25-52.41,51.6-70.28,33-23.77,41.85-16.6,4.09,26.18-19.53,39.49-48.37,34.35-67.59,58.14Z" style="fill:url(#linear-gradient-15)"/><path d="M411.32,345.08S430,290.72,460.16,245.9c28.25-42.06,15.91-67.55-3-58.45-22.54,10.88-43.31,69.3-51.8,148.59Z" style="fill:url(#linear-gradient-16)"/><g style="opacity:0.63"><path d="M418.18,345.38a2,2,0,0,1-.17-3.94c32.16-7.44,58.78-3.22,59.89-3a2,2,0,0,1-.61,4h0a168.82,168.82,0,0,0-58.33,3A2.07,2.07,0,0,1,418.18,345.38Z" style="fill:#b88bbe"/><path d="M415.93,345.05a2.09,2.09,0,0,1-1.09-.52,2,2,0,0,1-.08-2.84,110.18,110.18,0,0,1,46.65-29.19C474.9,308.22,484.5,308,484.9,308a2,2,0,1,1,.09,4c-.47,0-37.83,1.28-67.31,32.48A2,2,0,0,1,415.93,345.05Z" style="fill:#b88bbe"/><path d="M412.42,340.87a1.94,1.94,0,0,1-.69-.23,2,2,0,0,1-.78-2.73c18.05-32.27,38-51.59,51.6-62.11,14.8-11.47,25.23-15.23,25.67-15.38a2,2,0,1,1,1.34,3.78h0c-.1,0-10.39,3.76-24.73,14.9-13.23,10.29-32.71,29.18-50.37,60.77A2,2,0,0,1,412.42,340.87Z" style="fill:#b88bbe"/><path d="M409.84,317.87a2,2,0,0,1-1.32-.78l-1.06-1.42.36-1c15.3-42.46,32-78.47,52.53-113.32a2,2,0,0,1,3.46,2c-20.25,34.37-36.74,69.88-51.86,111.68a2,2,0,0,1-.62,2.44A2,2,0,0,1,409.84,317.87Z" style="fill:#b88bbe"/></g><circle cx="542.77" cy="166.74" r="16.93" transform="translate(255.79 656.68) rotate(-76.72)" style="fill:#efd9e9"/><path d="M539.59,182.8a37.3,37.3,0,0,1-2.21-10.33q-.06-.56-.09-1.14c-.11-1.45-.17-3-.17-4.59s.06-3.14.17-4.59q0-.59.09-1.14a37.3,37.3,0,0,1,2.21-10.33c.09-.21.17-.42.27-.62s.2-.42.3-.62c-.49.07-1,.17-1.43.28a6.32,6.32,0,0,0-.27.65c-.09.21-.17.43-.25.65a42.06,42.06,0,0,0-2,10.09c0,.38-.06.75-.09,1.13-.1,1.49-.15,3-.15,4.5s0,3,.15,4.5c0,.38.05.75.09,1.13a42.06,42.06,0,0,0,2,10.09c.08.22.16.44.25.65a6.32,6.32,0,0,0,.27.65c.46.11.94.21,1.43.28-.1-.2-.2-.4-.3-.62S539.68,183,539.59,182.8Zm9.79-20.56c0-.38,0-.75-.08-1.13a43.06,43.06,0,0,0-2-10.09c-.08-.22-.17-.44-.25-.65s-.18-.44-.27-.65c-.47-.11-.95-.21-1.44-.28.11.2.21.4.31.62s.17.41.26.62A36.9,36.9,0,0,1,548.16,161q0,.56.09,1.14c.1,1.45.16,3,.16,4.59s-.06,3.14-.16,4.59q0,.58-.09,1.14a36.9,36.9,0,0,1-2.22,10.33c-.09.21-.17.42-.26.62s-.2.42-.31.62c.49-.07,1-.17,1.44-.28.09-.21.18-.42.27-.65s.17-.43.25-.65a43.06,43.06,0,0,0,2-10.09c0-.38.06-.75.08-1.13.11-1.49.16-3,.16-4.5S549.49,163.73,549.38,162.24Z" style="fill:#b88bbe"/><path d="M559.93,163.36c-.2-.09-.41-.18-.63-.26l-.63-.22a42.37,42.37,0,0,0-9.37-1.77l-1.14-.1c-1.78-.13-3.59-.2-5.39-.2s-3.62.07-5.39.2l-1.14.1a42.47,42.47,0,0,0-9.38,1.77l-.62.22-.64.26c-.08.43-.15.87-.2,1.31l.6-.27.6-.24a39,39,0,0,1,9.55-1.92c.38,0,.75-.07,1.14-.09,1.71-.13,3.55-.21,5.48-.21s3.77.08,5.48.21c.38,0,.76.06,1.13.09a38.86,38.86,0,0,1,9.55,1.92l.6.24.61.27C560.09,164.23,560,163.79,559.93,163.36Zm-.4,5.72-.6.24a38.86,38.86,0,0,1-9.55,1.92c-.37,0-.75.07-1.13.09-1.71.13-3.55.21-5.48.21s-3.77-.08-5.48-.21c-.39,0-.76-.06-1.14-.09a39,39,0,0,1-9.55-1.92l-.6-.24-.6-.27c.05.44.12.88.2,1.31l.64.26.62.22a43.06,43.06,0,0,0,9.38,1.77l1.14.1c1.77.13,3.59.2,5.39.2s3.61-.07,5.39-.2l1.14-.1a43,43,0,0,0,9.37-1.77l.63-.22c.22-.08.43-.17.63-.26.09-.43.16-.87.21-1.31Z" style="fill:#b88bbe"/><path d="M560.14,164.67c0-.44-.12-.88-.21-1.31a17.54,17.54,0,0,0-13.12-13.64c-.47-.11-.95-.21-1.44-.28a18,18,0,0,0-5.21,0c-.49.07-1,.17-1.43.28a17.54,17.54,0,0,0-13.13,13.64c-.08.43-.15.87-.2,1.31a16.55,16.55,0,0,0,0,4.14c.05.44.12.88.2,1.31a17.54,17.54,0,0,0,13.13,13.64c.46.11.94.21,1.43.28a18,18,0,0,0,5.21,0c.49-.07,1-.17,1.44-.28a17.54,17.54,0,0,0,13.12-13.64c.09-.43.16-.87.21-1.31a17.91,17.91,0,0,0,0-4.14Zm-1,2.07a15.67,15.67,0,0,1-.2,2.58c-.07.43-.15.86-.26,1.28a16.44,16.44,0,0,1-11.34,11.86c-.45.13-.92.25-1.39.34a16.46,16.46,0,0,1-3.17.31,16.65,16.65,0,0,1-3.18-.31c-.47-.09-.93-.21-1.38-.34a16.44,16.44,0,0,1-11.35-11.86c-.1-.42-.19-.85-.26-1.28a16.74,16.74,0,0,1,0-5.16c.07-.43.16-.86.26-1.28A16.44,16.44,0,0,1,538.21,151c.45-.13.91-.25,1.38-.34a16.65,16.65,0,0,1,3.18-.31,16.46,16.46,0,0,1,3.17.31c.47.09.94.21,1.39.34a16.44,16.44,0,0,1,11.34,11.86c.11.42.19.85.26,1.28A15.67,15.67,0,0,1,559.13,166.74Z" style="fill:#b88bbe"/><circle cx="409.79" cy="104.78" r="17.79" style="fill:#efd9e9"/><path d="M413.92,99.82s-2.74,1-3.42-1S413.24,91.61,415,92s4.1,5,4.1,7.18c0,2.4-3.76,13.69-8.55,16.76s-10.6,1.72-9.92-1.36,3.08-6.85,4.11-6.5,3.76,3.76,3.76,3.76S414.61,106,413.92,99.82Z" style="fill:#b88bbe"/><path d="M62.36,153.79V180.7a2.69,2.69,0,0,1-2.69,2.69H14.82a2.68,2.68,0,0,1-2.69-2.69V153.79a2.68,2.68,0,0,1,2.69-2.69H59.67a2.67,2.67,0,0,1,2.41,1.52A2.56,2.56,0,0,1,62.36,153.79Z" style="fill:#b88bbe"/><path d="M62.08,152.62l-24.84,17L12.43,152.55a2.7,2.7,0,0,1,2.39-1.45H59.67A2.67,2.67,0,0,1,62.08,152.62Z" style="fill:#efd9e9"/><path d="M54.45,45.38l-.3-7.28a.57.57,0,0,0-1-.32l-4.46,6.07a.56.56,0,0,1-.61.21l-10.7-2.89a.57.57,0,0,1-.29-.92L62.86,9.9a.57.57,0,0,1,1,.34l2,37.86a.57.57,0,0,1-.72.58L54.87,45.91A.58.58,0,0,1,54.45,45.38Z" style="fill:#efd9e9"/><path d="M550.13,73.45l6.73,2.8a.57.57,0,0,0,.72-.8L554,68.85a.56.56,0,0,1,.07-.64l7.14-8.49a.57.57,0,0,1,1,.13L578.76,96a.58.58,0,0,1-.74.77L542.87,82.63a.58.58,0,0,1-.23-.9l6.84-8.12A.57.57,0,0,1,550.13,73.45Z" style="fill:#efd9e9"/><path d="M408.87,202.55h0a66.82,66.82,0,0,1-6.79-.53,1,1,0,1,1,.3-2s2.53.37,6.56.52a1,1,0,0,1,0,2Zm12.05-.37a1,1,0,0,1-.1-2c2.22-.22,4.43-.52,6.56-.9a1,1,0,0,1,.35,2c-2.18.39-4.44.7-6.71.92Zm18.29-3.94a1,1,0,0,1-.33-2,63.64,63.64,0,0,0,6.09-2.51,1,1,0,0,1,1.33.47,1,1,0,0,1-.47,1.34,64,64,0,0,1-6.28,2.6A1,1,0,0,1,439.21,198.24Zm16.42-8.87a1,1,0,0,1-.79-.39,1,1,0,0,1,.17-1.41,48.28,48.28,0,0,0,4.87-4.38,1,1,0,1,1,1.44,1.4,51.17,51.17,0,0,1-5.07,4.56A1,1,0,0,1,455.63,189.37Zm12.18-14.09a1,1,0,0,1-.48-.12,1,1,0,0,1-.4-1.36,41,41,0,0,0,2.67-6,1,1,0,1,1,1.89.67,41.89,41.89,0,0,1-2.8,6.25A1,1,0,0,1,467.81,175.28Zm5.33-17.84H473a1,1,0,0,1-.89-1.11c.23-2.06.37-4.22.43-6.6a1,1,0,0,1,1-1h0a1,1,0,0,1,1,1c-.07,2.44-.21,4.65-.44,6.77A1,1,0,0,1,473.14,157.44Zm.23-18.73a1,1,0,0,1-1-1c-.08-1.71-.17-3.43-.26-5.16l-.08-1.53a1,1,0,0,1,1-1,1,1,0,0,1,1,.95l.08,1.52c.09,1.74.18,3.47.26,5.17a1,1,0,0,1-1,1.05Zm-.8-18.73a1,1,0,0,1-1-1c0-.77,0-1.56,0-2.34,0-1.51,0-3,.07-4.4a1,1,0,0,1,1-1,1,1,0,0,1,1,1c-.05,1.38-.07,2.84-.07,4.33,0,.78,0,1.55,0,2.32a1,1,0,0,1-1,1Zm1.07-18.7h-.15a1,1,0,0,1-.85-1.13c.33-2.27.74-4.51,1.22-6.66a1,1,0,0,1,2,.44c-.47,2.1-.87,4.29-1.19,6.5A1,1,0,0,1,473.64,101.28Zm4.7-18.1a1,1,0,0,1-.37-.07,1,1,0,0,1-.57-1.3c.49-1.25,1-2.51,1.56-3.74.37-.84.77-1.67,1.17-2.48a1,1,0,0,1,1.8.91c-.39.77-.78,1.58-1.14,2.39-.53,1.2-1,2.42-1.52,3.64A1,1,0,0,1,478.34,83.18Zm67.52-14.57a1,1,0,0,1-.52-.14c-1.83-1.12-3.77-2.21-5.78-3.25a1,1,0,1,1,.91-1.78c2.06,1,4,2.17,5.92,3.31a1,1,0,0,1-.53,1.86Zm-58-1.45a1,1,0,0,1-.69-.28,1,1,0,0,1,0-1.42,32.91,32.91,0,0,1,5.22-4.5,1,1,0,0,1,1.14,1.66,30.7,30.7,0,0,0-4.9,4.22A1,1,0,0,1,487.83,67.16Zm41.1-6.57a.86.86,0,0,1-.32-.05c-2.14-.73-4.28-1.35-6.34-1.83a1,1,0,0,1,.45-2,67.91,67.91,0,0,1,6.54,1.89,1,1,0,0,1-.33,2Zm-25-2.48a1,1,0,0,1-1-.8,1,1,0,0,1,.78-1.19,36.81,36.81,0,0,1,6.83-.76,1,1,0,0,1,0,2,36.3,36.3,0,0,0-6.46.71A.76.76,0,0,1,503.9,58.11Z" style="fill:#b88bbe"/><path d="M158.44,188.64h0a1,1,0,0,1-1-1V187c0-1,0-3.15-.27-6a1,1,0,0,1,2-.17c.25,2.9.28,5.1.28,6.15v.68A1,1,0,0,1,158.44,188.64ZM156.26,170a1,1,0,0,1-1-.76,59.41,59.41,0,0,0-1.88-6.33,1,1,0,0,1,1.9-.68c.73,2.06,1.38,4.25,1.94,6.53a1,1,0,0,1-.74,1.22Zm-7.35-17.14a1,1,0,0,1-.82-.42,30.63,30.63,0,0,0-4.25-4.88,1,1,0,0,1,1.36-1.48,33.74,33.74,0,0,1,4.53,5.2,1,1,0,0,1-.24,1.4A1,1,0,0,1,148.91,152.86Zm-14.7-11a1.18,1.18,0,0,1-.31-.05,29.74,29.74,0,0,0-6.32-1.25,1,1,0,0,1,.18-2,31.78,31.78,0,0,1,6.75,1.33,1,1,0,0,1-.3,2Zm-18.59-1.32h0c-2.28,0-4.55-.12-6.75-.26a1,1,0,1,1,.13-2c2.17.14,4.4.23,6.64.26a1,1,0,0,1,1,1A1,1,0,0,1,115.62,140.51Zm-18.68-1.62-.16,0c-2.27-.38-4.5-.83-6.64-1.35a1,1,0,1,1,.47-2c2.09.5,4.28,1,6.5,1.32a1,1,0,0,1-.17,2Zm-18-5a.84.84,0,0,1-.38-.08,65.77,65.77,0,0,1-6.16-2.88,1,1,0,0,1-.41-1.35,1,1,0,0,1,1.36-.42,60.68,60.68,0,0,0,6,2.79,1,1,0,0,1-.38,1.94Zm-16-9.6a1,1,0,0,1-.66-.25,48.76,48.76,0,0,1-4.84-4.8,1,1,0,0,1,.1-1.42,1,1,0,0,1,1.41.09,45,45,0,0,0,4.65,4.61,1,1,0,0,1-.66,1.77ZM51.49,109.61a1,1,0,0,1-.9-.55A50.73,50.73,0,0,1,48,102.77a1,1,0,1,1,1.9-.65,48.26,48.26,0,0,0,2.52,6,1,1,0,0,1-.45,1.35A1,1,0,0,1,51.49,109.61ZM46.22,91.74a1,1,0,0,1-1-.87c-.29-2.18-.48-4.45-.57-6.75a1,1,0,0,1,1-1.05,1,1,0,0,1,1.05,1c.09,2.24.27,4.45.55,6.56a1,1,0,0,1-.87,1.13ZM46,73h-.09A1,1,0,0,1,45,72c.2-2.18.47-4.44.81-6.71a1,1,0,1,1,2,.3c-.34,2.23-.6,4.45-.8,6.59A1,1,0,0,1,46,73Zm3.11-18.47a1,1,0,0,1-.24,0,1,1,0,0,1-.74-1.21c.5-2.13,1.07-4.32,1.68-6.52a1,1,0,0,1,1.24-.7,1,1,0,0,1,.7,1.24c-.61,2.17-1.17,4.34-1.67,6.44A1,1,0,0,1,49.11,54.57Z" style="fill:#b88bbe"/><path d="M196.11,326.55l0,8.64L196,352.37H156.39c-.16-4.06-.15-7.68-.08-10.6.1-4.71.36-7.6.36-7.6a23.52,23.52,0,0,1,4.86-4c7.22-4.52,16.53-5.25,23.67-4.95A66.29,66.29,0,0,1,196.11,326.55Z" style="fill:url(#linear-gradient-17)"/><path d="M225.4,352.37H183.13a150.22,150.22,0,0,1,1.08-16.63,135.13,135.13,0,0,1,11.9-9.19c10.14-6.93,23.6-13.7,27-3.78a39.06,39.06,0,0,1,1.38,5.08C226.22,336,226,345.19,225.4,352.37Z" style="fill:url(#linear-gradient-18)"/><path d="M156.41,280.93s-12.4,11.46-20,13.36S94.64,269,83.24,255.68a118.21,118.21,0,0,1-12-7.6c-5.07-3.8-3.8-18.36-1.9-18.36S82.61,243,84.51,243s-1.27-9.5,0-9.5,7,8.23,7.6,15.19c0,0,31,22.79,41.78,27.22,0,0,6.33-5.69,9.49-10.76C143.38,265.17,154.26,269.47,156.41,280.93Z" style="fill:url(#linear-gradient-19)"/><path d="M175,222.13s-1.26,2.53-7.59,5.06-12.66,9.5-17.1,18.36-10.12,22.79-10.12,22.79,8.23,13.92,19.62,12.66S175,222.13,175,222.13Z" style="fill:url(#linear-gradient-20)"/><path d="M220,304.42c.63,10.76,8.86,16.46,5.06,22.79s-47.48,12.66-60.14,5.06-10.76-10.13-5.69-17.72,6.33-20.89-1.9-32.29-3.17-23.42,3.16-38,15.83-22.15,15.83-22.15l13.92-2.54c2.54,3.8,5.7,3.8,16.46,7.6s16.12,9.68,16.12,9.68Z" style="fill:url(#linear-gradient-21)"/><path d="M189,165.51s-1.52-9.31,7.51-11.12c9.5-1.9,17.73,12.66,12.67,32.29s0,22.79,0,22.79-12.5-.23-13.93-27.22Z" style="fill:url(#linear-gradient-22)"/><path d="M188.23,166.2l2-1.68s7.6,3.17,8.23,16.46L194,183.51Z" style="fill:#fff6ee"/><path d="M159.84,201.24s-8.24-14-4.43-24.69c3.16-8.86,9.49-3.8,9.49-3.8s2.54-9.49,15.2-9.49c12,0,17.09,15.82,15.82,25.32-1.68,12.61-9.49,21.52-8.23,27.22S159.84,201.24,159.84,201.24Z" style="fill:url(#linear-gradient-23)"/><path d="M186.43,200s0,17.73,7.59,23.42a14.18,14.18,0,0,1-14.56,11.4c-12.66,0-10.12-5.07-7-8.87s1.9-6.33,1.9-10.12S186.43,200,186.43,200Z" style="fill:url(#linear-gradient-24)"/><path d="M158.57,193.64s1.55,20.8,10.13,26c6.33,3.8,17.09-12.66,17.73-19,0,0,4.43-.63,3.79-7s-5.69-4.43-6.33,5.06a12,12,0,0,1-3.79-7.59s-10.76-1.9-13.3-10.76C166.8,180.35,165.54,189.84,158.57,193.64Z" style="fill:url(#linear-gradient-25)"/><path d="M232.64,284.16s-1.74,21-3.8,23.42c-3.8,4.44-57,22.16-57,22.16s-2.53,5.06-7.6,6.33-10.13,9.5-12.66,8.23-1.9-4.43-1.27-10.13,5.07-10.13,8.23-10.76,8.23-1.27,8.23-1.27,39.25-23.42,43.68-26.58a40.73,40.73,0,0,0,1.27-10.13Z" style="fill:url(#linear-gradient-26)"/><path d="M233.9,284.16s-.63-43-13.29-48.74-12.66,15.83-11.39,26c.94,7.57.63,24.06.63,24.06S220.61,291.13,233.9,284.16Z" style="fill:url(#linear-gradient-27)"/><path d="M417.48,226.38S416.85,208,416.21,189s-3.16-25.32-11.39-24.06c0,0-2.53-12-19-4.43S370.6,194.73,370,206.76a112.68,112.68,0,0,1-3.8,23.42S405.45,249.17,417.48,226.38Z" style="fill:url(#linear-gradient-28)"/><path d="M431.09,352.37H353.3a95.58,95.58,0,0,1,4.29-20,28.82,28.82,0,0,1,3.09-6.59,6.37,6.37,0,0,1,.46-.62l2.13-.17,61.17-4.9c.34.75.66,1.53,1,2.31C429.09,332,430.53,343.81,431.09,352.37Z" style="fill:url(#linear-gradient-29)"/><path d="M451.28,250.67s21.27-23.65,30.13-38.21c0,0,2.54-12,5.07-14.56s1.9,7.59,1.9,7.59a85.36,85.36,0,0,0,5.69-11.39c1.9-5.06,7-.63,7.6,8.23S489,218.16,489,218.16s-16.64,33.93-26.36,47.67Z" style="fill:url(#linear-gradient-30)"/><path d="M464.32,263.73s-8.86,12-16.46,12.66c-3.14.26-7.37-1.32-11.25-3.26a84.06,84.06,0,0,1-9.93-6l-.34-.24s-.08.91-.4,2.64a99,99,0,0,1-4.66,16.35c-4.43,12,0,21.52,3.16,28.48s3.8,10.13-15.82,16.46-45.58-2.53-48.75-5.69,4.44-24.69,5.7-31.66c.68-3.71-.81-10.85-2.35-16.7-1.34-5.12-2.71-9.25-2.71-9.25s-2.06,2.25-4.6,5.12c-4.06,4.6-9.33,10.8-9.33,12,0,1.9,1.9,7,1.9,7-3.8,3.79-15.83,7-15.83,7-8.22-10.76-4.43-17.09-.29-26.9s18-39.57,24.35-44S371.09,223,371.09,223c22,7.4,34.36,1.47,40.81.79s11.91,1.94,17.61,8.27S445.33,253,447.23,253s5.7-3.8,5.7-3.8C461.16,254.24,464.32,263.73,464.32,263.73Z" style="fill:url(#linear-gradient-31)"/><path d="M382.66,196.63s1.27,14.56-2.53,20.26A15,15,0,0,1,370,223.22s3.8,1.9,12.66,7.6,22.79,10.12,32.29-7c0,0-12,.64-15.2-5.06-4-7.2-1.26-12.66-1.26-12.66Z" style="fill:url(#linear-gradient-32)"/><path d="M409.57,185.18s0,25.94-8,27.27c-3.41.57-9.42-1.43-13.22-5.06A27.79,27.79,0,0,1,382,197.27a21.29,21.29,0,0,1-4.43-5.7c-1-2.11-.09-4.07.63-4.43,5.09-2.54,5.4,6.69,5.4,6.69a15.94,15.94,0,0,0,4-12s10-.66,13.3-9.31C400.92,172.54,403.58,182.52,409.57,185.18Z" style="fill:url(#linear-gradient-33)"/><path d="M426.68,267.14c.31-2.39.08-6.79-2.87-14.17-5.06-12.66-1.27-18.36-1.27-18.36s-.63,9.5,7.6,20.26a33,33,0,0,1,6.47,18.26A84.06,84.06,0,0,1,426.68,267.14Z" style="fill:#fac44e"/><path d="M370,254.87l-6.78,21.91c-1.34-5.12-2.71-9.25-2.71-9.25s-2.06,2.25-4.6,5.12Z" style="fill:#fac44e"/><path d="M331.91,297.54s12.77,18.1,19.74,27,9.49,13.93,13.29,13.3,6.33-3.8,7.59-4.43,8.23,5.69,11.4,5.69-.63-12.66-4.43-14.56-13.93,5.7-13.93,5.7l-17.49-39.74A18.46,18.46,0,0,1,331.91,297.54Z" style="fill:url(#linear-gradient-34)"/><path d="M245.93,327.48a70.08,70.08,0,0,0-1.27,19h38a152.5,152.5,0,0,0,0-19Z" style="fill:url(#linear-gradient-35)"/><path d="M315.56,323.69A112.23,112.23,0,0,1,317,346.48H279a152.5,152.5,0,0,1,0-19Z" style="fill:url(#linear-gradient-36)"/><path d="M275.05,202.78s-6.33,3.16-14.56,6.33-21.52,9.5-25.32,19-3.8,32.92-5.7,36.72-3.16,5.06-1.26,7-4.43,7.91,2.21,10.92a45,45,0,0,0,11.71,3.64l7-1.9s.63,11.39-1.27,20.89-5.06,18.36-1.9,22.15,16.46,5.7,39.25,5.07,32.92-7.6,31-12.66-5.07-26.59-4.44-46.85l18.93,1.07s3.86-4.86,2-8,2.54-3.16,1.27-7a84.91,84.91,0,0,1-4.43-18.36c-1.27-9.49-5.06-22.15-12.66-26.59s-27.2-8.86-29.11-11.39S275.05,202.78,275.05,202.78Z" style="fill:url(#linear-gradient-37)"/><path d="M250.36,261l-1.9-27.86s-4.43,30.39-3.8,36.09,69.64-1.9,69.64-1.9,0-22.16-3.17-34.19l-2.53,30.39Z" style="fill:#ef3d6b"/><path d="M251.92,266.34s-15.48,1.64-20.55,11.77,9.5,13.29,28.49,5.06,26.58-13.29,33.55-14.56-15.83-4.43-15.83-4.43A161,161,0,0,0,251.92,266.34Z" style="fill:url(#linear-gradient-38)"/><path d="M268.76,197.06s4.39,5.09,3.76,13.95,10.13,12.66,16.46,8.23,1.26-8.23,1.9-23.42Z" style="fill:url(#linear-gradient-39)"/><path d="M266.11,186.27s-.48-2.37-4-1.94,1.25,11.22,7.7,11.51l22.69,1s6.82-3.81,5.94-10.31-8.85.78-8.85.78Z" style="fill:url(#linear-gradient-40)"/><path d="M264.51,182.67s4.7,26.07,16.43,26.61,14.73-27,14.73-27l-4.74-12-3.34-4.26-17.59-.8-2.59,5.17Z" style="fill:url(#linear-gradient-41)"/><path d="M270.27,172.36s-2.37,13.41-5.25,12.1-5.9-12.61-5.74-16.13,1.47-6.39,5.47-3.86c0,0-3.92-4.29-.8-8.27s7.86-4.93,17.19-3.33,17.19-3.34,18.95-3.26-1.49,7-1.49,7,4.27-3.33,5.44-3.28-.48,10.55-4.13,13.33c0,0-1.65,18.88-4.9,17.41-2.88-1.31-5.28-13.17-5.28-13.17S283.65,175.31,270.27,172.36Z" style="fill:url(#linear-gradient-42)"/><path d="M331.39,271.15c1,5.64-10.76,10.76-31,3.79s-38.61-12.66-38.61-12.66-4.43,3.8-15.83,5.07c0,0,0-8.86,5.06-11.4s10.77-1.26,13.93-1.26,33.55,1.26,44.95,3.8S330.12,264.18,331.39,271.15Z" style="fill:url(#linear-gradient-43)"/><path d="M503.21,352.4H66.13A3.12,3.12,0,0,1,63,349.28h0a3.12,3.12,0,0,1,3.11-3.12H503.21a3.12,3.12,0,0,1,3.12,3.12h0A3.12,3.12,0,0,1,503.21,352.4Z" style="fill:#efd9e9"/><circle cx="157.72" cy="86.38" r="16.93" style="fill:#efd9e9"/><path d="M154.54,102.44a36.94,36.94,0,0,1-2.21-10.33q-.06-.56-.09-1.14c-.11-1.45-.17-3-.17-4.59s.06-3.14.17-4.59c0-.39,0-.76.09-1.14a36.78,36.78,0,0,1,2.21-10.32c.09-.22.17-.43.26-.63l.31-.62c-.49.07-1,.17-1.43.28-.1.21-.19.42-.28.65s-.17.43-.24.65a42.06,42.06,0,0,0-2,10.09c0,.38-.07.75-.09,1.13-.11,1.49-.16,3-.16,4.5s.05,3,.16,4.5c0,.38.05.76.09,1.13a42.06,42.06,0,0,0,2,10.09c.07.22.16.44.24.65s.18.44.28.65c.46.11.94.21,1.43.28l-.31-.62C154.71,102.86,154.63,102.65,154.54,102.44Zm9.79-20.56c0-.38-.05-.75-.08-1.13a43.06,43.06,0,0,0-2-10.09c-.08-.22-.17-.44-.25-.65s-.18-.44-.27-.65c-.47-.11-.95-.21-1.44-.28.1.2.21.4.31.62s.17.41.26.63a36.74,36.74,0,0,1,2.22,10.32l.09,1.14c.1,1.45.16,3,.16,4.59s-.06,3.14-.16,4.59l-.09,1.14a36.9,36.9,0,0,1-2.22,10.33c-.09.21-.17.42-.26.62s-.21.42-.31.62c.49-.07,1-.17,1.44-.28.09-.21.18-.42.27-.65s.17-.43.25-.65a43.06,43.06,0,0,0,2-10.09c0-.37.06-.75.08-1.13.11-1.49.16-3,.16-4.5S164.44,83.37,164.33,81.88Z" style="fill:#b88bbe"/><path d="M174.88,83l-.63-.26-.63-.22a43,43,0,0,0-9.37-1.77l-1.14-.1c-1.78-.13-3.59-.19-5.39-.19s-3.62.06-5.39.19l-1.14.1a42.94,42.94,0,0,0-9.38,1.77l-.62.22-.64.26c-.09.43-.15.87-.2,1.31L141,84l.6-.24a39,39,0,0,1,9.55-1.92l1.14-.09c1.71-.13,3.55-.21,5.48-.21s3.77.08,5.48.21l1.13.09a39,39,0,0,1,9.55,1.92l.6.24.61.27C175,83.87,175,83.43,174.88,83Zm-.4,5.72-.6.24a39,39,0,0,1-9.55,1.92c-.37,0-.75.07-1.13.09-1.71.13-3.55.21-5.48.21S154,91.1,152.24,91c-.39,0-.77-.06-1.14-.09A39,39,0,0,1,141.55,89l-.6-.24-.6-.27c.05.44.11.88.2,1.31l.64.26.62.22A42.36,42.36,0,0,0,151.19,92l1.14.1c1.77.13,3.59.2,5.39.2s3.61-.07,5.39-.2l1.14-.1a42.37,42.37,0,0,0,9.37-1.77l.63-.22c.22-.08.43-.17.63-.26.09-.43.16-.87.21-1.31Z" style="fill:#b88bbe"/><path d="M175.09,84.31c-.05-.44-.12-.88-.21-1.31a17.56,17.56,0,0,0-13.12-13.64c-.47-.11-.95-.21-1.44-.28a18,18,0,0,0-5.21,0c-.49.07-1,.17-1.43.28A17.55,17.55,0,0,0,140.55,83c-.09.43-.15.87-.2,1.31a16.55,16.55,0,0,0,0,4.14c.05.44.11.88.2,1.31a17.54,17.54,0,0,0,13.13,13.64c.46.11.94.21,1.43.28a17.07,17.07,0,0,0,5.21,0c.49-.07,1-.17,1.44-.28a17.54,17.54,0,0,0,13.12-13.64c.09-.43.16-.87.21-1.31a17.91,17.91,0,0,0,0-4.14Zm-1,2.07a16.84,16.84,0,0,1-.2,2.58c-.07.43-.15.86-.26,1.28a16.43,16.43,0,0,1-11.34,11.86c-.46.13-.92.25-1.39.34a16.41,16.41,0,0,1-6.35,0c-.47-.09-.93-.21-1.38-.34a16.42,16.42,0,0,1-11.35-11.86c-.1-.42-.19-.85-.26-1.28a16.74,16.74,0,0,1,0-5.16c.07-.43.16-.86.26-1.28a16.44,16.44,0,0,1,11.35-11.86q.68-.19,1.38-.33a16.41,16.41,0,0,1,6.35,0c.47.09.93.2,1.39.33a16.44,16.44,0,0,1,11.34,11.86c.11.42.19.85.26,1.28A16.84,16.84,0,0,1,174.08,86.38Z" style="fill:#b88bbe"/></svg>