<svg xmlns="http://www.w3.org/2000/svg" xmlns:xlink="http://www.w3.org/1999/xlink" viewBox="0 0 268.5 186.89"><defs><radialGradient id="radial-gradient" cx="81.59" cy="46.41" r="40.1" gradientTransform="translate(114.34 -41.56) rotate(80.78)" gradientUnits="userSpaceOnUse"><stop offset="0.11" stop-color="#010101"/><stop offset="0.11" stop-color="#040404"/><stop offset="0.26" stop-color="#454545"/><stop offset="0.41" stop-color="#7e7e7e"/><stop offset="0.55" stop-color="#acacac"/><stop offset="0.68" stop-color="#d0d0d0"/><stop offset="0.8" stop-color="#eaeaea"/><stop offset="0.91" stop-color="#fafafa"/><stop offset="1" stop-color="#fff"/></radialGradient><clipPath id="clip-path"><rect x="51.04" y="2.43" width="59.82" height="58.84" rx="17.37" style="fill:none"/></clipPath></defs><g style="isolation:isolate"><g id="Layer_1" data-name="Layer 1"><path d="M185.39,183.6h-157A25.75,25.75,0,0,1,2.65,157.88V54.63A25.75,25.75,0,0,1,28.38,28.91H62.47a1.38,1.38,0,0,1,0,2.75H28.38a23,23,0,0,0-23,23V157.88a23,23,0,0,0,23,23h157a23,23,0,0,0,23-23V119.5a1.37,1.37,0,0,1,1.37-1.37h53.12a1.38,1.38,0,1,1,0,2.75H211.12v37A25.75,25.75,0,0,1,185.39,183.6Z" style="fill:#4bb448"/><polygon points="253.75 130.75 251.88 128.73 261.81 119.5 251.88 110.28 253.75 108.26 265.85 119.5 253.75 130.75" style="fill:#4bb448"/><circle cx="81.59" cy="46.41" r="40.1" transform="translate(22.71 119.52) rotate(-80.78)" style="opacity:0.5;mix-blend-mode:multiply;fill:url(#radial-gradient)"/><circle cx="81.59" cy="32.22" r="28.29" style="fill:#4bb448"/><path d="M81.59,61.89a29.67,29.67,0,1,1,29.67-29.67A29.7,29.7,0,0,1,81.59,61.89Zm0-56.59a26.92,26.92,0,1,0,26.92,26.92A27,27,0,0,0,81.59,5.3Z" style="fill:#fff"/><path d="M70.12,25.23V40.29H92.48V25.23Zm11.16,7.9L72.8,26.59h17Zm-2.94-.55-6.86,5.59V27.29Zm1.11.85,1.83,1.42,1.93-1.49,6.7,5.57H72.71Zm4.87-.92,6.8-5.22V38.16Z" style="fill:#fff"/><g style="clip-path:url(#clip-path)"><image width="1875" height="1875" transform="translate(14.76 -3.94) scale(0.07)" xlink:href="../../Raw%20Images/Technology%20icons%20Templete-20220629T114006Z-001/Technology%20icons%20Templete/IOT.png"/></g></g></g></svg>