<svg id="Layer_1" data-name="Layer 1" xmlns="http://www.w3.org/2000/svg" xmlns:xlink="http://www.w3.org/1999/xlink" viewBox="0 0 129.12 44.55"><defs><linearGradient id="linear-gradient" x1="22.99" y1="18.07" x2="22.99" y2="18.07" gradientUnits="userSpaceOnUse"><stop offset="0" stop-color="#039447"/><stop offset="0.47" stop-color="#6aba45"/><stop offset="1" stop-color="#7fbc42"/></linearGradient><linearGradient id="linear-gradient-2" x1="22.98" y1="18.07" x2="22.99" y2="18.07" xlink:href="#linear-gradient"/><linearGradient id="linear-gradient-3" x1="22.99" y1="26.4" x2="22.99" y2="26.4" xlink:href="#linear-gradient"/><linearGradient id="linear-gradient-4" x1="22.98" y1="26.4" x2="22.99" y2="26.4" xlink:href="#linear-gradient"/><linearGradient id="linear-gradient-5" x1="29.99" y1="28.05" x2="6.64" y2="15.93" gradientUnits="userSpaceOnUse"><stop offset="0" stop-color="#ac92c4"/><stop offset="1" stop-color="#8bd6ef"/></linearGradient><linearGradient id="linear-gradient-6" x1="28.07" y1="17" x2="9.49" y2="27.45" gradientUnits="userSpaceOnUse"><stop offset="0" stop-color="#93c6eb"/><stop offset="1" stop-color="#94d5d6"/></linearGradient><linearGradient id="linear-gradient-7" x1="43.48" y1="23.95" x2="1.68" y2="20.73" gradientUnits="userSpaceOnUse"><stop offset="0.01" stop-color="#7187c3"/><stop offset="0.51" stop-color="#2baae2"/><stop offset="1" stop-color="#4ec3c7"/></linearGradient><linearGradient id="linear-gradient-8" x1="38.5" y1="16.01" x2="25.86" y2="23.23" xlink:href="#linear-gradient-6"/><linearGradient id="linear-gradient-9" x1="39.61" y1="28.79" x2="19.87" y2="18.73" xlink:href="#linear-gradient-5"/><linearGradient id="linear-gradient-10" x1="12.81" y1="10.1" x2="22.87" y2="2.87" xlink:href="#linear-gradient-6"/><linearGradient id="linear-gradient-11" x1="10.69" y1="7.43" x2="34.69" y2="4.59" gradientUnits="userSpaceOnUse"><stop offset="0" stop-color="#60abde"/><stop offset="1" stop-color="#4ec3c7"/></linearGradient><linearGradient id="linear-gradient-12" x1="21.17" y1="7" x2="36.91" y2="9.58" xlink:href="#linear-gradient-6"/><linearGradient id="linear-gradient-13" x1="28.83" y1="37.47" x2="15.67" y2="35.92" xlink:href="#linear-gradient-5"/><linearGradient id="linear-gradient-14" x1="32.5" y1="40.08" x2="-2.71" y2="32.47" gradientUnits="userSpaceOnUse"><stop offset="0" stop-color="#7b65ad"/><stop offset="0.51" stop-color="#2baae2"/><stop offset="1" stop-color="#4ec3c7"/></linearGradient><linearGradient id="linear-gradient-15" x1="37.9" y1="34.62" x2="21.84" y2="37.91" xlink:href="#linear-gradient-5"/></defs><path d="M58.64,37.32h-2a1.55,1.55,0,0,1-1.12-.44,1.57,1.57,0,0,1-.44-1.13,1.43,1.43,0,0,1,.44-1.09,1.54,1.54,0,0,1,1.12-.42h1.73v.54H56.69a1,1,0,0,0-.73.28,1,1,0,0,0-.29.73,1,1,0,0,0,.29.72,1,1,0,0,0,.73.28h1.42v-.68H56.64v-.49h2Z" style="fill:#ac92c5"/><path d="M62,37.32H59.36V34.24h.53v2.55H62Z" style="fill:#ac92c5"/><path d="M66.67,35.75a1.57,1.57,0,0,1-.44,1.13,1.51,1.51,0,0,1-1.12.44h-.86a1.51,1.51,0,0,1-1.11-.44,1.57,1.57,0,0,1-.44-1.13,1.43,1.43,0,0,1,.44-1.09,1.53,1.53,0,0,1,1.11-.42h.86a1.54,1.54,0,0,1,1.12.42A1.43,1.43,0,0,1,66.67,35.75Zm-.54,0a1,1,0,0,0-1-1h-.86a1,1,0,0,0-.73.28,1,1,0,0,0-.28.73.94.94,0,0,0,.28.72,1.05,1.05,0,0,0,.73.28h.86a1,1,0,0,0,.74-.28A.94.94,0,0,0,66.13,35.79Z" style="fill:#ac92c5"/><path d="M70.93,36.42a.83.83,0,0,1-.1.38,1.21,1.21,0,0,1-1.13.52H67.49V34.24H69.7a1.21,1.21,0,0,1,1.11.49.79.79,0,0,1,.12.42.81.81,0,0,1-.33.65A.75.75,0,0,1,70.93,36.42Zm-.52-1.27a.33.33,0,0,0-.23-.3,1,1,0,0,0-.4-.08H68v2h1.75a.94.94,0,0,0,.39-.07c.16-.06.24-.16.24-.28s-.08-.22-.24-.29a.94.94,0,0,0-.39-.07H68.34v-.54h1.44a1,1,0,0,0,.4-.08A.33.33,0,0,0,70.41,35.15Z" style="fill:#ac92c5"/><path d="M75.81,37.32h-.69l-.52-.86H73.14l.32-.54h.82L73.74,35l-1.39,2.28h-.69l1.68-2.79a.75.75,0,0,1,.17-.19.42.42,0,0,1,.24-.11.47.47,0,0,1,.25.1.79.79,0,0,1,.17.2Z" style="fill:#ac92c5"/><path d="M79,37.32H76.29V34.24h.54v2.55H79Z" style="fill:#ac92c5"/><path d="M84.28,34.78H83.06v2.54h-.53V34.78H81.31v-.54h3Z" style="fill:#ac92c5"/><path d="M87.66,37.32H85V34.24h2.66v.54H85.54v2h2.12ZM87.52,36H85.76v-.54h1.76Z" style="fill:#ac92c5"/><path d="M91.83,37.32H90.1A1.51,1.51,0,0,1,89,36.88a1.53,1.53,0,0,1-.44-1.13A1.42,1.42,0,0,1,89,34.66a1.54,1.54,0,0,1,1.12-.42h1.73v.54H90.1a1,1,0,0,0-.73.28,1,1,0,0,0-.29.73,1,1,0,0,0,.29.72,1,1,0,0,0,.73.28h1.73Z" style="fill:#ac92c5"/><path d="M93.26,37.32h-.54V34.24h.54Zm2.59,0h-.54V36H93.5V35.5h1.81V34.24h.54Z" style="fill:#ac92c5"/><path d="M99.82,37.06c0,.19-.07.29-.2.29a.54.54,0,0,1-.34-.18l-2-2v2.14h-.53V34.51a.31.31,0,0,1,.06-.19.18.18,0,0,1,.16-.08.45.45,0,0,1,.31.16l2,2V34.24h.54Z" style="fill:#ac92c5"/><path d="M104.8,35.75a1.57,1.57,0,0,1-.44,1.13,1.51,1.51,0,0,1-1.11.44h-.86a1.51,1.51,0,0,1-1.11-.44,1.53,1.53,0,0,1-.44-1.13,1.42,1.42,0,0,1,.43-1.09,1.54,1.54,0,0,1,1.12-.42h.86a1.54,1.54,0,0,1,1.12.42A1.42,1.42,0,0,1,104.8,35.75Zm-.53,0a1,1,0,0,0-.29-.73,1,1,0,0,0-.73-.28h-.86a1,1,0,0,0-.73.28,1,1,0,0,0-.29.73,1,1,0,0,0,.29.72,1,1,0,0,0,.73.28h.86a1,1,0,0,0,.73-.28A1,1,0,0,0,104.27,35.79Z" style="fill:#ac92c5"/><path d="M108.12,37.32h-2.65V34.24H106v2.55h2.12Z" style="fill:#ac92c5"/><path d="M112.78,35.75a1.57,1.57,0,0,1-.44,1.13,1.51,1.51,0,0,1-1.11.44h-.87a1.54,1.54,0,0,1-1.11-.44,1.57,1.57,0,0,1-.44-1.13,1.43,1.43,0,0,1,.44-1.09,1.53,1.53,0,0,1,1.11-.42h.87a1.52,1.52,0,0,1,1.11.42A1.43,1.43,0,0,1,112.78,35.75Zm-.53,0a1,1,0,0,0-1-1h-.87a1,1,0,0,0-.72.28,1,1,0,0,0-.29.73,1,1,0,0,0,.29.72,1,1,0,0,0,.72.28h.87a1,1,0,0,0,.73-.28A1,1,0,0,0,112.25,35.79Z" style="fill:#ac92c5"/><path d="M117,37.32h-2a1.51,1.51,0,0,1-1.11-.44,1.53,1.53,0,0,1-.44-1.13,1.42,1.42,0,0,1,.43-1.09,1.56,1.56,0,0,1,1.12-.42h1.74v.54h-1.74a1,1,0,0,0-.73.28,1,1,0,0,0-.29.73,1,1,0,0,0,.29.72,1,1,0,0,0,.73.28h1.42v-.68H115v-.49h2Z" style="fill:#ac92c5"/><path d="M118.49,37.32H118V34.24h.54Z" style="fill:#ac92c5"/><path d="M122.23,37.32h-2.66V34.24h2.66v.54h-2.12v2h2.12ZM122.09,36h-1.75v-.54h1.75Z" style="fill:#ac92c5"/><path d="M126.49,36.37a.89.89,0,0,1-.31.7,1.11,1.11,0,0,1-.75.25h-2.35v-.53h2.35a.81.81,0,0,0,.39-.1.4.4,0,0,0,.18-.33.34.34,0,0,0-.19-.32.65.65,0,0,0-.38-.1H124a1,1,0,0,1-.67-.22.83.83,0,0,1,0-1.26,1.06,1.06,0,0,1,.67-.22h2.32v.54H124a.45.45,0,0,0-.26.08.3.3,0,0,0-.11.23.27.27,0,0,0,.11.23.38.38,0,0,0,.26.08h1.45a1.12,1.12,0,0,1,.75.26A.92.92,0,0,1,126.49,36.37Z" style="fill:#ac92c5"/><path d="M75.23,22.89A5.1,5.1,0,0,1,73.42,27a6.5,6.5,0,0,1-4.31,1.43H55.48V25.3H69.11a4.22,4.22,0,0,0,2.22-.57,2.18,2.18,0,0,0,1.07-1.91A2,2,0,0,0,71.31,21a4.2,4.2,0,0,0-2.2-.55H60.68a6,6,0,0,1-3.9-1.28,4.55,4.55,0,0,1-1.67-3.67,4.49,4.49,0,0,1,1.67-3.63,6,6,0,0,1,3.9-1.29H74.16v3.12H60.68a2.34,2.34,0,0,0-1.51.49,1.63,1.63,0,0,0-.63,1.34,1.55,1.55,0,0,0,.63,1.33,2.39,2.39,0,0,0,1.51.47h8.43a6.34,6.34,0,0,1,4.31,1.5A5.14,5.14,0,0,1,75.23,22.89Z" style="fill:#40c2d2"/><path d="M97.57,17a5.91,5.91,0,0,1-2.14,4.74,7.53,7.53,0,0,1-5,1.67H82.56V20.3h8.37a3.79,3.79,0,0,0,2.59-.91,3.07,3.07,0,0,0,1-2.44,3,3,0,0,0-1-2.4,3.83,3.83,0,0,0-2.59-.89H80.72V28.41H77.61V10.54H90.43a7.44,7.44,0,0,1,5,1.7A5.85,5.85,0,0,1,97.57,17Z" style="fill:#40c2d2"/><path d="M126.49,28.44H123l-2.59-12.51-6,11.54a1.84,1.84,0,0,1-1.68,1.18,2,2,0,0,1-1.83-1.2l-6-11.52-2.56,12.51H98.8l4-16.4a2.3,2.3,0,0,1,.69-1.23,1.73,1.73,0,0,1,1.24-.53c.68,0,1.33.59,1.94,1.76l6,11.69,6-11.69c.61-1.17,1.25-1.76,1.93-1.76a1.81,1.81,0,0,1,1.26.55,2.55,2.55,0,0,1,.68,1.21Z" style="fill:#40c2d2"/><polygon points="22.99 18.07 22.98 18.07 22.98 18.07 22.99 18.07" style="fill:url(#linear-gradient)"/><polygon points="22.98 18.07 22.98 18.07 22.98 18.07 22.98 18.07" style="fill:url(#linear-gradient-2)"/><polygon points="22.98 26.4 22.99 26.4 22.98 26.4 22.98 26.4" style="fill:url(#linear-gradient-3)"/><polygon points="22.98 26.4 22.98 26.4 22.98 26.4 22.98 26.4" style="fill:url(#linear-gradient-4)"/><path d="M23,18.07h0l-.08,0q-2.16.88-4.36,1.66a53.28,53.28,0,0,1-5.72,1.76l-.37.09a19.9,19.9,0,0,1-3.84.58A6.39,6.39,0,0,1,5,21.41a4.07,4.07,0,0,1-1.59-1.82,2.7,2.7,0,0,1-.21-.87,3.25,3.25,0,0,1,.11-1.16,4.18,4.18,0,0,1,.2-.56c1.61-3.73,6.18-2.92,9.36-2.21a52.36,52.36,0,0,1,5.69,1.67c1.46.49,2.92,1,4.35,1.59Z" style="fill:url(#linear-gradient-5)"/><path d="M23,26.4h0l-.08,0c-1.44.6-2.89,1.15-4.36,1.67a58.24,58.24,0,0,1-5.72,1.76l-.37.08a18.47,18.47,0,0,1-3.84.58A6.31,6.31,0,0,1,5,29.73a4.07,4.07,0,0,1-1.59-1.82c-.07-.25-.14-.5-.2-.74a.57.57,0,0,1,0-.13,3.5,3.5,0,0,1,.31-1.71c1.61-3.73,6.18-2.92,9.36-2.21a54.66,54.66,0,0,1,5.69,1.66c1.46.5,2.92,1,4.35,1.59Z" style="fill:url(#linear-gradient-6)"/><path d="M42.75,27a3.5,3.5,0,0,0-.31-1.71c-1.61-3.73-6.18-2.92-9.36-2.21a54.66,54.66,0,0,0-5.69,1.66c-1.46.5-2.92,1-4.35,1.59l-.05,0-.06,0c-1.43-.57-2.89-1.09-4.35-1.59a54.66,54.66,0,0,0-5.69-1.66c-3.18-.71-7.75-1.52-9.36,2.21A3.5,3.5,0,0,0,3.22,27a.57.57,0,0,0,0,.13,17.24,17.24,0,0,1,.1-9.61h0a3.25,3.25,0,0,0-.11,1.16,2.7,2.7,0,0,0,.21.87A4.07,4.07,0,0,0,5,21.41a6.39,6.39,0,0,0,3.59.79,19.9,19.9,0,0,0,3.84-.58l.37-.09a53.28,53.28,0,0,0,5.72-1.76q2.21-.78,4.36-1.66h0l.08,0h0l.08,0q2.16.88,4.36,1.66a53.28,53.28,0,0,0,5.72,1.76l.37.09a19.9,19.9,0,0,0,3.84.58A6.39,6.39,0,0,0,41,21.41a4.07,4.07,0,0,0,1.59-1.82,2.7,2.7,0,0,0,.21-.87,3.25,3.25,0,0,0-.11-1.16h0a17.24,17.24,0,0,1,.1,9.61A.57.57,0,0,0,42.75,27Z" style="fill:url(#linear-gradient-7)"/><path d="M42.75,18.72a2.7,2.7,0,0,1-.21.87A4.07,4.07,0,0,1,41,21.41a6.39,6.39,0,0,1-3.59.79,19.9,19.9,0,0,1-3.84-.58l-.37-.09a53.28,53.28,0,0,1-5.72-1.76q-2.2-.78-4.36-1.66l-.08,0h0l.05,0c1.43-.57,2.89-1.1,4.35-1.59a52.36,52.36,0,0,1,5.69-1.67c3.18-.71,7.75-1.52,9.36,2.21a4.18,4.18,0,0,1,.2.56A3.25,3.25,0,0,1,42.75,18.72Z" style="fill:url(#linear-gradient-8)"/><path d="M42.75,27a.57.57,0,0,1,0,.13c-.06.24-.13.49-.2.74A4.07,4.07,0,0,1,41,29.73a6.31,6.31,0,0,1-3.59.79,18.47,18.47,0,0,1-3.84-.58l-.37-.08a58.24,58.24,0,0,1-5.72-1.76C26,27.58,24.51,27,23.07,26.43l-.08,0h0l.05,0c1.43-.57,2.89-1.09,4.35-1.59a54.66,54.66,0,0,1,5.69-1.66c3.18-.71,7.75-1.52,9.36,2.21A3.5,3.5,0,0,1,42.75,27Z" style="fill:url(#linear-gradient-9)"/><path d="M8.49,8.2l-.19.17a2,2,0,0,0-.48.68,1.94,1.94,0,0,0,.87,2.34,4.12,4.12,0,0,0,2.9.49A19.37,19.37,0,0,0,15,11.1a59.34,59.34,0,0,0,8-3.31S14.64,3.48,8.49,8.2Z" style="fill:url(#linear-gradient-10)"/><path d="M23,2A19.91,19.91,0,0,0,8.3,8.37l.19-.17c6-4.64,14.21-.56,14.49-.42h0c.27-.14,8.44-4.22,14.48.42a1.54,1.54,0,0,1,.19.17A19.91,19.91,0,0,0,23,2Z" style="fill:url(#linear-gradient-11)"/><path d="M37.47,8.2a1.54,1.54,0,0,1,.19.17,1.91,1.91,0,0,1,.48.68,1.94,1.94,0,0,1-.87,2.34,4.12,4.12,0,0,1-2.9.49A19.37,19.37,0,0,1,31,11.1a58.79,58.79,0,0,1-8-3.31S31.32,3.48,37.47,8.2Z" style="fill:url(#linear-gradient-12)"/><path d="M8.49,36.35l-.19-.16a2.28,2.28,0,0,1-.48-.68,2,2,0,0,1,.87-2.35,4.17,4.17,0,0,1,2.9-.49,18.67,18.67,0,0,1,3.39.79,58,58,0,0,1,8,3.31S14.64,41.07,8.49,36.35Z" style="fill:url(#linear-gradient-13)"/><path d="M37.47,36.35c-6,4.64-14.21.56-14.48.42h0c-.28.14-8.44,4.22-14.49-.42l-.19-.16a20.1,20.1,0,0,0,29.36,0Z" style="fill:url(#linear-gradient-14)"/><path d="M37.47,36.35l.19-.16a2.11,2.11,0,0,0,.48-.68,2,2,0,0,0-.87-2.35,4.17,4.17,0,0,0-2.9-.49,18.67,18.67,0,0,0-3.39.79,57.51,57.51,0,0,0-8,3.31S31.32,41.07,37.47,36.35Z" style="fill:url(#linear-gradient-15)"/><rect x="48.85" y="1.99" width="1.13" height="40.58" style="fill:#ac92c5"/></svg>