<svg id="Layer_1" data-name="Layer 1" xmlns="http://www.w3.org/2000/svg" viewBox="0 0 17.66 17.66"><path d="M11.86,1.33H5.8A2.23,2.23,0,0,0,3.58,3.55V14.11A2.23,2.23,0,0,0,5.8,16.33h6.06a2.23,2.23,0,0,0,2.22-2.22V3.55A2.23,2.23,0,0,0,11.86,1.33Zm-6.06,1h6.06a1.19,1.19,0,0,1,1.19,1.2V12H4.61V3.55A1.19,1.19,0,0,1,5.8,2.35Zm6.06,13H5.8a1.19,1.19,0,0,1-1.19-1.2V13h8.44v1.08A1.19,1.19,0,0,1,11.86,15.31Z" style="fill:#fff"/><path d="M8.69,3.83a.41.41,0,0,0,.41-.41.41.41,0,0,0-.82,0A.41.41,0,0,0,8.69,3.83Z" style="fill:#fff"/><path d="M8.69,13.67a.41.41,0,0,0-.41.41.41.41,0,0,0,.82,0A.41.41,0,0,0,8.69,13.67Z" style="fill:#fff"/></svg>