<svg id="Layer_1" data-name="Layer 1" xmlns="http://www.w3.org/2000/svg" xmlns:xlink="http://www.w3.org/1999/xlink" viewBox="0 0 125.06 44.39"><defs><linearGradient id="linear-gradient" x1="20.96" y1="17.99" x2="20.97" y2="17.99" gradientUnits="userSpaceOnUse"><stop offset="0" stop-color="#039447"/><stop offset="0.47" stop-color="#6aba45"/><stop offset="1" stop-color="#7fbc42"/></linearGradient><linearGradient id="linear-gradient-2" x1="20.95" y1="17.99" x2="20.96" y2="17.99" xlink:href="#linear-gradient"/><linearGradient id="linear-gradient-3" x1="20.96" y1="26.32" x2="20.97" y2="26.32" xlink:href="#linear-gradient"/><linearGradient id="linear-gradient-4" x1="20.95" y1="26.32" x2="20.96" y2="26.32" xlink:href="#linear-gradient"/><linearGradient id="linear-gradient-5" x1="27.97" y1="27.97" x2="4.62" y2="15.84" gradientUnits="userSpaceOnUse"><stop offset="0" stop-color="#ac92c4"/><stop offset="1" stop-color="#8bd6ef"/></linearGradient><linearGradient id="linear-gradient-6" x1="26.04" y1="16.91" x2="7.46" y2="27.36" gradientUnits="userSpaceOnUse"><stop offset="0" stop-color="#93c6eb"/><stop offset="1" stop-color="#94d5d6"/></linearGradient><linearGradient id="linear-gradient-7" x1="41.46" y1="23.87" x2="-0.34" y2="20.64" gradientUnits="userSpaceOnUse"><stop offset="0.01" stop-color="#7187c3"/><stop offset="0.51" stop-color="#2baae2"/><stop offset="1" stop-color="#4ec3c7"/></linearGradient><linearGradient id="linear-gradient-8" x1="36.48" y1="15.92" x2="23.83" y2="23.15" xlink:href="#linear-gradient-6"/><linearGradient id="linear-gradient-9" x1="37.58" y1="28.71" x2="17.85" y2="18.65" xlink:href="#linear-gradient-5"/><linearGradient id="linear-gradient-10" x1="10.78" y1="10.01" x2="20.84" y2="2.79" xlink:href="#linear-gradient-6"/><linearGradient id="linear-gradient-11" x1="8.67" y1="7.34" x2="32.66" y2="4.5" gradientUnits="userSpaceOnUse"><stop offset="0" stop-color="#60abde"/><stop offset="1" stop-color="#4ec3c7"/></linearGradient><linearGradient id="linear-gradient-12" x1="19.14" y1="6.92" x2="34.88" y2="9.5" xlink:href="#linear-gradient-6"/><linearGradient id="linear-gradient-13" x1="26.8" y1="37.39" x2="13.64" y2="35.84" xlink:href="#linear-gradient-5"/><linearGradient id="linear-gradient-14" x1="30.48" y1="40" x2="-4.74" y2="32.39" gradientUnits="userSpaceOnUse"><stop offset="0" stop-color="#7b65ad"/><stop offset="0.51" stop-color="#2baae2"/><stop offset="1" stop-color="#4ec3c7"/></linearGradient><linearGradient id="linear-gradient-15" x1="35.87" y1="34.54" x2="19.81" y2="37.83" xlink:href="#linear-gradient-5"/></defs><path d="M56.62,37.24h-2a1.48,1.48,0,0,1-1.11-.45,1.51,1.51,0,0,1-.44-1.13,1.44,1.44,0,0,1,.43-1.09,1.59,1.59,0,0,1,1.12-.41H56.4v.54H54.66a1,1,0,0,0-.73,1.73,1,1,0,0,0,.73.27h1.42V36H54.62v-.49h2Z" style="fill:#ac92c5"/><path d="M60,37.24H57.33V34.16h.54V36.7H60Z" style="fill:#ac92c5"/><path d="M64.64,35.66a1.55,1.55,0,0,1-.44,1.13,1.48,1.48,0,0,1-1.11.45h-.86a1.48,1.48,0,0,1-1.11-.45,1.51,1.51,0,0,1-.44-1.13,1.44,1.44,0,0,1,.43-1.09,1.58,1.58,0,0,1,1.12-.41h.86a1.59,1.59,0,0,1,1.12.41A1.44,1.44,0,0,1,64.64,35.66Zm-.53.05a1,1,0,0,0-1-1h-.86a1,1,0,0,0-.73,1.73,1,1,0,0,0,.73.27h.86a1,1,0,0,0,.73-.27A1,1,0,0,0,64.11,35.71Z" style="fill:#ac92c5"/><path d="M68.9,36.34a.75.75,0,0,1-.1.38,1.19,1.19,0,0,1-1.13.51H65.46V34.15h2.21a1.21,1.21,0,0,1,1.11.5.8.8,0,0,1-.2,1.06A.79.79,0,0,1,68.9,36.34Zm-.52-1.28a.32.32,0,0,0-.22-.29,1,1,0,0,0-.4-.08H66v2h1.76a1,1,0,0,0,.39-.07c.15-.07.23-.16.23-.28a.31.31,0,0,0-.23-.29,1,1,0,0,0-.39-.07H66.32v-.54h1.44a1,1,0,0,0,.4-.08A.33.33,0,0,0,68.38,35.06Z" style="fill:#ac92c5"/><path d="M73.78,37.24h-.69l-.52-.86H71.11l.33-.53h.81L71.72,35l-1.39,2.28h-.69l1.67-2.78a.67.67,0,0,1,.18-.2.4.4,0,0,1,.24-.1.36.36,0,0,1,.24.1.86.86,0,0,1,.18.2Z" style="fill:#ac92c5"/><path d="M76.92,37.24H74.26V34.16h.54V36.7h2.12Z" style="fill:#ac92c5"/><path d="M82.25,34.7H81v2.54H80.5V34.7H79.29v-.54h3Z" style="fill:#ac92c5"/><path d="M85.64,37.24H83V34.16h2.66v.54H83.51v2h2.13Zm-.14-1.3H83.74v-.53H85.5Z" style="fill:#ac92c5"/><path d="M89.81,37.24H88.07A1.48,1.48,0,0,1,87,36.79a1.55,1.55,0,0,1-.44-1.13A1.45,1.45,0,0,1,87,34.57a1.57,1.57,0,0,1,1.11-.41h1.74v.54H88.07a1,1,0,0,0-.73.28,1.08,1.08,0,0,0,0,1.45,1,1,0,0,0,.73.27h1.74Z" style="fill:#ac92c5"/><path d="M91.23,37.24H90.7V34.16h.53Zm2.59,0h-.53V36H91.48v-.54h1.81V34.16h.53Z" style="fill:#ac92c5"/><path d="M97.79,37c0,.2-.06.3-.2.3a.5.5,0,0,1-.33-.18l-2-2v2.14h-.53V34.42a.28.28,0,0,1,.06-.18.2.2,0,0,1,.17-.08.41.41,0,0,1,.3.16l2,2V34.16h.53Z" style="fill:#ac92c5"/><path d="M102.77,35.66a1.55,1.55,0,0,1-.43,1.13,1.52,1.52,0,0,1-1.12.45h-.86a1.48,1.48,0,0,1-1.11-.45,1.55,1.55,0,0,1-.44-1.13,1.44,1.44,0,0,1,.43-1.09,1.59,1.59,0,0,1,1.12-.41h.86a1.58,1.58,0,0,1,1.12.41A1.44,1.44,0,0,1,102.77,35.66Zm-.53.05A1,1,0,0,0,102,35a1,1,0,0,0-.74-.28h-.86a1,1,0,0,0-.73.28,1.08,1.08,0,0,0,0,1.45,1,1,0,0,0,.73.27h.86a1.05,1.05,0,0,0,.74-.27A1,1,0,0,0,102.24,35.71Z" style="fill:#ac92c5"/><path d="M106.1,37.24h-2.66V34.16H104V36.7h2.12Z" style="fill:#ac92c5"/><path d="M110.75,35.66a1.51,1.51,0,0,1-.44,1.13,1.48,1.48,0,0,1-1.11.45h-.86a1.48,1.48,0,0,1-1.11-.45,1.51,1.51,0,0,1-.44-1.13,1.44,1.44,0,0,1,.43-1.09,1.58,1.58,0,0,1,1.12-.41h.86a1.58,1.58,0,0,1,1.12.41A1.44,1.44,0,0,1,110.75,35.66Zm-.53.05a1,1,0,0,0-1-1h-.86a1,1,0,0,0-.73,1.73,1,1,0,0,0,.73.27h.86a1,1,0,0,0,.73-.27A1,1,0,0,0,110.22,35.71Z" style="fill:#ac92c5"/><path d="M115,37.24h-2a1.49,1.49,0,0,1-1.11-.45,1.55,1.55,0,0,1-.44-1.13,1.45,1.45,0,0,1,.44-1.09,1.57,1.57,0,0,1,1.11-.41h1.74v.54H113a1,1,0,0,0-.73.28,1.08,1.08,0,0,0,0,1.45,1,1,0,0,0,.73.27h1.42V36H113v-.49h2Z" style="fill:#ac92c5"/><path d="M116.46,37.24h-.54V34.16h.54Z" style="fill:#ac92c5"/><path d="M120.21,37.24h-2.66V34.16h2.66v.54h-2.13v2h2.13Zm-.14-1.3h-1.76v-.53h1.76Z" style="fill:#ac92c5"/><path d="M124.46,36.29a.87.87,0,0,1-.31.7,1.11,1.11,0,0,1-.74.25h-2.35V36.7h2.35a.7.7,0,0,0,.38-.1.38.38,0,0,0,.18-.33.36.36,0,0,0-.19-.32.72.72,0,0,0-.37-.09H122a1,1,0,0,1-.67-.22.83.83,0,0,1,0-1.26,1,1,0,0,1,.67-.22h2.33v.54H122a.38.38,0,0,0-.26.08.28.28,0,0,0-.11.23.27.27,0,0,0,.11.23.45.45,0,0,0,.26.08h1.46a1.11,1.11,0,0,1,.74.26A.89.89,0,0,1,124.46,36.29Z" style="fill:#ac92c5"/><path d="M73.2,22.81a5.11,5.11,0,0,1-1.8,4.08,6.51,6.51,0,0,1-4.32,1.44H53.45V25.22H67.08a4.14,4.14,0,0,0,2.23-.58,2.18,2.18,0,0,0,1.07-1.91,2.07,2.07,0,0,0-1.1-1.86,4.25,4.25,0,0,0-2.2-.54H58.66A5.92,5.92,0,0,1,54.76,19a4.5,4.5,0,0,1-1.68-3.66,4.5,4.5,0,0,1,1.68-3.64,6,6,0,0,1,3.9-1.28H72.13v3.11H58.66a2.38,2.38,0,0,0-1.52.5,1.62,1.62,0,0,0-.63,1.34,1.56,1.56,0,0,0,.63,1.33,2.48,2.48,0,0,0,1.52.47h8.42A6.39,6.39,0,0,1,71.4,18.7,5.2,5.2,0,0,1,73.2,22.81Z" style="fill:#40c2d2"/><path d="M95.55,16.9a5.88,5.88,0,0,1-2.15,4.73,7.46,7.46,0,0,1-5,1.68H80.53V20.22H88.9a3.78,3.78,0,0,0,2.59-.91,3.1,3.1,0,0,0,1.05-2.44,3,3,0,0,0-1.05-2.41,3.86,3.86,0,0,0-2.59-.89H78.7V28.33H75.59V10.46H88.41a7.42,7.42,0,0,1,5,1.7A5.86,5.86,0,0,1,95.55,16.9Z" style="fill:#40c2d2"/><path d="M124.46,28.36H121l-2.59-12.51-6,11.54a1.85,1.85,0,0,1-1.67,1.18,2,2,0,0,1-1.83-1.21l-6-11.51-2.57,12.51H96.78l4-16.41a2.47,2.47,0,0,1,.7-1.23,1.7,1.7,0,0,1,1.24-.52c.68,0,1.32.58,1.93,1.75l6,11.7,6-11.7c.61-1.17,1.26-1.75,1.94-1.75a1.76,1.76,0,0,1,1.25.55,2.57,2.57,0,0,1,.68,1.2Z" style="fill:#40c2d2"/><polygon points="20.97 17.99 20.96 17.99 20.96 17.99 20.97 17.99" style="fill:url(#linear-gradient)"/><polygon points="20.96 17.99 20.96 17.99 20.95 17.99 20.96 17.99" style="fill:url(#linear-gradient-2)"/><polygon points="20.96 26.32 20.97 26.32 20.96 26.31 20.96 26.32" style="fill:url(#linear-gradient-3)"/><polygon points="20.95 26.32 20.96 26.32 20.96 26.31 20.95 26.32" style="fill:url(#linear-gradient-4)"/><path d="M21,18h0l-.07,0c-1.44.6-2.9,1.15-4.37,1.67a53.28,53.28,0,0,1-5.72,1.76l-.36.09a20,20,0,0,1-3.84.58A6.51,6.51,0,0,1,3,21.33,4.19,4.19,0,0,1,1.4,19.51a2.76,2.76,0,0,1-.21-.88,3.23,3.23,0,0,1,.12-1.15,3.69,3.69,0,0,1,.19-.56c1.62-3.73,6.18-2.92,9.36-2.21a55.56,55.56,0,0,1,5.7,1.66c1.46.5,2.91,1,4.34,1.6Z" style="fill:url(#linear-gradient-5)"/><path d="M21,26.31h0l-.07,0C19.44,27,18,27.49,16.51,28a55.6,55.6,0,0,1-5.72,1.75l-.36.09a20,20,0,0,1-3.84.58A6.34,6.34,0,0,1,3,29.65,4.13,4.13,0,0,1,1.4,27.83c-.07-.25-.13-.5-.2-.75,0,0,0-.08,0-.12a3.61,3.61,0,0,1,.31-1.71c1.62-3.74,6.18-2.93,9.36-2.22a58.25,58.25,0,0,1,5.7,1.67c1.46.49,2.91,1,4.34,1.59Z" style="fill:url(#linear-gradient-6)"/><path d="M40.73,27a3.61,3.61,0,0,0-.31-1.71c-1.62-3.74-6.18-2.93-9.36-2.22a58.25,58.25,0,0,0-5.7,1.67q-2.19.74-4.35,1.59l-.05,0-.06,0c-1.43-.57-2.88-1.1-4.34-1.59A58.25,58.25,0,0,0,10.86,23c-3.18-.71-7.74-1.52-9.36,2.22A3.61,3.61,0,0,0,1.19,27s0,.08,0,.12a17.31,17.31,0,0,1,.1-9.6h0a3.23,3.23,0,0,0-.12,1.15,2.76,2.76,0,0,0,.21.88A4.19,4.19,0,0,0,3,21.33a6.51,6.51,0,0,0,3.6.79,20,20,0,0,0,3.84-.58l.36-.09a53.28,53.28,0,0,0,5.72-1.76c1.47-.52,2.93-1.07,4.37-1.67h0L21,18h0L21,18c1.44.6,2.9,1.15,4.36,1.67a54,54,0,0,0,5.72,1.76l.37.09a19.9,19.9,0,0,0,3.84.58,6.47,6.47,0,0,0,3.59-.79,4.21,4.21,0,0,0,1.6-1.82,3.05,3.05,0,0,0,.21-.88,3.23,3.23,0,0,0-.12-1.15h0a17.19,17.19,0,0,1,.1,9.6A.5.5,0,0,0,40.73,27Z" style="fill:url(#linear-gradient-7)"/><path d="M40.73,18.63a3.05,3.05,0,0,1-.21.88,4.21,4.21,0,0,1-1.6,1.82,6.47,6.47,0,0,1-3.59.79,19.9,19.9,0,0,1-3.84-.58l-.37-.09a54,54,0,0,1-5.72-1.76C23.94,19.17,22.48,18.62,21,18L21,18h0L21,18c1.44-.58,2.89-1.1,4.35-1.6a55.56,55.56,0,0,1,5.7-1.66c3.18-.71,7.74-1.52,9.36,2.21a3.69,3.69,0,0,1,.19.56A3.23,3.23,0,0,1,40.73,18.63Z" style="fill:url(#linear-gradient-8)"/><path d="M40.73,27a.5.5,0,0,1,0,.12c-.06.25-.12.5-.19.75a4.15,4.15,0,0,1-1.6,1.82,6.31,6.31,0,0,1-3.59.79,19.9,19.9,0,0,1-3.84-.58l-.37-.09A56.37,56.37,0,0,1,25.4,28C23.94,27.49,22.48,27,21,26.35l-.07,0h0l.05,0q2.16-.86,4.35-1.59A58.25,58.25,0,0,1,31.06,23c3.18-.71,7.74-1.52,9.36,2.22A3.61,3.61,0,0,1,40.73,27Z" style="fill:url(#linear-gradient-9)"/><path d="M6.47,8.12l-.2.16A2.28,2.28,0,0,0,5.79,9a2,2,0,0,0,.88,2.35,4.17,4.17,0,0,0,2.9.49A18.86,18.86,0,0,0,13,11,58,58,0,0,0,21,7.7S12.61,3.4,6.47,8.12Z" style="fill:url(#linear-gradient-10)"/><path d="M21,1.91A19.91,19.91,0,0,0,6.27,8.28l.2-.16c6-4.64,14.21-.56,14.48-.42h0c.27-.14,8.44-4.22,14.48.42l.2.16A19.91,19.91,0,0,0,21,1.91Z" style="fill:url(#linear-gradient-11)"/><path d="M35.44,8.12l.2.16a2.28,2.28,0,0,1,.48.68,2,2,0,0,1-.88,2.35,4.17,4.17,0,0,1-2.9.49A18.86,18.86,0,0,1,29,11,58,58,0,0,1,21,7.7S29.3,3.4,35.44,8.12Z" style="fill:url(#linear-gradient-12)"/><path d="M6.47,36.27l-.2-.17a2,2,0,0,1-.48-.68,2,2,0,0,1,.88-2.34,4.12,4.12,0,0,1,2.9-.49,19.57,19.57,0,0,1,3.39.78,59.32,59.32,0,0,1,8,3.31S12.61,41,6.47,36.27Z" style="fill:url(#linear-gradient-13)"/><path d="M35.44,36.27c-6,4.64-14.21.56-14.48.42h0c-.27.14-8.44,4.22-14.48-.42l-.2-.17a20.09,20.09,0,0,0,29.37,0Z" style="fill:url(#linear-gradient-14)"/><path d="M35.44,36.27l.2-.17a2,2,0,0,0,.48-.68,2,2,0,0,0-.88-2.34,4.12,4.12,0,0,0-2.9-.49,19.57,19.57,0,0,0-3.39.78,59.32,59.32,0,0,0-8,3.31S29.3,41,35.44,36.27Z" style="fill:url(#linear-gradient-15)"/><rect x="46.82" y="1.91" width="1.13" height="40.58" style="fill:#ac92c5"/></svg>