<?xml version="1.0" encoding="utf-8"?>
<!-- Generator: Adobe Illustrator 25.0.0, SVG Export Plug-In . SVG Version: 6.00 Build 0)  -->
<svg version="1.1" id="Layer_1" xmlns="http://www.w3.org/2000/svg" xmlns:xlink="http://www.w3.org/1999/xlink" x="0px" y="0px"
	 viewBox="0 0 180.98 50" style="enable-background:new 0 0 180.98 50;" xml:space="preserve">
<style type="text/css">
	.st0{fill:#AC92C5;}
	.st1{fill:#40C2D2;}
	.st2{fill:url(#SVGID_1_);}
	.st3{fill:url(#SVGID_2_);}
	.st4{fill:url(#SVGID_3_);}
	.st5{fill:url(#SVGID_4_);}
	.st6{fill:url(#SVGID_5_);}
	.st7{fill:url(#SVGID_6_);}
	.st8{fill:url(#SVGID_7_);}
	.st9{fill:url(#SVGID_8_);}
	.st10{fill:url(#SVGID_9_);}
	.st11{fill:url(#SVGID_10_);}
	.st12{fill:url(#SVGID_11_);}
	.st13{fill:url(#SVGID_12_);}
	.st14{fill:url(#SVGID_13_);}
	.st15{fill:url(#SVGID_14_);}
	.st16{fill:url(#SVGID_15_);}
</style>
<g>
	<g>
		<path class="st0" d="M68.43,44.77h-3.21c-0.74,0-1.34-0.24-1.83-0.73c-0.48-0.49-0.72-1.11-0.72-1.85c0-0.74,0.24-1.34,0.71-1.79
			c0.48-0.45,1.09-0.68,1.83-0.68h2.85v0.88h-2.85c-0.48,0-0.88,0.16-1.2,0.47s-0.47,0.71-0.47,1.2c0,0.48,0.16,0.88,0.47,1.18
			s0.71,0.45,1.2,0.45h2.33v-1.1h-2.4v-0.81h3.28V44.77z"/>
		<path class="st0" d="M73.96,44.77H69.6v-5.06h0.88v4.18h3.48V44.77z"/>
		<path class="st0" d="M81.6,42.18c0,0.75-0.24,1.36-0.72,1.85c-0.48,0.49-1.09,0.73-1.83,0.73h-1.41c-0.74,0-1.34-0.24-1.83-0.73
			c-0.48-0.49-0.72-1.11-0.72-1.85c0-0.74,0.24-1.34,0.71-1.79c0.48-0.45,1.09-0.68,1.83-0.68h1.41c0.75,0,1.36,0.23,1.84,0.68
			C81.37,40.84,81.6,41.44,81.6,42.18z M80.73,42.25c0-0.49-0.16-0.89-0.47-1.2s-0.71-0.47-1.2-0.47h-1.41
			c-0.48,0-0.88,0.16-1.2,0.47s-0.47,0.71-0.47,1.2c0,0.48,0.16,0.88,0.47,1.18s0.71,0.45,1.2,0.45h1.41c0.49,0,0.89-0.15,1.2-0.45
			S80.73,42.74,80.73,42.25z"/>
		<path class="st0" d="M88.6,43.29c0,0.22-0.05,0.42-0.16,0.62c-0.33,0.57-0.94,0.85-1.85,0.85h-3.63V39.7h3.63
			c0.86,0,1.47,0.27,1.81,0.81c0.13,0.22,0.2,0.45,0.2,0.7c0,0.42-0.18,0.77-0.53,1.06C88.43,42.54,88.6,42.88,88.6,43.29z
			 M87.75,41.2c0-0.21-0.12-0.37-0.37-0.49c-0.19-0.08-0.41-0.13-0.66-0.13h-2.88v3.3h2.88c0.24,0,0.46-0.04,0.64-0.11
			c0.26-0.11,0.39-0.26,0.39-0.47c0-0.21-0.13-0.37-0.39-0.47c-0.19-0.08-0.41-0.12-0.64-0.12h-2.36v-0.88h2.36
			c0.25,0,0.47-0.04,0.66-0.13C87.63,41.58,87.75,41.41,87.75,41.2z"/>
		<path class="st0" d="M96.62,44.77l-1.13-0.01l-0.85-1.41h-2.4l0.53-0.87h1.34l-0.88-1.46l-2.28,3.75h-1.13l2.75-4.57
			c0.07-0.12,0.17-0.23,0.29-0.33c0.15-0.11,0.28-0.17,0.4-0.17c0.13,0,0.26,0.05,0.4,0.16c0.12,0.09,0.21,0.21,0.29,0.33
			L96.62,44.77z"/>
		<path class="st0" d="M101.77,44.77h-4.36v-5.06h0.88v4.18h3.48V44.77z"/>
		<path class="st0" d="M110.53,40.59h-1.99v4.18h-0.87v-4.18h-2v-0.88h4.87V40.59z"/>
		<path class="st0" d="M116.09,44.77h-4.37v-5.06h4.37v0.88h-3.49v3.3h3.49V44.77z M115.86,42.64h-2.89v-0.88h2.89V42.64z"/>
		<path class="st0" d="M122.94,44.77h-2.85c-0.74,0-1.34-0.24-1.83-0.73c-0.48-0.49-0.72-1.11-0.72-1.85c0-0.74,0.24-1.34,0.71-1.79
			c0.48-0.45,1.09-0.68,1.83-0.68h2.85v0.88h-2.85c-0.48,0-0.88,0.16-1.2,0.47c-0.31,0.31-0.47,0.71-0.47,1.2
			c0,0.48,0.16,0.88,0.47,1.18c0.31,0.3,0.71,0.45,1.2,0.45h2.85V44.77z"/>
		<path class="st0" d="M125.29,44.77h-0.88v-5.06h0.88V44.77z M129.54,44.77h-0.88v-2.1h-2.97v-0.88h2.97v-2.07h0.88V44.77z"/>
		<path class="st0" d="M136.06,44.33c0,0.33-0.11,0.49-0.33,0.49c-0.16,0-0.35-0.1-0.55-0.3l-3.24-3.26v3.51h-0.87v-4.62
			c0-0.12,0.03-0.22,0.1-0.31s0.16-0.13,0.27-0.13c0.16,0,0.33,0.09,0.5,0.26l3.24,3.25v-3.51h0.88V44.33z"/>
		<path class="st0" d="M144.24,42.18c0,0.75-0.24,1.36-0.72,1.85c-0.48,0.49-1.09,0.73-1.83,0.73h-1.41c-0.74,0-1.34-0.24-1.83-0.73
			c-0.48-0.49-0.72-1.11-0.72-1.85c0-0.74,0.24-1.34,0.71-1.79c0.48-0.45,1.09-0.68,1.83-0.68h1.41c0.75,0,1.36,0.23,1.84,0.68
			C144,40.84,144.24,41.44,144.24,42.18z M143.37,42.25c0-0.49-0.16-0.89-0.47-1.2s-0.71-0.47-1.2-0.47h-1.41
			c-0.48,0-0.88,0.16-1.2,0.47s-0.47,0.71-0.47,1.2c0,0.48,0.16,0.88,0.47,1.18s0.71,0.45,1.2,0.45h1.41c0.49,0,0.89-0.15,1.2-0.45
			S143.37,42.74,143.37,42.25z"/>
		<path class="st0" d="M149.7,44.77h-4.36v-5.06h0.88v4.18h3.48V44.77z"/>
		<path class="st0" d="M157.34,42.18c0,0.75-0.24,1.36-0.72,1.85c-0.48,0.49-1.09,0.73-1.83,0.73h-1.41c-0.74,0-1.34-0.24-1.83-0.73
			c-0.48-0.49-0.72-1.11-0.72-1.85c0-0.74,0.24-1.34,0.71-1.79c0.48-0.45,1.09-0.68,1.83-0.68h1.41c0.75,0,1.36,0.23,1.84,0.68
			C157.11,40.84,157.34,41.44,157.34,42.18z M156.47,42.25c0-0.49-0.16-0.89-0.47-1.2c-0.31-0.31-0.71-0.47-1.2-0.47h-1.41
			c-0.48,0-0.88,0.16-1.2,0.47c-0.31,0.31-0.47,0.71-0.47,1.2c0,0.48,0.16,0.88,0.47,1.18c0.31,0.3,0.71,0.45,1.2,0.45h1.41
			c0.49,0,0.89-0.15,1.2-0.45C156.31,43.13,156.47,42.74,156.47,42.25z"/>
		<path class="st0" d="M164.31,44.77h-3.21c-0.74,0-1.34-0.24-1.83-0.73c-0.48-0.49-0.72-1.11-0.72-1.85c0-0.74,0.24-1.34,0.71-1.79
			c0.48-0.45,1.09-0.68,1.83-0.68h2.85v0.88h-2.85c-0.48,0-0.88,0.16-1.2,0.47c-0.31,0.31-0.47,0.71-0.47,1.2
			c0,0.48,0.16,0.88,0.47,1.18c0.31,0.3,0.71,0.45,1.2,0.45h2.33v-1.1h-2.4v-0.81h3.28V44.77z"/>
		<path class="st0" d="M166.72,44.77h-0.88v-5.06h0.88V44.77z"/>
		<path class="st0" d="M172.88,44.77h-4.37v-5.06h4.37v0.88h-3.49v3.3h3.49V44.77z M172.65,42.64h-2.89v-0.88h2.89V42.64z"/>
		<path class="st0" d="M179.86,43.2c0,0.48-0.17,0.86-0.51,1.16c-0.33,0.27-0.73,0.41-1.22,0.41h-3.86v-0.88h3.86
			c0.24,0,0.45-0.05,0.63-0.16c0.2-0.13,0.3-0.31,0.3-0.54c0-0.23-0.1-0.4-0.31-0.53c-0.17-0.1-0.38-0.16-0.62-0.16h-2.39
			c-0.44,0-0.81-0.12-1.1-0.36c-0.32-0.26-0.47-0.61-0.47-1.04c0-0.42,0.16-0.77,0.47-1.03c0.3-0.24,0.66-0.36,1.1-0.36h3.82v0.88
			h-3.82c-0.17,0-0.31,0.05-0.43,0.14c-0.12,0.09-0.18,0.22-0.18,0.38c0,0.16,0.06,0.29,0.18,0.38c0.12,0.09,0.26,0.13,0.43,0.13
			h2.39c0.49,0,0.9,0.14,1.22,0.42C179.69,42.34,179.86,42.72,179.86,43.2z"/>
	</g>
	<g>
		<path class="st1" d="M95.67,26c0,2.78-0.99,5.01-2.97,6.7c-1.89,1.58-4.26,2.36-7.09,2.36H63.22v-5.11h22.39
			c1.4,0,2.62-0.31,3.65-0.95c1.17-0.77,1.76-1.82,1.76-3.14c0-1.32-0.6-2.33-1.81-3.05c-1-0.6-2.21-0.9-3.61-0.9H71.78
			c-2.55,0-4.68-0.7-6.4-2.11c-1.83-1.52-2.75-3.52-2.75-6.02c0-2.46,0.92-4.45,2.75-5.97c1.72-1.4,3.85-2.11,6.4-2.11h22.13v5.11
			H71.78c-0.97,0-1.8,0.27-2.49,0.82c-0.69,0.54-1.03,1.27-1.03,2.19c0,0.95,0.34,1.68,1.03,2.19c0.69,0.52,1.52,0.77,2.49,0.77
			h13.84c2.84,0,5.2,0.82,7.09,2.45C94.68,20.97,95.67,23.22,95.67,26z"/>
		<path class="st1" d="M132.37,16.28c0,3.21-1.18,5.8-3.52,7.78c-2.18,1.83-4.91,2.75-8.21,2.75h-12.94v-5.07h13.75
			c1.69,0,3.11-0.5,4.26-1.5c1.15-1,1.72-2.34,1.72-4s-0.57-2.98-1.72-3.95c-1.15-0.97-2.56-1.46-4.26-1.46H104.7v24.24h-5.11V5.71
			h21.06c3.29,0,6.03,0.93,8.21,2.79C131.2,10.45,132.37,13.05,132.37,16.28z"/>
		<path class="st1" d="M179.86,35.11h-5.76l-4.25-20.54l-9.84,18.95c-0.66,1.29-1.58,1.93-2.75,1.93c-1.32,0-2.32-0.66-3.01-1.98
			l-9.84-18.91l-4.21,20.54h-5.8l6.58-26.95c0.17-0.77,0.55-1.45,1.14-2.02c0.59-0.57,1.27-0.86,2.04-0.86
			c1.12,0,2.18,0.96,3.18,2.88l9.8,19.21l9.84-19.21c1-1.92,2.06-2.88,3.18-2.88c0.74,0,1.43,0.3,2.06,0.9
			c0.54,0.54,0.92,1.2,1.12,1.98L179.86,35.11z"/>
	</g>
	<g>
		<linearGradient id="SVGID_1_" gradientUnits="userSpaceOnUse" x1="25.2885" y1="20.0086" x2="25.2975" y2="20.0086">
			<stop  offset="0" style="stop-color:#039447"/>
			<stop  offset="0.4677" style="stop-color:#6ABA45"/>
			<stop  offset="1" style="stop-color:#7FBC42"/>
		</linearGradient>
		<polygon class="st2" points="25.3,20.01 25.29,20.01 25.29,20.01 		"/>
		<linearGradient id="SVGID_2_" gradientUnits="userSpaceOnUse" x1="25.2796" y1="20.0086" x2="25.2885" y2="20.0086">
			<stop  offset="0" style="stop-color:#039447"/>
			<stop  offset="0.4677" style="stop-color:#6ABA45"/>
			<stop  offset="1" style="stop-color:#7FBC42"/>
		</linearGradient>
		<polygon class="st3" points="25.29,20.01 25.29,20.01 25.28,20.01 		"/>
		<linearGradient id="SVGID_3_" gradientUnits="userSpaceOnUse" x1="25.2885" y1="29.8939" x2="25.2968" y2="29.8939">
			<stop  offset="0" style="stop-color:#039447"/>
			<stop  offset="0.4677" style="stop-color:#6ABA45"/>
			<stop  offset="1" style="stop-color:#7FBC42"/>
		</linearGradient>
		<polygon class="st4" points="25.29,29.9 25.3,29.9 25.29,29.89 		"/>
		<linearGradient id="SVGID_4_" gradientUnits="userSpaceOnUse" x1="25.2801" y1="29.894" x2="25.2885" y2="29.894">
			<stop  offset="0" style="stop-color:#039447"/>
			<stop  offset="0.4677" style="stop-color:#6ABA45"/>
			<stop  offset="1" style="stop-color:#7FBC42"/>
		</linearGradient>
		<polygon class="st5" points="25.28,29.9 25.29,29.9 25.29,29.89 		"/>
		<linearGradient id="SVGID_5_" gradientUnits="userSpaceOnUse" x1="33.608" y1="31.8571" x2="5.8839" y2="17.459">
			<stop  offset="0" style="stop-color:#AC92C4"/>
			<stop  offset="1" style="stop-color:#8BD6EF"/>
		</linearGradient>
		<path class="st6" d="M25.29,20.01C25.29,20.01,25.28,20.01,25.29,20.01c-0.04,0.02-0.07,0.03-0.1,0.04
			c-1.71,0.71-3.44,1.36-5.18,1.98c-2.21,0.79-4.49,1.54-6.79,2.09c-0.15,0.04-0.29,0.07-0.44,0.1c-1.5,0.35-3.02,0.64-4.56,0.69
			c-1.46,0.04-3-0.15-4.27-0.94c-0.82-0.51-1.51-1.27-1.89-2.16c-0.14-0.34-0.22-0.68-0.25-1.04c-0.04-0.46,0.02-0.92,0.14-1.37
			c0.06-0.23,0.14-0.45,0.23-0.66c1.92-4.43,7.34-3.47,11.12-2.63c2.29,0.51,4.56,1.22,6.76,1.97c1.73,0.59,3.46,1.21,5.16,1.89
			C25.24,19.99,25.27,20,25.29,20.01z"/>
		<linearGradient id="SVGID_6_" gradientUnits="userSpaceOnUse" x1="31.3225" y1="18.7301" x2="9.2658" y2="31.137">
			<stop  offset="0" style="stop-color:#93C6EB"/>
			<stop  offset="1" style="stop-color:#94D5D6"/>
		</linearGradient>
		<path class="st7" d="M25.29,29.89C25.29,29.89,25.28,29.89,25.29,29.89c-0.04,0.02-0.07,0.03-0.1,0.04
			c-1.71,0.71-3.44,1.36-5.18,1.98c-2.21,0.79-4.49,1.54-6.79,2.09c-0.15,0.04-0.29,0.07-0.44,0.1c-1.5,0.35-3.02,0.65-4.56,0.69
			c-1.46,0.04-3-0.15-4.27-0.94c-0.82-0.51-1.51-1.27-1.89-2.16c-0.09-0.3-0.16-0.59-0.24-0.89c-0.01-0.05-0.01-0.1-0.02-0.15
			c-0.06-0.69,0.09-1.39,0.37-2.03C4.1,24.19,9.52,25.15,13.3,26c2.29,0.51,4.56,1.22,6.76,1.97c1.73,0.59,3.46,1.21,5.16,1.89
			C25.24,29.87,25.27,29.88,25.29,29.89z"/>
		<linearGradient id="SVGID_7_" gradientUnits="userSpaceOnUse" x1="49.6252" y1="26.9879" x2="-2.372613e-03" y2="23.1586">
			<stop  offset="0.0108" style="stop-color:#7187C3"/>
			<stop  offset="0.5108" style="stop-color:#2BAAE2"/>
			<stop  offset="1" style="stop-color:#4EC3C7"/>
		</linearGradient>
		<path class="st8" d="M48.76,30.66c0.06-0.69-0.09-1.39-0.37-2.03c-1.92-4.43-7.34-3.47-11.12-2.63c-2.29,0.51-4.56,1.22-6.76,1.97
			c-1.73,0.59-3.46,1.21-5.16,1.89c-0.02,0.01-0.04,0.02-0.07,0.03c-0.02-0.01-0.04-0.02-0.07-0.03c-1.7-0.68-3.43-1.3-5.16-1.89
			c-2.2-0.75-4.47-1.46-6.76-1.97c-3.78-0.85-9.2-1.81-11.12,2.63c-0.28,0.64-0.42,1.35-0.37,2.03c0,0.05,0.01,0.1,0.02,0.15
			c-1.67-6.77,0.12-11.4,0.12-11.4h0c-0.12,0.45-0.18,0.91-0.14,1.37c0.03,0.35,0.11,0.7,0.25,1.04c0.38,0.89,1.07,1.65,1.89,2.16
			c1.26,0.79,2.8,0.98,4.27,0.94c1.54-0.05,3.06-0.34,4.56-0.69c0.15-0.03,0.29-0.07,0.44-0.1c2.3-0.55,4.58-1.3,6.79-2.09
			c1.74-0.62,3.47-1.27,5.18-1.98l0.01,0l0.09-0.04l0.01,0c0.03,0.01,0.06,0.02,0.09,0.04c1.71,0.71,3.44,1.36,5.18,1.98
			c2.21,0.79,4.49,1.54,6.79,2.09c0.15,0.04,0.29,0.07,0.44,0.1c1.5,0.35,3.02,0.64,4.56,0.69c1.46,0.04,3-0.15,4.27-0.94
			c0.82-0.51,1.51-1.27,1.89-2.16c0.14-0.34,0.22-0.68,0.25-1.04c0.04-0.46-0.02-0.92-0.14-1.37h0c0,0,1.79,4.64,0.12,11.4
			C48.75,30.76,48.76,30.71,48.76,30.66z"/>
		<linearGradient id="SVGID_8_" gradientUnits="userSpaceOnUse" x1="43.7138" y1="17.5564" x2="28.703" y2="26.134">
			<stop  offset="0" style="stop-color:#93C6EB"/>
			<stop  offset="1" style="stop-color:#94D5D6"/>
		</linearGradient>
		<path class="st9" d="M48.76,20.77c-0.03,0.35-0.11,0.7-0.25,1.04c-0.38,0.89-1.07,1.65-1.89,2.16c-1.26,0.79-2.8,0.98-4.27,0.94
			c-1.54-0.05-3.06-0.34-4.56-0.69c-0.15-0.03-0.29-0.07-0.44-0.1c-2.3-0.55-4.58-1.3-6.79-2.09c-1.74-0.62-3.47-1.27-5.18-1.98
			c-0.03-0.01-0.06-0.02-0.09-0.04c0,0-0.01,0-0.01,0c0.02-0.01,0.04-0.02,0.07-0.03c1.7-0.68,3.43-1.3,5.16-1.89
			c2.2-0.75,4.47-1.46,6.76-1.97c3.78-0.85,9.2-1.81,11.12,2.63c0.09,0.22,0.17,0.44,0.23,0.66C48.75,19.85,48.8,20.32,48.76,20.77z
			"/>
		<linearGradient id="SVGID_9_" gradientUnits="userSpaceOnUse" x1="45.0295" y1="32.7364" x2="21.5942" y2="20.789">
			<stop  offset="0" style="stop-color:#AC92C4"/>
			<stop  offset="1" style="stop-color:#8BD6EF"/>
		</linearGradient>
		<path class="st10" d="M48.76,30.66c0,0.05-0.01,0.1-0.02,0.15c-0.07,0.29-0.15,0.59-0.24,0.89c-0.38,0.89-1.07,1.65-1.89,2.16
			c-1.26,0.79-2.8,0.98-4.27,0.94c-1.54-0.04-3.06-0.34-4.56-0.69c-0.15-0.03-0.29-0.07-0.44-0.1c-2.3-0.55-4.58-1.3-6.79-2.09
			c-1.74-0.62-3.47-1.27-5.18-1.98c-0.03-0.01-0.06-0.02-0.09-0.04c0,0-0.01,0-0.01,0c0.02-0.01,0.04-0.02,0.07-0.03
			c1.7-0.68,3.43-1.3,5.16-1.89c2.2-0.75,4.47-1.46,6.76-1.97c3.78-0.85,9.2-1.81,11.12,2.63C48.67,29.27,48.82,29.97,48.76,30.66z"
			/>
		<linearGradient id="SVGID_10_" gradientUnits="userSpaceOnUse" x1="13.2025" y1="10.5375" x2="25.1499" y2="1.9599">
			<stop  offset="0" style="stop-color:#93C6EB"/>
			<stop  offset="1" style="stop-color:#94D5D6"/>
		</linearGradient>
		<path class="st11" d="M8.08,8.29C8,8.35,7.92,8.41,7.85,8.49c-0.24,0.23-0.44,0.5-0.57,0.81c-0.46,1.07,0.14,2.17,1.04,2.78
			c1.01,0.69,2.27,0.73,3.44,0.59c0.99-0.12,2.31-0.4,4.02-0.94c2.34-0.73,5.43-1.95,9.5-3.93C25.29,7.8,15.38,2.68,8.08,8.29z"/>
		<linearGradient id="SVGID_11_" gradientUnits="userSpaceOnUse" x1="10.6938" y1="7.3664" x2="39.1837" y2="3.9966">
			<stop  offset="0" style="stop-color:#60ABDE"/>
			<stop  offset="1" style="stop-color:#4EC3C7"/>
		</linearGradient>
		<path class="st12" d="M25.28,0.92C25.09,0.91,15.06,0.45,7.85,8.49C7.92,8.41,8,8.35,8.08,8.29c7.17-5.51,16.87-0.66,17.2-0.49v0
			c0,0,0,0,0,0c0,0,0,0,0,0v0c0.33-0.17,10.02-5.01,17.2,0.49c0.08,0.06,0.16,0.13,0.23,0.2C35.51,0.45,25.47,0.91,25.28,0.92z"/>
		<linearGradient id="SVGID_12_" gradientUnits="userSpaceOnUse" x1="23.1317" y1="6.8592" x2="41.8187" y2="9.9226">
			<stop  offset="0" style="stop-color:#93C6EB"/>
			<stop  offset="1" style="stop-color:#94D5D6"/>
		</linearGradient>
		<path class="st13" d="M42.48,8.29c0.08,0.06,0.16,0.13,0.23,0.2c0.24,0.23,0.44,0.5,0.57,0.81c0.46,1.07-0.14,2.17-1.04,2.78
			c-1.01,0.69-2.27,0.73-3.44,0.59c-0.99-0.12-2.31-0.4-4.02-0.94c-2.34-0.73-5.43-1.95-9.5-3.93C25.28,7.8,35.19,2.68,42.48,8.29z"
			/>
		<linearGradient id="SVGID_13_" gradientUnits="userSpaceOnUse" x1="32.2244" y1="43.0379" x2="16.6009" y2="41.1999">
			<stop  offset="0" style="stop-color:#AC92C4"/>
			<stop  offset="1" style="stop-color:#8BD6EF"/>
		</linearGradient>
		<path class="st14" d="M8.08,41.71c-0.08-0.06-0.16-0.13-0.23-0.2c-0.24-0.23-0.44-0.5-0.57-0.81c-0.46-1.07,0.14-2.17,1.04-2.78
			c1.01-0.69,2.27-0.73,3.44-0.59c0.99,0.12,2.31,0.4,4.02,0.94c2.34,0.73,5.43,1.95,9.5,3.93C25.29,42.2,15.38,47.32,8.08,41.71z"
			/>
		<linearGradient id="SVGID_14_" gradientUnits="userSpaceOnUse" x1="36.5917" y1="46.1427" x2="-5.2242" y2="37.1055">
			<stop  offset="0" style="stop-color:#7B65AD"/>
			<stop  offset="0.5108" style="stop-color:#2BAAE2"/>
			<stop  offset="1" style="stop-color:#4EC3C7"/>
		</linearGradient>
		<path class="st15" d="M42.48,41.71c-7.17,5.51-16.87,0.66-17.2,0.49v0c0,0,0,0,0,0c0,0,0,0,0,0v0c-0.33,0.17-10.02,5.01-17.2-0.49
			c-0.08-0.06-0.16-0.13-0.23-0.2c7.21,8.03,17.24,7.58,17.43,7.57c0.19,0.01,10.22,0.47,17.43-7.57
			C42.64,41.59,42.57,41.65,42.48,41.71z"/>
		<linearGradient id="SVGID_15_" gradientUnits="userSpaceOnUse" x1="42.9977" y1="39.6584" x2="23.9279" y2="43.5643">
			<stop  offset="0" style="stop-color:#AC92C4"/>
			<stop  offset="1" style="stop-color:#8BD6EF"/>
		</linearGradient>
		<path class="st16" d="M42.48,41.71c0.08-0.06,0.16-0.13,0.23-0.2c0.24-0.23,0.44-0.5,0.57-0.81c0.46-1.07-0.14-2.17-1.04-2.78
			c-1.01-0.69-2.27-0.73-3.44-0.59c-0.99,0.12-2.31,0.4-4.02,0.94c-2.34,0.73-5.43,1.95-9.5,3.93
			C25.28,42.2,35.19,47.32,42.48,41.71z"/>
	</g>
	<rect x="56" y="0.91" class="st0" width="1.35" height="48.18"/>
</g>
</svg>
