<svg id="Layer_1" data-name="Layer 1" xmlns="http://www.w3.org/2000/svg" viewBox="0 0 354.5 207.66"><path d="M21.46,75.46c16.09-20,36.42-29.81,80-31.88s54,31.08,124.7,24.26S333.9,63,347.25,82.18s19.4,82.09-85.35,73.44S123.73,130.86,76,139.59s-67.22,5.83-71.92-8.17S13.86,84.93,21.46,75.46Z" style="fill:#fff0e0"/><path d="M16.34,185.85s71.16-.76,161.77,0,155,.78,165.58,6.81,6,16.77-50.08,14.08-87.83-11.26-121.33-6.3-62.1-.8-89-.6-65.66,3.42-78.16-2.56S5.72,185.94,16.34,185.85Z" style="fill:#fff0e0"/><path d="M165.33,17.21H139.47A4.46,4.46,0,0,0,135,21.67v17.9A4.46,4.46,0,0,0,139.47,44h3.12c-.83,2.33-1.77,5.51-1,5.87s5.08-3.53,7.45-5.87h16.26a4.46,4.46,0,0,0,4.45-4.46V21.67A4.46,4.46,0,0,0,165.33,17.21Z" style="fill:#f8951d"/><path d="M146.48,25.21a2.07,2.07,0,0,1-.64-3.14,6.6,6.6,0,0,1,5.65-2.27c3.73.14,7,2.72,6.84,6.23-.1,2.45-2,3.87-4.41,4.8-.87.34-.92,1-.95,1.86h0A1.4,1.4,0,0,1,151.52,34L150.2,34a1.4,1.4,0,0,1-1.34-1.45l0-1.32a2.7,2.7,0,0,1,1.28-2.67c1.56-.91,3-.93,3.05-2.7a2,2,0,0,0-1.94-2.12,2.75,2.75,0,0,0-2.26,1,2.09,2.09,0,0,1-2.56.5Zm7.06,13.17a2.86,2.86,0,1,1-2.75-3A2.83,2.83,0,0,1,153.54,38.38Z" style="fill:#fff"/><polygon points="135.48 181.25 137.46 189.06 140.1 189.65 144.72 189.06 143.03 181.25 135.48 181.25" style="fill:#f8a78c"/><path d="M137,188.7s.38,5.17.64,6,.77.72.77.72a46.11,46.11,0,0,0,4.82,1.16,33.44,33.44,0,0,0,6.59.71c2.3-.1,3.19-.41,3.19-1.16s-.26-2.22-3.09-3.93-4.45-2.82-4.45-2.82a3.12,3.12,0,0,0-1.51-1.26c-1-.36-3.31,1.05-3.91,1.21S137.66,188.15,137,188.7Z" style="fill:#005582"/><polygon points="108.31 182.23 108.31 188.3 112.41 189.46 115.06 188.3 115.06 182.23 108.31 182.23" style="fill:#f8a78c"/><path d="M107.64,188.3a36.68,36.68,0,0,1-4.87,3.75c-3,1.95-3.08,2.4-2.93,3.6s7.42.82,10.2.37,3.89-.67,3.89-.67l1.88-.6-.75-6.9a15.54,15.54,0,0,1-2.48.66c-.76.05-2.48-1.3-3.6-1.58S107.62,187.93,107.64,188.3Z" style="fill:#005582"/><path d="M163.2,54.71c-.58.1-1.42,1.19-1.86,1.82l-.27,0c.66-1,2.19-2.68,1.15-2.43s-1.82,1.69-2.15,2.28l-.33-.05c.64-1.09,2.39-3,1.26-2.76s-2,2.06-2.3,2.6l-.19,0c.61-1.06,1.46-2.36.61-2.06s-1.7,2.07-1.92,2.61c-.5.52-1.08,1.15-1.45,1.57-.33-1.29-1.17-2.88-1.57-2.78s0,1.63.14,2.67a6.38,6.38,0,0,0,.58,2c-1.31,2.61-5.3,8.88-7.39,13.49l-5.73-6-8.39,5s9.31,12.22,13,11.66c8.2-1.26,12.32-18.72,13.2-22.93h0l2.59-4.42h0S164,54.57,163.2,54.71Z" style="fill:#f8a78c"/><path d="M122.12,57.32l-3.11,3-5.44-2a14,14,0,0,0,0-2.58c0-.51-.09-1-.15-1.39-.13-.93-.28-1.54-.28-1.54l8.16-.39a5.24,5.24,0,0,0,0,1.06,8.13,8.13,0,0,0,.13,1.22A15.77,15.77,0,0,0,122.12,57.32Z" style="fill:#f8a78c"/><path d="M121.42,54.71c-.91.81-2.55,2.12-3.66,2.19a11.55,11.55,0,0,1-4.15-1.15c0-.51-.09-1-.15-1.39a7.13,7.13,0,0,0,4.19.67,9.86,9.86,0,0,0,3.64-1.54A8.13,8.13,0,0,0,121.42,54.71Z" style="fill:#f08570"/><path d="M106.19,39.34s1.2,8,2.07,10.76,5.74,5,9.13,5.1c2.87,0,7-4.14,7.61-6.5s-.25-12.92-.25-12.92S112.18,25.52,106.19,39.34Z" style="fill:#f8a78c"/><path d="M113.4,43.93c.07.54-.12,1-.43,1s-.61-.36-.68-.9.12-1,.43-1S113.33,43.39,113.4,43.93Z" style="fill:#005582"/><path d="M120.37,43c0,.54-.16,1-.46,1s-.6-.38-.65-.93.15-1,.46-1S120.32,42.45,120.37,43Z" style="fill:#005582"/><path d="M107.73,44.19s-2-1.87-3.07-1.16-.54,3.47,1,4.89,2.67.72,2.67.72Z" style="fill:#f8a78c"/><path d="M124.46,42s1.48-2.26,2.73-1.82,1.31,3.26.16,5-2.44,1.3-2.44,1.3Z" style="fill:#f8a78c"/><path d="M106.9,43.68l.75,2.79s1.8-.65,1.12-6.72c0,0,3.65-.56,4.77-2.29a15.92,15.92,0,0,0,4.83.43,7.65,7.65,0,0,0,3.28-1.61s.13,4.43,2,5.1c0,0,0,2.8,1,3.09,0,0,.21-3.89,1.8-4.34,0,0,1.15-3.66.78-4.84a2.37,2.37,0,0,0-1.55-1.49s-.49-6.35-10.34-4.95c-9.5,1.34-10.82,6.38-11.11,7.24-.41,1.24.21,2.46.33,4a9.5,9.5,0,0,0,.68,2.79Z" style="fill:#005582"/><polygon points="145.19 182.75 134.47 182.75 121.65 116.87 120.31 116.95 117.65 182.75 106.63 182.75 106.32 147.06 106.23 137.39 105.91 100.75 133.91 100.75 138.89 136.98 140.24 146.74 145.19 182.75" style="fill:#ffd17b"/><path d="M109.79,110.67c1.13.29,1.46-.25,1.21-.56s-2.45-1.38-3-2l-1.79-2a15.15,15.15,0,0,0,2.18,0c1.1-.08,1.89-.76.29-.93-1.17-.12-2.87-.36-3.71-.48l-.29-.33L99.44,93l5.2-15.44-8.32-4.14s-5.85,16-6.45,19.58,12,16.49,12,16.49v0a16.53,16.53,0,0,0,1.8,3.07,4.08,4.08,0,0,0,2.14,1.62h0a3.3,3.3,0,0,0,.75.32c1.12.28,1.46-.25,1.21-.56a10.41,10.41,0,0,0-1.48-.94l.11-.28a6.68,6.68,0,0,0,2,1.13c1.12.28,1.46-.25,1.21-.56s-1.95-1.13-2.72-1.75l.17-.43a7.47,7.47,0,0,0,2.24,1.34c1.12.28,1.46-.25,1.21-.56s-2.41-1.37-3-2l.16-.4A7.2,7.2,0,0,0,109.79,110.67Z" style="fill:#f8a78c"/><path d="M113.64,56.22l-13,6,4.07,26.35,1.21,12.14h28l.56-13V58.38l-12.66-2a5.26,5.26,0,0,1-3.64,2.88C115.7,59.6,113.64,56.22,113.64,56.22Z" style="fill:#005582"/><path d="M100.63,62.26s-5.06,8.22-6.41,12c0,0,5.24,3.15,10.42,3.3C104.64,77.52,105.09,66.2,100.63,62.26Z" style="fill:#005582"/><path d="M134.46,58.38s6.45,5.91,9.23,8.75a53.88,53.88,0,0,1-9.22,7.46S132,63.81,134.46,58.38Z" style="fill:#005582"/><path d="M110.42,41.33s2.1,0,3-.91" style="fill:none;stroke:#005582;stroke-linecap:round;stroke-linejoin:round"/><path d="M121.5,39.82a4.78,4.78,0,0,0-2.47,0" style="fill:none;stroke:#005582;stroke-linecap:round;stroke-linejoin:round"/><path d="M116.08,42.87a8.9,8.9,0,0,1,.2,2.45.75.75,0,0,0-.52,1,1,1,0,0,0,.92.83" style="fill:none;stroke:#d76d5f;stroke-linecap:round;stroke-linejoin:round"/><path d="M115.48,49.3s2.35-.75,3.55,0-2.79,1.28-3.55,1.28S114.76,49.7,115.48,49.3Z" style="fill:#fff"/><path d="M127,42a5.27,5.27,0,0,0-1.5,2.81" style="fill:none;stroke:#d76d5f;stroke-linecap:round;stroke-linejoin:round"/><path d="M126.75,44.44a3,3,0,0,0-.61-1.4" style="fill:none;stroke:#d76d5f;stroke-linecap:round;stroke-linejoin:round"/><path d="M105.14,44.38a5.47,5.47,0,0,1,2,2.73" style="fill:none;stroke:#d76d5f;stroke-linecap:round;stroke-linejoin:round"/><path d="M105.8,46.74a3.6,3.6,0,0,1,.35-1.43" style="fill:none;stroke:#d76d5f;stroke-linecap:round;stroke-linejoin:round"/><path d="M102.49,64.8A98.77,98.77,0,0,0,103,77.37" style="fill:none;stroke:#014461;stroke-linecap:round;stroke-linejoin:round"/><path d="M133.49,62.6s1.39,8.09.92,11.69" style="fill:none;stroke:#014461;stroke-linecap:round;stroke-linejoin:round"/><path d="M113.18,59a6.8,6.8,0,0,0,4.94,1.65c3-.22,4-1.65,4-1.65" style="fill:none;stroke:#014461;stroke-linecap:round;stroke-linejoin:round"/><path d="M98.93,93s-1.57-.07-3,0" style="fill:none;stroke:#d76d5f;stroke-linecap:round;stroke-linejoin:round"/><path d="M147.51,73.56s-1,2.69-1.35,3.81" style="fill:none;stroke:#d76d5f;stroke-linecap:round;stroke-linejoin:round"/><line x1="155.75" y1="58.22" x2="156.57" y2="59.53" style="fill:none;stroke:#d76d5f;stroke-linecap:round;stroke-linejoin:round"/><path d="M157.77,56.22s2.76.09,3.68.69" style="fill:none;stroke:#d76d5f;stroke-linecap:round;stroke-linejoin:round"/><line x1="106.73" y1="102.44" x2="132.48" y2="102.44" style="fill:none;stroke:#d76d5f;stroke-linecap:round;stroke-linejoin:round"/><path d="M119.21,102.44s-1.91,10.33,1.46,12.08v-9.61" style="fill:none;stroke:#d76d5f;stroke-linecap:round;stroke-linejoin:round"/><path d="M113.81,112.67s3.22,2,4.86,3.15" style="fill:none;stroke:#d76d5f;stroke-linecap:round;stroke-linejoin:round"/><path d="M122.92,115.82a64.9,64.9,0,0,0,4.72-5.17" style="fill:none;stroke:#d76d5f;stroke-linecap:round;stroke-linejoin:round"/><path d="M107.8,180a41.46,41.46,0,0,0,8,0" style="fill:none;stroke:#d76d5f;stroke-linecap:round;stroke-linejoin:round"/><path d="M143.38,180s-4.94.35-8.32.37" style="fill:none;stroke:#d76d5f;stroke-linecap:round;stroke-linejoin:round"/><path d="M100.32,194.58s1.63.5,6,.28a47.66,47.66,0,0,0,8.72-1.41" style="fill:none;stroke:#013f5c;stroke-linecap:round;stroke-linejoin:round"/><path d="M138.32,193.85a72.41,72.41,0,0,0,9.11,2,12.17,12.17,0,0,0,5.17-.39" style="fill:none;stroke:#013f5c;stroke-linecap:round;stroke-linejoin:round"/><path d="M104.87,190.58a4.48,4.48,0,0,1,2.62,1.09" style="fill:none;stroke:#013f5c;stroke-linecap:round;stroke-linejoin:round"/><path d="M105.69,189.88a4.48,4.48,0,0,1,2.62,1.09" style="fill:none;stroke:#013f5c;stroke-linecap:round;stroke-linejoin:round"/><path d="M106.51,189.17a4.5,4.5,0,0,1,2.63,1.09" style="fill:none;stroke:#013f5c;stroke-linecap:round;stroke-linejoin:round"/><path d="M147.33,190.89A4.5,4.5,0,0,0,144.7,192" style="fill:none;stroke:#013f5c;stroke-linecap:round;stroke-linejoin:round"/><path d="M146.5,190.19a4.51,4.51,0,0,0-2.62,1.08" style="fill:none;stroke:#013f5c;stroke-linecap:round;stroke-linejoin:round"/><path d="M145.68,189.48a4.48,4.48,0,0,0-2.62,1.09" style="fill:none;stroke:#013f5c;stroke-linecap:round;stroke-linejoin:round"/><line x1="124.94" y1="34.19" x2="122.98" y2="35.2" style="fill:none;stroke:#014461;stroke-linecap:round;stroke-linejoin:round"/><path d="M122.13,35.65s-2,3.72-8.59,1.81c0,0-2.81,2.6-5.91,2.27" style="fill:none;stroke:#014461;stroke-linecap:round;stroke-linejoin:round"/><path d="M123.7,41.38s-1.74-.72-2-5.1" style="fill:none;stroke:#014461;stroke-linecap:round;stroke-linejoin:round"/><path d="M105.46,35.65a4.72,4.72,0,0,0-.32,1.91" style="fill:none;stroke:#014461;stroke-linecap:round;stroke-linejoin:round"/><path d="M106.69,37.71a8.05,8.05,0,0,0-.27,1.12" style="fill:none;stroke:#014461;stroke-linecap:round;stroke-linejoin:round"/><line x1="124.46" y1="36.85" x2="124.9" y2="37.71" style="fill:none;stroke:#014461;stroke-linecap:round;stroke-linejoin:round"/><path d="M123.33,31.49s.79.6.86,1.09" style="fill:none;stroke:#014461;stroke-linecap:round;stroke-linejoin:round"/><path d="M122,32.58a3.28,3.28,0,0,1,.73.64" style="fill:none;stroke:#014461;stroke-linecap:round;stroke-linejoin:round"/><line x1="114" y1="36.28" x2="114.88" y2="35.39" style="fill:none;stroke:#014461;stroke-linecap:round;stroke-linejoin:round"/><path d="M112.87,142.2c0,3-2,5.4-4.57,5.4a3.87,3.87,0,0,1-2-.54l-.09-9.67a4,4,0,0,1,2.07-.58C110.83,136.81,112.87,139.22,112.87,142.2Z" style="fill:#fdbd6b"/><path d="M140.24,146.73a4,4,0,0,1-2.48.87c-2.52,0-4.57-2.42-4.57-5.4s2.05-5.39,4.57-5.39a3.86,3.86,0,0,1,1.13.17Z" style="fill:#fdbd6b"/><path d="M215.49,5.52a1.89,1.89,0,0,1-.65-2.84A6,6,0,0,1,219.93.49c3.4.06,6.41,2.33,6.35,5.53,0,2.23-1.71,3.56-3.91,4.45-.77.33-.81,1-.82,1.71h0a1.27,1.27,0,0,1-1.29,1.25l-1.2,0a1.27,1.27,0,0,1-1.25-1.29l0-1.2a2.45,2.45,0,0,1,1.11-2.46c1.39-.86,2.69-.9,2.72-2.51a1.82,1.82,0,0,0-1.81-1.9,2.51,2.51,0,0,0-2,1,1.89,1.89,0,0,1-2.32.51Zm6.7,11.83a2.6,2.6,0,1,1-2.56-2.66A2.59,2.59,0,0,1,222.19,17.35Z" style="fill:#f8951d"/><path d="M236.42,15.17a1.88,1.88,0,0,1,.6-2.85,6,6,0,0,1,5.54.15c3.06,1.47,4.84,4.8,3.45,7.68-1,2-3,2.51-5.42,2.4-.84,0-1.14.53-1.46,1.21h0a1.27,1.27,0,0,1-1.7.59l-1.08-.52a1.27,1.27,0,0,1-.59-1.7l.52-1.08c.43-.9.83-1.62,2-1.77,1.63-.19,2.83.31,3.53-1.14a1.82,1.82,0,0,0-.85-2.48,2.5,2.5,0,0,0-2.25,0,1.9,1.9,0,0,1-2.32-.51Zm1.13,13.54a2.6,2.6,0,1,1-1.22-3.48A2.6,2.6,0,0,1,237.55,28.71Z" style="fill:#f8951d"/><path d="M193.64,15.56a1.88,1.88,0,0,1-2.24-1.86,6,6,0,0,1,2.7-4.83c2.73-2,6.5-2.06,8.41.51,1.32,1.79.8,3.87-.39,5.91-.42.74-.06,1.26.39,1.86h0a1.28,1.28,0,0,1-.27,1.78l-1,.71a1.27,1.27,0,0,1-1.78-.26l-.72-1a2.47,2.47,0,0,1-.61-2.63c.58-1.53,1.58-2.36.62-3.65a1.82,1.82,0,0,0-2.59-.4,2.49,2.49,0,0,0-1,2,1.9,1.9,0,0,1-1.53,1.82Zm12.52,5.29a2.6,2.6,0,1,1-3.65-.54A2.6,2.6,0,0,1,206.16,20.85Z" style="fill:#f8951d"/><polygon points="196.55 179.79 196.02 187.51 188.57 193.68 190 195.78 204 193.3 205.13 180.3 196.55 179.79" style="fill:#f8a78c"/><path d="M193.13,189.61a9.4,9.4,0,0,0,6.16,2.55,28.43,28.43,0,0,0,5-1.14,14.06,14.06,0,0,1-.36,4.57c-.3.91-13.61,2.83-15.65,2.75s-2.55-.3-3-.94-.82-1.73,1.06-2.93S193.13,189.61,193.13,189.61Z" style="fill:#005582"/><polygon points="231.94 179.28 232.47 187 239.92 193.17 238.49 195.27 224.49 192.79 223.36 179.79 231.94 179.28" style="fill:#f8a78c"/><path d="M235.36,189.1a9.39,9.39,0,0,1-6.15,2.55,28.55,28.55,0,0,1-5-1.13,14.07,14.07,0,0,0,.36,4.57c.3.9,13.62,2.82,15.65,2.74s2.55-.3,3-.94.82-1.73-1.06-2.93S235.36,189.1,235.36,189.1Z" style="fill:#005582"/><polygon points="198.88 96.23 194.29 180.3 206.56 180.3 213.97 109.72 215.62 110.03 222.05 180.3 233.77 179.78 229.76 96.23 198.88 96.23" style="fill:#005582"/><path d="M229.76,85.37V53.21a73.28,73.28,0,0,0-17.37-2.3s-9.41-.49-11.78,0l-2,34.46-2.35,14s13.45,2.34,16.61,2.11l2.26-3.27,1.92,3.29s8.69-.18,14.56-2.13Z" style="fill:#ffd17b"/><path d="M220.06,52.78a15.3,15.3,0,0,0,.06,1.74l-3.72,2.13-4.69-3.28a14.34,14.34,0,0,0,.68-2.45l.09-.51c.05-.3.08-.59.11-.86.08-.71.11-1.24.11-1.45a.62.62,0,0,0,0-.09l.54.12,7.34,1.53a5.3,5.3,0,0,0-.31,1,7.08,7.08,0,0,0-.17,1.2C220.08,52.18,220.06,52.49,220.06,52.78Z" style="fill:#f8a78c"/><path d="M189.1,66.93s7.21-15.48,11.51-16C206.14,50.23,202,64.2,202,64.2L195.2,76.33Z" style="fill:#ffd17b"/><path d="M240.75,68.51s-7.21-14.86-11.51-15.39c-5.53-.68-1.43,13.29-1.43,13.29l6.84,11.13Z" style="fill:#ffd17b"/><path d="M195.42,72.57c-.79-1.44-11.94-10.14-14.64-12.24h0l-.74-1a6.13,6.13,0,0,0-2.52-2,32,32,0,0,0-4.29-1.13c-.83,0,0,1,.64,1.29s1.84.65,1.84.65l-4.93,2.2s-2.81,1.08-3.06,1.81.9.28,1.94-.14c.78-.31,1.61-.69,2-.86l.09.08c-.35.13-2.79,1.11-3,1.8s.91.28,1.95-.14c.75-.31,1.55-.67,2-.85l.16.15c-.54.22-2.73,1.12-3,1.77s.9.28,2-.14c.7-.29,1.45-.63,1.87-.81l.13.12c-.79.33-2.46,1.09-2.65,1.65-.26.73.9.28,1.95-.15.56-.23,1.15-.49,1.58-.68h0s.95-.29,2.06-.75c.46.7,10.25,15.57,14.87,15.57S196.32,74.22,195.42,72.57Z" style="fill:#f8a78c"/><path d="M259.36,62.42c-.25-.73-3.06-1.82-3.06-1.82l-4.93-2.2s1.2-.39,1.84-.64,1.47-1.33.64-1.29a30.21,30.21,0,0,0-4.29,1.13,6.13,6.13,0,0,0-2.52,2l-.52.71c-2,2.41-11.34,13.56-11.82,15.16-.54,1.79.41,6.19,5,5.2,3.89-.84,9.18-13.19,10.79-17.17,1,.42,1.89.69,1.89.69h0l1.59.68c1.05.43,2.2.88,2,.14-.19-.55-1.86-1.31-2.65-1.64l.13-.13c.41.19,1.16.53,1.87.81,1,.43,2.2.88,1.95.15s-2.41-1.56-2.95-1.77l.16-.15c.4.18,1.2.54,2,.84,1,.43,2.2.88,1.94.14s-2.68-1.66-3-1.79l.09-.08c.38.17,1.21.54,2,.86C258.46,62.7,259.61,63.15,259.36,62.42Z" style="fill:#f8a78c"/><path d="M200.84,53.55a25.55,25.55,0,0,1-.17,13.09" style="fill:none;stroke:#d76d5f;stroke-linecap:round;stroke-linejoin:round"/><path d="M229.76,55.81s-2,7.32-1,12.12" style="fill:none;stroke:#d76d5f;stroke-linecap:round;stroke-linejoin:round"/><polyline points="200.16 85.26 201.59 86.05 200.66 87.52" style="fill:none;stroke:#d76d5f;stroke-linecap:round;stroke-linejoin:round"/><line x1="229.11" y1="86.39" x2="227.62" y2="87.52" style="fill:none;stroke:#d76d5f;stroke-linecap:round;stroke-linejoin:round"/><line x1="216.4" y1="56.65" x2="215.17" y2="98.24" style="fill:none;stroke:#d76d5f;stroke-linecap:round;stroke-linejoin:round"/><path d="M220.59,49.66a5.3,5.3,0,0,0-.31,1,7.08,7.08,0,0,0-.17,1.2c0,.32-.05.63-.05.92a6.68,6.68,0,0,1-3.91-.45,15.4,15.4,0,0,1-3.67-1.92c.05-.3.08-.59.11-.86.08-.71.11-1.24.11-1.45l.55,0Z" style="fill:#f08570"/><path d="M209.38,33.41s-.85,8-.7,10.79,4.23,6.24,7.45,7.13c2.73.75,7.67-2.23,8.88-4.32s3-12.4,3-12.4S218.52,21.7,209.38,33.41Z" style="fill:#f8a78c"/><path d="M209.64,38.41s-1.41-2.27-2.64-1.86-1.38,3.18-.28,4.91,2.37,1.35,2.37,1.35Z" style="fill:#f8a78c"/><path d="M226.17,40.44s2-1.79,3.06-1.06.44,3.43-1.09,4.8-2.65.64-2.65.64Z" style="fill:#f8a78c"/><path d="M215.11,23.93c-3.83.79-3.78,3.05-5.86,3.55A4,4,0,0,0,206,30.64c-.28,1.36.17,1.36.57,1.36h.62s.05,1.32-.06,2.93.71,1.86.71,1.86a4.27,4.27,0,0,1,1.83,2.88,1.47,1.47,0,0,0,1.07-1.13,44.84,44.84,0,0,0,.34-4.68,9.61,9.61,0,0,0,4.12-1.18,3.22,3.22,0,0,0,2.09.56c1.46,0,5.75-1.41,6.94-.68A5,5,0,0,0,226,34.88a46.79,46.79,0,0,0-.46,4.79,2.67,2.67,0,0,0,.56,1.52s.91-1.84,2.44-2a11.79,11.79,0,0,0,1.58-3.93,1.07,1.07,0,0,0,1-1.24,17.09,17.09,0,0,0-.84-2.76c-.29-1.19-1.25-2.43-1.92-2.49,0,0,.62-1-2.43-3A14,14,0,0,0,215.11,23.93Z" style="fill:#005582"/><path d="M212.59,49.55a8.46,8.46,0,0,0,.85,3.55,18.4,18.4,0,0,0,3,3.55,8,8,0,0,0-2.89-.65,6.84,6.84,0,0,0-2.52.65l-.9-5.77Z" style="fill:#fffbdd"/><path d="M220.28,50.67s-.89,4.37-3.88,6a9.4,9.4,0,0,1,3,0,4.13,4.13,0,0,1,1.81,1,38.86,38.86,0,0,0,1.51-5.87Z" style="fill:#fffbdd"/><path d="M207.08,37.9a5.51,5.51,0,0,1,1.58,2.94" style="fill:none;stroke:#d76d5f;stroke-linecap:round;stroke-linejoin:round"/><path d="M207.53,40.61s.07-1,.62-1.24" style="fill:none;stroke:#d76d5f;stroke-linecap:round;stroke-linejoin:round"/><path d="M228.64,40.61a5.32,5.32,0,0,0-2.29,2.64" style="fill:none;stroke:#d76d5f;stroke-linecap:round;stroke-linejoin:round"/><path d="M227.49,43a1.11,1.11,0,0,0,0-1.09" style="fill:none;stroke:#d76d5f;stroke-linecap:round;stroke-linejoin:round"/><ellipse cx="214.31" cy="39.05" rx="0.97" ry="0.55" transform="translate(148.41 246.68) rotate(-82.72)" style="fill:#005582"/><path d="M212.66,35.9s2,.52,3.08-.13" style="fill:none;stroke:#005582;stroke-linecap:round;stroke-linejoin:round"/><ellipse cx="221.31" cy="39.55" rx="0.97" ry="0.55" transform="translate(177.83 260.12) rotate(-88.98)" style="fill:#005582"/><path d="M223.4,36.67s-2.06.23-3-.57" style="fill:none;stroke:#005582;stroke-linecap:round;stroke-linejoin:round"/><path d="M217.68,38.77a8.79,8.79,0,0,1-.42,2.39.75.75,0,0,0-.74.79,1,1,0,0,0,.67,1" style="fill:none;stroke:#d76d5f;stroke-linecap:round;stroke-linejoin:round"/><path d="M216.15,45.58a3.93,3.93,0,0,1,2.17-.68,1.84,1.84,0,0,1,1.25.68" style="fill:none;stroke:#d76d5f;stroke-linecap:round;stroke-linejoin:round"/><line x1="175.71" y1="58.09" x2="177.42" y2="58.97" style="fill:none;stroke:#d76d5f;stroke-linecap:round;stroke-linejoin:round"/><line x1="171.42" y1="60.85" x2="173.94" y2="63.11" style="fill:none;stroke:#d76d5f;stroke-linecap:round;stroke-linejoin:round"/><path d="M176.71,63.15s2-.76,2.24-.79" style="fill:none;stroke:#d76d5f;stroke-linecap:round;stroke-linejoin:round"/><line x1="250.53" y1="63.53" x2="249.03" y2="63.03" style="fill:none;stroke:#d76d5f;stroke-linecap:round;stroke-linejoin:round"/><line x1="255.68" y1="61.09" x2="253.09" y2="63.53" style="fill:none;stroke:#d76d5f;stroke-linecap:round;stroke-linejoin:round"/><path d="M251.37,58.4a9,9,0,0,1-1.59,1.36" style="fill:none;stroke:#d76d5f;stroke-linecap:round;stroke-linejoin:round"/><line x1="194.61" y1="177.01" x2="206.9" y2="177.01" style="fill:none;stroke:#014461;stroke-linecap:round;stroke-linejoin:round"/><line x1="221.7" y1="176.46" x2="233.77" y2="175.88" style="fill:none;stroke:#014461;stroke-linecap:round;stroke-linejoin:round"/><path d="M203.7,104.6s-2.27,30.47-2.94,33.67,0,4.4,0,4.4a33.32,33.32,0,0,0-.3,3.61c.08.6-1.43,26.93-1.43,26.93" style="fill:none;stroke:#014461;stroke-linecap:round;stroke-linejoin:round"/><path d="M224,104.6s2.56,36.11,2.86,37.92a8.74,8.74,0,0,1,0,3.1,17.4,17.4,0,0,0,.13,2.46c.17,1.06,1.83,25.13,1.83,25.13" style="fill:none;stroke:#014461;stroke-linecap:round;stroke-linejoin:round"/><line x1="213.97" y1="109.72" x2="210.54" y2="106.48" style="fill:none;stroke:#014461;stroke-linecap:round;stroke-linejoin:round"/><line x1="215.62" y1="110.03" x2="218.37" y2="108.44" style="fill:none;stroke:#014461;stroke-linecap:round;stroke-linejoin:round"/><path d="M203.85,64.65l7.07.67s-.08,7.91-4.21,7.91S203.85,64.65,203.85,64.65Z" style="fill:#fdbd6b"/><line x1="227.98" y1="29.23" x2="226.35" y2="30.17" style="fill:none;stroke:#014461;stroke-linecap:round;stroke-linejoin:round"/><path d="M209.64,33.73s3.84.53,5.53-1a4.33,4.33,0,0,0,4,.29,9.15,9.15,0,0,1,5.08-.41s.86,2.3,2.52,2.52,1.92-.34,1.92-.34" style="fill:none;stroke:#014461;stroke-linecap:round;stroke-linejoin:round"/><line x1="230.03" y1="34.37" x2="229.58" y2="34.9" style="fill:none;stroke:#014461;stroke-linecap:round;stroke-linejoin:round"/><path d="M208.15,32.6a3.08,3.08,0,0,1,.78-1.43" style="fill:none;stroke:#014461;stroke-linecap:round;stroke-linejoin:round"/><path d="M227.16,28.09A2.35,2.35,0,0,0,226,27" style="fill:none;stroke:#014461;stroke-linecap:round;stroke-linejoin:round"/><path d="M211.15,27.56a19.1,19.1,0,0,0,1.91-1.81" style="fill:none;stroke:#014461;stroke-linecap:round;stroke-linejoin:round"/><path d="M215.4,31.55a3.41,3.41,0,0,1,1.35-1.09" style="fill:none;stroke:#014461;stroke-linecap:round;stroke-linejoin:round"/><path d="M27,19.26a1.9,1.9,0,0,1-1.6-2.48,6.07,6.07,0,0,1,4.09-3.84c3.27-1.13,6.91,0,8,3.07.73,2.13-.41,4-2.19,5.59-.63.58-.44,1.2-.2,1.92h0a1.27,1.27,0,0,1-.79,1.63l-1.16.4a1.28,1.28,0,0,1-1.63-.8l-.4-1.15a2.49,2.49,0,0,1,.21-2.72c1-1.31,2.25-1.8,1.72-3.34a1.83,1.83,0,0,0-2.38-1.18A2.54,2.54,0,0,0,29,18a1.92,1.92,0,0,1-2,1.28Zm10.47,9a2.63,2.63,0,1,1-3.36-1.65A2.62,2.62,0,0,1,37.45,28.22Z" style="fill:#f8951d"/><path d="M52.94,182.86c-.32-1.94-1.29-7.78-2.46-14.25a123.86,123.86,0,0,0-5.29-18l-8.49,6.67,10.22,27.62a8.81,8.81,0,0,1-1.31,2.73c-1,1.14-1.32,1.61-1.32,1.61a16.26,16.26,0,0,0,3.78.68c1.57,0,5.65-3.61,5.83-4.27A8.35,8.35,0,0,0,52.94,182.86Z" style="fill:#f08570"/><path d="M45.12,188.23a20,20,0,0,1-2.4,2.14c-1.8,1.44-2.46,2.4-2.46,3s7,.82,8.53.41,5.89-4.86,6.37-5.82-1.78-4.1-1.78-4.1a28.75,28.75,0,0,1-1.46,2.72c-.6.9-2.83,1.9-4.17,2.35C44.69,190,45.12,188.23,45.12,188.23Z" style="fill:#014461"/><path d="M31.47,101s-.71,9.76-.55,23,4.27,26.69,4.27,26.69l10.53-3.23L44.94,101Z" style="fill:#014461"/><path d="M36.83,65.68s-4.89,9.21-6.26,12.75,2.46,8,2.46,8l2.85-2.69S37.46,68.75,36.83,65.68Z" style="fill:#f08570"/><path d="M36.83,65.68S45.25,61,52.26,59.85s9.29,2.91,9.29,2.91l-4.9,27.17,2.46,11H31.47l3.31-15.67S34.39,71.82,36.83,65.68Z" style="fill:#ffd17b"/><path d="M35.55,41.34s0,9.14.41,11.71,3.34,4.75,6.27,5.67,8-2.63,8.94-4.67S52.73,42,52.73,42,39.41,34.77,35.55,41.34Z" style="fill:#f8a78c"/><path d="M43.14,57.83A18.58,18.58,0,0,1,43,63.77l8.17-2.84.2-7.48Z" style="fill:#f8a78c"/><path d="M50.9,47.32s1.46-2.81,3.26-1.86.92,4.63-.25,5.88-2.92.09-2.92.09Z" style="fill:#f8a78c"/><path d="M43.26,58.86a14,14,0,0,0,5.87-2.52S46.56,61,43.3,61.54Z" style="fill:#f08570"/><path d="M41.22,39.61a13.9,13.9,0,0,0,4,4.56,11,11,0,0,0,5.14,2.44s-.92,2.76.63,3.71c0,0,.61-5.33,2.73-5s1.24,6.55-2,6.49a8.09,8.09,0,0,0-.41,4.42s6.49-4.74,7.36-11.26S55,36.48,55,36.48s-1.6-3.18-7-4.17-8.18,2.09-8.18,2.09a4.94,4.94,0,0,0-5.05,1.84,5.3,5.3,0,0,0-1.12,5.47,4.84,4.84,0,0,0-1.09,4.2,4.37,4.37,0,0,0,3.08,2.81s.45-6.4,1.47-8.14S41.22,39.61,41.22,39.61Z" style="fill:#005582"/><path d="M40.11,47a5.61,5.61,0,0,1-.56,3c-.74,1.15.83,1.67.83,1.67" style="fill:none;stroke:#d76d5f;stroke-linecap:round;stroke-linejoin:round"/><path d="M36.32,44.86a1.68,1.68,0,0,1,2.31-.33" style="fill:none;stroke:#005582;stroke-linecap:round;stroke-linejoin:round"/><path d="M42.75,44.89a7.77,7.77,0,0,0,2.7.77" style="fill:none;stroke:#005582;stroke-linecap:round;stroke-linejoin:round"/><path d="M53.75,46.92A3.61,3.61,0,0,0,52,49.85" style="fill:none;stroke:#d76d5f;stroke-linecap:round;stroke-linejoin:round"/><path d="M60.69,63.08s2.44.31,3.15,5.2-4,17.39-5.67,20.08c-2.76,4.48-27.25.78-27.25.78l1.34-5.43L52,81.27s2.51-11,4-15S60.69,63.08,60.69,63.08Z" style="fill:#f8a78c"/><path d="M53,49.45a1.2,1.2,0,0,0-.49-1.15" style="fill:none;stroke:#d76d5f;stroke-linecap:round;stroke-linejoin:round"/><path d="M44.37,48c0,.52-.28.92-.57.9s-.5-.44-.48-1,.28-.91.57-.9S44.4,47.48,44.37,48Z" style="fill:#005582"/><path d="M38.44,47.7c0,.51-.28.91-.57.9s-.51-.44-.48-1,.28-.91.57-.9S38.47,47.19,38.44,47.7Z" style="fill:#005582"/><path d="M40.24,54a2.67,2.67,0,0,1,2.3.39" style="fill:none;stroke:#d76d5f;stroke-linecap:round;stroke-linejoin:round"/><circle cx="56" cy="36.34" r="4.05" transform="translate(4.31 78.58) rotate(-72.23)" style="fill:#005582"/><path d="M32.43,60.8s2-2.48,2.75-2.72,3.46,1.15,3.66,1.56-.28,1.16-.28,1.16-.12,1.41-.59,1.65l-.47.24s-.75,2.12-2,2.48c0,0-.28,2.48-1.85,2.83l-3-2.56A16.45,16.45,0,0,1,32.43,60.8Z" style="fill:#f8a78c"/><path d="M34.58,58.69a8.87,8.87,0,0,1,2.05-1.91,5,5,0,0,1,3.54.47c.26.36-.25.59-1.18.51s-1.24-.11-1.24-.11l-.67,1.21Z" style="fill:#f8a78c"/><path d="M30.57,65.44s-5.74,15.67-5.63,19.77,2.73,4.72,4.3,4.62,3.72-2.42,4.62-5.25,0-17.33,0-17.33Z" style="fill:#f8a78c"/><path d="M52.23,82.06a12.14,12.14,0,0,1,2.21,3.15" style="fill:none;stroke:#d76d5f;stroke-linecap:round;stroke-linejoin:round"/><path d="M32.23,68a1.49,1.49,0,0,0,1.67-.1" style="fill:none;stroke:#d76d5f;stroke-linecap:round;stroke-linejoin:round"/><path d="M35.45,65.17a.64.64,0,0,1-.3-.8l.4-.92" style="fill:none;stroke:#d76d5f;stroke-linecap:round;stroke-linejoin:round"/><path d="M35.91,61.79s1.36.32,1.59.9" style="fill:none;stroke:#d76d5f;stroke-linecap:round;stroke-linejoin:round"/><path d="M36.59,60.17a2.91,2.91,0,0,1,2,.63" style="fill:none;stroke:#d76d5f;stroke-linecap:round;stroke-linejoin:round"/><path d="M44.69,160.44l-11,.57-3.79,25.62c-1.18.54-2.46,2.05-5.19,3.11-2.15.83-1.62,1.19-2.07,2a2.23,2.23,0,0,0,0,1.81H37.05a.93.93,0,0,0,.91-.92c0-1.46,0-4.31,0-5.94.29-1.15,1.44-5.7,3.1-11.25C43,169,44.69,160.44,44.69,160.44Z" style="fill:#f8a78c"/><path d="M27.58,188.29s1,1.49,5.22,1.22S38,188.29,38,188.29s.53,5,.3,5.5-5.3.22-6,.2-10,.44-11.2,0-1.49-1.27-1.12-1.85S26,189.07,27.58,188.29Z" style="fill:#005582"/><path d="M39.87,64.14s-.52,1.49,4.27,1.54S55.65,60.8,55.65,60.8l-4.1-.32L43,62.69Z" style="fill:#f8a78c"/><path d="M56.07,49.85s.36,5.64,3.36,7.32a4.19,4.19,0,0,1,3.67,3c.79,2.83-2.36,4.77-2.36,4.77s-.26,3.42-4.46,3.84-6.2-5.15-6.2-8.19S53.76,50.88,56.07,49.85Z" style="fill:#005582"/><path d="M59.1,101s.85,8.14-2.88,20.86S45.53,161,45.53,161H32.47l7-52.25-.85-7.8Z" style="fill:#005582"/><line x1="44.81" y1="104.77" x2="39.43" y2="108.76" style="fill:none;stroke:#014461;stroke-linecap:round;stroke-linejoin:round"/><path d="M56.88,101.74a112.81,112.81,0,0,1-2.7,19.74c-2.25,8.77-10.35,37.22-10.35,37.22" style="fill:none;stroke:#014461;stroke-linecap:round;stroke-linejoin:round"/><path d="M32.78,158.7s10.56.28,13.36,0" style="fill:none;stroke:#014461;stroke-linecap:round;stroke-linejoin:round"/><path d="M39.35,65.44s.06,1.1,3.66,1.33a19.42,19.42,0,0,0,7.07-1.09" style="fill:none;stroke:#d76d5f;stroke-linecap:round;stroke-linejoin:round"/><path d="M40.77,37.93a12.87,12.87,0,0,0,9.57,8.68" style="fill:none;stroke:#014461;stroke-linecap:round;stroke-linejoin:round"/><line x1="39.84" y1="34.4" x2="41" y2="35.2" style="fill:none;stroke:#014461;stroke-linecap:round;stroke-linejoin:round"/><path d="M33.67,41.71a7,7,0,0,0,1.29.83" style="fill:none;stroke:#014461;stroke-linecap:round;stroke-linejoin:round"/><path d="M52.85,34.4s3.48,2.21,4.74,4.82" style="fill:none;stroke:#014461;stroke-linecap:round;stroke-linejoin:round"/><path d="M52,39.63a1.93,1.93,0,0,1,.77,1.16" style="fill:none;stroke:#014461;stroke-linecap:round;stroke-linejoin:round"/><line x1="50.9" y1="35.86" x2="51.78" y2="36.53" style="fill:none;stroke:#014461;stroke-linecap:round;stroke-linejoin:round"/><path d="M55.65,51.16a17.09,17.09,0,0,0,1.39,5" style="fill:none;stroke:#014461;stroke-linecap:round;stroke-linejoin:round"/><line x1="51.31" y1="56.2" x2="52.15" y2="55.45" style="fill:none;stroke:#014461;stroke-linecap:round;stroke-linejoin:round"/><line x1="54.76" y1="52.87" x2="54.76" y2="53.91" style="fill:none;stroke:#014461;stroke-linecap:round;stroke-linejoin:round"/><path d="M59.24,61.79a5,5,0,0,1,1.5,3.15" style="fill:none;stroke:#014461;stroke-linecap:round;stroke-linejoin:round"/><path d="M57.48,65.44a2.49,2.49,0,0,1,0,1.12" style="fill:none;stroke:#014461;stroke-linecap:round;stroke-linejoin:round"/><path d="M52.54,60.8a7.49,7.49,0,0,0,.65,2.57" style="fill:none;stroke:#014461;stroke-linecap:round;stroke-linejoin:round"/><path d="M56.14,58.61a4.93,4.93,0,0,1,.9,1" style="fill:none;stroke:#014461;stroke-linecap:round;stroke-linejoin:round"/><path d="M44.14,37.09a3.35,3.35,0,0,0,.94,1.79" style="fill:none;stroke:#014461;stroke-linecap:round;stroke-linejoin:round"/><path d="M48.55,42.91a4.63,4.63,0,0,0,1.06.87" style="fill:none;stroke:#014461;stroke-linecap:round;stroke-linejoin:round"/><path d="M32.47,99.84s11.93.07,14.94,0,9.89.12,9.89.12" style="fill:none;stroke:#d76d5f;stroke-linecap:round;stroke-linejoin:round"/><path d="M63,32.15a2.49,2.49,0,0,1,0-3.85,7.94,7.94,0,0,1,7.2-1.4c4.39,1,7.64,4.81,6.67,8.94C76.15,38.7,73.6,40,70.51,40.5c-1.1.2-1.32,1-1.55,2h0a1.68,1.68,0,0,1-2,1.26l-1.55-.37a1.68,1.68,0,0,1-1.25-2l.36-1.55c.3-1.29.61-2.33,2.12-2.87,2.06-.72,3.74-.42,4.23-2.49a2.4,2.4,0,0,0-1.81-3,3.3,3.3,0,0,0-2.9.67,2.5,2.5,0,0,1-3.15,0Zm5.35,17.19a3.44,3.44,0,1,1-2.57-4.15A3.43,3.43,0,0,1,68.34,49.34Z" style="fill:#f8951d"/><path d="M281.44,37.54s-1.9,9-.79,14.05,4.74,4.42,5.29,4.26,1-1.64,1-1.64a2.53,2.53,0,0,0,2.28,1.25,8.13,8.13,0,0,0,3.25-1.1s5,1.17,7.9.54S303.73,53,303.73,53a3.54,3.54,0,0,0,3.7-.95c2-1.74-.8-8.74-1.86-11.52S281.44,37.54,281.44,37.54Z" style="fill:#005582"/><polygon points="291.08 184.56 291.71 191.82 297.55 190.95 297.55 184.32 291.08 184.56" style="fill:#f8a78c"/><polygon points="314.85 184.32 316.51 190.87 321.8 190.87 321.17 184.32 314.85 184.32" style="fill:#f8a78c"/><path d="M297.55,190.08s4.66,5.93,6.87,7.27,1.19,2.61.32,2.92-3.38.11-8.14,0c-.42,0-3.63-.32-5.31-.56a1,1,0,0,1-.84-1.15l1.2-7.43,5.05-.9Z" style="fill:#005582"/><path d="M316.11,189.31l-.73,9a.67.67,0,0,0,.6.73c2,.2,8.06.77,8.84.77.93,0,5.7,0,6.74-.6s.72-1.65,0-2.36a45.91,45.91,0,0,0-4.77-3l-5.16-4.82Z" style="fill:#005582"/><path d="M307.62,61.11s-3.89-4.24-13.21-4.24c-7.11,0-13.22,5-13.22,5l5.1,23.82-2.46,11h27.64l-2.64-12.49S311.66,67.75,307.62,61.11Z" style="fill:#ffd17b"/><path d="M303.86,35.13s1.65,9,1.71,11.59-2.43,5.27-5.15,6.7-8.38-1.13-9.64-3-3.7-11.61-3.7-11.61S298.87,29.36,303.86,35.13Z" style="fill:#f8a78c"/><path d="M299.36,52.71a18.4,18.4,0,0,0,1.21,5.82L292,57.22l-1.54-7.32Z" style="fill:#f8a78c"/><path d="M289.83,43.78s-1.93-2.5-3.54-1.24-.07,4.72,1.31,5.73,2.89-.43,2.89-.43Z" style="fill:#f8a78c"/><path d="M299.44,53.75a14,14,0,0,1-6.24-1.42s3.37,4.09,6.68,4.06Z" style="fill:#f08570"/><path d="M300.16,34.09s.45,3.18-4,5.28c-3.32,1.57-4.17,3.26-4.17,3.26s.87,3.19-1.67,4.11c0,0-1.56-5.14-3.59-4.45s0,6.67,3.11,6A8,8,0,0,1,291,52.58s-7.25-3.48-9.28-9.74,2.07-9,2.07-9,1-3.42,6.13-5.37,10.92-.76,13.72,1.48a5.31,5.31,0,0,1,2.09,5.18,4.84,4.84,0,0,1,1.83,3.94,4.34,4.34,0,0,1-2.52,3.31s-1.6-6.21-2.91-7.74S300.16,34.09,300.16,34.09Z" style="fill:#005582"/><path d="M300.4,41.55a5.55,5.55,0,0,0,1.09,2.84c.93,1-.52,1.79-.52,1.79" style="fill:none;stroke:#d76d5f;stroke-linecap:round;stroke-linejoin:round"/><path d="M303.73,38.73a1.67,1.67,0,0,0-2.33.09" style="fill:none;stroke:#005582;stroke-linecap:round;stroke-linejoin:round"/><path d="M297.41,39.92a7.71,7.71,0,0,1-2.52,1.24" style="fill:none;stroke:#005582;stroke-linecap:round;stroke-linejoin:round"/><path d="M287,43.9a3.59,3.59,0,0,1,2.28,2.56" style="fill:none;stroke:#d76d5f;stroke-linecap:round;stroke-linejoin:round"/><path d="M288.13,46.26a1.19,1.19,0,0,1,.28-1.22" style="fill:none;stroke:#d76d5f;stroke-linecap:round;stroke-linejoin:round"/><path d="M296.38,43.26c.12.5.44.85.72.78s.42-.52.3-1-.44-.85-.72-.78S296.26,42.76,296.38,43.26Z" style="fill:#005582"/><path d="M302.16,41.9c.12.5.44.85.72.78s.42-.52.3-1-.44-.85-.72-.78S302,41.4,302.16,41.9Z" style="fill:#005582"/><path d="M301.53,48.44a2.61,2.61,0,0,0-2.19.8" style="fill:none;stroke:#d76d5f;stroke-linecap:round;stroke-linejoin:round"/><path d="M325.56,58.13c-1.22-3.91-9-18.49-9-18.49A16.25,16.25,0,0,0,314,35.38a14.57,14.57,0,0,0-3.05-2.17,6.93,6.93,0,0,0-1.78-1.06,4.94,4.94,0,0,0-3.4,1.08c-.19.4.35.54,1.25.3l1.2-.32.69.85a4.79,4.79,0,0,0-1.41,1.29c-.13.44.47,1.09.47,1.09s.36,1.38.87,1.53l.5.15s1.11,2,2.45,2.09c0,0,.61,2.08,2,2.42.3,2.58,1.48,12.21,2.6,15.62l-4.87,1c.29,1.94,2.56,9.4,2.56,9.4C316.27,68.32,327.28,63.64,325.56,58.13Z" style="fill:#f8a78c"/><path d="M319.66,153.28s-1.46-40.1-8.19-56.54H283.83s-2.83,7.73-2.22,23.84c.5,13,3.72,27.27,5,32.39-.13,5.07-.1,19.21,3.71,31.92h8l-.47-29.95,2.32-37.43,7,33.54h0s1.09,20.63,7.49,33.85h7.11Z" style="fill:#005582"/><path d="M315.4,42.45a1.49,1.49,0,0,1-1.66.18" style="fill:none;stroke:#d76d5f;stroke-linecap:round;stroke-linejoin:round"/><path d="M286.58,97.55s-3.32,13.43-2.22,26.54a234,234,0,0,0,3.87,25.9" style="fill:none;stroke:#014461;stroke-linecap:round;stroke-linejoin:round"/><path d="M311.74,40.21a.64.64,0,0,0,.16-.84l-.56-.84" style="fill:none;stroke:#d76d5f;stroke-linecap:round;stroke-linejoin:round"/><path d="M310.7,37s-1.29.54-1.41,1.15" style="fill:none;stroke:#d76d5f;stroke-linecap:round;stroke-linejoin:round"/><path d="M309.75,35.48a2.94,2.94,0,0,0-1.83,1" style="fill:none;stroke:#d76d5f;stroke-linecap:round;stroke-linejoin:round"/><path d="M302.67,58.21l9.46.32,2.44,10.12s-3.87,2.26-7.14,2.18C302.55,70.71,302.67,58.21,302.67,58.21Z" style="fill:#ffd17b"/><path d="M292.56,100.27s.68.25,1.28.41,1.27.18,1-.47S293,98.74,291.34,99s-2.14.39-2.15.39l-2.88.32-8.64-12.15,3-7.91-7.75-5.53a87.56,87.56,0,0,0-4.48,12.82c-1.62,6.48,14.12,16.61,14.12,16.61a6.08,6.08,0,0,0,3,1.58,12.62,12.62,0,0,0,3.91.06h0l.14,0,.24,0h0l1.88-.31s.69.25,1.28.4,1.28.19,1-.46a3.4,3.4,0,0,0-2.86-1.26l1-.17s.68.25,1.28.41,1.27.19,1-.47-1.81-1.43-3.4-1.22l1.4-.23s.69.25,1.28.4,1.28.19,1-.46-1.87-1.47-3.49-1.22l-1.34.23v-.06Z" style="fill:#f8a78c"/><path d="M281.19,61.9a27.63,27.63,0,0,0-8.85,12.66l9.27,5.92s4.05-5.78,5.36-10.09S284,60.91,281.19,61.9Z" style="fill:#ffd17b"/><path d="M286.45,58.75a17.29,17.29,0,0,0,9.07,2c5.66-.16,7.15-2.54,7.15-2.54l-2.56-1-8.25-.79Z" style="fill:#f8a78c"/><path d="M284.34,76.11a26.25,26.25,0,0,0,2.11-8.18" style="fill:none;stroke:#d76d5f;stroke-linecap:round;stroke-linejoin:round"/><path d="M307.43,62.31s2.77,5.9,2.57,8.19" style="fill:none;stroke:#d76d5f;stroke-linecap:round;stroke-linejoin:round"/><line x1="306.63" y1="83.33" x2="300.4" y2="84.76" style="fill:none;stroke:#d76d5f;stroke-linecap:round;stroke-linejoin:round"/><polyline points="288.05 85.7 289.25 86.39 288.05 86.96" style="fill:none;stroke:#d76d5f;stroke-linecap:round;stroke-linejoin:round"/><path d="M287.21,60.76s6.48,2.21,11,1,5.51-2.7,5.51-2.7" style="fill:none;stroke:#d76d5f;stroke-linecap:round;stroke-linejoin:round"/><path d="M277.67,87.56A8.57,8.57,0,0,1,273.58,89" style="fill:none;stroke:#d76d5f;stroke-linecap:round;stroke-linejoin:round"/><path d="M316.34,58.25A28.94,28.94,0,0,0,321,59.76" style="fill:none;stroke:#d76d5f;stroke-linecap:round;stroke-linejoin:round"/><path d="M292.66,153.23a4.67,4.67,0,0,0,4.58,0" style="fill:none;stroke:#014461;stroke-linecap:round;stroke-linejoin:round"/><path d="M318.64,152.44s-3,.39-4.5-.95" style="fill:none;stroke:#014461;stroke-linecap:round;stroke-linejoin:round"/><line x1="307.23" y1="151.05" x2="309.87" y2="151.99" style="fill:none;stroke:#014461;stroke-linecap:round;stroke-linejoin:round"/><line x1="286.58" y1="152.97" x2="288.23" y2="154.49" style="fill:none;stroke:#014461;stroke-linecap:round;stroke-linejoin:round"/><path d="M300.19,117.51s.6-6.06,2.34-8.27a8.57,8.57,0,0,1,4.1-2.84" style="fill:none;stroke:#014461;stroke-linecap:round;stroke-linejoin:round"/><path d="M290.55,197.94s3.25.43,7.75.7a41.41,41.41,0,0,0,6.79,0" style="fill:none;stroke:#014461;stroke-linecap:round;stroke-linejoin:round"/><path d="M315.64,197.73s7.7.68,10.62.62a26.67,26.67,0,0,0,5.21-.62" style="fill:none;stroke:#014461;stroke-linecap:round;stroke-linejoin:round"/><path d="M292.66,184.89s-5.61-19.73-4.43-27.95" style="fill:none;stroke:#014461;stroke-linecap:round;stroke-linejoin:round"/><path d="M301.66,112s6.76,34.57,6.89,38" style="fill:none;stroke:#014461;stroke-linecap:round;stroke-linejoin:round"/><path d="M309.87,153.83s.79,21.89,6.52,31.06" style="fill:none;stroke:#014461;stroke-linecap:round;stroke-linejoin:round"/><path d="M283.83,33.86a24.42,24.42,0,0,1,3.93,0" style="fill:none;stroke:#014461;stroke-linecap:round;stroke-linejoin:round"/><path d="M299.84,32.91a4.62,4.62,0,0,1-.87,4.63c-1.89,2.28-5.92,2.1-7,5.09,0,0,.65,3.85-1.67,4.11" style="fill:none;stroke:#014461;stroke-linecap:round;stroke-linejoin:round"/><path d="M291,41.78a7.65,7.65,0,0,1,.55-2.75" style="fill:none;stroke:#014461;stroke-linecap:round;stroke-linejoin:round"/><line x1="304.54" y1="34.61" x2="305.77" y2="35.15" style="fill:none;stroke:#014461;stroke-linecap:round;stroke-linejoin:round"/><path d="M282.39,44.38a15.19,15.19,0,0,0,0,3.18" style="fill:none;stroke:#014461;stroke-linecap:round;stroke-linejoin:round"/><path d="M284.56,50.37a10.27,10.27,0,0,0,0,2" style="fill:none;stroke:#014461;stroke-linecap:round;stroke-linejoin:round"/><line x1="288.41" y1="50.99" x2="288.41" y2="52.14" style="fill:none;stroke:#014461;stroke-linecap:round;stroke-linejoin:round"/><path d="M300.4,29.55a7.2,7.2,0,0,1,2.68,1.54" style="fill:none;stroke:#014461;stroke-linecap:round;stroke-linejoin:round"/><line x1="305.57" y1="49.77" x2="305.68" y2="50.99" style="fill:none;stroke:#014461;stroke-linecap:round;stroke-linejoin:round"/><path d="M284.56,37a5.61,5.61,0,0,0-.28,2.41" style="fill:none;stroke:#014461;stroke-linecap:round;stroke-linejoin:round"/><path d="M294.89,32.55a3.69,3.69,0,0,1-.48,1.62" style="fill:none;stroke:#014461;stroke-linecap:round;stroke-linejoin:round"/><path d="M287.4,31.29a7.79,7.79,0,0,1,3.09-1.74" style="fill:none;stroke:#014461;stroke-linecap:round;stroke-linejoin:round"/><path d="M331,3.84h-21a4.39,4.39,0,0,0-4.39,4.39v16.1a4.38,4.38,0,0,0,4.39,4.39H317l-.7,3.05a1,1,0,0,0,1.5,1.05l6.27-4.1h7a4.38,4.38,0,0,0,4.39-4.39V8.23A4.39,4.39,0,0,0,331,3.84Z" style="fill:#f8951d"/><path d="M315.87,11.34a1.91,1.91,0,0,1-.67-2.88,6.1,6.1,0,0,1,5.14-2.25c3.45,0,6.51,2.32,6.48,5.56,0,2.25-1.72,3.62-3.94,4.54-.78.34-.81,1-.82,1.74h0a1.29,1.29,0,0,1-1.3,1.28l-1.22,0a1.28,1.28,0,0,1-1.27-1.3V16.79a2.47,2.47,0,0,1,1.1-2.49c1.42-.89,2.73-.94,2.74-2.57a1.83,1.83,0,0,0-1.84-1.91,2.53,2.53,0,0,0-2.06,1,1.93,1.93,0,0,1-2.35.53Zm6.88,11.94a2.64,2.64,0,1,1-2.62-2.67A2.62,2.62,0,0,1,322.75,23.28Z" style="fill:#fff"/></svg>